<svg width="24" height="24" viewBox="0 0 24 24" fill="currentColor" xmlns="http://www.w3.org/2000/svg">
  <g id="alert_info_italic_outline">
    <path fill-rule="evenodd" clip-rule="evenodd"
          d="M5.81282 18.1872C7.45376 19.8281 9.67936 20.75 12 20.75C14.3206 20.75 16.5462 19.8281 18.1872 18.1872C19.8281 16.5462 20.75 14.3206 20.75 12C20.75 9.67936 19.8281 7.45376 18.1872 5.81282C16.5462 4.17187 14.3206 3.25 12 3.25C9.67936 3.25 7.45376 4.17187 5.81282 5.81282C4.17187 7.45376 3.25 9.67936 3.25 12C3.25 14.3206 4.17187 16.5462 5.81282 18.1872ZM19.0711 19.0711C17.1957 20.9464 14.6522 22 12 22C9.34784 22 6.8043 20.9464 4.92893 19.0711C3.05357 17.1957 2 14.6522 2 12C2 9.34784 3.05357 6.8043 4.92893 4.92893C6.8043 3.05357 9.34784 2 12 2C14.6522 2 17.1957 3.05357 19.0711 4.92893C20.9464 6.8043 22 9.34784 22 12C22 14.6522 20.9464 17.1957 19.0711 19.0711ZM10.2999 10.5938L13.1624 10.235L11.9112 16.1163C11.8224 16.5413 11.9474 16.7825 12.2912 16.7825C12.5337 16.7825 12.8987 16.695 13.1487 16.475L13.0387 16.995C12.6799 17.4275 11.8887 17.7425 11.2074 17.7425C10.3287 17.7425 9.95494 17.215 10.1974 16.0938L11.1199 11.7587C11.1999 11.3925 11.1274 11.26 10.7599 11.1725L10.1974 11.0688L10.2999 10.5938ZM12.8838 8.50888C13.1182 8.27446 13.2499 7.95652 13.2499 7.625C13.2499 7.29348 13.1182 6.97554 12.8838 6.74112C12.6494 6.5067 12.3315 6.375 11.9999 6.375C11.6684 6.375 11.3505 6.5067 11.1161 6.74112C10.8816 6.97554 10.7499 7.29348 10.7499 7.625C10.7499 7.95652 10.8816 8.27446 11.1161 8.50888C11.3505 8.7433 11.6684 8.875 11.9999 8.875C12.3315 8.875 12.6494 8.7433 12.8838 8.50888Z"
    />
  </g>
</svg>
