<svg width="78" height="20" viewBox="0 0 78 20" fill="none" xmlns="http://www.w3.org/2000/svg">
  <path fill-rule="evenodd" clip-rule="evenodd" d="M17.0739 6.40645C17.0739 17.0908 8.53693 20 8.53693 20C8.53693 20 0 17.0908 0 6.40645V2.5605C0 2.13895 0.327344 1.80068 0.737824 1.76945C2.28621 1.69659 5.96494 1.38434 8.53693 0C11.1141 1.38434 14.7876 1.69659 16.3361 1.77465C16.7465 1.80068 17.0739 2.13895 17.0739 2.5605V6.40645ZM9.61766 6.12542C10.8855 6.24512 11.8831 6.64585 11.987 7.81162C12.065 8.66508 11.7065 9.17515 11.1349 9.46654C12.0753 9.69554 12.6573 10.2576 12.5326 11.5118C12.3767 13.0627 11.2129 13.4738 9.56053 13.5572L9.56575 15.1861H8.57334L8.57848 13.5727C8.32389 13.5675 8.06408 13.5623 7.7939 13.5572L7.78353 15.1861L6.80668 15.1808L6.80149 13.5415C6.57287 13.5415 5.01409 13.5467 5.01409 13.5467L5.02448 12.3602L6.12601 12.3549L6.13121 7.15066H4.8738V6.11502C4.8738 6.11502 6.64561 6.11502 6.85864 6.10981L6.85345 4.49128L7.84589 4.48608V6.08378C8.11085 6.07858 8.38618 6.07858 8.64599 6.07858H8.64607L8.64085 4.50169L9.62289 4.49648L9.61766 6.12542ZM8.0266 12.3686C8.82862 12.3859 10.5797 12.4236 10.5893 11.2985C10.5987 10.1521 8.90688 10.1795 8.07821 10.1928C7.9852 10.1944 7.9031 10.1957 7.83544 10.1952L7.84067 12.3653C7.89427 12.3658 7.95686 12.3671 8.0266 12.3686ZM8.02092 9.20954C8.68393 9.22608 10.1433 9.26246 10.1529 8.23838C10.1576 7.18755 8.72678 7.22045 8.04726 7.23606C7.97629 7.23769 7.91355 7.23914 7.86148 7.23914L7.86662 9.20638C7.91102 9.20677 7.96293 9.20808 8.02092 9.20954Z" fill="#CBD2DC"/>
  <path d="M34.0492 13.2553C34.0492 14.1089 33.8829 14.8219 33.5452 15.3996C33.2075 15.9772 32.7607 16.4456 32.2046 16.7942C31.6487 17.1482 31.0148 17.3979 30.303 17.5541C29.5911 17.7102 28.8637 17.7831 28.1155 17.7831H21.9219V2.21191H28.1155C28.7182 2.21191 29.3313 2.27437 29.96 2.39927C30.5888 2.52417 31.1603 2.73754 31.6747 3.03939C32.189 3.34124 32.6048 3.74717 32.9269 4.26239C33.249 4.77761 33.4102 5.42815 33.4102 6.2192C33.4102 7.08311 33.1763 7.80133 32.7087 8.36333C32.241 8.93064 31.6227 9.33656 30.8641 9.58633V9.62802C31.3058 9.70087 31.7163 9.83617 32.1059 10.0339C32.4956 10.2317 32.8334 10.4867 33.1139 10.7937C33.3997 11.1008 33.6284 11.4599 33.7946 11.871C33.9661 12.2822 34.0492 12.7453 34.0492 13.2553ZM29.7886 6.72401C29.7886 6.19838 29.5859 5.81327 29.1859 5.56867C28.7805 5.32407 28.1882 5.20437 27.3932 5.20437H25.5487V8.41541H27.5699C28.2713 8.41541 28.8169 8.27487 29.2066 7.98864C29.5963 7.70241 29.7886 7.28087 29.7886 6.72401ZM30.2925 12.9067C30.2925 12.2613 30.0535 11.8138 29.5651 11.5639C29.0819 11.3142 28.4376 11.1893 27.6323 11.1893H25.5435V14.7542H27.653C27.944 14.7542 28.2506 14.7282 28.5623 14.6761C28.8793 14.6241 29.165 14.5356 29.4196 14.4003C29.6742 14.2702 29.882 14.0829 30.0432 13.8383C30.2146 13.5989 30.2925 13.2866 30.2925 12.9067Z" fill="#CBD2DC"/>
  <path d="M39.0424 3.33602C39.0424 3.61705 38.9852 3.87727 38.8761 4.11666C38.767 4.36126 38.6215 4.56943 38.4344 4.74118C38.2526 4.91812 38.0292 5.05864 37.7746 5.15751C37.52 5.2616 37.2498 5.31364 36.9744 5.31364C36.3873 5.31364 35.8988 5.12108 35.5039 4.73077C35.1091 4.34044 34.9116 3.87727 34.9116 3.33602C34.9116 3.07061 34.9635 2.8208 35.0674 2.5762C35.1714 2.3316 35.3169 2.12343 35.5091 1.95168C35.7014 1.77474 35.9196 1.63422 36.169 1.52494C36.4184 1.41564 36.6886 1.3584 36.9796 1.3584C37.2602 1.3584 37.5251 1.41044 37.7798 1.51453C38.0344 1.61861 38.2578 1.75392 38.4397 1.93087C38.6215 2.10781 38.767 2.31598 38.8813 2.55538C38.9904 2.79478 39.0424 3.05499 39.0424 3.33602ZM35.1766 17.7882V6.83329H38.7773V17.7882H35.1766Z" fill="#CBD2DC"/>
  <path d="M45.3085 9.51877V13.7134C45.3085 14.2286 45.4072 14.6138 45.6047 14.8739C45.8021 15.1342 46.1555 15.2591 46.6699 15.2591C46.8465 15.2591 47.0336 15.2435 47.2311 15.2175C47.4284 15.1862 47.5947 15.1445 47.7247 15.0873L47.7662 17.7259C47.5168 17.8144 47.205 17.8924 46.8206 17.9549C46.4412 18.0225 46.0567 18.0538 45.6775 18.0538C44.9448 18.0538 44.3317 17.9601 43.8329 17.7779C43.3341 17.5958 42.9339 17.3304 42.6378 16.9817C42.3364 16.6382 42.1234 16.2218 41.9883 15.7482C41.8584 15.2695 41.7909 14.7386 41.7909 14.1505V9.51877H40.0347V6.83336H41.7701V3.9502H45.3085V6.83336H47.8805V9.51877H45.3085Z" fill="#CBD2DC"/>
  <path d="M60.917 17.809C59.8986 18.0588 58.7919 18.1837 57.5864 18.1837C56.3394 18.1837 55.1963 17.9859 54.1467 17.5904C53.0971 17.1949 52.1982 16.6381 51.4448 15.9199C50.6914 15.2017 50.0991 14.3378 49.6782 13.3333C49.2521 12.3289 49.0391 11.21 49.0391 9.97663C49.0391 8.72755 49.2573 7.59825 49.6886 6.58861C50.1199 5.57898 50.7174 4.71508 51.4812 4.00209C52.2398 3.28911 53.1335 2.74266 54.1623 2.36275C55.1859 1.98284 56.2926 1.79028 57.4773 1.79028C58.7087 1.79028 59.8518 1.97764 60.9067 2.35234C61.9614 2.72705 62.8188 3.22666 63.4786 3.86158L61.104 6.5678C60.7352 6.14105 60.2519 5.79236 59.6544 5.52174C59.0517 5.25112 58.371 5.11581 57.6124 5.11581C56.9525 5.11581 56.3446 5.23551 55.7886 5.48011C55.2327 5.7195 54.7494 6.05778 54.339 6.48974C53.9285 6.92169 53.6115 7.43691 53.3829 8.03017C53.1543 8.62348 53.04 9.27401 53.04 9.97663C53.04 10.6948 53.1439 11.3557 53.3465 11.9594C53.5491 12.5631 53.8557 13.0783 54.2559 13.5103C54.6559 13.9422 55.1547 14.2806 55.7471 14.5199C56.3394 14.7646 57.0149 14.8842 57.7787 14.8842C58.2204 14.8842 58.636 14.853 59.0309 14.7853C59.4258 14.7177 59.7947 14.6136 60.1272 14.4679V11.6316H57.1604V8.59748H63.5773V16.8462C62.8239 17.2366 61.9354 17.5592 60.917 17.809Z" fill="#CBD2DC"/>
  <path d="M77.1287 12.2666C77.1287 13.1618 76.9674 13.9736 76.6453 14.697C76.3232 15.4256 75.8815 16.0397 75.3256 16.5446C74.7696 17.0493 74.1253 17.4449 73.3927 17.7207C72.6601 18.0017 71.8755 18.137 71.0441 18.137C70.2231 18.137 69.4438 17.9966 68.706 17.7207C67.9681 17.4397 67.3238 17.0493 66.7731 16.5446C66.2222 16.0397 65.7858 15.4204 65.4637 14.697C65.1415 13.9684 64.9805 13.1618 64.9805 12.2666C64.9805 11.3715 65.1415 10.5649 65.4637 9.84664C65.7858 9.12848 66.2222 8.51956 66.7731 8.01995C67.3238 7.52035 67.9681 7.14044 68.706 6.87502C69.4438 6.6096 70.2231 6.47949 71.0441 6.47949C71.8806 6.47949 72.6601 6.6096 73.3927 6.87502C74.1253 7.14044 74.7696 7.52035 75.3256 8.01995C75.8815 8.51956 76.3232 9.12848 76.6453 9.84664C76.9674 10.5649 77.1287 11.3715 77.1287 12.2666ZM73.6576 12.2666C73.6576 11.9127 73.6005 11.5693 73.481 11.231C73.3615 10.8927 73.1952 10.5961 72.977 10.341C72.7588 10.086 72.4886 9.87787 72.1664 9.71656C71.8443 9.55518 71.4701 9.47718 71.0441 9.47718C70.6181 9.47718 70.244 9.56041 69.9218 9.71656C69.5997 9.87787 69.3346 10.086 69.1216 10.341C68.9086 10.5961 68.7475 10.8927 68.6384 11.231C68.5293 11.5693 68.4721 11.9127 68.4721 12.2666C68.4721 12.6206 68.5293 12.964 68.6384 13.3023C68.7475 13.6406 68.9138 13.9424 69.132 14.213C69.3502 14.4836 69.6204 14.7023 69.9426 14.8636C70.2647 15.0249 70.6389 15.1082 71.0649 15.1082C71.491 15.1082 71.865 15.0301 72.1872 14.8636C72.5094 14.7023 72.7796 14.4836 72.9978 14.213C73.216 13.9424 73.3823 13.6353 73.4914 13.3023C73.6057 12.964 73.6576 12.6206 73.6576 12.2666Z" fill="#CBD2DC"/>
</svg>
