<svg width="55" height="20" viewBox="0 0 55 20" fill="none" xmlns="http://www.w3.org/2000/svg">
  <path d="M49.4588 7.01236L46.6498 6.37038L46.1482 6.17285L33.2568 6.27162V12.3951L49.4588 12.4445V7.01236Z"
        fill="#CBD2DC" />
  <path
    d="M44.1915 11.8517C44.342 11.3578 44.2918 10.864 44.041 10.5677C43.7902 10.2714 43.4391 10.0739 42.9876 10.0245L34.2596 9.92574C34.2095 9.92574 34.1593 9.87635 34.1092 9.87635C34.059 9.82697 34.059 9.77759 34.1092 9.72821C34.1593 9.62944 34.2095 9.58006 34.3098 9.58006L43.088 9.48129C44.1413 9.43191 45.2449 8.5924 45.6462 7.60475L46.1478 6.3208C46.1478 6.27142 46.1979 6.22203 46.1478 6.17265C45.596 3.65413 43.2886 1.77759 40.5799 1.77759C38.0719 1.77759 35.915 3.35783 35.1625 5.58006C34.6609 5.23438 34.059 5.03685 33.3567 5.08623C32.1529 5.185 31.1998 6.17265 31.0493 7.35783C30.9992 7.65413 31.0493 7.95043 31.0995 8.24672C29.1432 8.29611 27.5381 9.87635 27.5381 11.8517C27.5381 12.0492 27.5381 12.1973 27.5882 12.3949C27.5882 12.4936 27.6886 12.543 27.7387 12.543H43.8404C43.9407 12.543 44.041 12.4936 44.041 12.3949L44.1915 11.8517Z"
    fill="#F48120" />
  <path
    d="M46.9506 6.32104H46.6998C46.6496 6.32104 46.5995 6.37043 46.5493 6.41981L46.1982 7.605C46.0477 8.09882 46.0979 8.59265 46.3487 8.88895C46.5995 9.18524 46.9506 9.38277 47.4021 9.43216L49.258 9.53092C49.3082 9.53092 49.3583 9.5803 49.4085 9.5803C49.4587 9.62969 49.4587 9.67907 49.4085 9.72845C49.3583 9.82722 49.3082 9.8766 49.2079 9.8766L47.3017 9.97537C46.2484 10.0247 45.1448 10.8643 44.7435 11.8519L44.6432 12.2964C44.5931 12.3457 44.6432 12.4445 44.7435 12.4445H51.3648C51.4651 12.4445 51.5152 12.3951 51.5152 12.2964C51.6156 11.9013 51.7159 11.4568 51.7159 11.0124C51.7159 8.4445 49.559 6.32104 46.9506 6.32104Z"
    fill="#FAAD3F" />
  <path
    d="M52.3677 15.2098C52.1169 15.2098 51.9163 15.0123 51.9163 14.7654C51.9163 14.5185 52.1169 14.3209 52.3677 14.3209C52.6185 14.3209 52.8192 14.5185 52.8192 14.7654C52.8192 15.0123 52.6185 15.2098 52.3677 15.2098ZM52.3677 14.4197C52.1671 14.4197 52.0166 14.5678 52.0166 14.7654C52.0166 14.9629 52.1671 15.1111 52.3677 15.1111C52.5684 15.1111 52.7189 14.9629 52.7189 14.7654C52.7189 14.5678 52.5684 14.4197 52.3677 14.4197ZM52.5684 15.0123H52.4681L52.3677 14.8641H52.2674V15.0123H52.1671V14.5678H52.4179C52.5182 14.5678 52.5684 14.6172 52.5684 14.716C52.5684 14.7654 52.5182 14.8148 52.4681 14.8641L52.5684 15.0123ZM52.4179 14.7654C52.4681 14.7654 52.4681 14.7654 52.4681 14.716C52.4681 14.6666 52.4179 14.6666 52.4179 14.6666H52.2674V14.8148H52.4179V14.7654ZM7.42359 14.3209H8.52713V17.2839H10.4332V18.2222H7.42359V14.3209ZM11.5869 16.2469C11.5869 15.1111 12.4898 14.2222 13.7439 14.2222C14.9979 14.2222 15.8506 15.1111 15.8506 16.2469C15.8506 17.3827 14.9477 18.2716 13.6937 18.2716C12.4898 18.2716 11.5869 17.3827 11.5869 16.2469ZM14.7471 16.2469C14.7471 15.6543 14.3458 15.1604 13.7439 15.1604C13.1419 15.1604 12.7406 15.6543 12.7406 16.1975C12.7406 16.7407 13.1419 17.2345 13.7439 17.2345C14.3458 17.3333 14.7471 16.8395 14.7471 16.2469ZM17.205 16.4938V14.3209H18.3085V16.4938C18.3085 17.037 18.6095 17.3333 19.0609 17.3333C19.5124 17.3333 19.8133 17.0864 19.8133 16.5432V14.3209H20.9169V16.4938C20.9169 17.7777 20.1645 18.3209 19.0609 18.3209C17.9072 18.2715 17.205 17.7283 17.205 16.4938ZM22.5722 14.3209H24.1272C25.5317 14.3209 26.3844 15.1111 26.3844 16.2469C26.3844 17.3827 25.5317 18.2222 24.1272 18.2222H22.6223V14.3209H22.5722ZM24.1272 17.2345C24.7793 17.2345 25.2307 16.8888 25.2307 16.2469C25.2307 15.6049 24.7793 15.2592 24.1272 15.2592H23.6757V17.2345H24.1272ZM27.9394 14.3209H31.0995V15.2592H29.0429V15.9012H30.8989V16.7901H29.0429V18.2222H27.9394V14.3209ZM32.6545 14.3209H33.7581V17.2839H35.6642V18.2222H32.6545V14.3209ZM38.5233 14.2716H39.6269L41.3323 18.2222H40.1285L39.8275 17.5308H38.2725L37.9716 18.2222H36.8179L38.5233 14.2716ZM39.5266 16.6913L39.0751 15.6049L38.6237 16.6913H39.5266ZM42.7369 14.3209H44.5928C45.1947 14.3209 45.596 14.4691 45.897 14.7654C46.1478 15.0123 46.2481 15.3086 46.2481 15.6543C46.2481 16.2469 45.9471 16.6419 45.4455 16.8395L46.3986 18.2222H45.1446L44.342 17.037H43.8404V18.2222H42.7369V14.3209ZM44.5426 16.1975C44.8938 16.1975 45.1446 15.9999 45.1446 15.753C45.1446 15.4567 44.8938 15.3086 44.5426 15.3086H43.8404V16.2469H44.5426V16.1975ZM47.8031 14.3209H51.0134V15.2098H48.9066V15.8024H50.8128V16.6913H48.9066V17.2839H51.0636V18.2222H47.8031V14.3209ZM5.01587 16.7407C4.86539 17.0864 4.51426 17.3333 4.11297 17.3333C3.51104 17.3333 3.10975 16.8395 3.10975 16.2962C3.10975 15.753 3.51104 15.2592 4.11297 15.2592C4.56442 15.2592 4.91555 15.5555 5.06603 15.9012H6.21973C6.01909 14.9629 5.21651 14.2716 4.11297 14.2716C2.90911 14.2716 1.95605 15.1604 1.95605 16.2962C1.95605 17.432 2.85895 18.3209 4.06281 18.3209C5.11619 18.3209 5.91876 17.6296 6.16957 16.7407H5.01587Z"
    fill="#CBD2DC" />
</svg>
