<svg width="64" height="64" viewBox="0 0 64 64" fill="none" xmlns="http://www.w3.org/2000/svg">
  <g id="crypto/1inch">
    <circle id="Ellipse 347" cx="32" cy="32" r="32" fill="#112B4A" />
    <g id="Group 3396">
      <path id="Vector"
            d="M17.0885 36.2524L18.3735 26.5671L7.21002 18.8109L17.4097 22.267L19.8191 18.5698L28.6133 13.1042L48.0088 23.7941L49.0127 40.1104L40.3791 52.1265L33.5526 53.1714L37.0863 46.7012V40.472L34.5163 35.6094L31.9062 33.8813L27.8905 38.0206V42.401L24.7584 45.3347L20.7829 45.817L19.016 46.8218L16.1248 45.8974L14.92 41.5571L17.0885 38.5029V36.2524Z"
            fill="white" />
      <path id="Vector_2"
            d="M34.9179 18.7301C32.7896 18.2881 30.4605 18.4086 30.4605 18.4086C30.4605 18.4086 29.6975 21.9451 24.9591 22.8694C24.9992 22.8694 31.2235 24.9994 34.9179 18.7301Z"
            fill="#94A6C3" />
      <path id="Vector_3"
            d="M36.8455 50.8003C39.4155 48.7909 41.343 46.018 42.2265 42.8833C42.2667 42.7627 42.6281 42.5618 42.869 42.401C43.2705 42.1599 43.6721 41.959 43.7524 41.6375C43.9131 40.7131 43.9934 39.7486 43.9934 38.7841C43.9934 38.4225 43.6319 38.0608 43.2705 37.6991C42.9895 37.458 42.7084 37.1766 42.7084 36.9757C42.3068 33.3186 40.6203 29.9027 37.9298 27.411L37.6487 27.6923C40.2589 30.1438 41.9455 33.4794 42.3068 37.0159C42.347 37.3374 42.6682 37.6589 42.9895 37.9804C43.2705 38.2215 43.5918 38.5832 43.5918 38.744C43.5918 39.6683 43.5115 40.5926 43.3509 41.5169C43.3107 41.6776 42.9493 41.8384 42.6682 41.9991C42.2667 42.2001 41.9053 42.401 41.825 42.7225C40.8612 46.1386 38.6526 49.1124 35.7212 51.0414C36.2432 49.9162 37.8897 46.2591 38.7731 44.4105L38.6124 38.4626L33.5126 33.5196L30.6213 33.9215L27.449 39.0655C27.449 39.0655 28.9348 40.9543 26.8467 43.1646C24.7987 45.3348 23.1924 45.8171 23.1924 45.8171L21.7066 45.0133C22.1483 44.4507 23.0318 43.6067 23.7144 43.044C24.879 42.0795 26.0435 41.9991 26.0435 40.9543C26.0837 38.7841 23.7546 39.387 23.7546 39.387L22.9114 40.1907L22.55 43.1646L20.7831 45.375L20.5823 45.3348L17.691 44.6918C17.691 44.6918 19.4579 43.7675 19.739 42.7225C20.0201 41.7178 19.1768 38.3823 19.1366 38.1813C19.1768 38.2215 19.9799 38.9047 20.3414 40.03C20.9838 38.2617 21.8271 36.5738 22.068 36.4131C22.309 36.2523 25.5616 34.5243 25.5616 34.5243L24.4775 37.3776L25.2806 36.9355L27.2081 32.1934C27.2081 32.1934 29.0954 31.2691 30.5008 31.2691C33.0307 31.2289 36.7652 28.1344 35.0786 22.5885C35.5606 22.7894 43.9131 26.9689 45.3587 35.1673C46.4429 41.4767 42.869 47.3844 36.8455 50.8003Z"
            fill="#94A6C3" />
      <path id="Vector_4"
            d="M27.2888 19.6144C28.2123 18.5294 27.8509 16.9219 27.8509 16.9219L25.1605 20.9004C25.1203 20.9004 26.1242 20.9406 27.2888 19.6144Z"
            fill="#050F18" />
      <path id="Vector_5"
            d="M18.2533 41.3563L18.5746 39.7488C18.5746 39.7488 17.2494 42.0796 17.129 42.4011C17.0085 42.7628 17.2093 43.4058 17.7313 43.3656C18.2533 43.3254 18.8959 42.5619 18.8959 41.9993C18.8959 41.2759 18.2533 41.3563 18.2533 41.3563Z"
            fill="#050F18" />
      <path id="Vector_6"
            d="M42.1059 15.7966C42.1059 15.7966 44.1137 15.877 46.2019 16.1181C41.5035 12.4208 37.0462 11.3358 33.4322 11.3358C28.4527 11.3358 25.0796 13.3853 24.8789 13.5059L26.445 11.0143C26.445 11.0143 20.1806 10.4115 17.972 17.0424C17.4097 15.6359 16.8877 13.5863 16.8877 13.5863C16.8877 13.5863 13.6351 16.4396 15.161 21.1818C11.4265 19.8154 6.08572 17.9266 5.88494 17.8864C5.60384 17.8462 5.52353 17.9668 5.52353 17.9668C5.52353 17.9668 5.44322 18.0874 5.68416 18.2883C6.12587 18.65 14.5587 24.879 16.4059 26.0847C16.0043 27.5314 16.0043 28.2146 16.4059 28.8978C16.968 29.8222 17.0082 30.3044 16.9279 30.9876C16.8476 31.6708 16.1248 37.5784 15.9642 38.3018C15.8036 39.0251 14.117 41.5971 14.1973 42.3607C14.2776 43.1243 15.3216 46.3795 16.2453 46.7412C16.9279 46.9824 18.6145 47.5048 19.7388 47.5048C20.1404 47.5048 20.5018 47.4244 20.6625 47.2637C21.3451 46.6609 21.5458 46.5403 22.0278 46.5403C22.068 46.5403 22.1081 46.5403 22.1483 46.5403C22.349 46.5403 22.59 46.5805 22.871 46.5805C23.5135 46.5805 24.3569 46.4599 24.9592 45.8973C25.8426 45.0132 27.3685 43.8075 27.8504 43.2448C28.4527 42.4813 28.774 41.4364 28.6134 40.3915C28.4929 39.427 29.015 38.5831 29.6173 37.7391C30.3802 36.7344 31.7857 34.926 31.7857 34.926C34.5565 37.0158 36.2832 40.1906 36.2832 43.7271C36.2832 49.9964 30.822 55.06 24.0757 55.06C23.0317 55.06 22.0278 54.9395 21.0238 54.6984C24.1159 55.7834 26.7261 56.1451 28.8544 56.1451C33.392 56.1451 35.8014 54.4974 35.8014 54.4974C35.8014 54.4974 34.9581 55.5825 33.5928 56.8283C33.6329 56.8283 33.6329 56.8283 33.6329 56.8283C41.1421 55.7834 44.7964 49.5945 44.7964 49.5945C44.7964 49.5945 44.5153 51.6039 44.1539 52.9703C54.1527 45.4552 52.4663 36.0513 52.4261 35.7298C52.5064 35.8503 53.5103 37.0559 54.0323 37.6989C55.6385 21.1416 42.1059 15.7966 42.1059 15.7966ZM26.7261 42.2401C26.5655 42.4411 25.8827 43.0439 25.4009 43.486C24.919 43.9281 24.397 44.3702 23.9954 44.772C23.8348 44.9328 23.5135 45.0132 23.0317 45.0132C22.871 45.0132 22.7104 45.0132 22.59 45.0132C22.5097 45.0132 22.4293 45.0132 22.349 45.0132C22.2687 45.0132 22.2286 45.0132 22.1884 45.0132C22.068 45.0132 21.9474 45.0132 21.8269 45.0132C22.4293 44.2094 24.1962 42.3607 24.7986 41.9588C25.5213 41.4766 25.8827 40.9943 25.441 40.1504C24.9993 39.3064 23.8348 39.5074 23.8348 39.5074C23.8348 39.5074 24.5175 39.2261 25.1198 39.2261C24.3569 39.0251 23.3931 39.2261 22.9514 39.6681C22.4695 40.1102 22.5498 41.6775 22.349 42.6822C22.1483 43.7271 21.4655 44.2496 20.4215 45.2141C19.8594 45.7365 19.4577 45.8973 19.1365 45.8973C18.4539 45.7767 17.6508 45.5758 17.0885 45.3749C16.687 44.8524 16.0846 43.1243 15.924 42.4009C16.0445 41.999 16.5263 41.1551 16.7673 40.6728C17.2491 39.7485 17.5302 39.2261 17.6106 38.7438C17.7712 38.0606 18.2932 33.8409 18.494 32.0727C19.016 32.7559 19.7388 33.8811 19.5782 34.6045C20.7428 32.9568 19.8995 31.3493 19.4979 30.7063C19.1365 30.0633 18.6546 28.7772 19.0562 27.4108C19.4577 26.0445 20.9034 22.2668 20.9034 22.2668C20.9034 22.2668 21.3852 23.1108 22.068 22.95C22.7506 22.7893 28.2519 14.5106 28.2519 14.5106C28.2519 14.5106 29.7378 17.7658 28.1716 20.1369C26.5655 22.508 24.9993 22.95 24.9993 22.95C24.9993 22.95 27.2079 23.3519 29.2559 21.865C30.0991 23.8342 30.9023 25.8837 30.9425 26.165C30.822 26.4463 29.2157 30.3044 29.0551 30.5456C28.9748 30.6259 28.4126 30.7867 28.011 30.8671C27.3284 31.068 26.9268 31.1886 26.7662 31.3091C26.4851 31.5503 25.2001 35.0868 24.5978 36.8148C23.8749 37.0158 23.1521 37.4176 22.6301 38.2214C22.9112 38.0204 23.7946 37.8999 24.4372 37.8195C24.9993 37.7793 26.7261 38.7036 27.1678 40.4317C27.1678 40.4719 27.1678 40.4719 27.1678 40.5121C27.2481 41.1551 27.0473 41.7579 26.7261 42.2401ZM22.9514 42.7224C23.3127 42.1999 23.2726 41.3158 23.3127 41.0345C23.3529 40.7532 23.4332 40.2308 23.7544 40.1504C24.0757 40.07 24.8387 40.1906 24.8387 40.7532C24.8387 41.2756 24.2766 41.3962 23.8749 41.7579C23.5938 42.0392 23.0317 42.642 22.9514 42.7224ZM38.9737 35.0466C39.3753 32.997 39.4155 31.2288 39.2949 29.782C40.861 31.8718 41.8248 34.4036 42.1059 37.0158C42.1461 37.3373 42.4673 37.6588 42.7885 37.9803C43.0696 38.2214 43.3909 38.5429 43.3909 38.7438C43.3909 39.6681 43.3105 40.5924 43.1499 41.5168C43.1098 41.6373 42.7484 41.8383 42.4673 41.999C42.0658 42.1999 41.7044 42.4009 41.6241 42.7224C40.7406 45.8169 38.8532 48.5497 36.3234 50.4787C40.0579 46.5805 41.865 40.1504 38.9737 35.0466ZM36.4438 50.8404C39.054 48.831 41.0618 46.0179 41.9453 42.8429C41.9854 42.7224 42.3468 42.5214 42.5878 42.3607C42.9893 42.1598 43.3909 41.9186 43.4712 41.5971C43.6319 40.6728 43.7122 39.7083 43.7122 38.7438C43.7122 38.3821 43.3507 38.0204 42.9893 37.6588C42.7885 37.4176 42.4673 37.1363 42.4673 36.9354C42.1461 34.0017 40.9815 31.2288 39.1744 28.938C38.3714 24.1155 35.1589 22.6285 35.0786 22.5883C35.1589 22.7089 37.247 25.723 35.8014 29.2595C34.3156 32.8363 30.5007 32.2736 30.1795 32.3138C29.8582 32.3138 28.6134 33.9213 27.0473 36.8952C26.8465 36.8148 26.0032 36.6139 25.0395 36.7746C25.7623 34.7653 26.8465 31.9119 27.0473 31.6708C27.1276 31.5904 27.7299 31.4297 28.1315 31.3091C28.8945 31.1082 29.2559 30.9876 29.3764 30.8269C29.4567 30.7063 29.8582 29.782 30.2598 28.8174C30.6212 28.8174 31.5448 28.737 31.6251 28.6968C31.7054 28.6165 32.4683 26.6473 32.4683 26.4062C32.4683 26.2052 30.9023 22.307 30.2999 20.8201C30.581 20.4986 30.8622 20.0967 31.1433 19.6547C39.3753 20.5388 45.8002 27.5314 45.8002 36.0111C45.8002 42.5214 41.9854 48.188 36.4438 50.8404Z"
            fill="#0A192B" />
      <path id="Vector_7"
            d="M25.7628 29.139C26.5258 28.2549 26.1243 26.6072 24.7188 26.3259C25.0801 25.4819 25.6022 23.7941 25.6022 23.7941C25.6022 23.7941 21.5062 30.2242 21.1448 30.3447C20.7834 30.4653 20.422 29.0586 20.422 29.0586C19.6591 31.9924 21.707 32.3943 21.948 31.47C23.0723 31.1887 24.9998 29.983 25.7628 29.139Z"
            fill="#050F18" />
      <path id="Vector_8"
            d="M22.2686 30.7063L24.3567 27.1297C24.3567 27.1297 25.5613 27.7325 24.959 28.697C24.196 29.8222 22.2686 30.7063 22.2686 30.7063Z"
            fill="#FFD923" />
      <path id="Vector_9"
            d="M48.089 47.2638C47.4867 48.0677 46.8039 48.9116 46.0008 49.7154C51.181 39.7488 46.2418 30.6261 46.041 30.2644C46.4024 30.6261 46.7638 31.028 47.085 31.3896C51.0605 35.8104 51.5424 42.4413 48.089 47.2638Z"
            fill="#D82122" />
      <path id="Vector_10"
            d="M52.9081 34.4438C51.1011 29.581 48.5311 25.4417 42.869 21.7042C37.4078 18.0873 31.545 18.3686 31.2237 18.4088C31.1836 18.4088 31.1434 18.4088 31.1434 18.4088C31.3442 18.3284 31.545 18.2882 31.7457 18.248C32.9906 17.8461 34.5968 17.5247 36.2031 17.3237C40.4596 16.7209 44.7564 18.1676 47.6877 21.2622C47.7279 21.3024 47.7279 21.3024 47.768 21.3426C51.1011 24.8791 52.8278 29.2997 52.9081 34.4438Z"
            fill="#D82122" />
      <path id="Vector_11"
            d="M41.5841 14.5509C35.6008 13.4257 31.7457 13.9883 28.975 15.0332C28.8947 14.7117 28.6136 14.0687 28.3727 13.5462C27.5294 14.5509 26.6459 15.7566 26.0838 16.5201C24.5578 17.565 23.9153 18.5697 23.9153 18.5697C24.7987 15.5556 27.3687 13.3051 30.5009 12.7425C31.3843 12.5817 32.3481 12.5014 33.3922 12.5014C36.1629 12.5415 38.9338 13.2247 41.5841 14.5509Z"
            fill="#D82122" />
      <path id="Vector_12"
            d="M19.4576 22.2669C14.7593 22.1061 16.3254 16.6406 16.4058 16.3191C16.4058 16.3593 16.727 20.6192 19.4576 22.2669Z"
            fill="#D82122" />
      <path id="Vector_13"
            d="M24.0757 12.4209C20.4616 14.5911 21.1845 19.7753 21.1845 19.7753C17.731 14.5107 23.7947 12.5415 24.0757 12.4209Z"
            fill="#D82122" />
      <path id="Vector_14"
            d="M18.1328 23.7137C18.3737 23.9147 18.6147 24.2763 18.3336 24.7988C18.1729 25.0801 17.932 25.0399 17.5706 24.8792C17.0888 24.638 14.1975 22.9501 11.5873 21.222C14.5589 22.2669 17.5706 23.3922 18.0525 23.6333C18.0525 23.6333 18.0926 23.6735 18.1328 23.7137Z"
            fill="white" />
    </g>
  </g>
</svg>
