<svg width="64" height="64" viewBox="0 0 64 64" fill="none" xmlns="http://www.w3.org/2000/svg">
<g id="crypto/dot">
<g id="crypto/dot_2">
<path id="Ellipse 333" d="M63.75 31.875C63.75 49.4791 49.4791 63.75 31.875 63.75C14.2709 63.75 0 49.4791 0 31.875C0 14.2709 14.2709 0 31.875 0C49.4791 0 63.75 14.2709 63.75 31.875Z" fill="#E6007A"/>
<g id="Group 2957">
<path id="Union" fill-rule="evenodd" clip-rule="evenodd" d="M19.7588 26.8734C19.7588 19.2027 25.9982 13 33.6322 13C41.2663 13 47.5057 19.2027 47.5057 26.8734C47.5057 34.1772 41.8535 40.1596 34.6966 40.7102C34.6966 40.7102 32.9716 40.8203 32.5312 40.8937C30.5492 41.1506 28.8609 42.6554 28.4205 44.7107C28.4205 44.7107 27.8333 47.39 27.7966 47.6102C27.5764 48.6378 26.5487 49.2985 25.521 49.0783C24.4934 48.8581 23.8327 47.8304 24.0529 46.8027C24.0896 46.5825 28.4205 26.3963 28.4205 26.3963C28.6407 25.3686 29.6684 24.708 30.696 24.9282C31.7237 25.1484 32.3843 26.1761 32.1641 27.2038L30.3657 35.4985L30.0354 37.1133C29.9987 37.2235 30.1088 37.3336 30.2189 37.2969C30.3409 37.2794 30.4877 37.2537 30.6594 37.2237C30.8492 37.1905 31.0694 37.1519 31.32 37.1133C32.2742 36.9665 34.2195 36.8564 34.2195 36.8564C39.4679 36.5628 43.6519 32.1953 43.6519 26.8734C43.6519 21.1846 38.8806 16.5968 33.1184 16.8904C27.9434 17.1473 23.7593 21.4048 23.6125 26.5798C23.5758 27.791 23.7593 29.0022 24.1631 30.1399C24.4934 31.1676 23.9428 32.2687 22.9519 32.599C21.9242 32.9293 20.8232 32.3788 20.4928 31.3878C20.0157 29.9197 19.7588 28.4149 19.7588 26.8734ZM31.8705 46.7294C32.1274 45.4448 33.3753 44.6741 34.6232 44.931C35.9078 45.1879 36.6785 46.3991 36.4216 47.6837C36.1647 48.9683 34.9168 49.739 33.6689 49.4821C32.3843 49.2252 31.6136 47.9773 31.8705 46.7294Z" fill="#FEFEFE"/>
</g>
</g>
</g>
</svg>
