<svg width="64" height="64" viewBox="0 0 64 64" fill="none" xmlns="http://www.w3.org/2000/svg">
<g id="crypto/usdt">
<g id="crypto/usdt_2">
<path id="Vector" d="M32 64C49.6731 64 64 49.6731 64 32C64 14.3269 49.6731 0 32 0C14.3269 0 0 14.3269 0 32C0 49.6731 14.3269 64 32 64Z" fill="#26A17B"/>
<path id="Vector_2" fill-rule="evenodd" clip-rule="evenodd" d="M35.8436 34.766V34.762C35.6236 34.778 34.4896 34.846 31.9596 34.846C29.9396 34.846 28.5176 34.786 28.0176 34.762V34.768C20.2416 34.426 14.4376 33.072 14.4376 31.452C14.4376 29.834 20.2416 28.48 28.0176 28.132V33.42C28.5256 33.456 29.9816 33.542 31.9936 33.542C34.4076 33.542 35.6176 33.442 35.8436 33.422V28.136C43.6036 28.482 49.3936 29.836 49.3936 31.452C49.3936 33.072 43.6036 34.422 35.8436 34.766ZM35.8436 27.586V22.854H46.6716V15.638H17.1896V22.854H28.0176V27.584C19.2176 27.988 12.5996 29.732 12.5996 31.82C12.5996 33.908 19.2176 35.65 28.0176 36.056V51.22H35.8436V36.052C44.6296 35.648 51.2316 33.906 51.2316 31.82C51.2316 29.734 44.6296 27.992 35.8436 27.586Z" fill="white"/>
</g>
</g>
</svg>
