<svg width="64" height="64" viewBox="0 0 64 64" fill="none" xmlns="http://www.w3.org/2000/svg">
<g id="usdc">
<g id="crypto/usdc">
<circle id="Ellipse 325" cx="32" cy="32" r="32" fill="#2976CA"/>
<path id="Union" fill-rule="evenodd" clip-rule="evenodd" d="M23.6542 9.8304C14.259 13.2864 7.987 22.2976 7.987 32.3072C7.987 42.368 14.3102 51.4304 23.7054 54.8608C23.7873 54.8901 23.8693 54.9207 23.9515 54.9514C24.229 55.055 24.51 55.16 24.8062 55.2192C25.395 55.3472 25.779 55.0656 25.9582 54.4768C26.4958 52.6848 25.907 51.5072 24.1918 50.7136C16.4862 47.1296 12.1854 41.088 12.083 32.5632C11.9806 23.9872 16.2302 17.8432 23.9102 14.08C24.1453 13.9534 24.3932 13.8523 24.6449 13.7498C24.7494 13.7071 24.8546 13.6643 24.9598 13.6192C25.9326 13.1584 26.4958 11.136 25.8814 10.0096C25.377 9.06385 24.6828 9.37763 24.0538 9.66195C23.9166 9.72396 23.7825 9.78456 23.6542 9.8304ZM56.0124 31.4624C56.0124 42.3424 49.766 51.3536 40.3708 54.8096C40.2456 54.8571 40.1139 54.9184 39.9786 54.9814C39.3113 55.292 38.5564 55.6434 38.0668 54.5792C37.478 53.2736 38.0156 51.4304 39.0908 51.0208C41.6252 50.0224 43.878 48.6144 45.8492 46.72C56.1916 36.7104 52.9916 19.5584 39.7308 13.9008C38.0924 13.2096 37.4524 11.7504 38.0668 10.112C38.3996 9.1904 39.0908 9.3952 39.7564 9.6256C43.0076 10.7264 45.8748 12.4416 48.358 14.7712C53.4012 19.5328 55.8844 25.4208 56.0124 31.4624ZM40.7805 37.0687C40.7805 40.3455 38.7325 42.9567 35.2765 43.8783C34.2269 44.1599 33.8685 44.6207 34.0221 45.6191C34.0393 45.7566 34.0334 45.9056 34.0277 46.0506C34.0249 46.1217 34.0221 46.1918 34.0221 46.2591C34.0221 48.2559 33.9197 48.3583 31.9485 48.3583C30.1565 48.3583 30.0029 48.2047 30.0029 46.3615C30.0029 44.3647 30.0029 44.3647 28.1085 43.7759C25.3949 42.9055 23.6797 41.1391 23.0653 38.3487C22.7837 37.1455 23.1165 36.7871 24.3197 36.7103C24.661 36.6932 25.0024 36.6989 25.3437 36.7046C25.5144 36.7075 25.685 36.7103 25.8557 36.7103C26.5981 36.7103 26.9821 37.0431 27.2125 37.7855C28.2877 40.9599 32.6653 42.1887 35.3021 40.0895C36.3261 39.2703 36.7101 38.1951 36.5565 36.9151C36.4285 35.6607 35.6349 34.9695 34.5085 34.5599C33.6572 34.2485 32.7722 34.0886 31.8945 33.93L31.8943 33.93C31.6899 33.893 31.486 33.8562 31.2829 33.8175L31.1645 33.7963L31.1644 33.7963C30.2036 33.624 29.2221 33.448 28.2877 33.1775C25.0621 32.2303 23.6029 30.4383 23.5261 27.4943C23.4237 24.4479 25.0109 22.1183 27.9293 20.9919L27.9805 20.9725C29.9526 20.2237 30.0027 20.2047 29.9773 17.9711C29.9773 16.7423 30.4637 16.3327 31.6669 16.3327L31.7452 16.3336C34.0238 16.358 34.0977 16.3588 33.9965 18.6623C33.9453 19.9167 34.1757 20.6079 35.5837 20.9919C37.8365 21.6063 39.2189 23.2703 39.8589 25.5231C40.1661 26.6239 39.8333 27.0335 38.7069 27.1103C37.2733 27.2127 36.2237 27.1103 35.4813 25.4463C34.4829 23.1679 29.7981 22.9375 28.2109 24.9087C27.0589 26.3679 27.5709 28.5183 29.2861 29.3119C30.3833 29.8128 31.5693 29.9803 32.7407 30.1458L32.9981 30.1823C34.1757 30.3615 35.3533 30.5919 36.4797 31.0015C39.4749 32.0511 40.7805 33.8943 40.7805 37.0687Z" fill="#F9FBFD"/>
</g>
</g>
</svg>
