<svg width="64" height="64" viewBox="0 0 64 64" fill="none" xmlns="http://www.w3.org/2000/svg">
<g id="ada">
<path id="Vector" d="M63 32C63 49.1209 49.1209 63 32 63C14.8792 63 1 49.1209 1 32C1 14.8792 14.8792 1 32 1C49.1209 1 63 14.8792 63 32Z" fill="#FEFEFE" stroke="#CBD5E1" stroke-width="2"/>
<g id="Group" filter="url(#filter_ada_d)">
<path id="Vector_2" d="M31.4501 12.1192C32.4081 11.6252 33.5781 12.7672 33.0701 13.7092C32.7721 14.4772 31.6501 14.6812 31.0781 14.0952C30.4721 13.5352 30.6701 12.4232 31.4501 12.1172V12.1192ZM21.1401 13.2112C21.7221 12.9752 22.4601 13.4992 22.4001 14.1252C22.4601 14.8012 21.6201 15.3012 21.0261 14.9792C20.2401 14.6792 20.3301 13.4232 21.1401 13.2112ZM42.2561 14.9972C41.3461 14.8892 41.2021 13.4812 42.0761 13.1972C42.7561 12.8732 43.3801 13.4832 43.4801 14.1172C43.3361 14.6572 42.8761 15.1532 42.2561 14.9972ZM23.4861 17.5272C24.4601 16.9212 25.8481 17.8232 25.6981 18.9372C25.6481 20.0592 24.1321 20.7112 23.2761 19.9512C22.4481 19.3552 22.5741 17.9872 23.4861 17.5272ZM38.3461 18.1712C38.7801 17.0712 40.5401 17.0352 41.0341 18.1072C41.5241 18.9412 40.9221 19.9752 40.0521 20.2592C38.8981 20.4712 37.8041 19.2432 38.3461 18.1712ZM30.2081 20.1972C30.1981 19.2492 31.0741 18.5452 31.9881 18.4792C32.5961 18.5992 33.2561 18.8532 33.5161 19.4552C34.0021 20.2872 33.5701 21.4292 32.6961 21.8112C32.2961 22.0312 31.8201 21.9492 31.3841 21.9232C30.7181 21.6032 30.1561 20.9692 30.2081 20.1972ZM14.876 21.5772C15.766 21.0372 16.966 22.0172 16.628 22.9692C16.444 23.7912 15.32 24.1252 14.678 23.6012C13.992 23.1092 14.1 21.9272 14.878 21.5752L14.876 21.5772ZM47.8001 21.5732C48.5541 20.9972 49.8001 21.6592 49.7081 22.5952C49.7601 23.4492 48.6821 24.0952 47.9341 23.6552C47.1101 23.2892 47.0241 22.0412 47.8001 21.5752V21.5732ZM34.5201 23.2752C35.7641 22.8352 37.2441 23.3612 37.9521 24.4552C38.8881 25.7892 38.3921 27.8212 36.9381 28.5872C35.4341 29.4932 33.2361 28.7272 32.6781 27.0712C32.0481 25.5912 32.9681 23.7392 34.5181 23.2752H34.5201ZM27.2141 23.4212C28.5941 22.7812 30.4521 23.3172 31.1181 24.7052C31.9021 26.0572 31.2961 27.9392 29.8941 28.6372C28.4901 29.4232 26.5081 28.8272 25.8301 27.3772C25.0681 25.9732 25.7441 24.0672 27.2141 23.4212ZM19.9 25.8792C20.0061 25.0052 20.8441 24.4352 21.6901 24.3752C22.1313 24.4218 22.5437 24.6166 22.8597 24.928C23.1757 25.2394 23.3769 25.6488 23.4301 26.0892C23.3701 26.9892 22.6641 27.8652 21.6961 27.8612C20.6301 27.9512 19.696 26.9072 19.9 25.8792ZM41.5041 24.5672C42.5981 23.9412 44.1161 24.8512 44.0681 26.0872C44.1421 27.3972 42.4621 28.3192 41.3741 27.5512C40.2421 26.9112 40.3301 25.1112 41.5041 24.5672ZM24.2441 29.1812C25.5201 28.8352 26.9841 29.4272 27.6101 30.5832C28.2961 31.7472 28.0161 33.3632 26.9501 34.2192C25.5801 35.4712 23.0581 34.9672 22.3301 33.2592C21.4921 31.6932 22.5101 29.5932 24.2421 29.1792L24.2441 29.1812ZM38.0981 29.1752C39.3401 28.8252 40.8001 29.2952 41.4681 30.4092C42.3521 31.6832 41.9301 33.5852 40.6161 34.4052C39.2361 35.3592 37.1041 34.8592 36.3441 33.3672C35.4241 31.8252 36.3501 29.6452 38.0981 29.1752ZM16.018 30.6272C17.122 30.2172 18.346 31.4152 17.898 32.4932C17.626 33.4732 16.22 33.8372 15.494 33.1132C14.644 32.4332 14.958 30.9232 16.018 30.6272ZM45.9561 32.1912C45.9353 31.751 46.0893 31.3202 46.3845 30.993C46.6795 30.6656 47.0921 30.468 47.5321 30.4432C48.2881 30.5632 49.0241 31.1632 48.9641 31.9732C49.0341 33.0432 47.7241 33.7692 46.7961 33.2672C46.3621 33.0492 46.1401 32.6112 45.9561 32.1912ZM10.588 31.1592C11.252 30.8732 12.074 31.4392 11.922 32.1652C11.886 32.9872 10.652 33.3052 10.2 32.6172C9.80003 32.1392 10.04 31.4052 10.588 31.1572V31.1592ZM52.4861 31.1412C52.9541 30.8152 53.7061 31.0492 53.8901 31.5872C54.2041 32.1752 53.6281 32.9792 52.9561 32.8812C52.0121 32.9652 51.7081 31.5512 52.4861 31.1412ZM27.8521 35.0872C29.6001 34.6412 31.4801 36.0752 31.4921 37.8472C31.6041 39.6372 29.7521 41.2232 27.9641 40.8112C26.5801 40.5912 25.4941 39.2792 25.5401 37.9052C25.5361 36.5892 26.5441 35.3652 27.8521 35.0872ZM34.7761 35.0852C36.5501 34.5972 38.4861 36.0572 38.4581 37.8692C38.5521 39.6252 36.7581 41.1592 35.0061 40.8092C33.3561 40.6012 32.1401 38.8192 32.6001 37.2432C32.8321 36.1952 33.7241 35.3432 34.7761 35.0832V35.0852ZM21.4241 36.1752C22.6521 35.9692 23.8041 37.3152 23.3061 38.4632C22.9421 39.6872 21.1341 40.0172 20.3341 39.0192C19.398 38.0592 20.0981 36.3072 21.4241 36.1752ZM41.7321 36.2292C42.8281 35.7772 44.1721 36.7092 44.0881 37.8792C44.1321 39.1652 42.4721 40.0532 41.4021 39.3012C40.1881 38.6272 40.4101 36.6412 41.7321 36.2292ZM47.4081 41.8292C46.9801 41.0432 47.7581 40.0012 48.6481 40.1472C49.0881 40.1392 49.3981 40.4812 49.6801 40.7692C49.7381 41.2352 49.8361 41.7912 49.4421 42.1492C48.9081 42.8152 47.6981 42.6252 47.4081 41.8292ZM14.872 40.3652C15.702 39.8232 16.896 40.6332 16.708 41.5852C16.608 42.4312 15.528 42.9132 14.818 42.4332C14.054 41.9992 14.082 40.7612 14.872 40.3652ZM31.2581 42.1312C32.3441 41.6612 33.7281 42.5912 33.6241 43.7672C33.7041 45.0672 31.9941 45.9672 30.9321 45.1872C29.7521 44.5172 29.9501 42.5452 31.2581 42.1312ZM23.6701 43.8732C24.5941 43.3952 25.8341 44.2212 25.7501 45.2412C25.7781 46.0772 24.9501 46.7892 24.1101 46.6652C23.4161 46.6512 22.9641 46.0372 22.7401 45.4552C22.7521 44.8212 23.0181 44.1152 23.6701 43.8752V43.8732ZM39.0421 43.8892C39.9941 43.3092 41.3461 44.1412 41.2561 45.2292C41.2801 46.3692 39.7521 47.0972 38.8661 46.3492C38.0101 45.7632 38.1141 44.3552 39.0421 43.8892ZM41.7161 50.3892C41.2921 49.7612 41.7901 49.0032 42.4761 48.8592C43.0301 48.9692 43.6161 49.3792 43.4981 50.0072C43.4181 50.8612 42.1501 51.1212 41.7161 50.3912V50.3892ZM20.4941 49.8432C20.6621 49.3432 21.0701 48.8492 21.6681 48.9792C22.5381 49.0392 22.7961 50.3312 22.0341 50.7292C21.3501 51.1832 20.5541 50.5612 20.4941 49.8432ZM30.7341 50.4172C30.9001 49.6772 31.8701 49.3192 32.5101 49.7112C32.9341 49.8912 33.0581 50.3552 33.1661 50.7512C33.1089 50.9568 33.0557 51.1636 33.0061 51.3712C32.7441 51.6752 32.4061 51.9812 31.9701 51.9712C31.1601 52.0652 30.4281 51.1632 30.7321 50.4172H30.7341Z" fill="black"/>
</g>
<path id="Vector_3" d="M31.4501 12.1192C32.4081 11.6252 33.5781 12.7672 33.0701 13.7092C32.7721 14.4772 31.6501 14.6812 31.0781 14.0952C30.4721 13.5352 30.6701 12.4232 31.4501 12.1172V12.1192ZM21.1401 13.2112C21.7221 12.9752 22.4601 13.4992 22.4001 14.1252C22.4601 14.8012 21.6201 15.3012 21.0261 14.9792C20.2401 14.6792 20.3301 13.4232 21.1401 13.2112ZM42.2561 14.9972C41.3461 14.8892 41.2021 13.4812 42.0761 13.1972C42.7561 12.8732 43.3801 13.4832 43.4801 14.1172C43.3361 14.6572 42.8761 15.1532 42.2561 14.9972ZM23.4861 17.5272C24.4601 16.9212 25.8481 17.8232 25.6981 18.9372C25.6481 20.0592 24.1321 20.7112 23.2761 19.9512C22.4481 19.3552 22.5741 17.9872 23.4861 17.5272ZM38.3461 18.1712C38.7801 17.0712 40.5401 17.0352 41.0341 18.1072C41.5241 18.9412 40.9221 19.9752 40.0521 20.2592C38.8981 20.4712 37.8041 19.2432 38.3461 18.1712ZM30.2081 20.1972C30.1981 19.2492 31.0741 18.5452 31.9881 18.4792C32.5961 18.5992 33.2561 18.8532 33.5161 19.4552C34.0021 20.2872 33.5701 21.4292 32.6961 21.8112C32.2961 22.0312 31.8201 21.9492 31.3841 21.9232C30.7181 21.6032 30.1561 20.9692 30.2081 20.1972ZM14.876 21.5772C15.766 21.0372 16.966 22.0172 16.628 22.9692C16.444 23.7912 15.32 24.1252 14.678 23.6012C13.992 23.1092 14.1 21.9272 14.878 21.5752L14.876 21.5772ZM47.8001 21.5732C48.5541 20.9972 49.8001 21.6592 49.7081 22.5952C49.7601 23.4492 48.6821 24.0952 47.9341 23.6552C47.1101 23.2892 47.0241 22.0412 47.8001 21.5752V21.5732ZM34.5201 23.2752C35.7641 22.8352 37.2441 23.3612 37.9521 24.4552C38.8881 25.7892 38.3921 27.8212 36.9381 28.5872C35.4341 29.4932 33.2361 28.7272 32.6781 27.0712C32.0481 25.5912 32.9681 23.7392 34.5181 23.2752H34.5201ZM27.2141 23.4212C28.5941 22.7812 30.4521 23.3172 31.1181 24.7052C31.9021 26.0572 31.2961 27.9392 29.8941 28.6372C28.4901 29.4232 26.5081 28.8272 25.8301 27.3772C25.0681 25.9732 25.7441 24.0672 27.2141 23.4212ZM19.9 25.8792C20.0061 25.0052 20.8441 24.4352 21.6901 24.3752C22.1313 24.4218 22.5437 24.6166 22.8597 24.928C23.1757 25.2394 23.3769 25.6488 23.4301 26.0892C23.3701 26.9892 22.6641 27.8652 21.6961 27.8612C20.6301 27.9512 19.696 26.9072 19.9 25.8792ZM41.5041 24.5672C42.5981 23.9412 44.1161 24.8512 44.0681 26.0872C44.1421 27.3972 42.4621 28.3192 41.3741 27.5512C40.2421 26.9112 40.3301 25.1112 41.5041 24.5672ZM24.2441 29.1812C25.5201 28.8352 26.9841 29.4272 27.6101 30.5832C28.2961 31.7472 28.0161 33.3632 26.9501 34.2192C25.5801 35.4712 23.0581 34.9672 22.3301 33.2592C21.4921 31.6932 22.5101 29.5932 24.2421 29.1792L24.2441 29.1812ZM38.0981 29.1752C39.3401 28.8252 40.8001 29.2952 41.4681 30.4092C42.3521 31.6832 41.9301 33.5852 40.6161 34.4052C39.2361 35.3592 37.1041 34.8592 36.3441 33.3672C35.4241 31.8252 36.3501 29.6452 38.0981 29.1752ZM16.018 30.6272C17.122 30.2172 18.346 31.4152 17.898 32.4932C17.626 33.4732 16.22 33.8372 15.494 33.1132C14.644 32.4332 14.958 30.9232 16.018 30.6272ZM45.9561 32.1912C45.9353 31.751 46.0893 31.3202 46.3845 30.993C46.6795 30.6656 47.0921 30.468 47.5321 30.4432C48.2881 30.5632 49.0241 31.1632 48.9641 31.9732C49.0341 33.0432 47.7241 33.7692 46.7961 33.2672C46.3621 33.0492 46.1401 32.6112 45.9561 32.1912ZM10.588 31.1592C11.252 30.8732 12.074 31.4392 11.922 32.1652C11.886 32.9872 10.652 33.3052 10.2 32.6172C9.80003 32.1392 10.04 31.4052 10.588 31.1572V31.1592ZM52.4861 31.1412C52.9541 30.8152 53.7061 31.0492 53.8901 31.5872C54.2041 32.1752 53.6281 32.9792 52.9561 32.8812C52.0121 32.9652 51.7081 31.5512 52.4861 31.1412ZM27.8521 35.0872C29.6001 34.6412 31.4801 36.0752 31.4921 37.8472C31.6041 39.6372 29.7521 41.2232 27.9641 40.8112C26.5801 40.5912 25.4941 39.2792 25.5401 37.9052C25.5361 36.5892 26.5441 35.3652 27.8521 35.0872ZM34.7761 35.0852C36.5501 34.5972 38.4861 36.0572 38.4581 37.8692C38.5521 39.6252 36.7581 41.1592 35.0061 40.8092C33.3561 40.6012 32.1401 38.8192 32.6001 37.2432C32.8321 36.1952 33.7241 35.3432 34.7761 35.0832V35.0852ZM21.4241 36.1752C22.6521 35.9692 23.8041 37.3152 23.3061 38.4632C22.9421 39.6872 21.1341 40.0172 20.3341 39.0192C19.398 38.0592 20.0981 36.3072 21.4241 36.1752ZM41.7321 36.2292C42.8281 35.7772 44.1721 36.7092 44.0881 37.8792C44.1321 39.1652 42.4721 40.0532 41.4021 39.3012C40.1881 38.6272 40.4101 36.6412 41.7321 36.2292ZM47.4081 41.8292C46.9801 41.0432 47.7581 40.0012 48.6481 40.1472C49.0881 40.1392 49.3981 40.4812 49.6801 40.7692C49.7381 41.2352 49.8361 41.7912 49.4421 42.1492C48.9081 42.8152 47.6981 42.6252 47.4081 41.8292ZM14.872 40.3652C15.702 39.8232 16.896 40.6332 16.708 41.5852C16.608 42.4312 15.528 42.9132 14.818 42.4332C14.054 41.9992 14.082 40.7612 14.872 40.3652ZM31.2581 42.1312C32.3441 41.6612 33.7281 42.5912 33.6241 43.7672C33.7041 45.0672 31.9941 45.9672 30.9321 45.1872C29.7521 44.5172 29.9501 42.5452 31.2581 42.1312ZM23.6701 43.8732C24.5941 43.3952 25.8341 44.2212 25.7501 45.2412C25.7781 46.0772 24.9501 46.7892 24.1101 46.6652C23.4161 46.6512 22.9641 46.0372 22.7401 45.4552C22.7521 44.8212 23.0181 44.1152 23.6701 43.8752V43.8732ZM39.0421 43.8892C39.9941 43.3092 41.3461 44.1412 41.2561 45.2292C41.2801 46.3692 39.7521 47.0972 38.8661 46.3492C38.0101 45.7632 38.1141 44.3552 39.0421 43.8892ZM41.7161 50.3892C41.2921 49.7612 41.7901 49.0032 42.4761 48.8592C43.0301 48.9692 43.6161 49.3792 43.4981 50.0072C43.4181 50.8612 42.1501 51.1212 41.7161 50.3912V50.3892ZM20.4941 49.8432C20.6621 49.3432 21.0701 48.8492 21.6681 48.9792C22.5381 49.0392 22.7961 50.3312 22.0341 50.7292C21.3501 51.1832 20.5541 50.5612 20.4941 49.8432ZM30.7341 50.4172C30.9001 49.6772 31.8701 49.3192 32.5101 49.7112C32.9341 49.8912 33.0581 50.3552 33.1661 50.7512C33.1089 50.9568 33.0557 51.1636 33.0061 51.3712C32.7441 51.6752 32.4061 51.9812 31.9701 51.9712C31.1601 52.0652 30.4281 51.1632 30.7321 50.4172H30.7341Z" fill="#246DD3"/>
</g>
<defs>
<filter id="filter_ada_d" x="9.00092" y="11.5" width="45.9772" height="41.978" filterUnits="userSpaceOnUse" color-interpolation-filters="sRGB">
<feFlood flood-opacity="0" result="BackgroundImageFix"/>
<feColorMatrix in="SourceAlpha" type="matrix" values="0 0 0 0 0 0 0 0 0 0 0 0 0 0 0 0 0 0 127 0" result="hardAlpha"/>
<feOffset dy="0.5"/>
<feGaussianBlur stdDeviation="0.5"/>
<feColorMatrix type="matrix" values="0 0 0 0 0 0 0 0 0 0 0 0 0 0 0 0 0 0 0.204257 0"/>
<feBlend mode="normal" in2="BackgroundImageFix" result="effect1_dropShadow"/>
<feBlend mode="normal" in="SourceGraphic" in2="effect1_dropShadow" result="shape"/>
</filter>
</defs>
</svg>
