<svg width="64" height="64" viewBox="0 0 64 64" fill="none" xmlns="http://www.w3.org/2000/svg">
<g id="ankr">
<g id="Group 3401">
<circle id="Ellipse 345" cx="32" cy="32" r="31" fill="#FEFEFE" stroke="#CBD5E1" stroke-width="2"/>
<g id="ankr_2" clip-path="url(#clip_ankr_0)">
<path id="Vector" fill-rule="evenodd" clip-rule="evenodd" d="M34.4 12.6L47.5 19.3C49.4 20.3 50.6 22.2 50.6 24.4V27.5H45.8V24.4C45.8 24.1 45.6 23.8 45.3 23.6L32.2 16.9C32 16.8 31.7 16.8 31.4 16.9L18.3 23.6C18 23.7 17.8 24 17.8 24.4V27.5H13V24.4C13 22.3 14.2 20.3 16.1 19.3L29.2 12.6C30.8 11.8 32.7 11.8 34.4 12.6ZM35.9 31.8C35.9 29.5 34 27.7 31.8 27.7C29.5 27.7 27.7 29.5 27.7 31.8C27.7 34.1 29.6 35.9 31.8 35.9C34 35.9 35.9 34.1 35.9 31.8ZM45.2 40.4C45.5 40.3 45.7 40 45.7 39.6V36.5H50.5V39.6C50.5 41.7 49.3 43.7 47.4 44.7L34.3 51.4C33.5 51.8 32.6 52 31.7 52C30.8 52 29.9 51.8 29.1 51.4L16.1 44.7C14.2 43.7 13 41.8 13 39.6V36.5H17.8V39.6C17.8 39.9 18 40.2 18.3 40.4L29.4 46V40.4C25.6 39.3 22.9 35.9 22.9 31.8C22.9 26.9 26.9 22.8 31.9 22.8C36.8 22.8 40.9 26.8 40.9 31.8C40.9 35.9 38.1 39.4 34.4 40.4V46L45.2 40.4Z" fill="#245AE5" fill-opacity="0.9"/>
</g>
</g>
</g>
<defs>
<clipPath id="clip_ankr_0">
<rect width="37.5" height="40" fill="white" transform="translate(13 12)"/>
</clipPath>
</defs>
</svg>
