<svg width="64" height="64" viewBox="0 0 64 64" fill="none" xmlns="http://www.w3.org/2000/svg">
<g id="bake">
<path id="Vector" d="M32 64C49.6731 64 64 49.6731 64 32C64 14.3269 49.6731 0 32 0C14.3269 0 0 14.3269 0 32C0 49.6731 14.3269 64 32 64Z" fill="#FFF3E0"/>
<path id="Vector_2" d="M50.8538 41.8666C45.1872 52.3333 32.2538 56.1333 21.9205 50.4C11.5872 44.7333 7.78717 31.6 13.4538 21.2C17.1872 14.3333 24.0538 10.2666 31.2538 9.99997C32.1872 9.9333 32.9205 10.4666 33.4538 11.3333C33.9872 12.2666 34.1872 13.5333 34.1205 14.6666C34.0538 15.1333 34.0538 15.6 34.0538 16.0666C34.0538 18.2666 34.5872 20.4 35.5872 22.2C31.1205 20.5333 25.9205 22.3333 23.5872 26.7333C20.9872 31.5333 22.7205 37.5333 27.4538 40.1333C32.1872 42.7333 38.1872 41 40.7205 36.2C42.1872 33.5333 42.2538 30.4666 41.1872 27.8C42.9872 28.7333 45.0538 29.2666 47.1872 29.2666C48.3872 29.2666 49.5872 29.1333 50.7205 28.8C51.3872 28.6 52.0538 28.6666 52.5872 28.9333C53.0538 29.2 53.3872 29.6 53.3872 30.1333C53.6538 34.1333 52.8538 38.1333 50.8538 41.8666Z" fill="url(#paint_bake_0_radial)"/>
<path id="Vector_3" fill-rule="evenodd" clip-rule="evenodd" d="M52.9872 28.2666C53.7205 28.6666 54.1872 29.3333 54.2538 30.1333C54.5205 34.3333 53.5872 38.5333 51.5872 42.2C48.7205 47.4666 43.9872 51.2666 38.3205 52.9333C36.2538 53.6 34.1872 53.8666 32.1205 53.8666C28.4538 53.8666 24.7872 52.9333 21.5205 51.1333C10.7872 45.2666 6.85383 31.6 12.7205 21C16.5205 14.0666 23.3872 9.7333 31.2538 9.39996H31.5205H31.9205C32.9872 9.39996 33.9205 9.9333 34.5205 11C35.0538 12 35.2538 13.2666 35.0538 14.4C35.0538 14.5333 35.0372 14.6666 35.0205 14.8C35.0038 14.9333 34.9872 15.0666 34.9872 15.2C34.9205 15.5333 34.9205 15.9333 34.9205 16.3333V16.4666C34.9205 16.8666 34.9205 17.3333 34.9872 17.8C35.0205 17.9 35.0372 17.9999 35.0538 18.0999V18.1C35.0705 18.2 35.0872 18.3 35.1205 18.4C35.1205 18.6666 35.1872 19 35.2538 19.2666L35.4538 19.8666C35.4872 20 35.5372 20.1333 35.5872 20.2666C35.6372 20.4 35.6872 20.5333 35.7205 20.6666C35.7538 20.7666 35.8038 20.8666 35.8538 20.9666H35.8539C35.9039 21.0666 35.9538 21.1666 35.9872 21.2666C36.0538 21.4666 36.1205 21.6666 36.2538 21.8666C37.4538 24.1333 39.3205 26 41.5872 27.2C41.6205 27.2 41.6372 27.2166 41.6538 27.2333C41.6705 27.25 41.6872 27.2666 41.7205 27.2666C42.0538 27.4666 42.3872 27.6 42.7205 27.7333L43.3205 27.9333L43.9205 28.1333C44.1205 28.2 44.3872 28.2666 44.6538 28.3332L44.6538 28.3333C44.7205 28.3333 44.7872 28.35 44.8538 28.3666C44.9205 28.3833 44.9872 28.4 45.0538 28.4C45.5205 28.4666 46.0538 28.5333 46.5205 28.5333C46.7205 28.6 46.8538 28.6 47.0538 28.6C47.2538 28.6 47.4372 28.5833 47.6205 28.5666C47.8038 28.55 47.9872 28.5333 48.1872 28.5333C48.3538 28.5 48.5205 28.4833 48.6872 28.4666C48.8538 28.45 49.0205 28.4333 49.1872 28.4C49.2538 28.3333 49.3872 28.3333 49.4538 28.3333C49.5872 28.3 49.7372 28.2666 49.8872 28.2333C50.0372 28.2 50.1872 28.1666 50.3205 28.1333C50.3872 28.0666 50.4538 28.0666 50.5205 28.0666C51.3872 27.8 52.2538 27.9333 52.9872 28.2666ZM30.6538 22.6C30.5872 22.6666 30.5205 22.6666 30.4538 22.6666C30.3872 22.6666 30.3205 22.6666 30.3205 22.7333C26.1872 23.5333 23.0538 27.2 23.0538 31.6C23.0538 36.6 27.1205 40.6666 32.1205 40.6666C37.1205 40.6666 41.1872 36.6 41.2538 31.6C41.2538 27.1333 37.9872 23.4 33.7205 22.6666C33.1872 22.6 32.6538 22.5333 32.1205 22.5333H31.9205H31.8538H31.7205H31.6538H31.5872C31.3205 22.5333 31.0538 22.5333 30.7872 22.6H30.7205H30.6538ZM22.3205 49.6666C27.1205 52.3333 32.5872 52.9333 37.8538 51.4C40.8538 50.5333 43.5205 49 45.8538 47C44.9872 46.7333 44.3872 46.2 44.0538 45.4C43.7205 44.6666 43.7205 43.7333 43.9205 42.8C44.0538 42.2 44.3205 41.6 44.6538 41L44.7205 40.9333C44.9205 40.4666 45.1205 40 45.1205 39.4C45.1205 38.9333 45.0538 38.4666 44.8538 37.8666C44.6538 37.4 44.2538 37.0666 43.7872 36.8666C43.5205 36.7333 43.0538 36.6666 42.5872 36.9333C41.8538 37.4 41.1872 37.7333 40.5872 37.9333C39.1872 39.8 37.3205 41.1333 35.0538 41.8C32.3205 42.6 29.4538 42.3333 26.9872 40.9333C21.8538 38.0666 19.9872 31.6 22.7872 26.4C23.5872 24.9333 24.7872 23.6666 26.1205 22.7333C25.6538 22.6 25.1872 22.4 24.7872 22.2C23.3872 21.4 22.2538 20.1333 21.5872 18.6C20.9205 17.0666 20.7872 15.8 21.0538 14.4C21.0872 14.3333 21.1038 14.2666 21.1205 14.2C21.1372 14.1333 21.1538 14.0666 21.1872 14C18.3205 15.8666 15.9205 18.4666 14.1872 21.6C8.78717 31.6 12.3872 44.2 22.3205 49.6666ZM14.8538 26.5333C14.8538 25.8666 15.3872 25.4 15.9872 25.4C16.5872 25.4 17.1205 25.9333 17.1205 26.5333C17.1205 27.2 16.5872 27.6666 15.9872 27.6666C15.3205 27.6666 14.8538 27.1333 14.8538 26.5333ZM32.1205 44.8666C31.5205 44.8666 30.9872 45.3333 30.9872 46C30.9872 46.6 31.4538 47.1333 32.1205 47.1333C32.7205 47.1333 33.2538 46.6666 33.2538 46C33.1872 45.4 32.7205 44.8666 32.1205 44.8666ZM23.5205 46.9333C23.5205 45.9333 24.3205 45.1333 25.3205 45.1333C26.3205 45.1333 27.1205 46 27.1205 46.9333C27.1205 47.9333 26.3205 48.7333 25.3205 48.7333C24.3205 48.7333 23.5205 47.9333 23.5205 46.9333Z" fill="#AC562A"/>
</g>
<defs>
<radialGradient id="paint_bake_0_radial" cx="0" cy="0" r="1" gradientUnits="userSpaceOnUse" gradientTransform="translate(32.131 31.532) rotate(90) scale(21.5377 21.3059)">
<stop offset="0.496527" stop-color="#FCC065"/>
<stop offset="0.725698" stop-color="#FFC875"/>
<stop offset="1" stop-color="#FFA722"/>
</radialGradient>
</defs>
</svg>
