<svg width="64" height="64" viewBox="0 0 64 64" fill="none" xmlns="http://www.w3.org/2000/svg">
<g id="bch">
<g id="crypto/bch">
<path id="Vector" d="M32 64C49.6731 64 64 49.6731 64 32C64 14.3269 49.6731 0 32 0C14.3269 0 0 14.3269 0 32C0 49.6731 14.3269 64 32 64Z" fill="#8FCC4C"/>
<path id="Vector_2" d="M42.414 21.068C40.862 17.124 36.97 16.768 32.438 17.648L30.824 12.022L27.4 13.004L28.972 18.484C28.072 18.74 27.156 19.024 26.246 19.304L24.666 13.788L21.244 14.768L22.854 20.394C22.118 20.622 21.394 20.846 20.684 21.05L20.678 21.03L15.954 22.384L17.004 26.044C17.004 26.044 19.52 25.268 19.49 25.328C20.878 24.93 21.56 25.606 21.89 26.264L23.73 32.672C23.824 32.646 23.95 32.614 24.098 32.592L23.736 32.696L26.31 41.676C26.374 42.13 26.318 42.9 25.35 43.18C25.404 43.206 22.858 43.892 22.858 43.892L23.352 48.178L27.808 46.898C28.638 46.664 29.458 46.444 30.26 46.218L31.894 51.908L35.314 50.928L33.7 45.298C34.6174 45.0546 35.5321 44.8012 36.444 44.538L38.048 50.144L41.474 49.162L39.846 43.482C45.508 41.5 49.122 38.894 48.072 33.342C47.228 28.874 44.624 27.518 41.13 27.67C42.826 26.09 43.556 23.954 42.414 21.07V21.068ZM41.114 34.608C42.334 38.862 34.914 40.466 32.594 41.134L30.432 33.594C32.752 32.928 39.84 30.174 41.112 34.61L41.114 34.608ZM36.47 24.428C37.578 28.298 31.376 29.588 29.442 30.142L27.482 23.304C29.414 22.75 35.312 20.394 36.47 24.43V24.428Z" fill="white"/>
</g>
</g>
</svg>
