<svg width="64" height="64" viewBox="0 0 64 64" fill="none" xmlns="http://www.w3.org/2000/svg">
<g id="brl">
<path id="Vector" d="M64 32C64 49.6731 49.6731 64 32 64C14.3269 64 0 49.6731 0 32C0 14.3269 14.3269 0 32 0C49.6731 0 64 14.3269 64 32Z" fill="#0F8F62"/>
<path id="Vector_2" d="M16.5359 35.4259H22.0766L27.6571 46.6668H32.6797L26.6606 34.9476C30.2083 33.9112 32.0818 31.1608 32.0818 27.2145C32.0818 22.0724 29.0124 18.8437 24.0298 18.8437H12.0316V46.6668H16.5359V35.4259ZM16.5359 31.6391V22.7899H23.7109C25.983 22.7899 27.3383 24.0256 27.3383 26.2578V28.1712C27.3383 30.4034 25.983 31.6391 23.7109 31.6391H16.5359Z" fill="#F8D33A"/>
<path id="Vector_3" d="M45.3265 49.9353V46.4275C50.4685 45.7897 53.3784 42.6806 53.3784 38.4154C53.3784 34.2698 50.8671 32.0376 45.0873 30.7621V22.5906C47.3593 22.9493 48.9538 24.0654 50.1098 25.5802L53.0595 23.1486C51.2259 20.7968 48.7147 19.3618 45.3265 19.0429V15.575H41.9383V19.0429C37.1151 19.5611 34.0856 22.1521 34.0856 26.3774C34.0856 30.4033 36.5171 32.795 42.2173 34.0307V42.9596C39.706 42.6407 37.7927 41.3652 36.1584 39.3721L33.2485 42.0029C35.2416 44.3946 37.9123 46.1884 41.9383 46.5072V49.9353H45.3265ZM49.193 38.6944C49.193 40.8868 47.6783 42.4812 45.0873 42.9197V34.6286C48.1965 35.4258 49.193 36.7014 49.193 38.6944ZM38.2311 26.178C38.2311 24.185 39.706 22.9094 42.2173 22.5507V30.1243C39.5067 29.367 38.2311 28.3704 38.2311 26.178Z" fill="#F8D33A"/>
</g>
</svg>
