<svg width="64" height="64" viewBox="0 0 64 64" fill="none" xmlns="http://www.w3.org/2000/svg">
<g id="btt">
<g id="Group">
<path id="Vector" d="M32 64C49.6731 64 64 49.6731 64 32C64 14.3269 49.6731 0 32 0C14.3269 0 0 14.3269 0 32C0 49.6731 14.3269 64 32 64Z" fill="black"/>
<g id="Group_2">
<path id="Vector_2" d="M55.4859 27.078C55.1696 25.5416 54.702 24.0403 54.0899 22.596C53.4867 21.1734 52.7487 19.8119 51.8859 18.53C51.0304 17.2636 50.0545 16.0828 48.9719 15.004C47.8925 13.9213 46.711 12.9454 45.4439 12.09C44.1601 11.2316 42.7996 10.4938 41.3799 9.88603C38.4438 8.64075 35.2871 7.99901 32.0979 7.99901C28.9086 7.99901 25.752 8.64075 22.8159 9.88603C19.9768 11.0836 17.3981 12.8226 15.2239 15.006C14.1414 16.0841 13.1655 17.2643 12.3099 18.53C11.4513 19.8145 10.7135 21.1756 10.1059 22.596C8.86061 25.5321 8.21887 28.6888 8.21887 31.878C8.21887 35.0673 8.86061 38.2239 10.1059 41.16C10.6939 42.58 11.4539 43.926 12.3099 45.224C13.1655 46.491 14.1413 47.6725 15.2239 48.752C16.3033 49.8347 17.4848 50.8106 18.7519 51.666C20.0239 52.522 21.3959 53.258 22.8159 53.87C25.752 55.1153 28.9086 55.757 32.0979 55.757C35.2871 55.757 38.4438 55.1153 41.3799 53.87C42.7999 53.282 44.1459 52.522 45.4439 51.666C46.711 50.8106 47.8925 49.8347 48.9719 48.752C50.0546 47.6726 51.0305 46.4912 51.8859 45.224C52.7419 43.952 53.4779 42.58 54.0899 41.16C55.974 36.7166 56.4609 31.8049 55.4859 27.078ZM32.1199 52.768C20.5859 52.768 11.2559 43.412 11.2559 31.902C11.2559 20.392 20.6119 11.036 32.1199 11.036C43.6299 11.036 52.9859 20.392 52.9859 31.902C52.9859 43.412 43.6319 52.768 32.1199 52.768Z" fill="white"/>
<path id="Vector_3" d="M32.4899 50.9561H33.0539C33.1519 50.9561 33.2479 50.9561 33.3459 50.9301H33.3719C33.4699 50.9301 33.5419 50.93 33.6399 50.9061H33.7139C33.7879 50.9061 33.8619 50.906 33.9339 50.882H34.0079C34.0819 50.882 34.1559 50.8581 34.2539 50.8581H34.3019C34.3999 50.8581 34.4979 50.8321 34.5959 50.8321C34.6939 50.8321 34.7679 50.808 34.8659 50.784H34.9139C34.9879 50.784 35.0619 50.76 35.1339 50.76H35.1839C35.2819 50.734 35.3559 50.7341 35.4539 50.7101C35.6479 50.6861 35.8439 50.6361 36.0159 50.5881H36.0659C36.1379 50.5641 36.2359 50.564 36.3099 50.538H36.3339C36.5299 50.49 36.7019 50.4401 36.8979 50.3921C35.0636 50.4502 33.2292 50.2775 31.4379 49.8781C28.7419 49.2901 26.1719 48.2381 23.9919 46.4241C22.2733 44.9938 20.894 43.1994 19.9539 41.1708C19.0138 39.1421 18.5363 36.9299 18.5559 34.6941C18.5735 31.3585 19.7604 28.1347 21.9099 25.5841C24.7019 22.2781 28.6699 20.5381 32.7339 20.4401H33.2979V17.1841H32.6619C31.4256 17.2067 30.1947 17.3541 28.9879 17.6241C27.7736 17.8986 26.5917 18.3009 25.4619 18.8241C24.3099 19.3641 23.2319 20.0241 22.2279 20.7841C21.1904 21.5727 20.2457 22.4765 19.4119 23.4781C18.6268 24.405 17.9455 25.415 17.3799 26.4901C16.8204 27.5264 16.3687 28.6175 16.0319 29.7461C15.7015 30.8572 15.4805 31.9979 15.3719 33.1521L15.2979 34.2281V34.864C15.3219 36.114 15.4699 37.338 15.7379 38.538C16.0079 39.764 16.4239 40.9381 16.9379 42.0661C17.5519 43.4121 18.6539 45.3961 20.2939 46.8901C23.6425 49.5298 27.7839 50.9625 32.0479 50.9561H32.4899Z" fill="white"/>
<path id="Vector_4" d="M37.8278 47.82C36.6199 47.7769 35.4167 47.6459 34.2278 47.428C29.1838 46.522 24.8478 43.436 23.2578 38.784C21.3218 33.126 24.2858 27.004 29.9178 25.144C30.9911 24.7843 32.1159 24.6019 33.2478 24.604C34.6938 24.604 36.1378 24.898 37.4618 25.436L38.8318 22.522C38.4198 22.3568 38.0037 22.2021 37.5838 22.058C36.1807 21.6176 34.7184 21.3944 33.2478 21.396C31.7744 21.3988 30.3111 21.6385 28.9138 22.106C27.1305 22.6942 25.4882 23.6448 24.0898 24.898C23.4154 25.4987 22.8006 26.1632 22.2538 26.882C21.7133 27.5926 21.2456 28.3558 20.8578 29.16C20.0681 30.7768 19.602 32.5324 19.4858 34.328C19.3638 36.188 19.6078 38.048 20.2198 39.812C20.8434 41.6266 21.8455 43.288 23.1598 44.686C24.3598 45.984 25.7558 46.964 27.4438 47.87C29.2078 48.8 31.3878 49.29 33.6638 49.61C35.1338 49.804 37.0938 49.854 38.2438 49.854C39.2478 49.486 39.6638 49.314 40.2038 49.094C40.6698 48.874 41.1338 48.654 41.5998 48.384C42.0658 48.114 42.1398 48.064 42.9218 47.552C42.9915 47.5087 43.0571 47.4592 43.1178 47.404C40.4238 47.87 39.7378 47.844 37.8278 47.82Z" fill="white"/>
<path id="Vector_5" d="M43.8541 44.172C43.0941 44.22 42.0161 44.292 40.7921 44.292C38.6121 44.292 35.9421 44.098 33.6661 43.338C30.1381 42.164 26.8081 39.152 26.8081 35.428C26.8073 34.5466 26.9803 33.6737 27.3173 32.8593C27.6542 32.0448 28.1484 31.3048 28.7717 30.6815C29.3949 30.0583 30.1349 29.5641 30.9494 29.2272C31.7638 28.8902 32.6367 28.7172 33.5181 28.718C36.0401 28.718 38.2201 30.114 39.3721 32.146L42.2861 30.702C41.8292 29.8418 41.2423 29.0572 40.5461 28.376C39.6236 27.4519 38.528 26.7188 37.3218 26.2186C36.1157 25.7184 34.8228 25.461 33.5171 25.461C32.2114 25.461 30.9185 25.7184 29.7124 26.2186C28.5062 26.7188 27.4106 27.4519 26.4881 28.376C25.5643 29.2984 24.8315 30.394 24.3315 31.5999C23.8315 32.8058 23.5741 34.0985 23.5741 35.404C23.5806 36.7722 23.8736 38.1239 24.4341 39.372C24.9461 40.498 25.6581 41.552 26.5641 42.532C28.1561 44.244 30.3341 45.616 32.6621 46.4C34.8901 47.134 38.1721 47.404 41.3561 47.184C42.2361 47.11 42.8981 47.036 44.0241 46.792C45.1107 45.9345 46.097 44.957 46.9641 43.878C46.2041 43.952 44.8081 44.098 43.8541 44.172Z" fill="white"/>
</g>
</g>
</g>
</svg>
