<svg width="64" height="64" viewBox="0 0 64 64" fill="none" xmlns="http://www.w3.org/2000/svg">
<g id="busd">
<path id="Vector" d="M32 64C49.6731 64 64 49.6731 64 32C64 14.3269 49.6731 0 32 0C14.3269 0 0 14.3269 0 32C0 49.6731 14.3269 64 32 64Z" fill="#F0B90B"/>
<path id="Vector_2" fill-rule="evenodd" clip-rule="evenodd" d="M18.3811 23.8721L32.0132 10.24L37.4487 15.6754L23.8166 29.3076L18.3811 23.8721ZM18.3911 40.1619L40.1764 18.3766L45.6118 23.8121L23.8265 45.5974L18.3911 40.1619ZM48.324 26.5397L26.5387 48.325L31.9742 53.7604L53.7595 31.9752L48.324 26.5397ZM10.24 32.0115L15.6754 26.576L21.111 32.0115L15.6754 37.447L10.24 32.0115Z" fill="white"/>
</g>
</svg>
