<svg width="64" height="64" viewBox="0 0 64 64" fill="none" xmlns="http://www.w3.org/2000/svg">
<g id="cake">
<circle id="Ellipse 348" cx="32" cy="32" r="31" fill="#FEFEFE" stroke="#CBD5E1" stroke-width="2"/>
<g id="cake_2">
<path id="Vector" fill-rule="evenodd" clip-rule="evenodd" d="M17.2713 16.1875C16.5457 12.45 19.4479 9 23.2208 9C26.5584 9 29.3155 11.7312 29.3155 15.0375V22.5125C30.1861 22.5125 31.0568 22.3688 31.9274 22.3688C32.7981 22.3688 33.5237 22.3687 34.3943 22.5125V15.0375C34.3943 11.7312 37.1514 9 40.489 9C44.2618 9 47.164 12.45 46.5836 16.1875L44.9874 24.9563C50.6467 27.4 55 31.7125 55 37.0312V40.3375C55 44.7937 52.0978 48.5312 47.8896 50.975C43.6814 53.5625 38.1672 55 31.9274 55C25.6877 55 20.1735 53.5625 15.9653 50.975C11.9022 48.5312 9 44.7937 9 40.3375V37.0312C9 31.7125 13.2082 27.4 18.8675 24.9563L17.2713 16.1875ZM42.8107 26.1062L44.6972 15.7562C45.1325 13.1687 43.2461 10.725 40.489 10.725C38.1672 10.725 36.2808 12.5937 36.2808 14.8937V24.3812C35.7003 24.2375 34.9748 24.2375 34.3943 24.2375C33.5237 24.2375 32.7981 24.0938 31.9274 24.0938C31.0568 24.0938 30.1861 24.0938 29.3155 24.2375C28.735 24.2375 28.0095 24.3812 27.429 24.3812V15.0375C27.429 12.7375 25.5426 10.8687 23.2208 10.8687C20.6088 10.8687 18.5773 13.3125 19.1577 15.9L21.0442 26.25C14.9495 28.55 10.8864 32.575 10.8864 37.175V40.4812C10.8864 47.525 20.3186 53.275 31.9274 53.275C43.5363 53.275 52.9685 47.525 52.9685 40.4812V37.175C53.1136 32.4313 49.0505 28.4062 42.8107 26.1062Z" fill="#633001"/>
<path id="Vector_2" d="M53.1135 40.3375C53.1135 47.3812 43.6813 53.1313 32.0725 53.1313C20.4637 53.1313 11.0315 47.3812 11.0315 40.3375V37.0312H53.2586V40.3375H53.1135Z" fill="#FEDC90"/>
<path id="Vector_3" fill-rule="evenodd" clip-rule="evenodd" d="M19.1577 15.9C18.5772 13.3125 20.6088 10.8688 23.2208 10.8688C25.5425 10.8688 27.429 12.7375 27.429 15.0375V24.525C28.8801 24.3813 30.3312 24.2375 31.9274 24.2375C33.3785 24.2375 34.8296 24.3813 36.2807 24.525V15.0375C36.2807 12.7375 38.1671 10.8688 40.4889 10.8688C43.1009 10.8688 45.1324 13.3125 44.6971 15.9L42.8107 26.25C48.9053 28.55 53.1135 32.575 53.1135 37.175C53.1135 44.2188 43.6813 49.9688 32.0725 49.9688C20.4637 49.9688 11.0315 44.2188 11.0315 37.175C11.0315 32.575 15.0946 28.55 21.1892 26.25L19.1577 15.9Z" fill="#D1884F"/>
<path id="Vector_4" d="M26.1231 36.1687C26.1231 38.0375 25.1073 39.6187 23.8013 39.6187C22.4953 39.6187 21.4796 38.0375 21.4796 36.1687C21.4796 34.3 22.4953 32.7188 23.8013 32.7188C25.1073 32.7188 26.1231 34.3 26.1231 36.1687Z" fill="#633001"/>
<path id="Vector_5" d="M42.2304 36.1687C42.2304 38.0375 41.2147 39.6187 39.9087 39.6187C38.6027 39.6187 37.5869 38.0375 37.5869 36.1687C37.5869 34.3 38.6027 32.7188 39.9087 32.7188C41.2147 32.7188 42.2304 34.3 42.2304 36.1687Z" fill="#633001"/>
</g>
</g>
</svg>
