<svg width="64" height="64" viewBox="0 0 64 64" fill="none" xmlns="http://www.w3.org/2000/svg">
<g id="chz">
<circle id="Ellipse 358" cx="32" cy="32" r="32" fill="#CD0124"/>
<path id="Union" fill-rule="evenodd" clip-rule="evenodd" d="M15.8656 17.8732C15.5915 17.9557 15.3009 18 15 18C13.3431 18 12 16.6569 12 15C12 13.3431 13.3431 12 15 12C16.3062 12 17.4175 12.8348 17.8293 14H46.1707C46.5825 12.8348 47.6938 12 49 12C50.6569 12 52 13.3431 52 15C52 16.5888 50.765 17.8891 49.2026 17.9933L43.4423 31.2574C43.7934 31.7486 44 32.3502 44 33C44 34.5234 42.8646 35.7815 41.3938 35.9744L35.2807 50.051C35.7292 50.5752 36 51.256 36 52C36 53.6569 34.6569 55 33 55C31.3431 55 30 53.6569 30 52C30 51.2508 30.2746 50.5658 30.7287 50.04L24.237 35.9908C24.1588 35.9969 24.0798 36 24 36C22.3431 36 21 34.6569 21 33C21 32.1729 21.3347 31.4239 21.8761 30.8813L15.8656 17.8732ZM26.0642 35.177L32.4727 49.0462C32.6439 49.0158 32.8201 49 33 49C33.1829 49 33.362 49.0164 33.5359 49.0477L39.4022 35.5396C38.5597 35.0084 38 34.0696 38 33C38 32.5966 38.0796 32.2118 38.224 31.8605L32.7105 27.9257L26.887 32.1817C26.9606 32.4418 27 32.7163 27 33C27 33.8571 26.6406 34.6303 26.0642 35.177ZM23.6799 30.0169L17.7952 17.2811L30.9956 26.7018L25.7309 30.5494C25.2419 30.2034 24.6447 30 24 30C23.8919 30 23.7851 30.0057 23.6799 30.0169ZM47.2605 17.4445L41.7651 30.0985C41.5209 30.0342 41.2644 30 41 30C40.4816 30 39.9939 30.1315 39.5685 30.3629L34.4115 26.6826L47.1572 17.3675C47.1911 17.3939 47.2255 17.4195 47.2605 17.4445ZM45.6389 16H19.4429L32.6966 25.4587L45.6389 16Z" fill="#161D35"/>
</g>
</svg>
