<svg width="64" height="64" viewBox="0 0 64 64" fill="none" xmlns="http://www.w3.org/2000/svg">
<g id="comp">
<g id="crypto/comp">
<path id="Vector" d="M32 64C49.6733 64 64 49.6733 64 32C64 14.3267 49.6733 0 32 0C14.3267 0 0 14.327 0 32C0 49.673 14.327 64 32 64Z" fill="#23292F"/>
<path id="Vector_2" fill-rule="evenodd" clip-rule="evenodd" d="M18.4853 42.7304C18.0146 42.4427 17.6256 42.039 17.3555 41.558C17.0854 41.077 16.9433 40.5348 16.9426 39.9832V33.7316C16.9431 33.4955 17.0059 33.2636 17.1245 33.0594C17.2432 32.8551 17.4135 32.6858 17.6184 32.5684C17.8234 32.451 18.0556 32.3896 18.2918 32.3905C18.528 32.3914 18.7597 32.4546 18.9637 32.5736L33.0732 40.8001C33.4787 41.0367 33.8153 41.3753 34.0493 41.7823C34.2833 42.1894 34.4066 42.6506 34.4069 43.1201V49.5982C34.4075 49.8849 34.3316 50.1665 34.187 50.4141C34.0424 50.6616 33.8343 50.866 33.5843 51.0063C33.3343 51.1465 33.0513 51.2175 32.7647 51.2119C32.4781 51.2062 32.1981 51.1242 31.9538 50.9742L18.4853 42.7304ZM39.5173 30.86C39.9228 31.0966 40.2593 31.4353 40.4932 31.8424C40.7271 32.2495 40.8502 32.7108 40.8505 33.1803V46.3243C40.8508 46.5147 40.8002 46.7018 40.7041 46.8663C40.608 47.0307 40.4697 47.1665 40.3036 47.2596L37.2143 48.9988C37.1749 49.0204 37.1332 49.0377 37.0901 49.0504V41.7521C37.09 41.2873 36.9695 40.8304 36.7403 40.426C36.5112 40.0216 36.1812 39.6833 35.7826 39.4443L23.3922 32.0321V23.7924C23.3927 23.5563 23.4555 23.3244 23.5741 23.1202C23.6928 22.9159 23.8631 22.7466 24.068 22.6292C24.273 22.5118 24.5052 22.4504 24.7414 22.4513C24.9776 22.4522 25.2093 22.5154 25.4133 22.6343L39.5173 30.86ZM45.6933 21.1518C46.1005 21.388 46.4383 21.7271 46.673 22.1351C46.9077 22.5431 47.0311 23.0056 47.0306 23.4763V42.6763C47.0296 42.8698 46.9765 43.0596 46.8768 43.2255C46.7771 43.3914 46.6346 43.5275 46.4642 43.6193L43.5375 45.2001V31.8344C43.5373 31.3705 43.4171 30.9147 43.1888 30.511C42.9604 30.1073 42.6315 29.7695 42.2341 29.5304L29.5682 21.9339V14.1185C29.5689 13.8817 29.6307 13.6491 29.7477 13.4433C29.9271 13.1354 30.2213 12.9113 30.5658 12.82C30.9102 12.7287 31.2768 12.7777 31.5852 12.9563L45.6933 21.1518Z" fill="#00D395"/>
</g>
</g>
</svg>
