<svg width="64" height="64" viewBox="0 0 64 64" fill="none" xmlns="http://www.w3.org/2000/svg">
<g id="dash">
<g id="Group">
<path id="Vector" d="M32 64C49.6731 64 64 49.6731 64 32C64 14.3269 49.6731 0 32 0C14.3269 0 0 14.3269 0 32C0 49.6731 14.3269 64 32 64Z" fill="#008CE7"/>
<g id="Group_2">
<path id="Vector_2" d="M38.1721 16.008H23.6201L22.4161 22.742L35.5401 22.762C42.0021 22.762 43.9201 25.108 43.8581 29.002C43.8301 30.998 42.9601 34.374 42.5921 35.462C41.5981 38.382 39.5501 41.706 31.8741 41.696L19.1181 41.688L17.9141 48.43H32.4281C37.5461 48.43 39.7261 47.832 42.0281 46.77C47.1361 44.414 50.1781 39.368 51.4001 32.782C53.2121 22.982 50.9521 16.008 38.1701 16.008H38.1721Z" fill="white"/>
<path id="Vector_3" d="M31.6139 31.596C32.0879 29.626 32.2379 28.836 32.2379 28.836H17.3459C13.5379 28.836 12.9939 31.316 12.6319 32.816C12.1579 34.778 12.0079 35.578 12.0079 35.578H26.9019C30.7079 35.578 31.2519 33.098 31.6139 31.596Z" fill="white"/>
</g>
</g>
</g>
</svg>
