<svg width="64" height="64" viewBox="0 0 64 64" fill="none" xmlns="http://www.w3.org/2000/svg">
<g id="doge" clip-path="url(#clip_doge_0)">
<path id="Vector" d="M28.9686 0.143862C35.7526 -0.508275 42.7401 1.06927 48.5615 4.62114C54.0476 7.92533 58.4905 12.9217 61.1401 18.7512C63.9414 24.8438 64.6851 31.8266 63.3699 38.3915C62.0591 44.9762 58.575 51.0969 53.6118 55.6177C48.646 60.2025 42.1821 63.1234 35.4589 63.8369C31.1216 64.2421 26.6902 63.9157 22.5257 62.5941C15.4045 60.4099 9.1216 55.6311 5.09985 49.3613C1.71681 44.1551 -0.0822327 37.9364 0.00288756 31.7255C0.0201676 24.6243 2.54113 17.5691 6.9904 12.0391C12.3152 5.3232 20.4272 0.913754 28.9686 0.143862Z" fill="#988430"/>
<path id="Vector_2" d="M31.3692 0.995019C37.0587 0.896466 42.7835 2.34728 47.6904 5.24702C52.9819 8.35413 57.3346 13.0618 59.9675 18.6091C62.8104 24.3951 63.6482 31.0957 62.5435 37.4308C61.0946 45.9195 55.8754 53.6639 48.5774 58.2263C43.5246 61.4652 37.4914 63.1432 31.4946 63.012C25.6385 62.9723 19.828 61.1477 14.948 57.9223C9.95222 54.6264 5.90548 49.8803 3.549 44.3701C0.830926 38.1687 0.253011 31.0631 1.90741 24.4981C3.52213 17.8501 7.48115 11.8369 12.854 7.61747C18.0815 3.46085 24.699 1.13069 31.3692 0.995019Z" fill="#7A6A2A"/>
<path id="Vector_3" d="M19.585 4.29473C24.929 1.87242 30.9884 1.10445 36.7792 2.01898C42.8259 2.95974 48.5507 5.80892 52.9667 10.0437C58.3695 15.1641 61.7769 22.3312 62.2889 29.7601C62.9628 38.2308 59.8576 46.9211 53.9273 53.0111C53.8441 51.2454 53.8179 49.4771 53.7852 47.7089C53.7718 46.3982 53.4812 45.1157 53.3692 43.8159C53.3936 43.3609 53.446 42.9078 53.4614 42.4547C53.5247 41.2272 52.8752 40.0823 53.0416 38.8458C53.2035 37.1083 52.2934 35.5327 51.8422 33.9045C51.3936 32.7603 51.4217 31.5021 50.9865 30.3553C50.6735 25.926 48.9577 21.4551 45.5964 18.4465C45.7059 18.2936 45.9203 17.9826 46.0297 17.8271C46.1635 18.1157 46.3145 18.3941 46.4649 18.6719C47.2464 17.788 47.3667 16.5708 47.5984 15.4637C48.0336 13.4899 47.7321 11.4503 47.3948 9.48753C47.1344 8.48087 46.9263 7.3148 46.0841 6.6185C45.1849 6.08924 43.6265 6.08027 43.1036 7.13047C43.0864 7.19193 43.0512 7.31413 43.0339 7.37367C42.6422 8.05393 42.0995 8.64273 41.4192 9.03893C40.2108 9.7832 39.5523 11.1943 38.2614 11.8465C37.4563 12.1089 36.6378 11.6628 35.8172 11.7543C34.2723 11.9143 32.703 11.9949 31.2022 12.4263C29.782 12.201 28.3549 11.9757 26.9437 11.6909C26.9482 11.5879 26.959 11.3844 26.9654 11.282C26.3197 10.6561 25.7309 9.94253 25.4973 9.0562C25.0659 7.40633 24.0483 5.81725 22.5142 5.00768C22.2972 4.92256 22.081 4.83935 21.864 4.76064C21.7283 4.90975 21.5971 5.06015 21.4678 5.21119C21.4173 5.32702 21.3168 5.55934 21.2662 5.67261C20.9251 6.43611 21.0012 7.28727 20.9776 8.10193C20.9558 10.2049 20.737 12.3585 19.8486 14.2905C18.4176 14.2861 16.9885 14.2752 15.5594 14.2925C15.2746 14.9357 15.3757 15.6492 15.3603 16.3295C13.0602 18.4587 12.1411 21.5965 11.7123 24.6057C11.7104 24.8373 11.7187 25.0716 11.7386 25.3039C11.743 25.3961 11.7494 25.5797 11.7539 25.6693C10.7427 27.0018 10.5654 28.7438 10.305 30.3437C10.6749 30.322 11.0448 30.3002 11.4166 30.2849C11.0755 30.322 10.7338 30.3546 10.3946 30.3879C10.3286 30.7533 10.2762 31.1187 10.2346 31.4861C10.5674 31.3639 10.8976 31.2365 11.2304 31.1143L11.4096 31.1232C11.0134 31.2851 10.6262 31.4733 10.241 31.664C10.2499 31.8957 10.2672 32.3622 10.2736 32.5939C10.7242 32.3622 11.1798 32.1433 11.6304 31.9111L11.4666 32.0947C11.0838 32.3443 10.5936 32.4774 10.2915 32.8319C10.3005 33.6723 10.4182 34.5081 10.5322 35.3401C10.8278 37.2305 11.4909 39.0711 12.4598 40.7209C12.4317 41.9267 12.1712 43.1413 11.4595 44.1371C11.6586 44.5135 11.9914 44.8616 12.0112 45.3039C11.8864 46.0545 11.2822 46.6887 11.4096 47.4855C11.5715 49.4176 10.8624 51.2627 10.0246 52.9631C5.67648 48.4442 2.80288 42.5315 1.9344 36.3185C1.10944 30.5197 1.97408 24.4777 4.4752 19.1729C7.51136 12.617 12.9827 7.2316 19.585 4.29473Z" fill="#BA9F33"/>
<path id="Vector_4" d="M21.4672 5.21186C21.5965 5.06083 21.7277 4.90979 21.8633 4.76131C22.0803 4.84003 22.2967 4.92324 22.5136 5.00835C22.8791 6.15711 23.4461 7.30587 23.3296 8.54487C23.288 9.37233 23.1088 10.2607 23.5241 11.0305C23.7033 11.4683 24.1392 11.6955 24.5091 11.9476C24.2857 12.1204 24.0649 12.2932 23.8307 12.4487C22.8637 12.834 22.0931 13.5514 21.3687 14.2759C21.0883 14.2759 20.8087 14.2778 20.5283 14.2778C22.0605 12.4372 22.7363 10.013 22.7299 7.64507C22.76 6.66269 22.0073 5.94463 21.4672 5.21186Z" fill="#C79C3B"/>
<path id="Vector_5" d="M22.513 5.0083C24.0471 5.81787 25.0647 7.40693 25.4961 9.0568C25.7303 9.94313 26.3191 10.6567 26.9642 11.2826C26.9578 11.3857 26.9469 11.5892 26.9425 11.6916C26.1418 11.4292 25.1569 11.2628 24.5092 11.9475C24.1393 11.6961 23.7041 11.4682 23.5242 11.0305C23.1082 10.2599 23.2881 9.37167 23.3297 8.5448C23.4455 7.3058 22.8785 6.15706 22.513 5.0083Z" fill="#B58634"/>
<path id="Vector_6" d="M21.4672 5.21183C22.008 5.94461 22.7606 6.66266 22.7299 7.645C22.7363 10.0129 22.0604 12.4371 20.5283 14.2777C20.4234 14.2797 20.2154 14.2841 20.1104 14.2841C20.7734 13.2685 21.432 12.1677 21.5024 10.923C21.6272 9.1656 21.0864 7.43513 21.2662 5.67326C21.3162 5.55935 21.4166 5.32767 21.4672 5.21183Z" fill="#DFC068"/>
<path id="Vector_7" d="M20.977 8.1026C21.0013 7.28853 20.9245 6.43739 21.2656 5.67326C21.0864 7.43513 21.6266 9.1656 21.5018 10.923C21.432 12.1684 20.7728 13.2691 20.1098 14.2841L19.8474 14.2905C20.7357 12.3585 20.9546 10.2056 20.977 8.1026Z" fill="#A78F33"/>
<path id="Vector_8" d="M43.1035 7.13114C43.6264 6.08091 45.1848 6.08924 46.084 6.61914C46.9262 7.3148 47.1342 8.48147 47.3947 9.48814C47.732 11.4509 48.0334 13.4905 47.5982 15.4643C47.3665 16.5714 47.2456 17.788 46.4648 18.6725C46.3137 18.3947 46.1627 18.1163 46.0296 17.8277C45.8805 17.3945 45.7563 16.9522 45.6161 16.5145C46.1544 15.3132 46.4283 14 46.5704 12.6957C46.6997 11.5316 45.9246 10.5729 45.1521 9.80687C44.7425 8.72594 43.9131 7.92087 43.1035 7.13114Z" fill="#A17C34"/>
<path id="Vector_9" d="M43.0332 7.37366C43.0505 7.3148 43.0857 7.19186 43.103 7.13046C43.9126 7.9202 44.742 8.72593 45.1516 9.80686C45.1299 10.1243 45.0575 10.4699 44.7247 10.5927C43.7769 11.0721 42.7158 11.4202 42.0221 12.2714C41.5471 12.873 40.6217 13.2167 40.5469 14.055C40.6473 14.1293 40.8489 14.2758 40.9494 14.3507C40.8553 14.4729 40.6691 14.718 40.575 14.8409C40.6953 14.9657 40.8182 15.0879 40.9405 15.2108C41.4461 14.6835 42.223 14.6374 42.8771 14.4057C42.7741 14.6598 42.6717 14.9158 42.5686 15.1718C42.8463 15.1103 43.1286 15.0495 43.4089 14.9926C43.0633 15.3887 42.6761 15.7477 42.2691 16.0825C42.223 16.0562 42.1315 16.0082 42.0854 15.9839C41.5862 15.7369 41.1005 15.4041 40.527 15.3823C40.4989 15.2972 40.4438 15.1308 40.4157 15.0451C40.1007 15.0278 39.7878 14.9683 39.4902 14.8678C39.5734 14.6598 39.7398 14.2463 39.823 14.0403C39.6502 14.1235 39.302 14.2918 39.1292 14.375C39.5996 13.6025 40.0572 12.8211 40.5167 12.0423C40.5494 11.9853 40.6153 11.8714 40.6479 11.8145C41.2803 10.6414 42.2102 9.66346 42.847 8.4968C43.0703 8.15953 43.062 7.75893 43.0332 7.37366Z" fill="#B89844"/>
<path id="Vector_10" d="M43.0333 7.37367C43.0615 7.75894 43.0705 8.15961 42.8471 8.49621C42.2103 9.66287 41.2804 10.6408 40.6481 11.8139C40.6372 10.8289 40.7665 9.82227 41.4187 9.03894C42.0989 8.64281 42.6417 8.05467 43.0333 7.37367Z" fill="#CBA94C"/>
<path id="Vector_11" d="M38.2607 11.8465C39.5515 11.1943 40.2107 9.7832 41.4184 9.03887C40.7663 9.8222 40.637 10.8289 40.6479 11.8139C40.6152 11.8708 40.5493 11.9847 40.5167 12.0417C40.5429 11.6628 40.5058 11.2865 40.4507 10.9127C39.8402 12.1735 39.1682 13.4119 38.2447 14.4755C37.7109 14.3309 37.1573 14.2784 36.6031 14.2784C36.9096 13.6921 37.3032 13.1578 37.7192 12.6483C35.5746 12.1453 33.3685 12.633 31.2002 12.4276C32.7017 11.9962 34.2703 11.9156 35.8152 11.7556C36.637 11.6628 37.4549 12.1095 38.2607 11.8465Z" fill="#AC8132"/>
<path id="Vector_12" d="M45.1517 9.80687C45.9241 10.5729 46.6992 11.531 46.5699 12.6957C46.4279 14 46.1539 15.3133 45.6157 16.5145C45.2195 16.8383 44.808 17.1449 44.4009 17.4578C44.2083 17.3157 44.0112 17.1756 43.8167 17.0355L43.7207 16.9695C44.3465 15.6237 45.3578 14.3591 45.4231 12.8295C44.2301 12.873 43.0377 13.0682 41.9017 13.4311C41.4333 13.5469 41.1952 13.9783 40.9501 14.3501C40.8496 14.2759 40.648 14.1293 40.5475 14.0544C40.6217 13.2161 41.5479 12.873 42.0227 12.2708C42.7165 11.4196 43.7776 11.0715 44.7255 10.5921C45.0576 10.4705 45.1299 10.1243 45.1517 9.80687Z" fill="#927238"/>
<path id="Vector_13" d="M40.4509 10.9121C40.5059 11.2865 40.543 11.6628 40.5168 12.041C40.0573 12.8199 39.5997 13.6013 39.1293 14.3737C39.3021 14.2905 39.6502 14.1222 39.823 14.039C39.7398 14.2445 39.5735 14.6585 39.4903 14.8665C39.0768 14.7263 38.6653 14.5862 38.2448 14.4749C39.1689 13.4112 39.8403 12.1729 40.4509 10.9121Z" fill="#8C6228"/>
<path id="Vector_14" d="M24.5085 11.9476C25.1561 11.2628 26.1411 11.4292 26.9417 11.6916C28.3535 11.9764 29.7801 12.2017 31.2003 12.4269C33.3693 12.6324 35.5747 12.1447 37.7193 12.6477C37.3033 13.1578 36.9097 13.6915 36.6031 14.2777C33.0953 14.2733 29.5849 14.2931 26.0771 14.2797C25.9305 13.7805 25.9107 13.1591 25.4512 12.8269C24.9827 12.4897 24.3766 12.5095 23.8294 12.4481C24.0643 12.2932 24.2857 12.1204 24.5085 11.9476Z" fill="#D2A83E"/>
<path id="Vector_15" d="M21.3685 14.2759C22.093 13.5514 22.8629 12.834 23.8305 12.4487C24.3777 12.5102 24.9839 12.4903 25.4523 12.8276C25.9119 13.1604 25.9317 13.7818 26.0783 14.2803C24.5083 14.2759 22.9371 14.2778 21.3685 14.2759Z" fill="#DCBA5A"/>
<path id="Vector_16" d="M41.9023 13.4311C43.0383 13.0676 44.2306 12.873 45.4236 12.8295C45.3576 14.3591 44.3471 15.6243 43.7212 16.9695C43.2572 16.6412 42.7714 16.3481 42.2703 16.0813C42.6773 15.7465 43.0645 15.3875 43.4101 14.9913C43.1298 15.0483 42.8476 15.1097 42.5698 15.1705C42.6728 14.9146 42.7752 14.6585 42.8783 14.4045C42.2242 14.6361 41.4472 14.6823 40.9416 15.2096C40.8194 15.0873 40.6965 14.9645 40.5762 14.8397C40.6703 14.7175 40.8565 14.4723 40.9506 14.3495C41.1951 13.9783 41.4338 13.5469 41.9023 13.4311Z" fill="#543E26"/>
<path id="Vector_17" d="M15.5582 14.2931C16.9873 14.2758 18.4164 14.2867 19.8475 14.2912L20.1099 14.2848C20.2148 14.2848 20.4228 14.2803 20.5278 14.2783C20.8081 14.2783 21.0878 14.2765 21.3681 14.2765C22.9374 14.2784 24.5086 14.2765 26.0772 14.2809C29.5851 14.2943 33.0954 14.2745 36.6033 14.279C37.1569 14.279 37.7105 14.3315 38.2449 14.4761C38.6654 14.5875 39.0762 14.7277 39.4904 14.8678C39.788 14.9683 40.1009 15.0278 40.4158 15.0451C40.4439 15.1302 40.499 15.2966 40.5272 15.3823C41.1006 15.4041 41.5864 15.7369 42.0856 15.9839C41.7617 16.8197 41.1031 17.4367 40.4926 18.0651C41.0289 18.3627 41.5607 18.6737 42.0484 19.0475C42.6724 18.4088 43.2478 17.7233 43.8167 17.0367C44.0113 17.1768 44.2084 17.317 44.401 17.4591C44.8145 17.7701 45.2151 18.0977 45.5959 18.4485C48.9572 21.4576 50.673 25.9279 50.986 30.3571C51.0276 30.9369 51.0366 31.5193 51.0538 32.0992C51.0404 34.4037 50.833 36.723 50.2289 38.9527C49.811 40.4995 49.2177 42.0054 48.4062 43.3883C47.8372 44.2657 47.2266 45.124 46.4913 45.8721C46.0145 46.3713 45.5134 46.85 44.9572 47.2641C44.7076 47.1348 44.4606 47.0081 44.211 46.8813C43.7866 47.1175 43.3924 47.4919 42.8804 47.5028C42.193 47.5489 41.5562 47.8484 40.8804 47.9668C41.537 46.9863 42.8785 46.251 42.6615 44.8943C42.2916 44.9115 41.9242 44.9295 41.5562 44.9467C41.681 44.4719 41.8014 43.9925 41.9153 43.5131C41.793 43.4319 41.5518 43.27 41.4314 43.1893C41.8449 42.7279 42.2673 42.2678 42.657 41.782C41.8257 41.9721 41.075 42.3836 40.2872 42.6946C41.7969 40.4957 43.1256 38.1668 44.2372 35.7425C44.8721 34.2393 45.7188 32.7487 45.7386 31.0727C45.7956 30.0026 45.1108 29.0772 45.0775 28.0155C44.9834 26.7944 44.9854 25.3807 43.9722 24.5123C42.2238 24.8713 40.4536 24.5365 38.7089 24.3331C38.2404 24.2652 37.77 24.3465 37.3086 24.4227C37.2273 24.3241 37.1422 24.2326 37.057 24.1404C36.5144 23.5958 35.9409 23.0269 35.1992 22.7702C34.5162 22.6589 33.8225 22.7485 33.1358 22.7549L33.0417 22.7305C32.282 22.4003 31.4923 21.969 30.6347 22.1219C29.9211 22.1962 29.4968 22.8438 28.9278 23.2009C28.3416 23.5727 27.7592 23.9625 27.315 24.5052C27.9012 25.5074 28.954 26.0565 30.044 26.3387C30.0068 26.9928 29.9562 27.6449 29.8993 28.2971C29.2298 28.5204 28.604 28.8532 28.028 29.2602C27.7214 28.5972 27.5774 27.8727 27.2817 27.2078C26.9668 26.788 26.5291 26.4789 26.1329 26.1397C26.0408 26.4219 25.9512 26.7067 25.8596 26.9909C25.658 27.0959 25.4571 27.2033 25.2555 27.3102C25.2273 26.8155 25.2139 26.3189 25.1243 25.8312C24.9272 24.9449 24.2948 24.2447 23.9601 23.4153C24.0145 22.5661 24.2731 21.7392 24.2948 20.8855C23.8705 21.0563 23.4392 21.2112 23.0232 21.4C22.4542 21.6253 22.1739 22.2249 21.6862 22.5597C21.2113 22.7696 20.6948 22.8483 20.1956 22.9795L20.259 22.7977C20.7032 22.408 20.8299 21.8346 20.9419 21.2835C20.6596 21.4193 20.3793 21.5549 20.0996 21.6925C19.747 21.1978 20.2833 20.865 20.5899 20.5412C20.1368 20.1207 19.5262 19.795 18.8984 20.0228C17.8456 20.3901 17.3816 21.5587 17.2747 22.5872C16.8433 22.5981 16.4126 22.6179 15.9812 22.6089C16.1496 22.2979 16.316 21.9875 16.4868 21.6765C16.2744 21.2061 15.7976 21.0289 15.3444 20.8733C15.3688 19.7003 15.3489 18.5297 15.3464 17.3586C15.3508 17.0149 15.3598 16.6738 15.3598 16.3301C15.3745 15.6498 15.274 14.9363 15.5582 14.2931Z" fill="#F3EBDB"/>
<path id="Vector_18" d="M42.0862 15.9827C42.1322 16.007 42.2238 16.055 42.2698 16.0813C42.771 16.3481 43.2567 16.6412 43.7207 16.9695L43.8167 17.0355C43.2478 17.7228 42.6724 18.4075 42.0484 19.0463C41.56 18.6719 41.0288 18.3615 40.4926 18.0639C41.1031 17.4354 41.7623 16.8185 42.0862 15.9827Z" fill="#DCDAD7"/>
<path id="Vector_19" d="M11.7112 24.607C12.14 21.5978 13.059 18.46 15.3592 16.3308C15.3592 16.6745 15.3502 17.0156 15.3457 17.3593C13.8225 18.9547 12.9432 21.0813 12.5272 23.224C12.3653 23.9529 12.0389 24.6287 11.7375 25.3052C11.7176 25.0729 11.7093 24.8387 11.7112 24.607Z" fill="#A78E32"/>
<path id="Vector_20" d="M44.4011 17.4578C44.8081 17.1449 45.2196 16.8383 45.6158 16.5145C45.7559 16.9522 45.8807 17.3945 46.0292 17.8277C45.9197 17.9833 45.7053 18.2936 45.5959 18.4472C45.2151 18.0965 44.8151 17.7682 44.4011 17.4578Z" fill="#B59544"/>
<path id="Vector_21" d="M12.5271 23.2239C12.9431 21.0813 13.8224 18.9547 15.3456 17.3592C15.3476 18.5297 15.3674 19.7009 15.3438 20.874C14.6218 21.489 14.2999 22.5001 13.37 22.8694C13.2452 23.5081 12.9911 24.1123 12.6148 24.6441C12.3415 24.9986 12.0439 25.3314 11.7527 25.6706C11.7482 25.581 11.7418 25.3973 11.7374 25.3052C12.0394 24.6287 12.3652 23.9523 12.5271 23.2239Z" fill="#EBCC73"/>
<path id="Vector_22" d="M18.8975 20.0222C19.5253 19.7944 20.1358 20.1208 20.589 20.5406C20.2824 20.8644 19.7467 21.1972 20.0987 21.6919C20.3791 21.5543 20.6587 21.4187 20.941 21.283C20.8297 21.8346 20.7023 22.4081 20.2581 22.7971C19.6846 22.7139 19.1029 22.705 18.5269 22.7665C18.5621 22.4227 18.5858 22.0746 18.6715 21.7399C18.9339 21.4551 19.3128 21.3329 19.6456 21.1601C19.444 20.9566 19.2821 20.6942 19.0197 20.5669C18.3918 20.7351 17.7634 21.2126 17.6693 21.8909C17.6846 22.202 17.7352 22.5105 17.7806 22.8208C17.6776 22.8163 17.4696 22.8074 17.3672 22.8055L17.2379 22.801L17.2731 22.5866C17.3813 21.5581 17.8453 20.3895 18.8975 20.0222Z" fill="#D7D7D5"/>
<path id="Vector_23" d="M44.9508 20.4465C45.4827 20.2628 46.0189 20.0901 46.5591 19.9365C46.9643 20.7486 46.8286 21.6305 46.4171 22.4067C46.6142 22.4067 46.8132 22.4087 47.0123 22.4113C47.0475 23.0941 47.0385 24.0502 46.2353 24.2736C45.7911 23.2957 44.7294 22.7267 44.458 21.6522C44.4913 21.2107 44.7601 20.8343 44.9508 20.4465Z" fill="#E6DED7"/>
<path id="Vector_24" d="M17.6699 21.8909C17.764 21.2125 18.3919 20.7358 19.0203 20.5668C19.2827 20.6935 19.4447 20.9565 19.6463 21.1601C19.3135 21.3329 18.9352 21.4557 18.6722 21.7399C18.5871 22.0746 18.5627 22.4227 18.5275 22.7664C18.3413 22.7799 17.9675 22.8061 17.7813 22.8208C17.7359 22.5104 17.6853 22.2019 17.6699 21.8909Z" fill="#F5F2E6"/>
<path id="Vector_25" d="M23.0231 21.3987C23.4391 21.2106 23.8698 21.0551 24.2948 20.8842C24.273 21.7379 24.0145 22.5648 23.9601 23.414C24.2948 24.2435 24.9271 24.9436 25.1242 25.8299C25.2138 26.3183 25.2273 26.8149 25.2554 27.3089C25.457 27.2014 25.658 27.0945 25.8596 26.9896C25.9518 26.7048 26.0414 26.4207 26.1329 26.1384C26.529 26.4776 26.9668 26.7861 27.2817 27.2065C27.5774 27.8715 27.7214 28.5959 28.0279 29.2589C28.6033 28.8519 29.2292 28.5191 29.8992 28.2958C29.9562 27.6437 30.0068 26.9915 30.0439 26.3375C30.0458 26.2677 30.0484 26.1275 30.0503 26.0571C29.6631 25.7333 29.0545 25.5253 29.002 24.9474C28.954 24.2121 29.418 23.5734 29.9364 23.1023C30.081 23.1331 30.2276 23.1683 30.376 23.1901C30.6583 23.1683 30.7959 23.0019 30.7876 22.687C31.1664 22.6717 31.5447 22.6889 31.9236 22.7113C31.5409 23.2406 31.0526 23.7334 30.3806 23.8447C30.3786 24.1993 30.387 24.5539 30.4068 24.9084C30.385 25.2649 30.3479 25.6219 30.3255 25.9784L30.3191 26.2235C30.3236 27.0657 30.3236 27.9105 30.33 28.7534C30.3345 32.9657 30.3146 37.1761 30.339 41.3884C30.3588 41.4691 30.4004 41.6335 30.4222 41.7142C32.3198 41.5875 34.4791 42.1827 36.1252 40.9462C38.4318 39.2899 39.3796 36.3921 39.6176 33.6723C39.8871 30.4621 39.3136 27.0261 37.3092 24.4201C37.7706 24.3433 38.2417 24.2627 38.7095 24.3305C40.4535 24.534 42.2238 24.8687 43.9728 24.5097C44.986 25.3781 44.984 26.7918 45.0782 28.0129C45.1108 29.074 45.7962 30.0001 45.7392 31.0701C45.7194 32.7462 44.8727 34.2367 44.2378 35.74C43.1262 38.1649 41.7975 40.4931 40.2877 42.6921C41.0756 42.3811 41.8263 41.9702 42.6576 41.7795C42.2679 42.2652 41.8455 42.7247 41.4321 43.1868C41.5524 43.2681 41.793 43.4299 41.9159 43.5106C41.802 43.9899 41.6816 44.4693 41.5568 44.9441C41.9242 44.9269 42.2922 44.9089 42.6622 44.8917C42.8791 46.2484 41.537 46.9837 40.881 47.9642C41.5575 47.8458 42.1943 47.5463 42.881 47.5002C43.393 47.4893 43.7872 47.1149 44.2116 46.8788C44.4612 47.0055 44.7082 47.1329 44.9578 47.2615C42.314 49.2704 38.9815 50.3539 35.6618 50.279C32.7728 50.27 29.8846 50.2924 26.9956 50.2681C25.7438 50.2726 24.49 50.2701 23.2382 50.2726C22.3191 50.2726 21.3975 50.2726 20.4785 50.2771C20.209 50.2751 19.9402 50.2726 19.6708 50.2726C18.4433 50.2681 17.2132 50.3161 15.9876 50.2637C15.5562 50.2989 15.3834 49.8195 15.3815 49.4694C15.3265 48.4954 15.377 47.522 15.3617 46.5479C15.3726 45.4363 15.379 44.3227 15.3508 43.2105C15.3463 42.7247 15.4232 42.2473 15.537 41.7769C17.082 41.6195 18.6334 41.8204 20.1828 41.7135C20.1828 41.1843 20.1847 40.6544 20.1847 40.1271C20.1847 39.72 20.1847 39.313 20.1892 38.9079C20.2833 39.2625 20.3991 39.6106 20.513 39.9607C21.2439 39.825 22.0561 39.6387 22.6071 40.2864C23.8961 39.1441 25.7956 39.1991 27.336 38.5661C27.6708 37.6951 28.4522 36.9924 28.3492 35.9883C28.2878 35.9749 28.161 35.9467 28.0996 35.9313C26.4868 35.4239 24.979 36.4677 23.4033 36.588C22.355 36.4894 21.3438 35.9819 20.6698 35.1698C20.7268 34.9381 20.7902 34.7058 20.8516 34.4761C20.6961 34.3467 20.5406 34.2181 20.3857 34.0889C20.3684 33.6204 20.3614 33.1519 20.3876 32.686C20.5297 32.1343 20.8977 31.7037 21.4033 31.4496C21.5652 30.6221 21.699 29.7907 21.843 28.9613C21.4116 28.4167 20.8298 28.0359 20.1822 27.7972V27.7339C20.1777 27.1784 20.1777 26.6241 20.1822 26.0687C20.193 25.11 20.1822 24.1519 20.1777 23.1933C20.1822 23.1389 20.1911 23.0294 20.195 22.9763C20.6942 22.8451 21.2106 22.7664 21.6855 22.5565C22.1738 22.2237 22.4542 21.624 23.0231 21.3987Z" fill="#F8F3E4"/>
<path id="Vector_26" d="M13.3701 22.8695C14.3 22.4996 14.622 21.4884 15.3439 20.874C15.3528 21.4257 15.3637 21.9767 15.379 22.5283C15.5301 22.5482 15.8296 22.5898 15.9806 22.6097C16.412 22.6186 16.8428 22.5988 17.2741 22.5879L17.2389 22.8023C16.6501 22.7914 16.0613 22.7889 15.4732 22.7779C15.4008 23.1082 15.3509 23.441 15.333 23.7783C14.1842 24.2249 13.4949 25.2796 12.556 26.0124C12.565 25.5548 12.5759 25.0998 12.6149 24.6448C12.9912 24.1123 13.2453 23.5082 13.3701 22.8695Z" fill="#F4EFC8"/>
<path id="Vector_27" d="M15.3438 20.8734C15.7969 21.0289 16.2737 21.2061 16.4862 21.6765C16.3153 21.9876 16.1489 22.2979 15.9806 22.609C15.8296 22.5891 15.53 22.5475 15.3789 22.5277C15.3636 21.9767 15.3528 21.425 15.3438 20.8734Z" fill="#FCFCF4"/>
<path id="Vector_28" d="M28.9269 23.1997C29.4959 22.8432 29.9202 22.1955 30.6338 22.1207C31.4914 21.9677 32.2818 22.3985 33.0409 22.7293C32.6665 22.7203 32.2946 22.7274 31.9228 22.712C31.5439 22.6903 31.1657 22.6723 30.7868 22.6877C30.4783 22.705 30.3401 22.8739 30.3753 23.1907C30.2262 23.1689 30.0796 23.1337 29.9356 23.1031C29.4172 23.5734 28.9532 24.2127 29.0012 24.9481C29.0537 25.526 29.6623 25.734 30.0495 26.0578C30.0476 26.1276 30.045 26.2677 30.0431 26.3381C28.9532 26.0559 27.9003 25.5068 27.3141 24.5046C27.7583 23.9613 28.3407 23.5715 28.9269 23.1997Z" fill="#D7D7D5"/>
<path id="Vector_29" d="M15.4728 22.7773C16.0616 22.7881 16.6504 22.7907 17.2386 22.8016L17.3678 22.8061C17.6021 23.272 17.9259 23.6879 18.3874 23.9484C18.5294 24.0598 18.6696 24.1763 18.8078 24.294C18.3483 24.9986 17.6744 25.5567 17.3435 26.3445C17.0152 26.4783 16.6914 26.6203 16.3611 26.7407C16.2914 26.6945 16.1512 26.6049 16.0808 26.5589C16.1486 26.4431 16.2798 26.2133 16.3458 26.0975C16.0962 26.0386 15.8446 25.9791 15.595 25.9202C15.4638 25.2111 15.3698 24.4975 15.3326 23.7775C15.3499 23.4403 15.4005 23.1075 15.4728 22.7773Z" fill="#E5C66B"/>
<path id="Vector_30" d="M17.3679 22.8054C17.4709 22.8073 17.6789 22.8163 17.7813 22.8207C17.7288 23.7046 18.74 23.6022 19.3307 23.5101C19.0657 23.256 18.8014 23.007 18.5275 22.7657C19.1029 22.7043 19.6853 22.7133 20.2587 22.7965L20.1953 22.9782C20.1909 23.0307 20.1819 23.1401 20.1781 23.1952C19.524 23.3289 19.0862 24.0156 18.388 23.9478C17.9259 23.6873 17.6021 23.2719 17.3679 22.8054Z" fill="#242110"/>
<path id="Vector_31" d="M17.7816 22.8208C17.9678 22.8055 18.3416 22.7793 18.5278 22.7665C18.8011 23.0071 19.0661 23.2567 19.331 23.5107C18.7403 23.6023 17.7292 23.7053 17.7816 22.8208Z" fill="#938357"/>
<path id="Vector_32" d="M30.3761 23.1907C30.3409 22.8733 30.4792 22.705 30.7877 22.6877C30.796 23.0026 30.6584 23.169 30.3761 23.1907Z" fill="#CDBD83"/>
<path id="Vector_33" d="M31.9228 22.7113C32.2946 22.7267 32.6671 22.7203 33.0409 22.7286L33.135 22.7529C33.6233 23.0659 34.1046 23.4031 34.5052 23.8294C34.0438 24.8188 33.2226 25.6521 32.2076 26.0699C31.597 26.2536 30.9468 26.1922 30.319 26.2229L30.3254 25.9778C30.7984 25.9733 31.2706 25.956 31.7456 25.9298C31.2246 25.6937 30.7235 25.398 30.406 24.9077C30.3862 24.5532 30.3778 24.1987 30.3798 23.8441C31.0518 23.7334 31.5401 23.2413 31.9228 22.7113Z" fill="#252211"/>
<path id="Vector_34" d="M33.1356 22.7529C33.823 22.7465 34.5167 22.6569 35.199 22.7683C35.9407 23.0243 36.5142 23.5933 37.0569 24.1385C36.3568 24.8629 35.8992 25.7647 35.2994 26.5634C34.7062 27.3793 33.6386 27.5195 32.8028 27.979C32.0348 28.395 31.2054 28.6855 30.3298 28.7534C30.3234 27.9111 30.3234 27.0664 30.319 26.2235C30.9468 26.1928 31.597 26.2543 32.2076 26.0706C33.2233 25.6527 34.0438 24.8188 34.5052 23.83C34.1046 23.4032 33.6233 23.0659 33.1356 22.7529Z" fill="#D2B257"/>
<path id="Vector_35" d="M18.3883 23.9479C19.0865 24.0157 19.5243 23.3283 20.1784 23.1952C20.1828 24.1539 20.1938 25.1119 20.1828 26.0707C19.6574 26.1999 19.1083 26.4796 18.5681 26.2761C18.1611 26.1141 17.7368 26.1603 17.3451 26.3439C17.6753 25.5561 18.3492 24.9981 18.8094 24.2935C18.6705 24.1757 18.5304 24.0599 18.3883 23.9479Z" fill="#E6BD62"/>
<path id="Vector_36" d="M32.0087 23.2675C32.7172 23.3264 31.6407 23.926 32.0087 23.2675V23.2675Z" fill="#696148"/>
<path id="Vector_37" d="M12.5559 26.0117C13.4948 25.2783 14.1841 24.2237 15.3329 23.7776C15.3701 24.4975 15.4641 25.2111 15.5953 25.9202C15.8449 25.9791 16.0964 26.0386 16.346 26.0975C16.2801 26.2133 16.1489 26.4431 16.0811 26.5589C15.3393 27.1215 14.3761 27.5393 14.0107 28.4603C13.5947 29.5892 13.6363 30.8148 13.4814 31.9943C13.2119 31.7274 12.8094 31.5059 12.8337 31.0707C12.7768 30.1844 13.011 29.3134 13.0635 28.4341C12.6545 29.0293 12.4069 29.7121 12.1617 30.386C12.0503 30.8103 11.5531 30.9025 11.2293 31.1149C10.8965 31.2371 10.5662 31.3645 10.2334 31.4867C10.275 31.1194 10.3275 30.754 10.3934 30.3885C10.7326 30.3559 11.0737 30.3226 11.4155 30.2855C11.0437 30.3009 10.6737 30.3226 10.3038 30.3444C10.5643 28.7445 10.7415 27.0031 11.7527 25.67C12.0439 25.3308 12.3415 24.998 12.6149 24.6435C12.5758 25.0991 12.5649 25.5541 12.5559 26.0117Z" fill="#F4ECB4"/>
<path id="Vector_38" d="M32.223 24.0905C32.886 23.7776 32.2908 24.8035 32.223 24.0905V24.0905Z" fill="#71694F"/>
<path id="Vector_39" d="M37.0569 24.1385C37.142 24.2307 37.2278 24.3222 37.3084 24.4207C39.3129 27.0267 39.8864 30.4627 39.6169 33.6729C39.2732 33.8591 38.9232 34.0364 38.5993 34.2572C38.0432 34.638 37.7392 35.2856 37.1836 35.6664C36.2096 36.1521 34.9846 36.0363 34.1174 36.7518C33.6226 37.3118 33.286 38.0011 32.7081 38.4893C33.0166 38.8023 33.3494 39.0935 33.6336 39.4301C33.7827 39.6906 33.7276 40.0253 33.8768 40.2877C34.1545 40.511 34.472 40.6813 34.776 40.8701C33.9881 40.9885 33.1894 40.9597 32.3996 40.8547C31.6624 40.7145 30.9968 41.1325 30.3382 41.3885C30.3138 37.1761 30.3337 32.9657 30.3292 28.7534C31.2048 28.6855 32.0342 28.3943 32.8022 27.979C33.638 27.5195 34.7062 27.3793 35.2988 26.5634C35.8992 25.7641 36.3568 24.8629 37.0569 24.1385Z" fill="#DFCD88"/>
<path id="Vector_40" d="M30.4068 24.9085C30.7243 25.3987 31.2254 25.6943 31.7464 25.9305C31.2715 25.9567 30.7985 25.974 30.3262 25.9785C30.3473 25.622 30.3844 25.2655 30.4068 24.9085Z" fill="#DFCD88"/>
<path id="Vector_41" d="M17.3437 26.3445C17.7354 26.1609 18.1597 26.1148 18.5667 26.2767C19.1075 26.4803 19.6567 26.1999 20.1815 26.0713C20.177 26.6268 20.177 27.181 20.1815 27.7365C19.1376 27.3691 18.0503 27.0799 16.9315 27.1413C16.7415 27.0057 16.5507 26.8719 16.3607 26.7407C16.6922 26.6197 17.0161 26.4777 17.3437 26.3445Z" fill="#DFC57C"/>
<path id="Vector_42" d="M14.0113 28.4603C14.3767 27.5387 15.3399 27.1208 16.0817 26.5589C16.1514 26.605 16.2916 26.6946 16.362 26.7407C16.5521 26.8719 16.7428 27.0056 16.9329 27.1413C15.9351 27.1739 14.9501 27.8177 14.8317 28.8679C14.6589 30.2029 14.1969 31.4829 14.0721 32.8224C13.9409 33.7849 14.8292 34.4153 15.1069 35.2556C15.1921 35.7131 15.2209 36.1791 15.3367 36.6296C15.2029 37.2139 15.0871 37.8027 14.9956 38.3934C14.801 38.3979 14.6039 38.4043 14.4093 38.4107C14.2039 38.8875 13.9562 39.3514 13.8007 39.8506C13.978 40.8112 14.2929 41.7456 14.5143 42.6998C14.4708 42.8073 14.3805 43.0236 14.337 43.1311C13.8602 42.6127 13.5889 41.8883 12.9585 41.5293C12.7965 41.256 12.6212 40.9929 12.4593 40.7216C11.4897 39.0717 10.8266 37.2312 10.5316 35.3407C10.6212 34.7827 10.7287 34.2271 10.8202 33.671C11.2228 34.4697 11.1793 35.4437 11.7175 36.172C12.0829 36.076 12.4509 35.9858 12.8228 35.9205L13.0065 36.1394C13.3917 35.5813 13.7546 34.9817 13.825 34.2905C13.5735 34.6316 13.3393 34.9861 13.1268 35.3541C12.8202 34.8729 12.4573 34.4133 12.2801 33.8662C12.1815 33.2339 12.2033 32.5926 12.1533 31.9578C11.9236 32.0013 11.6957 32.0455 11.466 32.0953L11.6298 31.9117C11.8333 31.6839 12.0279 31.4503 12.225 31.2179C11.9537 31.1827 11.6823 31.1392 11.409 31.1239L11.2298 31.1149C11.5537 30.9025 12.0503 30.8109 12.1623 30.386C12.4074 29.7121 12.6545 29.0293 13.0641 28.4341C13.0116 29.3141 12.7773 30.1844 12.8343 31.0708C12.81 31.5059 13.2132 31.7274 13.482 31.9943C13.6369 30.8148 13.5953 29.5892 14.0113 28.4603Z" fill="#F3E19D"/>
<path id="Vector_43" d="M14.8318 28.8673C14.9502 27.8171 15.9345 27.1733 16.9329 27.1407C18.051 27.0792 19.139 27.3685 20.1828 27.7359V27.7992C20.1892 28.7771 20.1764 29.7531 20.1872 30.7316L20.1854 30.9133C19.857 31.2327 19.5466 31.5719 19.2311 31.9066C18.6974 32.3616 18.0119 32.5434 17.347 32.7143C17.3162 32.8563 17.2548 33.1411 17.2247 33.2832C17.1895 33.4406 17.1217 33.7581 17.0871 33.9155C16.1482 33.0445 15.5991 31.8759 14.9751 30.7815C14.6263 30.1998 14.7594 29.4997 14.8318 28.8673Z" fill="#252211"/>
<path id="Vector_44" d="M20.1822 27.7993C20.8298 28.0379 21.4122 28.4187 21.843 28.9633C21.6984 29.7927 21.5652 30.6241 21.4033 31.4516C20.8977 31.7057 20.5303 32.1363 20.3876 32.688C20.4228 32.0269 20.3153 31.3748 20.186 30.7316C20.1758 29.7537 20.1892 28.7777 20.1822 27.7993Z" fill="#DFDDD9"/>
<path id="Vector_45" d="M5.29688 28.0795C5.99511 27.9899 6.70167 28.0661 7.40187 28.0251L7.09334 28.4168C8.1788 28.3355 9.28407 28.4149 10.3324 28.7189C9.37174 28.5263 8.39574 28.3778 7.41527 28.452C7.05173 28.4936 6.72794 28.3253 6.43032 28.141C6.07832 28.1122 5.52024 28.4955 5.29688 28.0795Z" fill="#D6D6D5"/>
<path id="Vector_46" d="M14.0724 32.8217C14.1972 31.4823 14.6587 30.2023 14.8322 28.8673C14.7598 29.4997 14.6267 30.1997 14.9742 30.7821C15.5982 31.8765 16.1474 33.0451 17.0862 33.9161C17.1214 33.7587 17.1892 33.4413 17.2238 33.2838C17.5675 33.2992 17.9112 33.319 18.2568 33.3408C18.7381 33.7305 19.2571 34.0806 19.6724 34.5465C20.1211 33.6928 19.4888 32.8569 19.5739 31.9795C19.4888 31.9623 19.316 31.9245 19.2302 31.9073C19.5451 31.5725 19.8562 31.2333 20.1844 30.914C20.18 32.4045 20.1864 33.8969 20.1864 35.3868C18.5012 34.8613 16.7022 34.2508 14.941 34.8159C16.589 35.5685 18.4469 35.6281 20.1844 36.0831C20.1844 36.5752 20.18 37.068 20.1755 37.5601C19.3723 37.9211 18.6414 38.4203 17.86 38.8247C17.0459 38.2776 16.4526 37.4744 15.6456 36.9189C15.5688 36.8466 15.4139 36.7019 15.3371 36.6303C15.2213 36.1797 15.1924 35.7132 15.1074 35.2562C14.8296 34.4147 13.9406 33.7843 14.0724 32.8217Z" fill="#6E6342"/>
<path id="Vector_47" d="M7.3783 31.2877C8.2167 30.8237 9.16643 30.6157 10.0964 30.4321C9.99783 30.6419 9.83396 30.7693 9.60803 30.8173C8.88163 31.0362 8.14823 31.2896 7.3783 31.2877Z" fill="#BFA64C"/>
<path id="Vector_48" d="M50.986 30.3552C51.4212 31.5021 51.3931 32.7603 51.8417 33.9045C52.2923 35.5326 53.203 37.1083 53.0411 38.8458C52.8177 38.4823 52.6097 38.0951 52.6276 37.6555C52.6321 36.7166 52.131 35.8981 51.9012 35.0117C51.6299 34.0357 51.3476 33.0643 51.0545 32.0966C51.0366 31.5174 51.0276 30.9351 50.986 30.3552Z" fill="#988430"/>
<path id="Vector_49" d="M20.1865 30.7316C20.3158 31.3748 20.4227 32.0269 20.3881 32.688C20.3619 33.1539 20.3683 33.6224 20.3862 34.0909C20.5417 34.2201 20.6973 34.3487 20.8521 34.4781C20.7907 34.7078 20.7273 34.9401 20.6704 35.1717C20.5853 35.5109 20.5718 35.8636 20.5763 36.2137C22.9616 37.0539 25.9491 37.6401 28.1001 35.9333C28.1615 35.9487 28.2883 35.9769 28.3497 35.9903C28.4528 36.9944 27.6713 37.6971 27.3366 38.5681C25.7961 39.2004 23.8966 39.146 22.6077 40.2884C22.056 39.6407 21.2445 39.8269 20.5136 39.9626C20.3997 39.6125 20.2838 39.2644 20.1897 38.9099C20.1699 38.4593 20.1744 38.0107 20.1763 37.5595C20.1808 37.0673 20.1853 36.5746 20.1853 36.0825C20.1872 35.8508 20.1872 35.6185 20.1872 35.3868C20.1872 33.8963 20.1808 32.4039 20.1853 30.914L20.1865 30.7316Z" fill="#E7E3DB"/>
<path id="Vector_50" d="M11.4089 31.1232C11.6822 31.1386 11.9536 31.1821 12.2249 31.2173C12.0278 31.4489 11.8332 31.6832 11.6297 31.911C11.1792 32.1427 10.7234 32.3615 10.2729 32.5939C10.2665 32.3622 10.2486 31.8957 10.2403 31.664C10.6256 31.4739 11.0128 31.2851 11.4089 31.1232Z" fill="#F5EDB6"/>
<path id="Vector_51" d="M11.4661 32.0953C11.6958 32.0448 11.9237 32.0013 12.1534 31.9577C12.204 32.5926 12.1816 33.2333 12.2802 33.8662C12.4574 34.4133 12.821 34.8729 13.1269 35.3541C13.0194 35.5403 12.9189 35.7285 12.8229 35.9211C12.451 35.9871 12.083 36.0767 11.7176 36.1727C11.1794 35.4437 11.2229 34.4703 10.8203 33.6716C10.7281 34.2278 10.6213 34.7833 10.5317 35.3413C10.4177 34.51 10.3 33.6735 10.291 32.8333C10.5931 32.4781 11.0833 32.3443 11.4661 32.0953Z" fill="#F4ECB4"/>
<path id="Vector_52" d="M17.3462 32.7142C18.0111 32.5433 18.6966 32.3616 19.2303 31.9066C19.3155 31.9239 19.4883 31.9616 19.5741 31.9789C19.4889 32.8563 20.1212 33.6921 19.6726 34.5459C19.2566 34.0799 18.7382 33.7299 18.2569 33.3401C17.9113 33.3183 17.5677 33.2985 17.2239 33.2832C17.2541 33.1411 17.3155 32.8569 17.3462 32.7142Z" fill="#39331F"/>
<path id="Vector_53" d="M51.0537 32.0973C51.3469 33.0643 51.6291 34.0365 51.9005 35.0124C52.1302 35.8988 52.6313 36.7173 52.6269 37.6561C52.6096 38.0958 52.8169 38.4837 53.0403 38.8465C52.8739 40.0829 53.5241 41.2273 53.4601 42.4553C53.4448 42.9085 53.3923 43.3615 53.368 43.8166C53.2041 43.5363 53.0089 43.2758 52.8009 43.0288C52.5622 43.766 52.7197 44.6767 52.1181 45.2521C51.8557 44.8802 51.7245 44.2627 51.1881 44.2083C50.4112 44.0835 49.6867 44.4642 49.1664 45.0133C48.4816 45.7461 47.4224 45.7794 46.4899 45.8709C47.2253 45.1228 47.8358 44.2646 48.4048 43.3871C48.9123 43.5471 49.2541 43.0941 49.6323 42.8489C50.0067 42.5315 50.4969 42.4246 50.9149 42.1815C51.2694 41.6215 51.5318 40.9955 51.6809 40.3498C51.5606 39.9255 51.3616 39.5294 51.2649 39.0981C51.0461 39.1505 50.8317 39.203 50.6147 39.2555C50.5187 39.1787 50.3235 39.0277 50.2275 38.9515C50.8329 36.7211 51.0409 34.4019 51.0537 32.0973Z" fill="#CCA847"/>
<path id="Vector_54" d="M9.30843 33.0559C9.63669 32.9049 9.64123 33.3363 9.37436 33.4041C9.1427 33.5225 8.8643 33.7651 8.59096 33.6492C8.5795 33.3094 9.05623 33.1807 9.30843 33.0559Z" fill="#C1A956"/>
<path id="Vector_55" d="M38.6 34.2573C38.9238 34.0365 39.2739 33.8591 39.6175 33.6729C39.3789 36.3929 38.4317 39.29 36.1251 40.9469C34.4797 42.1833 32.3197 41.5882 30.4221 41.7149C30.4003 41.6343 30.3587 41.4698 30.3389 41.3891C30.9974 41.1331 31.663 40.7153 32.4003 40.8554C33.1901 40.9603 33.9888 40.9891 34.7766 40.8707C34.4726 40.6826 34.1552 40.5117 33.8774 40.2884C33.7283 40.026 33.7833 39.6907 33.6342 39.4308C33.3494 39.0935 33.0173 38.803 32.7088 38.4901C33.2867 38.0024 33.6233 37.3125 34.1181 36.7525C34.9846 36.037 36.2102 36.1529 37.1843 35.6671C37.7398 35.2857 38.0438 34.6381 38.6 34.2573Z" fill="#ECD592"/>
<path id="Vector_56" d="M13.1266 35.3535C13.3391 34.9861 13.5733 34.6316 13.8248 34.2899C13.7551 34.9817 13.3916 35.5807 13.0063 36.1388L12.8226 35.9199C12.9192 35.7279 13.0197 35.5397 13.1266 35.3535Z" fill="#D7C27C"/>
<path id="Vector_57" d="M14.941 34.8153C16.703 34.2508 18.5014 34.8613 20.1865 35.3861C20.1865 35.6178 20.1865 35.8501 20.1846 36.0818C18.447 35.6267 16.589 35.5679 14.941 34.8153Z" fill="#242110"/>
<path id="Vector_58" d="M20.5763 36.2136C20.5718 35.8635 20.5853 35.5109 20.6703 35.1717C21.3443 35.9839 22.3555 36.4913 23.4038 36.5899C24.9795 36.4696 26.4873 35.4258 28.1001 35.9333C25.9484 37.6401 22.9615 37.0539 20.5763 36.2136Z" fill="#D6D6D5"/>
<path id="Vector_59" d="M15.3374 36.6297C15.4142 36.7019 15.569 36.8466 15.6458 36.9183C15.7246 37.9838 16.3678 38.8766 16.867 39.7873C17.2721 40.5399 17.9569 41.0871 18.6571 41.553C19.1518 41.6906 19.6728 41.6733 20.1822 41.7149C18.6328 41.8224 17.0814 41.6208 15.5364 41.7783C15.4225 42.2486 15.3464 42.7261 15.3502 43.2118C15.0724 43.0409 14.794 42.8707 14.5144 42.6998C14.2936 41.7456 13.978 40.8113 13.8008 39.8507C13.9563 39.3515 14.2033 38.8881 14.4094 38.4107C14.604 38.4043 14.8011 38.3973 14.9956 38.3934C15.0878 37.8021 15.2036 37.2139 15.3374 36.6297Z" fill="#EED88B"/>
<path id="Vector_60" d="M15.6459 36.9182C16.4535 37.4737 17.0461 38.2769 17.8602 38.8241C18.0881 39.0276 18.298 39.2483 18.5169 39.4609C18.9962 39.8416 19.6087 39.9639 20.1847 40.1283C20.1847 40.6557 20.1828 41.1856 20.1828 41.7149C19.6727 41.6733 19.1517 41.6905 18.6577 41.5529C17.9575 41.087 17.2727 40.5399 16.8676 39.7872C16.3677 38.8765 15.7245 37.9838 15.6459 36.9182Z" fill="#DFC677"/>
<path id="Vector_61" d="M17.86 38.8241C18.6415 38.419 19.3723 37.9205 20.1755 37.5595C20.1736 38.01 20.1691 38.4587 20.189 38.9099C19.6066 39.002 18.9282 38.9515 18.5173 39.4615C18.2978 39.2491 18.0879 39.0276 17.86 38.8241Z" fill="#927D49"/>
<path id="Vector_62" d="M18.517 39.4609C18.9285 38.9508 19.6069 39.0013 20.1886 38.9092C20.1842 39.3143 20.1842 39.7213 20.1842 40.1283C19.6094 39.9645 18.9963 39.8416 18.517 39.4609Z" fill="#C4A859"/>
<path id="Vector_63" d="M50.2287 38.9507C50.3247 39.0275 50.5198 39.1786 50.6158 39.2547C50.8328 39.2023 51.0472 39.1498 51.2661 39.0973C51.3621 39.5287 51.5617 39.9248 51.6821 40.3491C51.5329 40.9949 51.2705 41.6207 50.916 42.1807C50.4981 42.4239 50.0079 42.5308 49.6335 42.8482C49.2545 43.0933 48.9135 43.5465 48.4059 43.3865C49.2175 42.0041 49.8107 40.4982 50.2287 38.9507Z" fill="#C0993A"/>
<path id="Vector_64" d="M12.4593 40.7216C12.6212 40.9929 12.7966 41.2553 12.9585 41.5293C13.42 43.3193 14.0548 45.1944 15.361 46.5493C15.3764 47.5233 15.3258 48.4967 15.3809 49.4707C15.3828 49.8208 15.5563 50.3001 15.987 50.2649C17.2126 50.3174 18.4426 50.2694 19.6702 50.2739C19.1934 50.9043 19.5409 51.6524 19.5544 52.3551C19.5678 53.1826 20.003 53.9154 20.1297 54.7185C19.7841 55.594 19.2062 56.3485 18.7486 57.1652C18.291 57.233 17.8116 57.0513 17.372 57.1786C17.1114 57.5377 16.9668 58.0451 16.4702 58.1418C14.124 56.6845 11.916 54.9841 10.0235 52.9643C10.8619 51.2639 11.5704 49.4195 11.4084 47.4868C11.2817 46.6901 11.8852 46.0558 12.01 45.3051C11.9902 44.8629 11.6574 44.5154 11.4584 44.1385C12.1707 43.142 12.4312 41.9273 12.4593 40.7216Z" fill="#E5CB7A"/>
<path id="Vector_65" d="M12.9583 41.5287C13.5887 41.8877 13.8601 42.6121 14.3369 43.1305C14.3804 43.023 14.4706 42.8067 14.5142 42.6991C14.7944 42.87 15.0722 43.0403 15.35 43.2111C15.3782 44.3228 15.3718 45.4363 15.3608 46.5486C14.0546 45.1944 13.4204 43.3193 12.9583 41.5287Z" fill="#D2B159"/>
<path id="Vector_66" d="M52.8022 43.0281C53.0102 43.2751 53.2048 43.5356 53.3692 43.8159C53.4806 45.1157 53.7718 46.3982 53.7852 47.7089C53.8179 49.4771 53.8441 51.2454 53.9273 53.0111C51.96 55.0923 49.6796 56.8887 47.1914 58.3024C46.248 57.6259 45.1626 58.1495 44.3024 58.6877C44.4624 58.3728 44.7004 58.1168 44.9674 57.8909C45.4947 57.4513 45.7008 56.7421 46.2518 56.3243C46.8208 55.8123 47.5824 55.5211 48.031 54.8824C48.4842 53.9045 49.4729 53.3727 50.0681 52.4991C50.6236 51.7004 51.5388 50.9651 51.4531 49.8969C51.4134 48.9799 51.5996 48.0807 51.7072 47.1771C51.7379 46.5185 51.8384 45.8529 52.1187 45.2513C52.7216 44.676 52.5641 43.7653 52.8022 43.0281Z" fill="#BA9040"/>
<path id="Vector_67" d="M49.1676 45.0127C49.6885 44.4635 50.413 44.0827 51.1894 44.2075C51.7256 44.2619 51.8568 44.8795 52.1192 45.2513C51.839 45.8529 51.7384 46.5185 51.7078 47.1771C51.6002 48.0807 51.4146 48.9805 51.4536 49.8969C51.5388 50.9651 50.6242 51.7004 50.0687 52.4991C49.4735 53.372 48.484 53.9039 48.0316 54.8823C47.7141 54.8843 47.3967 54.8887 47.0799 54.8933C47.8786 53.6722 48.3797 52.2956 49.0146 50.9913C49.1612 50.7769 49.0978 50.5407 49.0236 50.3174C48.8726 49.9411 49.0632 49.5513 49.0434 49.1661C48.9775 48.7699 48.8117 48.4 48.6799 48.0237C48.0034 47.8989 47.3231 47.7261 46.6312 47.7652C45.7711 47.9207 45.1759 48.6407 44.4015 48.9818C44.0316 49.1392 43.6136 49.1789 43.27 49.3977C42.5826 49.9821 42.4188 51.0015 41.622 51.4873C40.845 52.0165 40.1602 52.6623 39.4312 53.253C39.0024 53.6536 38.3765 53.356 37.86 53.4411C37.405 53.6728 37.0857 54.0977 36.6543 54.3665C36.0962 54.5547 35.4351 54.476 34.9718 54.8919C34.2146 55.5486 33.1004 55.3604 32.2998 55.9447C31.3935 56.4061 30.9864 57.4282 30.1199 57.9383C29.4678 58.328 28.9532 58.8944 28.4348 59.4415C28.2946 59.2687 28.1545 59.0979 28.0169 58.927C27.295 59.3449 26.7062 60.0143 25.8614 60.1916C25.5593 59.8326 25.2662 59.3949 24.7452 59.3731C24.8303 59.1977 24.9135 59.023 24.9922 58.8457C24.813 58.6141 24.6095 58.3843 24.2831 58.4323C23.4908 58.3363 22.6946 58.5046 21.9023 58.4457C21.3641 58.1591 20.9065 57.7239 20.5826 57.2074C21.1913 56.4829 21.4735 55.5659 21.981 54.7825C22.2831 54.3621 22.7708 54.6974 23.1516 54.7915C23.309 54.428 23.469 54.067 23.6265 53.7061C23.8409 53.7323 24.0553 53.7586 24.2697 53.7874C24.7862 53.317 25.0882 52.6866 25.2873 52.0281C25.6329 51.925 25.9791 51.8226 26.3222 51.717C26.3177 51.1436 26.5807 50.6515 26.9942 50.2681C29.8831 50.2925 32.7714 50.2701 35.6604 50.279C38.98 50.3533 42.3132 49.2704 44.9564 47.2615C45.5126 46.8481 46.0136 46.3687 46.4904 45.8695C47.4236 45.7787 48.4828 45.7461 49.1676 45.0127Z" fill="#D8C173"/>
<path id="Vector_68" d="M44.4009 48.9825C45.1753 48.6413 45.7712 47.9214 46.6307 47.7659C47.3225 47.7262 48.0029 47.8996 48.6794 48.0244C48.8106 48.4007 48.9769 48.7706 49.0429 49.1668C49.0627 49.5521 48.872 49.9411 49.0231 50.3181C49.0973 50.5414 49.1607 50.7776 49.0141 50.992C48.3792 52.2963 47.8781 53.6729 47.0794 54.8939C47.3968 54.8895 47.7143 54.8849 48.0311 54.883C47.5824 55.5217 46.8208 55.8129 46.2519 56.3249C45.7001 56.7428 45.4947 57.4519 44.9673 57.8916C44.7005 58.1169 44.4617 58.3729 44.3024 58.6883C43.1709 59.4391 41.8339 59.7801 40.6282 60.3862C40.6192 60.1629 40.6109 59.9395 40.6039 59.7187C39.7328 59.9133 38.8573 60.0822 38.0016 60.3293C37.2663 60.5309 36.8157 61.2022 36.1655 61.5523C35.6471 61.7429 35.0474 61.7884 34.6621 62.2351C30.6858 62.5634 26.648 62.1653 22.8317 60.9942C23.2586 60.8585 23.6855 60.7139 24.1053 60.5519C24.1623 60.0861 24.4183 59.7008 24.744 59.3744C25.265 59.3961 25.5581 59.8339 25.8602 60.1929C26.705 60.0157 27.2938 59.3463 28.0157 58.9283C28.1533 59.0992 28.2935 59.2695 28.4336 59.4429C28.952 58.8957 29.4666 58.3293 30.1187 57.9395C30.9853 57.4295 31.3923 56.4075 32.2986 55.9461C33.0992 55.3617 34.2135 55.5499 34.9706 54.8933C35.4346 54.4773 36.0957 54.556 36.6531 54.3679C37.0845 54.0984 37.4039 53.6741 37.8589 53.4425C38.3754 53.3573 39.0013 53.6549 39.4301 53.2543C40.1591 52.6636 40.8439 52.0179 41.6208 51.4886C42.4176 51.0029 42.5815 49.9827 43.2688 49.3991C43.6131 49.1795 44.0317 49.1399 44.4009 48.9825Z" fill="#E0CD81"/>
<path id="Vector_69" d="M19.67 50.2733C19.9394 50.2733 20.2082 50.2752 20.4776 50.2778C21.1016 51.0112 21.9068 51.8253 22.9352 51.8253C23.7474 51.7439 23.3442 50.7814 23.2373 50.2739C24.4892 50.272 25.7429 50.2739 26.9948 50.2695C26.5813 50.6521 26.3183 51.1449 26.3228 51.7183C25.9791 51.8233 25.6335 51.9263 25.2879 52.0294C25.0888 52.6879 24.7868 53.3183 24.2703 53.7887C24.0559 53.7605 23.8415 53.7343 23.6271 53.7074C23.4696 54.0683 23.3096 54.4293 23.1522 54.7928C22.7714 54.6987 22.2837 54.364 21.9816 54.7839C21.4741 55.5672 21.1919 56.4843 20.5832 57.2087C20.4738 56.9879 20.3663 56.7665 20.2639 56.5438C19.7628 56.7627 19.2616 56.9771 18.7496 57.1652C19.2072 56.3492 19.7845 55.5941 20.1308 54.7186C20.004 53.9154 19.5682 53.1826 19.5554 52.3551C19.5413 51.6518 19.1932 50.9037 19.67 50.2733Z" fill="#C2A44D"/>
<path id="Vector_70" d="M20.4778 50.2777C21.3969 50.2733 22.3184 50.2733 23.2375 50.2733C23.345 50.7808 23.7476 51.7439 22.9354 51.8246C21.907 51.8252 21.1018 51.0111 20.4778 50.2777Z" fill="#D2B159"/>
<path id="Vector_71" d="M18.7491 57.1645C19.2611 56.9764 19.7622 56.762 20.2633 56.5431C20.3664 56.7665 20.4732 56.9873 20.5827 57.2081C20.9065 57.7245 21.3641 58.1597 21.9024 58.4464C22.6947 58.5053 23.4908 58.337 24.2832 58.433C24.6089 58.385 24.8124 58.6147 24.9923 58.8464C24.9136 59.0237 24.8304 59.1991 24.7452 59.3737C24.4195 59.6995 24.1628 60.0847 24.1065 60.5513C23.686 60.7132 23.2598 60.8579 22.8329 60.9935C20.6204 60.2607 18.4912 59.3021 16.4713 58.1399C16.968 58.0439 17.1126 57.5357 17.3731 57.1767C17.8121 57.0506 18.2915 57.2324 18.7491 57.1645Z" fill="#CEB052"/>
<path id="Vector_72" d="M44.3031 58.6877C45.1633 58.1495 46.2487 57.6266 47.1921 58.3024C43.3821 60.5193 39.0666 61.924 34.6634 62.2351C35.0487 61.7883 35.6484 61.7429 36.1668 61.5522C36.817 61.2021 37.2676 60.5301 38.0029 60.3292C38.8586 60.0822 39.7341 59.9132 40.6051 59.7187C40.6115 59.9395 40.6205 60.1628 40.6295 60.3862C41.8346 59.7795 43.1716 59.4383 44.3031 58.6877Z" fill="#D2BA6B"/>
</g>
<defs>
<clipPath id="clip_doge_0">
<rect width="64" height="64" fill="white"/>
</clipPath>
</defs>
</svg>
