<svg width="64" height="64" viewBox="0 0 64 64" fill="none" xmlns="http://www.w3.org/2000/svg">
<g id="enj" clip-path="url(#clip_enj_0)">
<path id="Vector" d="M32.0226 64.0452C49.7082 64.0452 64.0452 49.7082 64.0452 32.0226C64.0452 14.337 49.7082 0 32.0226 0C14.337 0 0 14.337 0 32.0226C0 49.7082 14.337 64.0452 32.0226 64.0452Z" fill="#7866D5"/>
<g id="Group">
<path id="Vector_2" d="M44.9852 16.4404C46.0691 16.5759 47.1983 16.6662 48.2823 16.8469C50.4051 17.2534 51.1277 18.3373 50.7664 20.5053C50.6761 21.3183 50.0437 21.9506 49.2308 22.0861C48.7339 22.1764 48.1919 22.2216 47.6951 22.1764C40.6492 22.1764 33.6485 22.2216 26.6027 22.2216C25.5639 22.2216 24.4799 22.3119 23.4411 22.4926C19.9633 23.0346 18.6083 24.4799 18.3373 28.0028C18.2018 29.6288 18.2018 29.6288 19.873 29.6288H47.8758C48.1468 29.6288 48.4178 29.6288 48.6888 29.6288C49.1404 29.6288 49.5469 29.7643 49.9534 29.9901C51.2181 30.8031 50.9019 32.1129 50.8567 33.2872C50.8116 34.2357 50.2244 34.7777 49.2308 34.9584C48.8243 35.0487 48.4178 35.0487 47.9661 35.0487C38.391 35.0487 28.8158 35.0487 19.2406 35.0487C18.2018 35.0487 18.2018 35.0487 18.2921 36.0875C18.3373 37.036 18.4276 37.9845 18.6535 38.933C19.1051 40.6493 20.1439 41.7332 21.9054 42.2301C23.8024 42.7721 25.7897 42.8624 27.7318 42.9076C34.5519 42.9076 41.4171 42.9076 48.2823 42.9076C49.1404 42.9076 49.9534 42.9979 50.4954 43.8109C51.3536 45.1658 50.9019 46.9273 49.5469 47.7855C49.3663 47.921 49.1856 48.0113 48.9598 48.0565C47.4693 48.5533 45.9336 48.6436 44.3528 48.6888C37.8941 48.8243 31.4806 48.8243 25.067 48.6888C23.0797 48.6436 21.0924 48.4178 19.1503 48.0113C14.5885 47.0628 12.2851 44.7142 11.5173 40.1073C11.3366 39.0685 11.2463 37.9845 11.1108 36.9005V28.4996C11.2011 27.6867 11.2914 26.8285 11.3818 26.0155C11.9689 20.8215 14.3176 18.247 19.4213 17.0727C21.2279 16.6662 23.1249 16.5759 24.9315 16.3952L44.9852 16.4404Z" fill="white"/>
<path id="Vector_3" d="M34.6873 49.5921C31.4354 49.5921 28.2286 49.5469 25.0219 49.5018C22.9894 49.4566 20.9569 49.2308 18.9696 48.7791C14.0466 47.7403 11.5173 45.1207 10.7043 40.2428C10.5688 39.4749 10.4785 38.7071 10.4333 37.9845C10.3881 37.6683 10.343 37.3522 10.2978 36.9908V36.9005V28.4093L10.3881 27.5963C10.4333 27.0092 10.5236 26.4672 10.5688 25.9252C11.2011 20.3698 13.8207 17.5243 19.2858 16.3049C20.7311 15.9887 22.1312 15.8532 23.5314 15.7177C23.983 15.6725 24.4347 15.6274 24.8864 15.5822H24.9767H45.0755H45.1207C45.4368 15.6274 45.7981 15.6725 46.1143 15.6725C46.8821 15.7629 47.6499 15.808 48.4629 15.9887C51.0374 16.4855 52.031 17.9308 51.5794 20.5505C51.4439 21.6796 50.5406 22.6281 49.3211 22.8087C48.7791 22.8991 48.2371 22.9442 47.6499 22.9442C40.6492 22.9894 33.6034 23.0346 26.6027 23.0346C25.609 23.0346 24.5702 23.1249 23.5765 23.3056C20.4601 23.8024 19.4213 24.9315 19.1503 28.0932C19.1503 28.3641 19.1051 28.6351 19.1051 28.861C19.2858 28.861 19.602 28.861 19.8729 28.861H48.6888C49.2759 28.861 49.8631 29.0416 50.3599 29.3126C51.8955 30.3063 51.76 31.7968 51.6697 32.8807C51.6697 33.0162 51.6245 33.1969 51.6245 33.3324C51.5342 34.597 50.7664 35.4552 49.3662 35.7262C48.8694 35.8165 48.4178 35.8165 47.9661 35.8165H19.2858C19.2406 35.8165 19.1503 35.8165 19.1051 35.8165C19.1051 35.8617 19.1051 35.9068 19.1051 35.952V35.9972C19.1503 36.9457 19.2406 37.849 19.4665 38.7523C19.8278 40.1524 20.6859 41.0106 22.1312 41.4171C24.0734 41.9591 26.0607 42.0494 27.777 42.0494C33.1065 42.0946 38.5264 42.0946 43.8108 42.0946H48.3274C49.0049 42.0946 50.4051 42.0946 51.218 43.4044C51.76 44.2625 51.8955 45.2562 51.6697 46.2047C51.4439 47.1531 50.8567 47.9661 49.9986 48.5081C49.7727 48.6436 49.5017 48.7791 49.2307 48.8694C47.5596 49.4114 45.8433 49.5018 44.398 49.5469C41.1912 49.5469 37.9393 49.5921 34.6873 49.5921ZM11.9238 36.8553C11.9689 37.1715 12.0141 37.4876 12.0141 37.8038C12.1044 38.5265 12.1948 39.2491 12.2851 39.9718C13.0077 44.2174 15.0402 46.295 19.2858 47.1983C21.1828 47.6048 23.1249 47.8306 25.067 47.8758C31.4354 48.0113 37.9393 48.0113 44.3528 47.8758C45.6626 47.8306 47.2435 47.7403 48.6888 47.2886C48.8243 47.2435 48.9597 47.1531 49.0952 47.108C49.5469 46.7918 49.9082 46.3402 50.0437 45.7982C50.1792 45.2562 50.0889 44.7142 49.7727 44.2174C49.5017 43.8109 49.1404 43.6754 48.2823 43.6754H43.7657C38.5264 43.6754 33.0614 43.6754 27.7318 43.6302C25.9252 43.6302 23.8024 43.5399 21.6796 42.9075C19.6471 42.3656 18.3825 41.0557 17.8857 39.0233C17.6598 38.0296 17.5243 36.9908 17.5243 35.9972V35.952C17.4792 35.3197 17.434 34.868 17.7953 34.4615C18.1566 34.055 18.6535 34.055 19.2858 34.055H48.0113C48.3726 34.055 48.7791 34.055 49.1404 33.9647C49.8631 33.8292 50.0437 33.5131 50.0889 33.0614C50.0889 32.8807 50.1341 32.7452 50.1341 32.5646C50.2244 31.4354 50.2244 30.8934 49.5921 30.4869C49.3662 30.3514 49.0501 30.2611 48.7791 30.2611H19.8729C18.8793 30.2611 18.2921 30.2611 17.8405 29.8095C17.3888 29.3578 17.4792 28.7255 17.5243 27.777C17.8405 23.8927 19.4665 22.1313 23.3056 21.5441C24.3895 21.3634 25.4735 21.2731 26.6027 21.2279C33.6485 21.2279 40.6492 21.1828 47.6951 21.1828C48.1919 21.1828 48.6436 21.1828 49.0952 21.0924C49.5469 21.0473 49.9082 20.686 49.9534 20.2343C50.2696 18.4277 49.8179 17.8405 48.1016 17.4792C47.3789 17.3437 46.6563 17.2533 45.9336 17.2082C45.6175 17.163 45.2562 17.1179 44.94 17.1179H24.9767C24.525 17.163 24.0734 17.2082 23.6217 17.2534C22.2216 17.3888 20.9118 17.4792 19.5568 17.7953C14.8144 18.9697 12.7367 21.2731 12.1948 26.151C12.1496 26.693 12.0593 27.235 12.0141 27.8222L11.9238 28.59V36.8553Z" fill="white"/>
</g>
</g>
<defs>
<clipPath id="clip_enj_0">
<rect width="64" height="64" fill="white"/>
</clipPath>
</defs>
</svg>
