<svg width="64" height="64" viewBox="0 0 64 64" fill="none" xmlns="http://www.w3.org/2000/svg">
<g id="eth">
<g id="crypto/eth">
<path id="Vector" d="M32 64C49.6731 64 64 49.6731 64 32C64 14.3269 49.6731 0 32 0C14.3269 0 0 14.3269 0 32C0 49.6731 14.3269 64 32 64Z" fill="#627EEA"/>
<g id="Group">
<path id="Vector_2" d="M32.4963 12V26.7865L44.9908 32.371L32.4963 12Z" fill="white" fill-opacity="0.602"/>
<path id="Vector_3" d="M32.4964 12L20.0002 32.371L32.4964 26.7865V12Z" fill="white"/>
<path id="Vector_4" d="M32.4963 41.9529V52L44.9991 34.698L32.4963 41.9529Z" fill="white" fill-opacity="0.602"/>
<path id="Vector_5" d="M32.4964 52V41.9512L20.0002 34.698L32.4964 52Z" fill="white"/>
<path id="Vector_6" d="M32.4963 39.6277L44.9908 32.3711L32.4963 26.7899V39.6277Z" fill="white" fill-opacity="0.2"/>
<path id="Vector_7" d="M20.0002 32.3711L32.4964 39.6277V26.7899L20.0002 32.3711Z" fill="white" fill-opacity="0.602"/>
</g>
</g>
</g>
</svg>
