<svg width="64" height="64" viewBox="0 0 64 64" fill="none" xmlns="http://www.w3.org/2000/svg">
<g id="eur">
<path id="Vector" d="M32 64C49.6731 64 64 49.6731 64 32C64 14.3269 49.6731 0 32 0C14.3269 0 0 14.3269 0 32C0 49.6731 14.3269 64 32 64Z" fill="#115294"/>
<path id="Vector_2" d="M36 45C30.99 45 26.64 42.16 24.47 38H36V34H23.17C23.07 33.35 23 32.68 23 32C23 31.32 23.07 30.65 23.17 30H36V26H24.47C26.64 21.84 30.98 19 36 19C39.23 19 42.18 20.18 44.45 22.13L48 18.6C44.82 15.75 40.61 14 36 14C28.17 14 21.52 19.01 19.05 26H12V30H18.12C18.04 30.66 18 31.32 18 32C18 32.68 18.04 33.34 18.12 34H12V38H19.05C21.52 44.99 28.17 50 36 50C40.61 50 44.82 48.25 48 45.4L44.45 41.86C42.18 43.81 39.23 45 36 45Z" fill="white"/>
</g>
</svg>
