<svg width="64" height="64" viewBox="0 0 64 64" fill="none" xmlns="http://www.w3.org/2000/svg">
<g id="gbp">
<path id="Vector" d="M64 32C64 49.6731 49.6731 64 32 64C14.3269 64 0 49.6731 0 32C0 14.3269 14.3269 0 32 0C49.6731 0 64 14.3269 64 32Z" fill="#0F3679"/>
<path id="Vector_2" d="M43.3198 48.6667V44.0933H26.9398V43.8133C28.7132 42.74 30.4865 40.2667 30.4865 36.86C30.4865 36.2533 30.4398 35.74 30.3465 35.2267H38.6532V30.98H28.9465C28.4332 29.3933 27.9198 27.8533 27.9198 25.94C27.9198 22.1133 30.0665 20.1067 33.7065 20.1067C36.5998 20.1067 38.6065 21.3667 40.2398 23.7467L44.1132 20.9933C41.8732 17.4933 38.5598 15.5333 33.7065 15.5333C26.7998 15.5333 22.5532 19.5 22.5532 25.24C22.5532 27.4333 23.1598 29.2067 23.7198 30.98H20.5465V35.2267H25.1665C25.2598 35.8333 25.3532 36.5333 25.3532 37.1867C25.3532 39.8 24.2798 42.18 21.7598 43.3V48.6667H43.3198Z" fill="white"/>
</g>
</svg>
