<svg width="64" height="64" viewBox="0 0 64 64" fill="none" xmlns="http://www.w3.org/2000/svg">
<g id="grt">
<g id="crypto/grt">
<path id="Vector" d="M32 64C49.6731 64 64 49.6731 64 32C64 14.3269 49.6731 0 32 0C14.3269 0 0 14.3269 0 32C0 49.6731 14.3269 64 32 64Z" fill="#542BF3"/>
<g id="Symbols">
<g id="Group">
<path id="Fill 19" fill-rule="evenodd" clip-rule="evenodd" d="M31.0332 35.1335C26.2999 35.1335 22.4999 31.3335 22.4999 26.6002C22.4999 21.8668 26.2999 18.0668 31.0332 18.0668C35.7666 18.0668 39.5666 21.8668 39.5666 26.6002C39.5666 31.3335 35.7666 35.1335 31.0332 35.1335ZM31.0332 13.8002C38.0999 13.8002 43.8332 19.5335 43.8332 26.6002C43.8332 33.6668 38.0999 39.4002 31.0332 39.4002C23.9666 39.4002 18.2332 33.6668 18.2332 26.6002C18.2332 19.5335 23.9666 13.8002 31.0332 13.8002ZM43.2332 40.0668C44.0999 40.9335 44.0999 42.2668 43.2332 43.0668L34.6999 51.6002C33.8332 52.4668 32.4999 52.4668 31.6999 51.6002C30.8332 50.7335 30.8332 49.4002 31.6999 48.6002L40.2332 40.0668C41.0332 39.2002 42.4332 39.2002 43.2332 40.0668ZM48.1665 15.9335C48.1665 17.1335 47.2332 18.0668 46.0332 18.0668C44.8332 18.0668 43.8999 17.1335 43.8999 15.9335C43.8999 14.7335 44.8332 13.8002 46.0332 13.8002C47.1666 13.8002 48.1665 14.7335 48.1665 15.9335Z" fill="white"/>
</g>
</g>
</g>
</g>
</svg>
