<svg width="64" height="64" viewBox="0 0 64 64" fill="none" xmlns="http://www.w3.org/2000/svg">
<g id="iota">
<path id="Vector" d="M63 32C63 49.1208 49.1208 63 32 63C14.8792 63 1 49.1208 1 32C1 14.8792 14.8792 1 32 1C49.1208 1 63 14.8792 63 32Z" fill="#FEFEFE" stroke="#CBD5E1" stroke-width="2"/>
<path id="Vector_2" d="M42.9573 13.3227C44.4515 13.3227 45.6965 12.0776 45.6965 10.4589C45.6965 8.84024 44.4515 7.59506 42.9573 7.59506C41.4631 7.59506 40.2179 8.84024 40.2179 10.4589C40.2179 11.953 41.4631 13.3227 42.9573 13.3227ZM43.8288 20.5445C45.0739 20.5445 46.1946 19.4239 46.1946 18.1787C46.1946 16.8091 45.1984 15.813 43.8288 15.813C42.5836 15.813 41.463 16.9336 41.463 18.1787C41.463 19.4239 42.4592 20.5445 43.8288 20.5445ZM50.1789 21.5406C51.4241 21.5406 52.5448 20.42 52.5448 19.1748C52.5448 17.9297 51.5486 16.8091 50.1789 16.8091C48.8093 16.8091 47.8132 17.9297 47.8132 19.1748C47.8132 20.42 48.9338 21.5406 50.1789 21.5406ZM49.4319 27.7663C50.5525 27.7663 51.4241 26.8947 51.4241 25.7741C51.4241 24.6534 50.5525 23.7819 49.4319 23.7819C48.3113 23.7819 47.4397 24.6534 47.4397 25.7741C47.4397 26.8947 48.3113 27.7663 49.4319 27.7663ZM54.537 29.7585C55.6576 29.7585 56.5291 28.8869 56.5291 27.7663C56.5291 26.6457 55.6576 25.7741 54.537 25.7741C53.4163 25.7741 52.5448 26.6457 52.5448 27.7663C52.5448 28.8869 53.5409 29.7585 54.537 29.7585ZM42.9573 26.8947C44.0779 26.8947 45.074 25.8986 44.9495 24.778C44.9495 23.6573 44.0779 22.6612 42.9573 22.6612C41.8366 22.6612 40.9649 23.5328 40.9649 24.778C40.9649 26.0231 41.8366 26.8947 42.9573 26.8947ZM41.0895 31.8752C42.0856 31.8752 42.8326 31.1282 42.8326 30.1321C42.8326 29.1359 42.0856 28.3888 41.0895 28.3888C40.0934 28.3888 39.3463 29.1359 39.3463 30.1321C39.3463 31.1282 40.0934 31.8752 41.0895 31.8752ZM47.5642 32.7468C48.5603 32.7468 49.3074 31.9998 49.3074 31.0036C49.3074 30.0075 48.5603 29.2605 47.5642 29.2605C46.5681 29.2605 45.821 30.0075 45.821 31.0036C45.821 31.9998 46.5681 32.7468 47.5642 32.7468ZM52.6692 34.739C53.6653 34.739 54.4125 33.992 54.4125 32.9959C54.4125 31.9998 53.6653 31.2526 52.6692 31.2526C51.6731 31.2526 50.926 31.9998 50.926 32.9959C50.926 33.992 51.6731 34.739 52.6692 34.739ZM50.1789 38.5989C50.9261 38.5989 51.6732 37.9764 51.6732 37.1048C51.6732 36.2332 51.0506 35.6106 50.1789 35.6106C49.3074 35.6106 48.6848 36.2332 48.6848 37.1048C48.6848 37.9764 49.3074 38.5989 50.1789 38.5989ZM44.9495 36.6067C45.821 36.6067 46.4436 35.9842 46.4436 35.1126C46.4436 34.241 45.821 33.6185 44.9495 33.6185C44.0779 33.6185 43.4552 34.241 43.4552 35.1126C43.4552 35.8597 44.2024 36.6067 44.9495 36.6067ZM38.5993 35.6106C39.4709 35.6106 40.0934 34.9881 40.0934 34.1165C40.0934 33.2449 39.4709 32.6223 38.5993 32.6223C37.7277 32.6223 37.105 33.2449 37.105 34.1165C37.105 34.9881 37.7277 35.6106 38.5993 35.6106ZM42.0856 39.2215C42.8326 39.2215 43.3307 38.5989 43.3307 37.9764C43.3307 37.2293 42.7082 36.7313 42.0856 36.7313C41.3385 36.7313 40.8404 37.3538 40.8404 37.9764C40.8404 38.5989 41.463 39.2215 42.0856 39.2215ZM47.3153 41.2138C48.0623 41.2138 48.5604 40.5912 48.5604 39.8441C48.5604 39.097 47.9378 38.4745 47.3153 38.4745C46.5681 38.4745 46.0701 39.097 46.0701 39.8441C45.9456 40.5912 46.5681 41.2138 47.3153 41.2138ZM44.3269 42.7079C44.9494 42.7079 45.3229 42.2099 45.3229 41.7118C45.3229 41.0892 44.8249 40.7157 44.3269 40.7157C43.7043 40.7157 43.3307 41.2138 43.3307 41.7118C43.3307 42.2099 43.8288 42.7079 44.3269 42.7079ZM41.5875 43.5795C42.0855 43.5795 42.4592 43.206 42.4592 42.5834C42.4592 42.0853 42.0855 41.5873 41.5875 41.5873C41.0895 41.5873 40.7159 41.9608 40.7159 42.5834C40.7159 43.0815 41.0895 43.455 41.5875 43.5795ZM39.2218 40.8402C39.8444 40.8402 40.3424 40.3422 40.3424 39.7196C40.3424 39.097 39.8444 38.5989 39.2218 38.5989C38.5993 38.5989 38.1012 39.097 38.1012 39.7196C38.1012 40.3422 38.5993 40.8402 39.2218 40.8402ZM35.7354 38.2254C36.4825 38.2254 36.9806 37.6028 36.9806 36.9803C36.9806 36.3577 36.358 35.7351 35.7354 35.7351C34.9883 35.7351 34.4903 36.3577 34.4903 36.9803C34.3657 37.7274 34.9883 38.2254 35.7354 38.2254ZM46.1946 54.5368C47.6888 54.5368 48.9338 53.2916 48.9338 51.7974C48.9338 50.3032 47.6888 49.0581 46.1946 49.0581C44.7005 49.0581 43.4552 50.3032 43.4552 51.7974C43.4552 53.2916 44.7005 54.5368 46.1946 54.5368ZM39.2218 50.9258C40.467 50.9258 41.463 49.9297 41.463 48.5601C41.463 47.3149 40.467 46.1943 39.2218 46.1943C37.9767 46.1943 36.9806 47.1904 36.9806 48.5601C36.856 49.9297 37.8522 50.9258 39.2218 50.9258ZM35.2373 56.0308C36.4824 56.0308 37.6031 55.0347 37.6031 53.6651C37.6031 52.42 36.607 51.2994 35.2373 51.2994C33.9921 51.2994 32.8715 52.2955 32.8715 53.6651C32.8715 55.0347 33.8677 56.0308 35.2373 56.0308ZM33.9921 46.6924C35.1128 46.6924 35.9844 45.8207 35.9844 44.7002C35.9844 43.5795 35.1128 42.7079 33.9921 42.7079C32.8716 42.7079 32 43.5795 32 44.7002C32 45.6963 32.8716 46.6924 33.9921 46.6924ZM30.0078 51.7974C31.1284 51.7974 32 50.9258 32 49.8052C32 48.6846 31.1284 47.813 30.0078 47.813C28.8872 47.813 28.0156 48.6846 28.0156 49.8052C28.0156 50.9258 28.8872 51.7974 30.0078 51.7974ZM25.6498 55.4083C26.7704 55.4083 27.642 54.5367 27.642 53.4161C27.642 52.2955 26.7704 51.4239 25.6498 51.4239C24.5292 51.4239 23.6576 52.2955 23.6576 53.4161C23.6576 54.4122 24.6537 55.4083 25.6498 55.4083ZM22.1633 50.8013C23.1594 50.8013 23.9066 50.0542 23.9066 49.0581C23.9066 48.062 23.1594 47.3149 22.1633 47.3149C21.1673 47.3149 20.4202 48.062 20.4202 49.0581C20.4202 50.0542 21.1673 50.8013 22.1633 50.8013ZM26.3968 47.1904C27.393 47.1904 28.1401 46.4433 28.1401 45.4472C28.1401 44.4511 27.393 43.704 26.3968 43.704C25.4007 43.704 24.6536 44.4511 24.6536 45.4472C24.6536 46.4433 25.5253 47.1904 26.3968 47.1904ZM30.3812 42.0853C31.3773 42.0853 32.1245 41.3383 32.1245 40.3422C32.1245 39.3461 31.3773 38.5989 30.3812 38.5989C29.3851 38.5989 28.6382 39.3461 28.6382 40.3422C28.7627 41.2138 29.5096 42.0853 30.3812 42.0853ZM24.2802 42.7079C25.1518 42.7079 25.7743 42.0853 25.7743 41.2138C25.7743 40.3422 25.1518 39.7196 24.2802 39.7196C23.4086 39.7196 22.7859 40.3422 22.7859 41.2138C22.7859 42.0853 23.5331 42.7079 24.2802 42.7079ZM20.0467 46.3188C20.9183 46.3188 21.5408 45.6963 21.5408 44.8246C21.5408 43.953 20.9183 43.3305 20.0467 43.3305C19.1751 43.3305 18.5524 43.953 18.5524 44.8246C18.5524 45.5717 19.1751 46.3188 20.0467 46.3188ZM19.0505 42.2099C19.7976 42.2099 20.2956 41.5873 20.2956 40.9647C20.2956 40.2176 19.6731 39.7196 19.0505 39.7196C18.4279 39.7196 17.8054 40.3422 17.8054 40.9647C17.8054 41.5873 18.3034 42.2099 19.0505 42.2099ZM18.9261 38.4745C19.5486 38.4745 20.0467 37.9764 20.0467 37.3538C20.0467 36.7313 19.5486 36.2332 18.9261 36.2332C18.3035 36.2332 17.8054 36.7313 17.8054 37.3538C17.9299 37.9764 18.428 38.4745 18.9261 38.4745ZM19.5486 35.4861C20.0466 35.4861 20.4202 35.1126 20.4202 34.49C20.4202 33.8674 20.0466 33.4939 19.5486 33.4939C19.0505 33.4939 18.6771 33.8674 18.6771 34.49C18.6771 35.1126 19.0505 35.4861 19.5486 35.4861ZM23.284 34.9881C23.9066 34.9881 24.4047 34.49 24.4047 33.8674C24.4047 33.2449 23.9066 32.7468 23.284 32.7468C22.6614 32.7468 22.1633 33.2449 22.1633 33.8674C22.1633 34.49 22.6614 34.9881 23.284 34.9881ZM27.393 33.3694C28.1401 33.3694 28.6382 32.7468 28.6382 32.1243C28.6382 31.3772 28.0156 30.8791 27.393 30.8791C26.646 30.8791 26.1479 31.5017 26.1479 32.1243C26.0234 32.8713 26.646 33.3694 27.393 33.3694C27.2686 33.3694 27.2686 33.3694 27.393 33.3694ZM28.2646 37.6028C29.1362 37.6028 29.7587 36.9803 29.7587 36.1087C29.7587 35.2371 29.1362 34.6146 28.2646 34.6146C27.393 34.6146 26.7705 35.2371 26.7705 36.1087C26.7705 36.8558 27.5175 37.4784 28.2646 37.6028ZM23.284 38.5989C24.0311 38.5989 24.5291 37.9764 24.5291 37.3538C24.5291 36.6067 23.9066 36.1087 23.284 36.1087C22.5369 36.1087 22.0389 36.7313 22.0389 37.3538C22.0389 38.1009 22.6614 38.5989 23.284 38.5989ZM9.33853 36.7313C10.8327 36.7313 12.0777 35.4861 12.0777 33.992C12.0777 32.4978 10.8327 31.2526 9.33853 31.2526C7.84436 31.2526 6.59912 32.4978 6.59912 33.992C6.59912 35.4861 7.84436 36.7313 9.33853 36.7313ZM15.5642 31.7507C16.8094 31.7507 17.9299 30.6301 17.9299 29.3849C17.9299 28.0153 16.9339 27.0192 15.5642 27.0192C14.1946 27.0192 13.1984 28.1398 13.1984 29.3849C13.1984 30.7546 14.1946 31.7507 15.5642 31.7507ZM13.0739 25.6496C14.3191 25.6496 15.4396 24.5289 15.4396 23.2838C15.4396 21.9142 14.4436 20.918 13.0739 20.918C11.8288 20.918 10.7082 22.0386 10.7082 23.2838C10.7082 24.5289 11.8288 25.6496 13.0739 25.6496ZM19.175 22.7857C20.2956 22.7857 21.1673 21.9142 21.1673 20.7935C21.1673 19.6729 20.2956 18.8013 19.175 18.8013C18.0543 18.8013 17.1828 19.6729 17.1828 20.7935C17.1828 21.9142 18.0543 22.7857 19.175 22.7857ZM21.5408 28.8869C22.6614 28.8869 23.533 28.0153 23.533 26.8947C23.533 25.7741 22.6614 24.9025 21.5408 24.9025C20.4202 24.9025 19.5486 25.7741 19.5486 26.8947C19.5486 28.0153 20.4202 28.8869 21.5408 28.8869ZM27.0194 27.5172C28.0155 27.5172 28.7627 26.7702 28.7627 25.7741C28.7627 24.778 28.0155 24.0309 27.0194 24.0309C26.0233 24.0309 25.2762 24.778 25.2762 25.7741C25.2762 26.7702 26.1478 27.5172 27.0194 27.5172ZM31.751 27.6418C32.6226 27.6418 33.2451 27.0192 33.2451 26.1476C33.2451 25.276 32.6226 24.6534 31.751 24.6534C30.8794 24.6534 30.2568 25.276 30.2568 26.1476C30.2568 27.0192 31.0039 27.6418 31.751 27.6418ZM35.7354 28.5134C36.358 28.5134 36.9806 27.8908 36.9806 27.2682C36.9806 26.6457 36.4825 26.0231 35.7354 26.0231C34.9883 26.0231 34.4903 26.6457 34.4903 27.2682C34.4903 27.8908 34.9883 28.5134 35.7354 28.5134ZM36.2335 23.9064C36.8561 23.9064 37.3541 23.4083 37.3541 22.7857C37.3541 22.1632 36.8561 21.6651 36.2335 21.6651C35.6109 21.6651 35.1129 22.1632 35.1129 22.7857C35.1129 23.4083 35.6109 23.9064 36.2335 23.9064ZM33.2451 22.4122C33.9922 22.4122 34.4903 21.7896 34.4903 21.167C34.4903 20.42 33.9922 19.9219 33.2451 19.9219C32.498 19.9219 32 20.5445 32 21.167C31.8755 21.7896 32.498 22.4122 33.2451 22.4122C33.1206 22.4122 33.2451 22.4122 33.2451 22.4122ZM29.3852 21.4161C30.2568 21.4161 30.8793 20.7935 30.8793 19.9219C30.8793 19.0504 30.2568 18.4278 29.3852 18.4278C28.5137 18.4278 27.8909 19.0504 27.8909 19.9219C27.8909 20.7935 28.5137 21.4161 29.3852 21.4161ZM24.6536 21.4161C25.6497 21.4161 26.3968 20.669 26.3968 19.6729C26.3968 18.6768 25.6497 17.9297 24.6536 17.9297C23.6575 17.9297 22.9104 18.6768 22.9104 19.6729C22.9104 20.669 23.6575 21.4161 24.6536 21.4161ZM18.3035 17.1827C19.4241 17.1827 20.2956 16.311 20.2956 15.1904C20.2956 14.0698 19.4241 13.1982 18.3035 13.1982C17.1828 13.1982 16.3112 14.0698 16.3112 15.1904C16.3112 16.311 17.1828 17.1827 18.3035 17.1827ZM23.7821 15.9375C24.7782 15.9375 25.5253 15.1904 25.5253 14.1943C25.5253 13.1982 24.7782 12.4511 23.7821 12.4511C22.786 12.4511 22.0389 13.1982 22.0389 14.1943C22.0389 15.1904 22.786 15.9375 23.7821 15.9375ZM28.3891 15.9375C29.2606 15.9375 29.8833 15.3149 29.8833 14.4433C29.8833 13.5717 29.2606 12.9492 28.3891 12.9492C27.5175 12.9492 26.895 13.5717 26.895 14.4433C27.0195 15.3149 27.6419 15.9375 28.3891 15.9375ZM32.3736 16.8091C33.1207 16.8091 33.6187 16.1865 33.6187 15.564C33.6187 14.9414 33.1207 14.3188 32.3736 14.3188C31.6265 14.3188 31.1285 14.9414 31.1285 15.564C31.1285 16.1865 31.6265 16.8091 32.3736 16.8091ZM35.3618 18.4278C35.9844 18.4278 36.4824 17.9297 36.4824 17.3071C36.4824 16.6846 35.9844 16.1865 35.3618 16.1865C34.7392 16.1865 34.2413 16.6846 34.2413 17.3071C34.2413 17.9297 34.7392 18.4278 35.3618 18.4278ZM37.4786 20.1709C37.9767 20.1709 38.3502 19.7974 38.3502 19.2994C38.3502 18.8013 37.9767 18.4278 37.4786 18.4278C36.9806 18.4278 36.607 18.8013 36.607 19.2994C36.607 19.7974 36.9806 20.1709 37.4786 20.1709Z" fill="black"/>
</g>
</svg>
