<svg width="64" height="64" viewBox="0 0 64 64" fill="none" xmlns="http://www.w3.org/2000/svg">
  <g id="crypto/kms">
    <circle cx="32" cy="32" r="31" stroke="#395288" stroke-width="2" />
    <g filter="url(#filter_crypto_ksm)">
      <path
        d="M32 62C48.5685 62 62 48.5685 62 32C62 15.4315 48.5685 2 32 2C15.4315 2 2 15.4315 2 32C2 48.5685 15.4315 62 32 62Z"
        fill="black" />
    </g>
    <path
      d="M32 62C48.5685 62 62 48.5685 62 32C62 15.4315 48.5685 2 32 2C15.4315 2 2 15.4315 2 32C2 48.5685 15.4315 62 32 62Z"
      fill="black" />
    <path style="mix-blend-mode:soft-light"
          d="M32 62C48.5685 62 62 48.5685 62 32C62 15.4315 48.5685 2 32 2C15.4315 2 2 15.4315 2 32C2 48.5685 15.4315 62 32 62Z"
          fill="url(#paint_crypto_ksm)" />
    <path
      d="M32 61C48.0163 61 61 48.0163 61 32C61 15.9837 48.0163 3 32 3C15.9837 3 3 15.9837 3 32C3 48.0163 15.9837 61 32 61Z"
      stroke="black" stroke-opacity="0.097" />
    <path
      d="M51.694 18.896C50.974 18.352 50.112 17.61 48.542 17.424C47.07 17.238 45.57 18.18 44.556 18.804C43.542 19.426 41.626 21.258 40.834 21.814C40.042 22.372 38.014 22.89 34.75 24.76C31.486 26.63 18.68 34.48 18.68 34.48L22.014 34.52L7.154 41.83H8.638L6.5 43.382C6.5 43.382 8.388 43.86 9.972 42.904V43.342C9.972 43.342 27.666 36.682 31.084 38.408L29 38.99C29.18 38.99 32.54 39.204 32.54 39.204C32.54 39.204 32.652 41.206 34.68 42.492C36.708 43.766 36.75 44.47 36.75 44.47C36.75 44.47 35.694 44.88 35.694 45.398C35.694 45.398 37.25 44.946 38.694 44.986C40.138 45.026 41.402 45.398 41.402 45.398C41.402 45.398 41.292 44.84 39.888 44.47C38.472 44.084 37.098 42.638 36.416 41.842C36.002 41.344 35.7306 40.7432 35.6306 40.1034C35.5306 39.4636 35.6057 38.8086 35.848 38.208C36.334 37.002 38.028 36.338 41.528 34.614C45.652 32.57 46.598 31.058 47.18 29.878C47.764 28.698 48.624 26.35 49.112 25.248C49.722 23.828 50.472 23.072 51.098 22.622C51.708 22.17 54.5 21.176 54.5 21.176C54.5 21.176 52.374 19.412 51.694 18.896Z"
      fill="white" />
    <defs>
      <filter id="filter_crypto_ksm" x="1" y="1.5" width="62" height="62" filterUnits="userSpaceOnUse"
              color-interpolation-filters="sRGB">
        <feFlood flood-opacity="0" result="BackgroundImageFix" />
        <feColorMatrix in="SourceAlpha" type="matrix" values="0 0 0 0 0 0 0 0 0 0 0 0 0 0 0 0 0 0 127 0"
                       result="hardAlpha" />
        <feOffset dy="0.5" />
        <feGaussianBlur stdDeviation="0.5" />
        <feColorMatrix type="matrix" values="0 0 0 0 0 0 0 0 0 0 0 0 0 0 0 0 0 0 0.199474 0" />
        <feBlend mode="normal" in2="BackgroundImageFix" result="effect1_dropShadow_1244_6614" />
        <feBlend mode="normal" in="SourceGraphic" in2="effect1_dropShadow_1244_6614" result="shape" />
      </filter>
      <linearGradient id="paint_crypto_ksm" x1="32" y1="2" x2="32" y2="62" gradientUnits="userSpaceOnUse">
        <stop stop-color="white" stop-opacity="0.5" />
        <stop offset="1" stop-opacity="0.5" />
      </linearGradient>
    </defs>
  </g>
</svg>
