<svg width="64" height="64" viewBox="0 0 64 64" fill="none" xmlns="http://www.w3.org/2000/svg">
<g id="link">
<g id="crypto/link" clip-path="url(#clip_link_0)">
<path id="Vector" d="M31.9999 64C49.673 64 63.9999 49.6731 63.9999 32C63.9999 14.3269 49.673 3.05176e-05 31.9999 3.05176e-05C14.3268 3.05176e-05 -9.15527e-05 14.3269 -9.15527e-05 32C-9.15527e-05 49.6731 14.3268 64 31.9999 64Z" fill="#2A5ADA"/>
<path id="Vector_2" d="M32.0499 12.5L28.4836 14.5506L18.7656 20.1674L15.1994 22.218V41.654L18.7656 43.7046L28.5728 49.3214L32.139 51.372L35.7053 49.3214L45.3341 43.7046L48.9003 41.654V22.218L45.3341 20.1674L35.6161 14.5506L32.0499 12.5ZM22.3319 37.5528V26.3192L32.0499 20.7023L41.7679 26.3192V37.5528L32.0499 43.1696L22.3319 37.5528Z" fill="#FEFEFE"/>
</g>
</g>
<defs>
<clipPath id="clip_link_0">
<rect width="64" height="64" fill="white"/>
</clipPath>
</defs>
</svg>
