<svg width="64" height="64" viewBox="0 0 64 64" fill="none" xmlns="http://www.w3.org/2000/svg">
<g id="luna">
<path id="Vector" d="M32 64C49.6731 64 64 49.6731 64 32C64 14.3269 49.6731 0 32 0C14.3269 0 0 14.3269 0 32C0 49.6731 14.3269 64 32 64Z" fill="#172852"/>
<g id="Group">
<path id="Vector_2" d="M25.7768 14.3008C29.524 12.8992 33.7416 12.896 37.5592 14.048C42.5288 15.5904 46.724 19.3408 48.916 24.048C49.5208 25.3888 50.1 26.7872 50.1576 28.2784C47.364 26.6592 44.3016 25.6096 41.2328 24.6528C36.324 22.8832 31.1848 21.6544 26.5384 19.2224C25.4568 18.576 24.0776 17.9136 23.7832 16.5664C23.6648 15.4016 24.8968 14.752 25.7768 14.3008Z" fill="#FFD83D"/>
<path id="Vector_3" d="M14.4644 25.6289C15.5492 22.6849 17.3284 19.9521 19.7444 17.9265C20.3588 22.9793 22.5092 27.8625 26.0612 31.5361C30.3204 35.9617 36.3876 38.6785 42.5604 38.5761C45.0116 38.6529 47.4084 38.0865 49.7988 37.6289C47.4468 46.1281 38.1316 51.7697 29.5012 50.4129C24.2916 49.7473 19.482 46.6625 16.5796 42.3073C13.306 37.4945 12.4804 31.1041 14.4644 25.6289Z" fill="#FFD83D"/>
</g>
<path id="Vector_4" d="M41.232 24.6528C44.3008 25.6096 47.3632 26.6592 50.1568 28.2784L50.3456 28.3776C50.6048 30.3264 50.7936 32.3136 50.448 34.2656C49.0432 33.6704 47.904 32.624 46.7136 31.6992C44.4224 29.792 42.0832 27.6096 41.232 24.6528Z" fill="#FF6F03"/>
</g>
</svg>
