<svg width="64" height="64" viewBox="0 0 64 64" fill="none" xmlns="http://www.w3.org/2000/svg">
<g id="mana">
<g id="crypto/mana">
<g id="Group">
<path id="Vector" d="M32 64C49.6731 64 64 49.6731 64 32C64 14.3269 49.6731 0 32 0C14.3269 0 0 14.3269 0 32C0 49.6731 14.3269 64 32 64Z" fill="url(#paint_mana_0_linear)"/>
<path id="Vector_2" fill-rule="evenodd" clip-rule="evenodd" d="M22.6718 20.8V44.8H42.6718L22.6718 20.8Z" fill="url(#paint_mana_1_linear)"/>
<path id="Vector_3" fill-rule="evenodd" clip-rule="evenodd" d="M2.67181 44.8H22.6718V20.8L2.67181 44.8Z" fill="white"/>
<path id="Vector_4" fill-rule="evenodd" clip-rule="evenodd" d="M6.40002 51.2C8.22402 53.616 10.384 55.776 12.8 57.6H51.2C53.616 55.776 55.776 53.616 57.6 51.2H6.40002Z" fill="#FC9965"/>
<path id="Vector_5" fill-rule="evenodd" clip-rule="evenodd" d="M12.8 57.6C18.144 61.616 24.8 64 32 64C39.2 64 45.856 61.616 51.2 57.6H12.8Z" fill="#FF2D55"/>
<path id="Vector_6" fill-rule="evenodd" clip-rule="evenodd" d="M42.9282 33.6V51.2H57.6002L42.9282 33.6Z" fill="url(#paint2_linear)"/>
<path id="Vector_7" fill-rule="evenodd" clip-rule="evenodd" d="M42.9278 44.8H2.67181C3.66381 47.088 4.92781 49.232 6.39981 51.2H42.9438V44.8H42.9278Z" fill="#FFBC5B"/>
<path id="Vector_8" fill-rule="evenodd" clip-rule="evenodd" d="M28.2719 51.2H42.9279V33.6L28.2719 51.2Z" fill="white"/>
<path id="Vector_9" d="M42.9281 28.8C47.3464 28.8 50.9281 25.2183 50.9281 20.8C50.9281 16.3817 47.3464 12.8 42.9281 12.8C38.5099 12.8 34.9282 16.3817 34.9282 20.8C34.9282 25.2183 38.5099 28.8 42.9281 28.8Z" fill="#FFC95B"/>
<path id="Vector_10" d="M22.6718 16C24.881 16 26.6718 14.2091 26.6718 12C26.6718 9.79086 24.881 8 22.6718 8C20.4627 8 18.6718 9.79086 18.6718 12C18.6718 14.2091 20.4627 16 22.6718 16Z" fill="#FFC95B"/>
</g>
</g>
</g>
<defs>
<linearGradient id="paint_mana_0_linear" x1="54.6272" y1="9.3728" x2="9.3728" y2="54.6272" gradientUnits="userSpaceOnUse">
<stop stop-color="#FF2D55"/>
<stop offset="1" stop-color="#FFBC5B"/>
</linearGradient>
<linearGradient id="paint_mana_1_linear" x1="32.665" y1="20.8" x2="32.665" y2="44.8" gradientUnits="userSpaceOnUse">
<stop stop-color="#A524B3"/>
<stop offset="1" stop-color="#FF2D55"/>
</linearGradient>
<linearGradient id="paint2_linear" x1="50.2592" y1="33.6" x2="50.2592" y2="51.2" gradientUnits="userSpaceOnUse">
<stop stop-color="#A524B3"/>
<stop offset="1" stop-color="#FF2D55"/>
</linearGradient>
</defs>
</svg>
