<svg width="64" height="64" viewBox="0 0 64 64" fill="none" xmlns="http://www.w3.org/2000/svg">
<g id="mkr">
<g id="crypto/mkr">
<path id="Vector" d="M32 64C49.6731 64 64 49.6731 64 32C64 14.3269 49.6731 0 32 0C14.3269 0 0 14.3269 0 32C0 49.6731 14.3269 64 32 64Z" fill="#27AB9B"/>
<path id="Vector_2" d="M16.2495 41.6V26.5392L27.6711 35.1344V41.6H30.5871V34.5282C30.5871 33.9938 30.336 33.4903 29.9089 33.169L16.0573 22.745C14.9363 21.9014 13.3334 22.7012 13.3334 24.1043V41.6H16.2495ZM47.8379 41.6V26.5392L36.4164 35.1344V41.6H33.5003V34.5282C33.5003 33.9938 33.7514 33.4903 34.1785 33.169L48.0301 22.745C49.1512 21.9014 50.7541 22.7012 50.7541 24.1043V41.6H47.8379Z" fill="white"/>
</g>
</g>
</svg>
