<svg width="64" height="64" viewBox="0 0 64 64" fill="none" xmlns="http://www.w3.org/2000/svg">
<g id="sxp">
<path id="Vector" d="M32 64C49.6731 64 64 49.6731 64 32C64 14.3269 49.6731 0 32 0C14.3269 0 0 14.3269 0 32C0 49.6731 14.3269 64 32 64Z" fill="url(#paint_sxp_0_linear)"/>
<path id="Vector_2" fill-rule="evenodd" clip-rule="evenodd" d="M10.0065 32.9467C10.0387 30.2896 10.7151 28.3131 12.1643 26.5957C12.4864 26.2069 12.8729 25.8505 13.2271 25.494C13.8391 24.8459 14.4509 24.2303 15.0629 23.5823C15.868 22.7722 16.6732 21.9945 17.4783 21.1845C17.9936 20.666 18.5089 20.1475 19.0242 19.6291C19.5717 19.0783 20.1515 18.5274 20.6989 17.9765C21.2465 17.4581 21.7617 16.9397 22.2771 16.3888C23.3076 15.3519 24.3382 14.3151 25.3688 13.2781C26.8181 11.8524 28.5572 11.0099 30.5862 10.7507C32.3575 10.5239 34.0645 10.7507 35.6747 11.496C36.3511 11.82 36.963 12.2737 37.5427 12.6949C37.9292 12.9865 37.897 13.0513 37.6071 13.4402C37.5427 13.5374 37.4461 13.6022 37.3817 13.6994C36.1257 14.9631 34.8374 16.2592 33.5813 17.5229C33.0017 18.1062 32.4219 18.657 31.8422 19.2079C31.1659 19.8883 30.5218 20.5364 29.8777 21.2169C29.3946 21.7029 28.8793 22.1889 28.3962 22.675C27.5911 23.4851 26.8503 24.3275 26.0451 25.1376C25.4332 25.7533 24.8213 26.3365 24.2094 26.9521C23.5653 27.6326 22.9211 28.3131 22.2448 28.9935C21.6651 29.6092 21.0532 30.1924 20.4735 30.7757C19.8938 31.4237 19.3141 32.0718 18.7021 32.6875C18.4123 32.9791 18.1225 33.2383 17.8648 33.5299C17.2851 34.1455 16.7054 34.7612 16.1257 35.3769C15.5782 35.9601 14.9985 36.5434 14.4509 37.0942C14.0645 37.4831 13.678 37.9043 13.2915 38.2931C13.2271 38.3579 13.1627 38.4227 13.0983 38.4875C12.7119 38.8116 12.4864 38.8116 12.1965 38.3903C11.7457 37.8071 11.2948 37.1914 10.9727 36.511C10.3608 35.2797 9.94213 33.9511 10.0065 32.9467ZM53.9034 33.8215C53.6457 36.0897 52.6473 37.6451 52.3897 38.0663C52.0999 38.4875 51.7133 38.9412 50.9082 39.8161C50.2641 40.5289 49.5878 41.2094 48.9115 41.8899C48.2351 42.5379 47.5588 43.1859 46.8825 43.8664C46.2705 44.4497 45.6909 45.0653 45.1111 45.6485C44.467 46.2966 43.8229 46.9447 43.1787 47.5927C42.5025 48.2732 41.7939 48.9861 41.1176 49.6665C40.1836 50.6062 39.2818 51.5783 38.2835 52.4531C36.9308 53.6521 35.3527 54.3973 33.5491 54.5917C31.7456 54.7861 29.9743 54.6241 28.3318 53.8465C27.6555 53.5225 27.0435 53.0688 26.4316 52.6475C26.0773 52.3883 26.0773 52.1939 26.3672 51.8699C26.8503 51.3515 27.3978 50.833 27.9131 50.3145C28.2029 50.0229 28.4928 49.6989 28.8149 49.4073C29.459 48.7916 30.1031 48.1436 30.7472 47.5279C30.8117 47.4631 30.8761 47.4307 30.9083 47.3659C31.5202 46.7503 32.0999 46.1346 32.7118 45.5189C33.2915 44.9357 33.8712 44.3849 34.4187 43.834C34.6763 43.5748 34.934 43.3155 35.1917 43.0563C35.3205 42.9267 35.4171 42.7971 35.5459 42.6675C36.3189 41.8898 37.0918 41.1121 37.8647 40.3345C38.4767 39.7513 39.0886 39.168 39.6683 38.5523C40.5057 37.7099 41.3752 36.8998 42.1804 36.0249C42.8889 35.2797 43.2432 34.34 43.372 33.3355C43.533 32.1366 43.1787 31.0349 42.5347 30.0304C42.1804 29.4795 41.7295 29.4147 41.2464 29.9008C40.1514 30.9701 39.0564 32.0394 37.9614 33.1087C36.8019 34.2428 35.6425 35.3769 34.4509 36.511C33.6135 37.3535 32.744 38.1635 31.8745 38.9736C30.8439 39.9781 29.8133 41.0149 28.7827 42.0519C28.2673 42.5703 27.7199 43.0563 27.2045 43.5748C26.4638 44.2877 25.7231 45.0005 24.9823 45.7457C24.5637 46.1346 24.0484 46.3614 23.5331 46.5235C22.7923 46.7503 22.0516 46.7179 21.3109 46.5883C20.5379 46.4586 19.8938 46.0698 19.3141 45.5189C18.4123 44.6117 17.5105 43.7044 16.5765 42.7971C16.1901 42.4083 16.2223 42.3759 16.5765 42.0195C18.4767 40.1401 20.3447 38.2607 22.2448 36.3489C23.6619 34.9232 25.1112 33.4975 26.5283 32.0718C27.3012 31.2941 28.0741 30.5165 28.8471 29.7712C29.4912 29.1231 30.1353 28.5399 30.7794 27.8918C31.3913 27.2762 31.9711 26.6605 32.583 26.0449C33.1627 25.4616 33.7424 24.8783 34.3543 24.2951C35.0629 23.5823 35.7714 22.8694 36.4799 22.1889C37.1562 21.5085 37.8647 20.8604 38.5411 20.1799C38.6055 20.1151 38.6699 20.0503 38.7343 19.9855C39.5073 19.0459 40.5379 18.657 41.7295 18.6246C43.0821 18.5598 44.1771 19.0459 45.1111 20.0179C46.9469 21.8973 48.8148 23.7767 50.6828 25.6236C51.9388 26.8873 52.1643 27.1465 52.5829 27.7946C53.7101 29.5119 53.9356 31.0997 54 31.5209C53.9034 31.8125 54.0322 32.6875 53.9034 33.8215Z" fill="white"/>
</g>
<defs>
<linearGradient id="paint_sxp_0_linear" x1="32" y1="0" x2="32" y2="64" gradientUnits="userSpaceOnUse">
<stop stop-color="#F16154"/>
<stop offset="1" stop-color="#C35348"/>
</linearGradient>
</defs>
</svg>
