<svg width="64" height="64" viewBox="0 0 64 64" fill="none" xmlns="http://www.w3.org/2000/svg">
<g id="uni">
<g id="crypto/uni">
<circle id="Ellipse 333" cx="31.875" cy="31.875" r="31.875" fill="#FFE7F1"/>
<g id="Group 2955">
<path id="Vector" d="M31.4255 27.5689C32.3629 29.2266 30.2666 29.7403 29.2829 29.8349C27.7921 29.9805 27.4835 29.1175 27.7748 28.0332C27.8703 27.645 28.0824 27.2958 28.3822 27.0329C28.682 26.7699 29.0552 26.606 29.4509 26.5634C29.8409 26.5274 30.233 26.6027 30.5823 26.7806C30.9316 26.9585 31.2239 27.2317 31.4255 27.5689Z" fill="#FC157B"/>
<path id="Vector_2" d="M37.2778 24.502C36.1883 32.8732 50.8757 31.1311 50.5961 37.7936C52.0448 35.9017 52.6678 30.7614 48.4026 28.1156C44.6026 25.7565 39.6509 27.0474 37.2778 24.502Z" fill="#FC157B"/>
<path id="Vector_3" d="M45.7377 21.3457C45.642 21.257 45.5435 21.1696 45.4479 21.0823C45.545 21.1711 45.642 21.2643 45.7377 21.3457Z" fill="#FC157B"/>
<path id="Vector_4" d="M49.1519 27.4471L49.1432 27.4341C49.0106 27.1867 48.8595 26.9497 48.6912 26.7253C48.196 26.0514 47.4858 25.5685 46.6789 25.3573C46.1418 25.218 45.5926 25.1313 45.0389 25.0983C44.4782 25.0575 43.906 25.0342 43.328 25.0036C42.169 24.9396 40.9825 24.8203 39.8235 24.4885C39.5337 24.4055 39.2439 24.3152 38.9644 24.2061C38.8195 24.1537 38.6848 24.0969 38.5413 24.0358C38.3979 23.9747 38.2516 23.9049 38.1067 23.8306C37.5617 23.5307 37.0569 23.1625 36.6044 22.7348C35.7119 21.9008 35.0108 20.9548 34.3081 20.038C33.6457 19.1176 32.9348 18.2334 32.1785 17.3893C31.4323 16.5623 30.5502 15.8702 29.5707 15.3431C28.5566 14.8299 27.4551 14.5139 26.3242 14.4117C27.4974 14.2837 28.6842 14.4291 29.7924 14.8366C30.9107 15.2727 31.933 15.9249 32.8015 16.7562C33.3685 17.2904 33.9008 17.8606 34.3951 18.4633C38.0749 17.7356 41.0593 18.3818 43.3526 19.6363L43.4048 19.6625C44.1347 20.0602 44.8188 20.5376 45.4446 21.0859C45.5445 21.1732 45.6431 21.2605 45.7343 21.3493C46.2228 21.8002 46.6775 22.2866 47.0947 22.8046L47.1265 22.8468C48.4811 24.5699 49.1504 26.3614 49.1519 27.4471Z" fill="#FC157B"/>
<path id="Vector_5" d="M49.1503 27.4467L49.142 27.4299L49.1503 27.4467Z" fill="#FC157B"/>
<path id="Vector_6" d="M26.5099 15.4896C27.4487 15.6264 28.4063 16.0019 29.0234 16.7179C29.6406 17.4339 29.868 18.3653 30.0462 19.2517C30.1911 19.9386 30.3056 20.6386 30.575 21.2892C30.7054 21.6064 30.8966 21.8844 31.056 22.1842C31.1879 22.433 31.4283 22.6572 31.521 22.9235C31.5377 22.9617 31.5438 23.0037 31.539 23.0451C31.5342 23.0866 31.5185 23.1259 31.4935 23.1593C31.1661 23.5231 30.2824 23.1185 29.9492 22.9555C29.3731 22.6687 28.8572 22.2735 28.4295 21.7913C27.0923 20.2995 26.4012 18.1528 26.4433 16.1983C26.4525 15.9611 26.4748 15.7245 26.5099 15.4896Z" fill="#FC157B"/>
<path id="Vector_7" d="M42.2122 32.3135C40.1839 37.9995 49.3835 41.8139 45.9369 47.5946C49.4732 46.1276 51.1524 41.6961 49.6848 38.1799C48.4011 35.0932 44.6055 33.9682 42.2122 32.3135Z" fill="#FC157B"/>
<path id="Vector_8" d="M30.0455 39.7464C30.5982 39.3279 31.2025 38.9831 31.8433 38.7204C32.4917 38.4597 33.1643 38.2647 33.8513 38.1382C35.2146 37.8778 36.5634 37.8137 37.6963 37.3553C38.256 37.1358 38.7711 36.8151 39.216 36.4093C39.6466 36.0074 39.9763 35.5086 40.178 34.9539C40.3845 34.3687 40.4683 33.7469 40.4242 33.1276C40.3731 32.4622 40.2231 31.8084 39.9795 31.1875C40.4844 31.7152 40.8521 32.3597 41.05 33.0641C41.2479 33.7686 41.2698 34.5111 41.1138 35.2261C40.9366 35.983 40.554 36.6756 40.0084 37.2272C39.4685 37.7616 38.8173 38.1691 38.1019 38.4206C37.4191 38.6611 36.7072 38.808 35.9853 38.8572C35.2899 38.9154 34.6177 38.9314 33.957 38.9707C32.6214 39.027 31.3022 39.2886 30.0455 39.7464Z" fill="#FC157B"/>
<path id="Vector_9" d="M43.021 49.7423C42.8167 49.9054 42.6124 50.0785 42.3879 50.2299C42.1619 50.3795 41.9251 50.5118 41.6794 50.6257C41.168 50.8764 40.6056 51.0044 40.0365 50.9998C38.4951 50.9707 37.4056 49.8181 36.7683 48.5155C36.3336 47.6277 36.0337 46.6687 35.518 45.8231C34.7805 44.6137 33.5187 43.6401 32.041 43.8206C31.4384 43.8962 30.8733 44.1684 30.5387 44.6938C29.6578 46.0661 30.9226 47.9887 32.535 47.7165C32.6722 47.6956 32.8064 47.6584 32.9349 47.6059C33.0629 47.5512 33.1825 47.4781 33.2898 47.3891C33.515 47.2007 33.6849 46.9541 33.7809 46.6759C33.8868 46.3859 33.9104 46.072 33.8491 45.7693C33.7828 45.4529 33.5969 45.1748 33.3304 44.9936C33.6403 45.1393 33.8817 45.4002 34.0041 45.7212C34.1309 46.0516 34.1635 46.4109 34.0982 46.7589C34.0349 47.1215 33.8758 47.4602 33.6375 47.7398C33.5109 47.8836 33.3646 48.0086 33.2029 48.1109C33.0426 48.212 32.871 48.2936 32.6915 48.354C32.3276 48.4789 31.9402 48.5193 31.5586 48.4718C31.0227 48.3952 30.5172 48.175 30.0954 47.8344C29.597 47.4386 29.2261 46.9204 28.7755 46.4751C28.259 45.9307 27.6497 45.4836 26.9762 45.1552C26.5118 44.9502 26.0258 44.7989 25.5275 44.704C25.2768 44.6516 25.0233 44.6137 24.7698 44.5817C24.6539 44.5701 24.086 44.4434 24.0063 44.5177C24.7899 43.793 25.6442 43.1494 26.5561 42.5966C27.4924 42.0385 28.4978 41.6064 29.5463 41.3115C30.6334 41.0041 31.7704 40.9166 32.8914 41.054C33.4684 41.1236 34.0337 41.2704 34.5719 41.4905C35.136 41.7169 35.6566 42.0399 36.1105 42.4453C36.5598 42.8704 36.9229 43.379 37.1796 43.9428C37.4115 44.4707 37.5845 45.0227 37.6954 45.5888C38.0257 47.2813 37.904 49.9054 40.1105 50.2925C40.2255 50.3149 40.3415 50.3314 40.4581 50.3419L40.8189 50.3507C41.0669 50.333 41.3133 50.2974 41.5563 50.2444C42.0597 50.1255 42.5502 49.9574 43.021 49.7423Z" fill="#FC157B"/>
<path id="Vector_10" d="M30.2013 47.8973L30.1429 47.8516L30.2013 47.8973Z" fill="#FC157B"/>
<path id="Vector_11" d="M28.2205 24.0101C28.1402 24.3203 27.9998 24.6116 27.8076 24.8673C27.4498 25.3339 26.9761 25.6977 26.4342 25.9224C25.9467 26.1334 25.4306 26.2698 24.9029 26.327C24.7884 26.3416 24.6697 26.3503 24.5552 26.3591C24.221 26.3718 23.8996 26.4917 23.6381 26.7012C23.3766 26.9107 23.1888 27.1988 23.1021 27.5233C23.0624 27.6847 23.0329 27.8486 23.0137 28.0138C22.9616 28.4417 22.9529 28.887 22.9065 29.4254C22.793 30.3418 22.5292 31.2328 22.1257 32.0625C21.6013 33.1715 21.013 34.0651 21.1492 35.3429C21.239 36.1724 21.6621 36.7284 22.2242 37.3018C23.2383 38.3437 25.5085 38.8095 25.0014 41.3767C24.6957 42.9092 22.1662 44.5173 18.6111 45.0791C18.9646 45.0253 18.1576 43.6587 18.1069 43.5714C17.7259 42.9718 17.3086 42.4071 17.0058 41.7565C16.4118 40.4947 16.1366 39.0351 16.38 37.6525C16.6364 36.1972 17.7085 35.0823 18.5995 33.9704C19.6599 32.6475 20.7726 30.9143 21.0188 29.197C21.0768 28.7807 21.1173 28.2597 21.21 27.7416C21.2984 27.1676 21.4775 26.6115 21.7403 26.0942C21.9197 25.7549 22.1559 25.4491 22.4386 25.1904C22.586 25.053 22.6832 24.8699 22.7147 24.6704C22.7462 24.4709 22.7102 24.2666 22.6125 24.0902L17.6607 14.9429L25.0854 23.9417C25.1782 24.0586 25.2953 24.1537 25.4287 24.22C25.562 24.2863 25.7083 24.3223 25.857 24.3256C26.0058 24.3288 26.1534 24.299 26.2895 24.2385C26.4256 24.1779 26.5466 24.0881 26.6442 23.9752C26.7474 23.8544 26.8059 23.7016 26.8098 23.5425C26.8138 23.3834 26.763 23.2278 26.666 23.102C26.1343 22.4195 25.5722 21.7237 25.0275 21.0398L22.9789 18.4929L18.8674 13.4079L16.38 10.25L19.3948 12.9524L23.7714 17.8133L25.9547 20.2495C26.679 21.0689 27.4034 21.862 28.1278 22.7236L28.2466 22.8692L28.2727 23.0947C28.308 23.4006 28.2903 23.7103 28.2205 24.0101Z" fill="#FC157B"/>
<path id="Vector_12" d="M30.096 47.8288C29.7026 47.5235 29.3527 47.1656 29.0558 46.765C29.3743 47.1464 29.7221 47.5021 30.096 47.8288Z" fill="#FC157B"/>
</g>
</g>
</g>
</svg>
