<svg width="64" height="64" viewBox="0 0 64 64" fill="none" xmlns="http://www.w3.org/2000/svg">
<g id="usdt">
<g id="crypto/usdt">
<path id="Vector" d="M32 64C49.6731 64 64 49.6731 64 32C64 14.3269 49.6731 0 32 0C14.3269 0 0 14.3269 0 32C0 49.6731 14.3269 64 32 64Z" fill="#26A17B"/>
<path id="Vector_2" fill-rule="evenodd" clip-rule="evenodd" d="M35.8432 34.766V34.762C35.6232 34.778 34.4892 34.846 31.9592 34.846C29.9392 34.846 28.5172 34.786 28.0172 34.762V34.768C20.2412 34.426 14.4372 33.072 14.4372 31.452C14.4372 29.834 20.2412 28.48 28.0172 28.132V33.42C28.5252 33.456 29.9812 33.542 31.9932 33.542C34.4072 33.542 35.6172 33.442 35.8432 33.422V28.136C43.6032 28.482 49.3932 29.836 49.3932 31.452C49.3932 33.072 43.6032 34.422 35.8432 34.766ZM35.8432 27.586V22.854H46.6712V15.638H17.1892V22.854H28.0172V27.584C19.2172 27.988 12.5992 29.732 12.5992 31.82C12.5992 33.908 19.2172 35.65 28.0172 36.056V51.22H35.8432V36.052C44.6292 35.648 51.2312 33.906 51.2312 31.82C51.2312 29.734 44.6292 27.992 35.8432 27.586Z" fill="white"/>
</g>
</g>
</svg>
