<svg width="64" height="64" viewBox="0 0 64 64" fill="none" xmlns="http://www.w3.org/2000/svg">
<g id="vet">
<g id="crypto/vet">
<circle id="Ellipse 346" cx="32" cy="32" r="32" fill="#23292F"/>
<g id="Layer 1">
<path id="Vector" d="M30.4759 48.4698L15.079 17.0931C14.8288 16.5925 15.205 16 15.7594 16H21.0944C21.3806 16 21.6488 16.1621 21.7748 16.4124L33.0192 39.1755C34.0218 41.2177 36.9215 41.2177 37.9241 39.1755L49.1325 16.4304C49.2585 16.1801 49.5267 16.018 49.8129 16.018H50.4753C50.8694 16.018 51.1196 16.4304 50.9414 16.7708L35.3826 48.4698C34.38 50.5102 31.4784 50.5102 30.4759 48.4698Z" fill="url(#paint_vel0_linear)"/>
<path id="Vector_2" opacity="0.1" d="M30.4753 48.4698L21.7743 16.4304C21.6483 16.1621 21.3621 16.018 21.1299 16.018H15.7768C15.1864 16.018 14.8462 16.6087 15.0784 17.1112L30.4753 48.4698Z" fill="white"/>
<path id="Vector_3" opacity="0.1" d="M33.0189 39.1917L15.0787 17.0931C14.8645 16.5745 15.1867 16.054 15.6871 16H21.1122C21.4164 16.018 21.6486 16.2143 21.7566 16.4124L33.0189 39.1917Z" fill="white"/>
</g>
</g>
</g>
<defs>
<linearGradient id="paint_vel0_linear" x1="15" y1="33.0001" x2="50.9999" y2="33.0001" gradientUnits="userSpaceOnUse">
<stop stop-color="#B440E2"/>
<stop offset="0.03" stop-color="#A254E7"/>
<stop offset="0.15" stop-color="#6A75EF"/>
<stop offset="0.26" stop-color="#4C8FE5"/>
<stop offset="0.39" stop-color="#3AAEFF"/>
<stop offset="0.52" stop-color="#38BDFF"/>
<stop offset="0.66" stop-color="#33C3FF"/>
<stop offset="0.83" stop-color="#2FC4FF"/>
<stop offset="1" stop-color="#2DD8F8"/>
</linearGradient>
</defs>
</svg>
