<svg width="64" height="64" viewBox="0 0 64 64" fill="none" xmlns="http://www.w3.org/2000/svg">
<g id="xem">
<circle id="Ellipse 350" cx="32" cy="32" r="32" fill="#67B2E8"/>
<g id="xem_2" clip-path="url(#clip_xem_0)">
<path id="Vector" d="M32.0111 58L31.7476 57.8673C21.4721 51.8077 13.6996 41.8115 10.5379 29.8692C10.0329 27.9894 9.65969 26.0654 9.39622 24.1192C9.1547 22.1731 9.02296 20.2048 9.00101 18.2365C9.00101 17.9048 8.9571 17.949 9.26448 17.7942C13.1288 15.5827 17.2126 13.9682 21.538 12.9509C23.1408 12.575 24.7436 12.2875 26.3683 12.0884C28.6079 11.823 30.8474 11.7125 33.1089 11.7567C34.3823 11.7788 35.6338 11.8673 36.8853 12C43.1867 12.6855 49.093 14.5875 54.6259 17.7057C54.7137 17.75 54.7796 17.7942 54.8674 17.8384C54.9552 17.8827 54.9992 17.949 54.9992 18.0596V18.3913C54.9772 19.5413 54.9333 20.6692 54.8455 21.8192C54.7137 23.4557 54.4942 25.0702 54.1868 26.6846C53.5281 30.1567 52.4962 33.4961 51.069 36.7029C48.8075 41.8115 45.7117 46.3673 41.8035 50.3481C38.9931 53.2231 35.8534 55.7 32.3843 57.7567C32.2526 57.8452 32.1428 57.9115 32.0111 58ZM11.1088 19.3644V19.6298C11.1088 21.2442 11.2186 22.8807 11.4162 24.4731C11.5918 25.9327 11.8334 27.3702 12.1627 28.8077C12.2286 29.0509 12.2944 29.2942 12.4042 29.5375C14.3803 33.7615 18.9471 36.0173 23.4701 34.9779C26.9172 34.1817 29.7276 31.5057 30.6717 28.0779C30.9352 27.1269 31.023 26.1538 31.0669 25.1807C31.0889 24.5394 31.1548 23.8981 31.2646 23.2567C32.0111 19.3644 34.5799 16.1577 38.2027 14.6317C38.4003 14.5432 38.6199 14.4769 38.8175 14.3884C38.8394 14.3663 38.8833 14.3663 38.8833 14.3221C38.3125 14.123 34.9093 13.7692 32.8674 13.725C28.4761 13.6365 24.1727 14.2115 19.9791 15.4942C16.8613 16.4452 13.9192 17.7279 11.1088 19.3644ZM43.4941 45.8586C43.6039 45.7923 43.6698 45.7038 43.7137 45.6375C44.5919 44.5317 45.4263 43.3817 46.1947 42.1875C48.9393 37.8971 50.8714 33.275 51.9473 28.2769C52.3205 26.574 52.562 24.8711 52.7157 23.1461C52.8255 21.974 52.8694 20.8019 52.8694 19.6077C52.8694 19.5192 52.8694 19.4529 52.8475 19.3644L52.5181 19.1654C51.6179 18.6567 50.6958 18.1702 49.7736 17.7279C48.4123 17.0865 47.051 16.5115 45.6239 16.0471C43.8893 15.4942 42.1328 15.4279 40.3764 15.8702C35.3484 17.0865 32.1208 22.0625 33.0869 27.1711C33.6139 30.0019 35.1288 32.2134 37.544 33.7615C37.6977 33.8721 37.8734 33.9606 38.027 34.0711C39.8055 35.1548 41.1887 36.6365 42.1768 38.4721C43.2307 40.3961 43.6917 42.475 43.56 44.6644C43.582 45.0404 43.538 45.4384 43.4941 45.8586ZM32.0111 55.7442C32.0989 55.7 32.2087 55.6336 32.2965 55.5673C35.063 53.9308 37.6099 51.9846 39.9372 49.7731C40.0909 49.6404 40.2007 49.4634 40.2885 49.2865C40.4422 48.999 40.5959 48.6894 40.7277 48.4019C41.8255 46.1019 42.067 43.7134 41.3424 41.2365C39.9153 36.4596 35.3484 33.7173 30.7596 34.2923C29.4422 34.4471 28.2346 34.8673 27.0929 35.5308C24.9192 36.7692 22.5919 37.2779 20.0889 37.0346C18.8593 36.924 17.6956 36.5923 16.5759 36.1058C15.6976 35.7077 14.8633 35.2211 14.1168 34.624C14.0729 34.5798 14.007 34.5577 13.8972 34.4913C13.9192 34.6019 13.9411 34.6682 13.9631 34.7125C14.9511 37.2336 16.1587 39.6221 17.5859 41.9C19.1448 44.3548 20.9232 46.6327 22.9432 48.7115C24.9631 50.7904 27.1807 52.6481 29.5739 54.2625C30.6717 54.9702 31.7037 55.6115 32.0111 55.7442Z" fill="#67B2E8"/>
<path id="Vector_2" d="M11.1086 19.3644C13.919 17.7279 16.8611 16.4452 19.9569 15.5164C24.1725 14.2558 28.454 13.6587 32.8452 13.7471C34.8871 13.7914 38.2903 14.1231 38.8612 14.3442C38.8831 14.3885 38.8392 14.4106 38.7953 14.4106C38.5977 14.499 38.3781 14.5654 38.1805 14.6539C34.5578 16.1798 31.9889 19.3865 31.2424 23.2789C31.1326 23.9202 31.0668 24.5615 31.0448 25.2029C31.0228 26.176 30.935 27.149 30.6496 28.1C29.6835 31.5279 26.8951 34.2039 23.448 35C18.925 36.0394 14.3581 33.7837 12.3821 29.5596C12.2723 29.3164 12.1845 29.0731 12.1406 28.8298C11.8112 27.3923 11.5697 25.9548 11.3941 24.4952C11.1965 22.8808 11.0867 21.2664 11.0867 19.6519C11.1086 19.5414 11.1086 19.475 11.1086 19.3644Z" fill="white"/>
<path id="Vector_3" d="M43.4941 45.8586C43.538 45.4385 43.582 45.0625 43.6039 44.6644C43.7137 42.475 43.2526 40.3961 42.2207 38.4721C41.2326 36.6365 39.8494 35.1769 38.071 34.0711C37.9173 33.9606 37.7416 33.8721 37.5879 33.7615C35.1508 32.2135 33.6578 30.024 33.1308 27.1711C32.1867 22.0404 35.3923 17.0865 40.4203 15.8702C42.1987 15.45 43.9333 15.4942 45.6678 16.0471C47.0949 16.4894 48.4562 17.0865 49.8175 17.7279C50.7616 18.1702 51.6618 18.6567 52.562 19.1654C52.6718 19.2317 52.7596 19.276 52.8914 19.3644C52.8914 19.4529 52.9133 19.5192 52.9133 19.6077C52.9133 20.7798 52.8475 21.974 52.7596 23.1461C52.6059 24.8711 52.3425 26.5961 51.9912 28.2769C50.9153 33.275 49.0051 37.8971 46.2387 42.1875C45.4702 43.3817 44.6359 44.5317 43.7576 45.6375C43.6698 45.7038 43.6259 45.7923 43.4941 45.8586Z" fill="white"/>
<path id="Vector_4" d="M32.0109 55.7442C31.6816 55.6115 30.6716 54.9923 29.5958 54.2625C27.2025 52.6481 24.985 50.7904 22.965 48.7115C20.945 46.6327 19.1446 44.3548 17.6077 41.9C16.1586 39.6221 14.951 37.2337 13.9849 34.7125C13.963 34.6462 13.941 34.6019 13.9191 34.4913C14.0288 34.5577 14.0728 34.5798 14.1386 34.624C14.9071 35.2212 15.7195 35.7298 16.5977 36.1058C17.7175 36.5923 18.8812 36.924 20.1107 37.0346C22.5917 37.2779 24.9191 36.7692 27.1147 35.5308C28.2564 34.8894 29.486 34.4692 30.7814 34.2923C35.3702 33.7173 39.9371 36.4596 41.3643 41.2365C42.0888 43.6913 41.8693 46.0798 40.7495 48.4019C40.5958 48.7115 40.4641 48.999 40.3104 49.2865C40.2225 49.4635 40.1128 49.6404 39.9591 49.7731C37.6317 51.9846 35.0848 53.9308 32.3183 55.5673C32.2085 55.6336 32.0988 55.7 32.0109 55.7442Z" fill="white"/>
</g>
</g>
<defs>
<clipPath id="clip_xem_0">
<rect width="46" height="46" fill="white" transform="translate(9 12)"/>
</clipPath>
</defs>
</svg>
