<svg width="64" height="64" viewBox="0 0 64 64" fill="none" xmlns="http://www.w3.org/2000/svg">
<g id="xlm">
<path id="Vector" d="M63 32C63 49.1208 49.1208 63 32 63C14.8792 63 1 49.1208 1 32C1 14.8792 14.8792 1 32 1C49.1208 1 63 14.8792 63 32Z" fill="#FEFEFE" stroke="#CBD5E1" stroke-width="2"/>
<path id="Vector_2" d="M48.0769 17.7603L42.6825 20.5086L16.6339 33.7766C16.5457 33.1048 16.5014 32.428 16.5013 31.7504C16.5048 29.047 17.2145 26.3914 18.5601 24.0466C19.9059 21.7019 21.8408 19.7494 24.1733 18.3826C26.5057 17.0157 29.1549 16.2819 31.8581 16.2539C34.5614 16.2259 37.2251 16.9046 39.5854 18.2229L42.6731 16.6496L43.1336 16.4146C40.3051 14.3617 36.9641 13.1308 33.4798 12.8579C29.9955 12.585 26.5037 13.2808 23.3901 14.8684C20.2765 16.456 17.6625 18.8734 15.837 21.8538C14.0114 24.8341 13.0455 28.2611 13.0458 31.7562C13.0458 32.2389 13.0642 32.7197 13.1008 33.1986C13.1521 33.8766 13.0017 34.5549 12.6685 35.1478C12.3353 35.7408 11.8341 36.2219 11.2281 36.5307L9.59998 37.3608V41.2331L14.3935 38.7899L15.9458 37.9978L17.4755 37.2187L44.9361 23.2267L48.0219 21.6555L54.4 18.4048V14.5344L48.0769 17.7603Z" fill="black"/>
<path id="Vector_3" d="M54.4 22.2791L19.0353 40.2856L15.9496 41.8607L9.59998 45.0962V48.9646L15.906 45.7519L21.3003 43.0035L47.3755 29.7167C47.4637 30.393 47.508 31.0743 47.5083 31.7562C47.5065 34.4627 46.7969 37.1218 45.4501 39.4694C44.103 41.817 42.1654 43.7714 39.8296 45.1387C37.4937 46.5059 34.8409 47.2386 32.1345 47.2637C29.428 47.2888 26.7621 46.6056 24.4013 45.2819L24.2117 45.3822L20.8645 47.0882C23.6923 49.1411 27.0326 50.3725 30.5163 50.6461C34.0001 50.9195 37.4917 50.2246 40.6053 48.6382C43.7189 47.0517 46.3333 44.6354 48.1595 41.656C49.9859 38.6768 50.9529 35.2507 50.9541 31.7562C50.9541 31.2691 50.9352 30.7819 50.8992 30.3005C50.848 29.6226 50.9982 28.9445 51.331 28.3517C51.6638 27.7589 52.1645 27.2776 52.7699 26.9683L54.4 26.1383V22.2791Z" fill="black"/>
</g>
</svg>
