<svg width="64" height="64" viewBox="0 0 64 64" fill="none" xmlns="http://www.w3.org/2000/svg">
<g id="xtz">
<circle id="Ellipse 344" cx="32" cy="32" r="31" fill="#FEFEFE" stroke="#CBD5E1" stroke-width="2"/>
<g id="xtz_2" clip-path="url(#clip_xtz_0)">
<g id="Layer 2">
<path id="Vector" d="M36.8725 53.9999C33.7328 53.9999 31.4411 53.2437 29.9974 51.7311C28.6601 50.4508 27.884 48.6931 27.8388 46.8423C27.8226 46.28 27.9529 45.7231 28.217 45.2264C28.4633 44.7973 28.8191 44.4412 29.2481 44.1945C29.7467 43.9459 30.2962 43.8164 30.8534 43.8164C31.4106 43.8164 31.9601 43.9459 32.4587 44.1945C32.8869 44.4402 33.2411 44.7967 33.484 45.2264C33.7557 45.7207 33.8909 46.2784 33.8757 46.8423C33.9037 47.5156 33.7106 48.1796 33.3257 48.7329C33.0049 49.1845 32.5465 49.52 32.019 49.6891C32.5348 50.3459 33.2647 50.8009 34.0814 50.9749C34.9953 51.2403 35.9417 51.3768 36.8932 51.3804C38.1531 51.3914 39.3869 51.0224 40.4339 50.3217C41.5201 49.5543 42.3301 48.4574 42.7439 47.1936C43.2684 45.6894 43.5244 44.1047 43.5001 42.5119C43.5424 40.8513 43.2623 39.1982 42.6751 37.6443C42.2335 36.4014 41.3952 35.3384 40.2895 34.6192C39.2618 33.9689 38.0688 33.6277 36.8526 33.6362C35.7929 33.726 34.771 34.0729 33.8757 34.6469L31.6682 35.7536V34.6469L41.5888 21.3383H27.8388V35.1487C27.8 36.1453 28.0636 37.1304 28.5951 37.9743C28.8522 38.3421 29.2 38.6372 29.6047 38.8311C30.0094 39.025 30.4573 39.1111 30.905 39.0811C31.7323 39.0644 32.5324 38.7824 33.1873 38.2768C33.9298 37.7327 34.5759 37.068 35.0987 36.3105C35.1458 36.1776 35.2326 36.0625 35.3473 35.9807C35.4394 35.9011 35.557 35.8571 35.6787 35.8569C35.9176 35.8787 36.1436 35.9749 36.3251 36.1318C36.5548 36.3885 36.6799 36.7222 36.6756 37.0667C36.649 37.2983 36.6077 37.5279 36.5518 37.7542C36.0634 38.9364 35.2446 39.9529 34.1936 40.682C33.2174 41.3426 32.0644 41.6928 30.8857 41.6868C27.9087 41.6868 25.8464 41.1002 24.6986 39.9268C24.1087 39.2783 23.654 38.5187 23.3613 37.6923C23.0685 36.8659 22.9435 35.9895 22.9936 35.1142V21.3383H16V18.7724H23.0262V12.9217L21.4176 11.312V10H26.0855L27.8388 10.9076V18.7724L46.0023 18.7171L47.8106 20.5321L36.6731 31.7238C37.3459 31.4531 38.0546 31.2818 38.7767 31.215C40.206 31.2776 41.6005 31.6756 42.8475 32.377C44.2914 33.0633 45.5083 34.1493 46.3539 35.5061C47.1116 36.6548 47.6479 37.9349 47.9352 39.2805C48.1714 40.342 48.2981 41.4248 48.3133 42.5122C48.3207 44.5872 47.8502 46.6361 46.9384 48.5001C46.0736 50.305 44.6182 51.7605 42.8132 52.6252C40.9656 53.5357 38.9323 54.0062 36.8725 53.9999Z" fill="#2C7DF7"/>
</g>
</g>
</g>
<defs>
<clipPath id="clip_xtz_0">
<rect width="32.3128" height="44" fill="white" transform="translate(16 10)"/>
</clipPath>
</defs>
</svg>
