<svg width="64" height="64" viewBox="0 0 64 64" fill="none" xmlns="http://www.w3.org/2000/svg">
<g id="yfi">
<g id="Layer 2">
<g id="Layer 1">
<path id="SVGID" fill-rule="evenodd" clip-rule="evenodd" d="M32 0C49.6704 0 64 14.3296 64 32C64 49.6704 49.6704 64 32 64C14.3296 64 0 49.6704 0 32C0 14.3296 14.3296 0 32 0Z" fill="#006AE3"/>
<path id="SVGID_2" d="M30.6817 45.4912V18.8672H33.5809V45.4912H30.6817Z" fill="white"/>
<path id="SVGID_3" d="M45.4399 27.7376L36.4863 30.112L34.4895 20.8192L37.1519 20.2176L38.2015 24.6208C38.2015 24.6208 40.6207 20.6528 37.3951 16.544C35.4943 14.432 34.5919 14.3424 32.4607 14.0096C30.5855 13.7408 26.2271 14.3744 24.9279 19.4624C24.3775 22.7392 24.9983 25.1648 29.2223 28.3392L28.9855 31.872C28.9855 31.872 24.2687 28.5504 23.0527 26.2208C22.1119 24.3776 20.4991 20.736 23.4111 15.6672C24.9791 13.1328 28.0703 10.7008 33.5167 10.9568C36.2559 11.072 42.9439 14.4192 41.9071 22.24C41.7279 23.7056 40.9663 25.6576 40.9663 25.6576L44.6399 24.8384L45.4399 27.7376Z" fill="white"/>
<path id="SVGID_4" d="M40.3264 48.5696C38.688 51.0592 35.5328 53.408 30.0992 53.0112C27.36 52.8256 20.768 49.2992 22.0096 41.5104C22.2272 40.0512 23.04 38.1248 23.04 38.1248L19.3472 38.8416L18.624 35.9296L27.6416 33.792L29.3952 43.136L26.7136 43.6672L25.7792 39.232C25.7792 39.232 23.2576 43.1296 26.368 47.328C28.2112 49.4912 29.1072 49.6 31.2384 49.9904C33.1008 50.3104 37.4784 49.7856 38.912 44.736C39.5456 41.4784 38.9888 39.0336 34.8544 35.744L35.1872 32.2176C35.1872 32.2176 39.8144 35.6608 40.9664 38.0224C41.8496 39.8976 43.3664 43.584 40.3264 48.5696Z" fill="white"/>
</g>
</g>
</g>
</svg>
