<svg width="64" height="64" viewBox="0 0 64 64" fill="none" xmlns="http://www.w3.org/2000/svg">
<g id="zec">
<g id="crypto/zec">
<circle id="Ellipse" cx="32" cy="32" r="32" fill="#FDAB01"/>
<path id="Union" d="M33.7125 24.9976C33.4718 24.9976 33.3237 24.9976 33.1756 24.9976C29.7783 24.9976 26.3903 24.9976 22.993 25.0069C22.6412 25.0069 22.5209 24.9328 22.5301 24.5533C22.5486 22.6279 22.5486 20.6932 22.5301 18.7678C22.5301 18.3882 22.6505 18.3142 22.993 18.3142C25.0295 18.3327 27.066 18.3142 29.1025 18.3327C29.4543 18.3327 29.5746 18.2586 29.5746 17.8791C29.5561 16.4258 29.5746 14.9817 29.5561 13.5284C29.5561 13.2136 29.6209 13.1118 29.9542 13.1118C31.6945 13.1303 33.444 13.1303 35.1843 13.1118C35.5175 13.1118 35.6286 13.1766 35.6286 13.5376C35.6101 14.991 35.6286 16.435 35.6101 17.8884C35.6101 18.2309 35.6842 18.3327 36.0452 18.3327C38.2483 18.3142 40.4607 18.3327 42.6639 18.3142C43.0619 18.3142 43.1452 18.4253 43.136 18.8048C43.1175 20.2396 43.1175 21.6744 43.136 23.1092C43.1452 23.4887 43.0341 23.7757 42.8027 24.0812C39.0814 28.9781 35.3694 33.8842 31.6482 38.7811C31.5556 38.9014 31.4723 39.031 31.3705 39.1606C31.5278 39.2902 31.7037 39.2254 31.8611 39.2254C35.5916 39.2347 39.3221 39.2347 43.0619 39.2161C43.4414 39.2161 43.5525 39.3087 43.5433 39.6975C43.5248 41.5766 43.5155 43.465 43.5433 45.3442C43.5525 45.77 43.4692 45.9181 43.0064 45.9088C40.6921 45.8811 38.3779 45.9088 36.0637 45.8903C35.6934 45.8903 35.6009 45.9922 35.6101 46.3532C35.6286 47.8065 35.6101 49.2506 35.6286 50.7039C35.6286 51.0279 35.5453 51.1205 35.2213 51.1112C33.4625 51.0927 31.7037 51.1019 29.9449 51.1112C29.6487 51.1112 29.5561 51.0279 29.5561 50.7224C29.5746 49.2598 29.5561 47.788 29.5746 46.3254C29.5746 45.9829 29.4821 45.8811 29.1303 45.8811C26.7976 45.8996 24.4741 45.8811 22.1413 45.8996C21.7155 45.8996 21.6322 45.7793 21.6415 45.3812C21.6692 44.039 21.66 42.6967 21.6415 41.3545C21.6415 41.0397 21.7248 40.7991 21.9099 40.5584C25.7515 35.5041 29.5839 30.4406 33.4255 25.3771C33.4995 25.2846 33.5736 25.1828 33.7125 24.9976Z" fill="#1B1A1A"/>
</g>
</g>
</svg>
