<svg width="32" height="32" viewBox="0 0 32 32" fill="none" xmlns="http://www.w3.org/2000/svg">
<path fill-rule="evenodd" clip-rule="evenodd" d="M1.33331 7.33301C1.33331 6.22844 2.22874 5.33301 3.33331 5.33301H12.6666C13.7712 5.33301 14.6666 6.22844 14.6666 7.33301V18.6663L11.2194 25.5608C10.8806 26.2383 10.1881 26.6663 9.43058 26.6663H6.95135C6.20797 26.6663 5.72447 25.884 6.05692 25.2191L9.33331 18.6663H3.33331C2.22874 18.6663 1.33331 17.7709 1.33331 16.6663V7.33301ZM17.3333 7.33301C17.3333 6.22844 18.2287 5.33301 19.3333 5.33301H28.6666C29.7712 5.33301 30.6666 6.22844 30.6666 7.33301V18.6663L27.2194 25.5608C26.8806 26.2383 26.1881 26.6663 25.4306 26.6663H22.9513C22.208 26.6663 21.7245 25.884 22.0569 25.2191L25.3333 18.6663H19.3333C18.2287 18.6663 17.3333 17.7709 17.3333 16.6663V7.33301Z" fill="#9EBDFF"/>
</svg>
