<svg width="118" height="32" viewBox="0 0 118 32" fill="currentColor" xmlns="http://www.w3.org/2000/svg">
  <path
    d="M0 7.79636H6.98182L11.0348 18.0073L15.147 7.79636H21.9513L11.7153 32H4.88136L7.69183 25.6L0 7.79636ZM29.0219 7.38909C23.7855 7.38909 20.4721 12.0145 20.4721 16.6109C20.4721 21.7891 24.1109 25.8909 28.9331 25.8909C32.5424 25.8909 33.9032 23.7382 33.9032 23.7382V25.4255H39.9975V7.79636H33.9032V9.39636C33.8736 9.39636 32.3649 7.38909 29.0219 7.38909ZM30.3236 13.0618C32.7495 13.0618 33.992 14.9527 33.992 16.64C33.992 18.4727 32.6607 20.2764 30.3236 20.2764C28.4006 20.2764 26.6552 18.7345 26.6552 16.7273C26.6552 14.6909 28.0456 13.0618 30.3236 13.0618ZM42.0684 25.4255V0H48.429V9.45455C48.429 9.45455 49.9377 7.38909 53.1032 7.38909C56.9787 7.38909 59.2567 10.24 59.2567 14.2836V25.4255H52.9257V15.7964C52.9257 14.4291 52.2749 13.0909 50.7661 13.0909C49.2277 13.0909 48.429 14.4291 48.429 15.7964V25.4255H42.0684ZM70.114 7.38909C64.1085 7.38909 60.5288 11.8691 60.5288 16.6982C60.5288 22.1673 64.8481 25.92 70.1436 25.92C75.2616 25.92 79.7288 22.3418 79.7288 16.7855C79.7288 10.7055 75.025 7.38909 70.114 7.38909ZM70.1732 13.0909C72.3032 13.0909 73.7528 14.8364 73.7528 16.6691C73.7528 18.24 72.392 20.1891 70.1732 20.1891C68.1319 20.1891 66.6231 18.5891 66.6231 16.64C66.6231 14.8073 67.8656 13.0909 70.1732 13.0909ZM90.3199 7.38909C84.3143 7.38909 80.7347 11.8691 80.7347 16.6982C80.7347 22.1673 85.0539 25.92 90.3495 25.92C95.4675 25.92 99.9347 22.3418 99.9347 16.7855C99.9347 10.7055 95.2604 7.38909 90.3199 7.38909ZM90.379 13.0909C92.5091 13.0909 93.9587 14.8364 93.9587 16.6691C93.9587 18.24 92.5978 20.1891 90.379 20.1891C88.3377 20.1891 86.829 18.5891 86.829 16.64C86.829 14.8073 88.1011 13.0909 90.379 13.0909ZM104.964 17.4836C107.301 17.4836 109.194 19.3455 109.194 21.6436C109.194 23.9418 107.301 25.8036 104.964 25.8036C102.627 25.8036 100.733 23.9418 100.733 21.6436C100.733 19.3455 102.627 17.4836 104.964 17.4836ZM110.585 15.9709H102.982L109.727 0H117.3L110.585 15.9709Z"
     />
</svg>
