<svg width="32" height="32" viewBox="0 0 32 32" fill="none" xmlns="http://www.w3.org/2000/svg">
<path d="M16 32C24.8366 32 32 24.8366 32 16C32 7.16344 24.8366 0 16 0C7.16344 0 0 7.16344 0 16C0 24.8366 7.16344 32 16 32Z" fill="#233F7B"/>
<path d="M16.2481 6V13.3933L22.4953 16.1855L16.2481 6Z" fill="#C4D7FF"/>
<path d="M16.2482 6L10.0001 16.1855L16.2482 13.3933V6Z" fill="#C4D7FF"/>
<path d="M16.2482 20.9766V26.0001L22.4996 17.3491L16.2482 20.9766Z" fill="#C4D7FF"/>
<path d="M16.2482 26.0001V20.9757L10.0001 17.3491L16.2482 26.0001Z" fill="#C4D7FF"/>
<path d="M16.2482 19.8139L22.4954 16.1856L16.2482 13.395V19.8139Z" fill="#C4D7FF"/>
<path d="M10.0001 16.1856L16.2482 19.8139V13.395L10.0001 16.1856Z" fill="#C4D7FF"/>
</svg>
