<svg width="32" height="32" viewBox="0 0 32 32" fill="none" xmlns="http://www.w3.org/2000/svg">
<path d="M15.9999 32C24.8364 32 31.9998 24.8366 31.9998 16.0001C31.9998 7.16364 24.8364 0.000244141 15.9999 0.000244141C7.1634 0.000244141 0 7.16364 0 16.0001C0 24.8366 7.1634 32 15.9999 32Z" fill="#395288"/>
<path d="M15.9994 0.800044C24.3743 0.800044 31.1993 7.625 31.1993 16C31.1993 24.3749 24.3743 31.1999 15.9994 31.1999C7.62445 31.1999 0.799495 24.3749 0.799495 16C0.799495 7.625 7.62445 0.800044 15.9994 0.800044ZM15.9994 0.0500488C7.19946 0.0500488 0.0494995 7.20001 0.0494995 16C0.0494995 24.7999 7.17446 31.9499 15.9994 31.9499C24.8243 31.9499 31.9493 24.8249 31.9493 16C31.9493 7.17501 24.7993 0.0500488 15.9994 0.0500488Z" fill="#395288"/>
<path d="M0 16C0 7.16346 7.16336 0 15.9999 0C24.8364 0 31.9998 7.16336 31.9998 16" fill="#233F7B"/>
<path fill-rule="evenodd" clip-rule="evenodd" d="M13.5651 3.59157C11.3773 4.06947 9.73905 6.01686 9.73905 8.34794C9.73905 10.6791 11.3774 12.6264 13.5651 13.104C13.2288 13.1774 12.88 13.2172 12.5216 13.2172C9.83225 13.2172 7.65216 11.0371 7.65216 8.34774C7.65216 5.65836 9.83225 3.47827 12.5216 3.47827C12.88 3.47827 13.2289 3.51817 13.5651 3.59157ZM16.3452 4.88919L15.9998 3.82629L15.6544 4.88919H14.5369L15.4411 5.54598L15.0956 6.60888L15.9998 5.95198L16.904 6.60888L16.5585 5.54598L17.4627 4.88919H16.3452ZM13.289 5.91315L13.6342 6.97605H14.7517L13.8477 7.63294L14.193 8.69573L13.289 8.03884L12.3847 8.69573L12.7301 7.63294L11.826 6.97605H12.9435L13.289 5.91315ZM19.0561 6.97605L18.7106 5.91315L18.3654 6.97605H17.2478L18.1519 7.63294L17.8065 8.69573L18.7106 8.03884L19.6148 8.69573L19.2695 7.63294L20.1736 6.97605H19.0561ZM17.667 9.04354L18.0124 10.1064H19.13L18.2258 10.7633L18.5711 11.8262L17.667 11.1693L16.7629 11.8262L17.1083 10.7633L16.2042 10.1064H17.3216L17.667 9.04354ZM14.678 10.1064L14.3326 9.04354L13.9872 10.1064H12.8696L13.7738 10.7633L13.4285 11.8262L14.3326 11.1693L15.2367 11.8262L14.8913 10.7633L15.7954 10.1064H14.678Z" fill="#C4D7FF"/>
</svg>
