<svg width="32" height="32" viewBox="0 0 32 32" fill="none" xmlns="http://www.w3.org/2000/svg">
<path d="M16 32C24.8366 32 32 24.8366 32 16C32 7.16344 24.8366 0 16 0C7.16344 0 0 7.16344 0 16C0 24.8366 7.16344 32 16 32Z" fill="#233F7B"/>
<path d="M22.7164 8.5H25.4643L19.7466 13.5346C17.6768 15.3573 14.3217 15.3573 12.2518 13.5346L6.53497 8.5H9.2828L13.6261 12.3246C14.9366 13.4791 17.0619 13.4791 18.3731 12.3246L22.7164 8.5ZM9.24784 23.25H6.5L12.2526 18.1843C14.3224 16.3616 17.6776 16.3616 19.7474 18.1843L25.5 23.25H22.7522L18.3731 19.3943C17.0626 18.2398 14.9373 18.2398 13.6261 19.3943L9.24784 23.25Z" fill="#C4D7FF"/>
</svg>
