<svg width="24" height="24" viewBox="0 0 24 24" fill="currentColor" xmlns="http://www.w3.org/2000/svg">
<g id="connect_connect_phone_disabled">
<path id="connect_connect_phone_disabled_Vector" d="M17.3399 14.54L15.9099 13.11C16.4699 12.38 16.9599 11.61 17.3799 10.79L15.1799 8.59C14.8999 8.31 14.8199 7.92 14.9299 7.57C15.2999 6.45 15.4999 5.25 15.4999 4C15.4999 3.45 15.9499 3 16.4999 3H19.9999C20.5499 3 20.9999 3.45 20.9999 4C20.9999 7.98 19.6299 11.64 17.3399 14.54ZM14.5199 17.35C11.6299 19.64 7.96989 21 3.99989 21C3.44989 21 2.99989 20.55 2.99989 20V16.51C2.99989 15.96 3.44989 15.51 3.99989 15.51C5.23989 15.51 6.44989 15.31 7.56989 14.94C7.91989 14.82 8.31989 14.91 8.58989 15.18L10.7899 17.38C11.5999 16.96 12.3699 16.48 13.0899 15.92L1.38989 4.22L2.80989 2.81L21.1899 21.2L19.7799 22.61L14.5199 17.35Z" />
</g>
</svg>
