<svg width="180" height="32" viewBox="0 0 180 32" fill="currentColor" xmlns="http://www.w3.org/2000/svg">
  <path fill-rule="evenodd" clip-rule="evenodd"
        d="M46.5746 26.0963L46.5745 26.0963C46.2381 25.9205 45.9017 25.7448 45.5758 25.5587C43.184 24.1993 40.7896 22.8372 38.3952 21.4751C36.0007 20.1131 33.6063 18.751 31.2145 17.3915C30.5731 17.0297 29.9423 16.6679 29.3115 16.2957C28.7648 15.9752 28.6176 15.5203 28.9225 14.9827C29.3641 14.2177 29.8162 13.463 30.2893 12.7186C30.6152 12.2017 31.0462 12.119 31.5929 12.4188C31.9189 12.5998 32.2448 12.7858 32.5707 12.9719C32.8966 13.158 33.2225 13.3441 33.5485 13.525C33.6477 13.5771 33.751 13.6168 33.8559 13.6572C33.9178 13.6809 33.9802 13.7049 34.0426 13.7318C34.0584 13.7163 34.0768 13.7008 34.0951 13.6853C34.1135 13.6698 34.1319 13.6543 34.1477 13.6388C34.1273 13.5853 34.1102 13.5307 34.0932 13.4765C34.0577 13.3629 34.0225 13.2508 33.9585 13.1529C33.2541 11.9433 32.5392 10.7337 31.8137 9.53447C31.4247 8.8935 31.1198 8.8935 30.7308 9.55515C28.0931 14.0297 25.4553 18.5146 22.8176 22.9995L22.817 23.0005L22.8142 23.0052C21.9845 24.4098 21.1574 25.8144 20.3303 27.219L20.3292 27.2208L20.3281 27.2226C19.5001 28.6288 18.672 30.035 17.8413 31.4412C17.4734 32.0718 17.1685 32.0822 16.8215 31.5032C16.5166 30.9886 16.2108 30.4745 15.9049 29.9603L15.9034 29.9578C14.7963 28.0971 13.6889 26.2358 12.6267 24.3492C12.3218 23.8012 12.1641 23.1086 12.143 22.4779C12.0914 21.0487 12.1032 19.6125 12.1149 18.1751L12.1149 18.1745C12.1175 17.8549 12.1201 17.5354 12.122 17.2158C12.1325 16.3887 11.8382 15.7374 11.1758 15.1895C7.95869 12.5636 4.75208 9.91699 1.54548 7.2704C1.11443 6.9189 0.683375 6.5674 0.27335 6.19522C0.183024 6.1138 0.125033 5.98999 0.0685099 5.86931C0.0460848 5.82143 0.0238906 5.77405 0 5.73C0.0456702 5.71316 0.0921153 5.69327 0.138915 5.67323C0.26449 5.61946 0.392614 5.56459 0.51516 5.56459C2.90172 5.55425 5.27776 5.55425 7.66431 5.55425C8.60743 5.55425 9.55056 5.55872 10.4937 5.56319C12.7572 5.57393 15.0206 5.58466 17.2841 5.53357C18.8611 5.50256 20.291 5.76101 21.6052 6.63977C22.1111 6.97864 22.6426 7.27225 23.1747 7.5662C23.4055 7.69374 23.6365 7.82134 23.8656 7.95272C24.4438 8.29388 24.57 8.73843 24.2335 9.29669C23.8235 9.99969 23.4135 10.7027 22.9824 11.385C22.5619 12.0467 22.1834 12.1397 21.5 11.7675C20.8272 11.4057 20.1543 11.0439 19.4814 10.6717C18.777 10.2788 18.0411 10.0721 17.2316 10.0824C16.4686 10.0942 15.7092 10.0925 14.9492 10.0908C14.3791 10.0896 13.8087 10.0883 13.2364 10.0927C13.0954 10.0927 12.9544 10.1546 12.8134 10.2164C12.7547 10.2421 12.6959 10.2679 12.6372 10.2892C12.6757 10.3477 12.7096 10.4121 12.7435 10.4764C12.8112 10.6051 12.879 10.7337 12.9841 10.8164L12.9842 10.8165C13.8253 11.5195 14.6663 12.2224 15.5284 12.8944C16.3274 13.5044 16.7479 14.2487 16.7164 15.2825C16.677 16.803 16.6908 18.3294 16.7046 19.8528C16.7092 20.3595 16.7138 20.866 16.7164 21.3717C16.7164 21.6922 16.7479 22.0334 16.8426 22.3435C16.8866 22.5022 16.992 22.6408 17.0981 22.7803C17.1441 22.8407 17.1902 22.9013 17.2316 22.9638C17.289 22.9215 17.3488 22.8806 17.4088 22.8397C17.5685 22.7307 17.7296 22.6207 17.8519 22.4779C17.978 22.3384 18.0687 22.1639 18.1594 21.9895C18.1896 21.9313 18.2198 21.8732 18.2514 21.8163C20.1103 18.6458 21.9692 15.4728 23.8281 12.2997L23.8331 12.2912L23.8351 12.2877C25.6956 9.11192 27.5562 5.93613 29.4167 2.76293C29.8687 1.98756 30.3208 1.21219 30.7834 0.436824C31.1409 -0.152455 31.4668 -0.142117 31.8137 0.447163C34.358 4.78922 36.9022 9.13128 39.4465 13.463C40.4768 15.2205 41.5124 16.978 42.548 18.7356C43.5836 20.493 44.6191 22.2505 45.6494 24.008C45.7476 24.1769 45.8469 24.3457 45.9462 24.5146C46.1448 24.8523 46.3433 25.19 46.5326 25.5277C46.5865 25.6186 46.6235 25.7205 46.66 25.8214C46.6734 25.8583 46.6867 25.895 46.7008 25.9309C46.6587 26.0136 46.6167 26.055 46.5746 26.0963ZM77.5367 23.8012H65.4567V7.91136H77.5472V11.8502H69.4624V13.556C69.4624 13.872 69.6628 13.8648 69.8536 13.8578C69.8813 13.8568 69.9088 13.8558 69.9355 13.8558H75.0871H76.3277V17.009H73.2998C72.9258 17.009 72.553 17.0102 72.1805 17.0113H72.1798H72.1792H72.1785H72.1778H72.1771H72.1764C71.4299 17.0136 70.6851 17.0159 69.9355 17.009C69.578 16.9987 69.4308 17.1021 69.4413 17.4742C69.4571 18.0457 69.4552 18.6229 69.4532 19.2189V19.219V19.219V19.2191V19.2192V19.2193V19.2193V19.2194V19.2195V19.2196V19.2201V19.2206V19.2212V19.2217V19.2222V19.2228V19.2233C69.4525 19.4237 69.4519 19.6262 69.4519 19.8313H77.5262C77.5367 21.1753 77.5367 22.4676 77.5367 23.8012ZM106.798 23.8196C107.208 23.8207 107.62 23.8219 108.036 23.8219V7.89067H104.02V8.53164C104.02 9.07306 104.019 9.61333 104.018 10.1532C104.016 11.2318 104.013 12.3089 104.02 13.3906C104.02 13.6904 103.978 13.8662 103.6 13.8662C101.833 13.8558 100.057 13.8558 98.2904 13.8662C97.9645 13.8765 97.8804 13.7421 97.8804 13.4423C97.8961 12.6906 97.8941 11.9447 97.8922 11.1959C97.8915 10.9458 97.8909 10.6953 97.8909 10.4442V7.90101H93.8958V23.7909H97.9014V17.0503H104.02V17.712V23.3463L104.02 23.3821C104.019 23.6074 104.018 23.8219 104.378 23.8219C105.181 23.815 105.985 23.8173 106.798 23.8196ZM144.729 17.8671H148.703V18.477C148.703 19.6763 149.155 20.3172 150.354 20.493C151.142 20.6067 151.983 20.5033 152.782 20.3793C153.308 20.2966 153.729 19.9244 153.792 19.3248C153.855 18.6941 153.445 18.3323 152.94 18.1566C151.784 17.7637 150.606 17.4329 149.429 17.1227C148.367 16.8436 147.357 16.4818 146.485 15.8201C144.655 14.4348 144.466 11.5814 146.064 9.77225C147.116 8.58335 148.514 8.0561 150.049 7.9217C151.878 7.75629 153.666 7.9217 155.211 9.04857C156.536 10.0204 156.998 11.3643 156.777 13.0185C156.504 13.0185 156.231 13.0191 155.959 13.0197H155.958H155.958H155.957H155.957C155.142 13.0217 154.332 13.0236 153.529 13.0081C153.424 13.0081 153.277 12.8013 153.245 12.667C153.077 11.8916 152.614 11.3643 151.826 11.2713C151.174 11.1886 150.501 11.1989 149.86 11.292C149.281 11.3747 148.945 11.8296 148.924 12.3258C148.903 12.8944 149.292 13.1322 149.733 13.2666C150.732 13.5664 151.752 13.8352 152.761 14.0936L152.987 14.1516C153.994 14.4091 154.994 14.6648 155.884 15.2515C158.712 17.1124 158.039 21.1236 155.789 22.571C153.792 23.8633 151.605 24.0183 149.334 23.6255C147.536 23.3153 146.085 22.4986 145.171 20.8755C144.771 20.1828 144.571 18.9216 144.729 17.8671ZM175.595 23.7909H180C179.993 23.7683 179.987 23.7464 179.981 23.7252C179.973 23.6963 179.966 23.6686 179.959 23.6419C179.931 23.5356 179.907 23.4463 179.863 23.367C178.907 20.8445 177.945 18.322 176.983 15.7994C176.021 13.2769 175.059 10.7544 174.102 8.23186C173.997 7.95272 173.85 7.87002 173.566 7.87002C172.514 7.89069 171.463 7.89069 170.412 7.87002C170.033 7.85968 169.865 7.9734 169.728 8.3249C167.983 12.9047 166.227 17.4742 164.472 22.0437C164.338 22.4062 164.203 22.7728 164.064 23.1544L164.062 23.1594C163.983 23.3748 163.903 23.595 163.82 23.8219C164.209 23.8219 164.591 23.8202 164.968 23.8185H164.968H164.968H164.968C165.891 23.8143 166.782 23.8102 167.678 23.8323C168.036 23.8426 168.183 23.7185 168.267 23.4084C168.394 22.9547 168.53 22.5031 168.665 22.0517L168.665 22.0511L168.665 22.0504L168.666 22.0497L168.666 22.049L168.666 22.0483L168.666 22.0477C168.833 21.4924 168.999 20.9374 169.15 20.3793C169.255 19.9968 169.402 19.8107 169.854 19.821C171.2 19.852 172.556 19.852 173.902 19.821C174.344 19.8107 174.512 19.9761 174.617 20.3689C174.811 21.0925 175.022 21.8161 175.234 22.5423C175.355 22.9575 175.476 23.3735 175.595 23.7909ZM171.896 13.385C171.91 13.3865 171.924 13.3879 171.939 13.389C171.952 13.39 171.965 13.3906 171.978 13.3906C172.336 14.428 172.694 15.4576 173.065 16.5273L173.071 16.544L173.229 16.9987H170.548C170.793 16.3066 171.031 15.6366 171.266 14.9748L171.273 14.9547L171.277 14.9414C171.463 14.4184 171.647 13.9003 171.831 13.3803C171.851 13.3803 171.873 13.3826 171.896 13.385ZM145.17 23.8219C144.874 23.8219 144.583 23.8223 144.295 23.8227H144.295C143.163 23.8244 142.09 23.8259 141.017 23.8012C140.902 23.8012 140.723 23.5945 140.681 23.4601C140.355 22.4056 140.04 21.3511 139.745 20.2862C139.651 19.9554 139.503 19.8107 139.135 19.821C137.737 19.8417 136.328 19.8417 134.93 19.821C134.583 19.821 134.436 19.9451 134.352 20.2655C134.225 20.7192 134.089 21.1708 133.954 21.6222L133.953 21.6229L133.953 21.6235L133.953 21.6242L133.953 21.6249L133.953 21.6256C133.786 22.1811 133.619 22.7363 133.469 23.2946C133.364 23.6875 133.216 23.8529 132.764 23.8322C131.901 23.8035 131.043 23.8097 130.155 23.8162C129.767 23.819 129.372 23.8219 128.969 23.8219C129.132 23.4001 129.289 22.9885 129.444 22.5834L129.449 22.5684L129.45 22.5654C129.642 22.0633 129.829 21.5712 130.02 21.0823C130.563 19.6666 131.107 18.251 131.651 16.8353L131.652 16.835C132.74 14.0017 133.829 11.1685 134.909 8.33522C135.046 7.98372 135.214 7.87 135.582 7.88034C136.633 7.90101 137.685 7.90101 138.736 7.88034C139.02 7.88034 139.167 7.95271 139.272 8.23184C140.52 11.5564 141.775 14.8747 143.031 18.1965L143.056 18.2615L143.093 18.3597L144.056 20.9065C144.289 21.5315 144.531 22.1612 144.787 22.8238L144.787 22.824L144.787 22.8261L144.792 22.8368L144.792 22.8381L144.796 22.8488L144.803 22.8665C144.922 23.1767 145.045 23.4942 145.17 23.8219ZM137.085 13.3803H136.959C136.691 14.1266 136.427 14.873 136.159 15.6294L136.158 15.6329C135.996 16.0906 135.832 16.552 135.666 17.0193H138.347C138.084 16.2445 137.826 15.5043 137.571 14.7752L137.57 14.7744C137.407 14.3072 137.245 13.8445 137.085 13.3803ZM92.686 17.0814H88.6278C88.626 17.1137 88.6246 17.1455 88.6233 17.1767L88.6217 17.2138L88.6216 17.2146V17.2147V17.2148V17.2148V17.2149C88.6156 17.3588 88.61 17.4919 88.5857 17.619C88.428 18.7355 87.9865 19.7073 86.851 20.1311C85.295 20.7204 83.697 20.1208 82.9085 18.6735C82.6456 18.1979 82.4459 17.65 82.3618 17.1227C82.1199 15.572 82.1725 14.0523 83.0767 12.6876C84.128 11.1059 86.5777 10.8371 87.8813 12.2017C88.1566 12.4867 88.3371 12.8601 88.5259 13.2508L88.5259 13.2508L88.526 13.2509L88.526 13.2509L88.526 13.251C88.6111 13.4271 88.698 13.6068 88.796 13.7835H92.686C92.6002 13.5045 92.5269 13.2307 92.4552 12.9632C92.2985 12.3781 92.15 11.8235 91.8975 11.3126C91.0354 9.56547 89.5319 8.56266 87.629 8.10778C84.2857 7.3014 80.974 8.573 79.3129 11.354C78.251 13.1322 78.0197 15.0757 78.23 17.0917C78.661 21.1236 81.5102 23.7495 85.5789 23.8116C88.0916 23.8529 90.2258 23.0465 91.6031 20.8341C92.318 19.6969 92.5913 18.4357 92.686 17.0814ZM59.3178 23.8012H55.2911V11.8606H50.0449V7.91136H63.3129V11.8089H59.3178V23.8012ZM162.895 7.89067H158.921V23.7702H162.895V7.89067ZM115.029 7.91136C115.135 7.89068 115.166 7.88034 115.198 7.87C116.218 7.71493 116.88 8.02508 117.511 8.93484C119.486 11.7998 121.524 14.6205 123.561 17.4415L123.562 17.4423C124.311 18.4791 125.06 19.5159 125.806 20.555C125.89 20.6722 125.983 20.7802 126.077 20.8882C126.124 20.9422 126.17 20.9961 126.216 21.0513C126.234 21.0469 126.252 21.0406 126.27 21.0341C126.295 21.0252 126.322 21.0159 126.353 21.0099V7.91136H127.12V23.7599C126.121 23.946 126.058 23.9253 125.532 23.1396C124.092 21.0045 122.649 18.8669 121.206 16.7293C119.763 14.5921 118.32 12.4548 116.88 10.3202C116.87 10.3056 116.861 10.291 116.852 10.2767L116.851 10.2766C116.822 10.2301 116.794 10.1864 116.754 10.1548C116.647 10.074 116.527 9.99948 116.41 9.92638L116.41 9.92634C116.377 9.90591 116.344 9.8856 116.312 9.86528C116.298 9.91698 116.279 9.96867 116.261 10.0204C116.223 10.1237 116.186 10.2271 116.186 10.3305C116.175 14.5899 116.175 18.8389 116.175 23.0982V23.7909H115.008C115.029 18.4893 115.029 13.2084 115.029 7.91711V7.91136ZM112.105 7.89067H110.97V23.7702H112.105V7.89067Z"
         />
</svg>
