<svg width="24" height="24" viewBox="0 0 24 24" fill="currentColor" xmlns="http://www.w3.org/2000/svg">
<g id="global_content_paste_off">
<path id="Vector" d="M21.1899 21.19L2.80989 2.81L1.38989 4.22L2.99989 5.83V19C2.99989 20.1 3.89989 21 4.99989 21H18.1699L19.7799 22.61L21.1899 21.19ZM4.99989 19V7.83L16.1699 19H4.99989ZM16.9999 8V5H18.9999V16.17L20.9999 18.17V5C20.9999 3.9 20.0999 3 18.9999 3H14.8199C14.3999 1.84 13.2999 1 11.9999 1C10.6999 1 9.59989 1.84 9.17989 3H5.82989L10.8299 8H16.9999ZM11.9999 3C12.5499 3 12.9999 3.45 12.9999 4C12.9999 4.55 12.5499 5 11.9999 5C11.4499 5 10.9999 4.55 10.9999 4C10.9999 3.45 11.4499 3 11.9999 3Z" />
</g>
</svg>
