<svg width="24" height="24" viewBox="0 0 24 24" fill="currentColor" stroke="currentColor" xmlns="http://www.w3.org/2000/svg">
  <g id="global_filter">
    <path
      d="M3.75 4H19.8592C20.0045 4 20.1466 4.04221 20.2684 4.12149C20.3902 4.20077 20.4863 4.31371 20.5451 4.44658C20.6038 4.57946 20.6228 4.72655 20.5995 4.86998C20.5763 5.01341 20.5119 5.14699 20.4141 5.2545L14.2496 12.0355C14.1241 12.1735 14.0546 12.3534 14.0546 12.54V17.8486C14.0546 17.9721 14.0241 18.0936 13.9658 18.2025C13.9076 18.3114 13.8233 18.4042 13.7206 18.4726L10.7206 20.4727C10.6077 20.548 10.4764 20.5912 10.3408 20.5977C10.2052 20.6043 10.0704 20.5739 9.95069 20.5099C9.83101 20.4458 9.73095 20.3505 9.66119 20.234C9.59143 20.1176 9.55459 19.9844 9.55459 19.8486V12.54C9.55459 12.3534 9.48505 12.1735 9.35954 12.0355L3.19505 5.2545C3.09731 5.14699 3.0329 5.01341 3.00966 4.86998C2.98642 4.72655 3.00533 4.57946 3.06411 4.44658C3.1229 4.31371 3.21901 4.20077 3.34077 4.12149C3.46253 4.04221 3.6047 4 3.75 4V4Z"
      stroke-width="2" stroke-linecap="round" />
  </g>
</svg>

