<svg width="24" height="24" viewBox="0 0 24 24" fill="currentColor" xmlns="http://www.w3.org/2000/svg">
<g id="global_qr_code">
<g id="global_Group">
<g id="global_Group_2">
<path id="Vector" d="M3 11H11V3H3V11ZM5 5H9V9H5V5Z" />
<path id="Vector_2" d="M3 21H11V13H3V21ZM5 15H9V19H5V15Z" />
<path id="Vector_3" d="M13 3V11H21V3H13ZM19 9H15V5H19V9Z" />
<path id="Vector_4" d="M21 19H19V21H21V19Z" />
<path id="Vector_5" d="M15 13H13V15H15V13Z" />
<path id="Vector_6" d="M17 15H15V17H17V15Z" />
<path id="Vector_7" d="M15 17H13V19H15V17Z" />
<path id="Vector_8" d="M17 19H15V21H17V19Z" />
<path id="Vector_9" d="M19 17H17V19H19V17Z" />
<path id="Vector_10" d="M19 13H17V15H19V13Z" />
<path id="Vector_11" d="M21 15H19V17H21V15Z" />
</g>
</g>
</g>
</svg>
