<svg width="24" height="24" viewBox="0 0 24 24" fill="currentColor" xmlns="http://www.w3.org/2000/svg">
  <g id="global_search_page_outline">
    <g id="Vector">
      <path fill-rule="evenodd" clip-rule="evenodd" d="M3.4718 1.46875C3.77186 1.16869 4.17883 1.00012 4.60317 1.00012H16.2552C16.6794 1.0005 17.087 1.16931 17.3867 1.46946L20.5338 4.61657C20.6826 4.76522 20.801 4.94218 20.8814 5.13648C20.962 5.33096 21.0033 5.53942 21.0032 5.74991V12.0001H19.0032V5.91434L19.1201 6.03123C19.083 5.99414 19.0537 5.95013 19.0336 5.90169C19.0136 5.85331 19.0032 5.80147 19.0032 5.74912V5.91434L16.089 3.00012C15.9831 3.00003 4.99927 3.00012 4.99927 3.00012M4.99927 3.00012L5.00317 21.0001H11.0032V23.0001H4.60317C4.17883 23.0001 3.77186 22.8316 3.4718 22.5315C3.17174 22.2314 3.00317 21.8245 3.00317 21.4001V2.60012C3.00317 2.17578 3.17175 1.76881 3.4718 1.46875"/>
      <path d="M16.0025 5.39984V2.35384C16.0026 2.28392 16.0235 2.2156 16.0624 2.1575C16.1013 2.0994 16.1565 2.05412 16.2211 2.02738C16.2857 2.00064 16.3568 1.99363 16.4254 2.00724C16.494 2.02084 16.557 2.05446 16.6065 2.10384L19.8985 5.39584C19.9484 5.44515 19.9824 5.50821 19.9963 5.57696C20.0102 5.64571 20.0033 5.71704 19.9765 5.78184C19.9497 5.84665 19.9041 5.902 19.8457 5.94082C19.7873 5.97965 19.7187 6.00019 19.6485 5.99984H16.6025C16.4434 5.99984 16.2908 5.93662 16.1783 5.8241C16.0657 5.71158 16.0025 5.55897 16.0025 5.39984Z"/>
      <path fill-rule="evenodd" clip-rule="evenodd" d="M15.8387 1.1034C16.0858 1.00112 16.3577 0.974309 16.62 1.02635C16.8823 1.0784 17.1234 1.20697 17.3127 1.39584L17.3136 1.39673L20.6043 4.68742C20.794 4.87605 20.9236 5.11671 20.9765 5.37899C21.0298 5.64251 21.0033 5.9159 20.9005 6.16429C20.7976 6.41268 20.6232 6.62481 20.3993 6.77363C20.1764 6.92179 19.9146 7.0005 19.647 6.99984L19.6434 6.99982L19.6485 5.99984V6.99984H19.647H16.6025C16.1782 6.99984 15.7712 6.83127 15.4712 6.53121C15.1711 6.23115 15.0025 5.82418 15.0025 5.39984V2.35206C15.003 2.08461 15.0827 1.8233 15.2315 1.60108C15.3803 1.37886 15.5916 1.20568 15.8387 1.1034ZM17.0025 3.91405L18.0883 4.99984H17.0025V3.91405Z"/>
      <path fill-rule="evenodd" clip-rule="evenodd" d="M15.1725 15.1718C15.9226 14.4216 16.94 14.0002 18.0009 14.0002C19.0618 14.0002 20.0792 14.4216 20.8293 15.1718C21.5795 15.9219 22.0009 16.9393 22.0009 18.0002C22.0009 18.7205 21.8066 19.4209 21.447 20.0311L22.7083 21.2924C23.0989 21.6829 23.0989 22.3161 22.7083 22.7066C22.3178 23.0972 21.6846 23.0972 21.2941 22.7066L20.033 21.4455C19.4225 21.8056 18.7217 22.0002 18.0009 22.0002C16.94 22.0002 15.9226 21.5788 15.1725 20.8286C14.4223 20.0785 14.0009 19.061 14.0009 18.0002C14.0009 16.9393 14.4223 15.9219 15.1725 15.1718ZM18.0009 16.0002C17.4705 16.0002 16.9618 16.2109 16.5867 16.586C16.2116 16.961 16.0009 17.4698 16.0009 18.0002C16.0009 18.5306 16.2116 19.0393 16.5867 19.4144C16.9618 19.7895 17.4705 20.0002 18.0009 20.0002C18.5313 20.0002 19.04 19.7895 19.4151 19.4144C19.7902 19.0393 20.0009 18.5306 20.0009 18.0002C20.0009 17.4698 19.7902 16.961 19.4151 16.586C19.04 16.2109 18.5313 16.0002 18.0009 16.0002Z"/>
      <path fill-rule="evenodd" clip-rule="evenodd" d="M13.0006 7.00051H7.00057V5.00051H13.0006V7.00051ZM17.0006 11.0005H7.00057V9.00051H17.0006V11.0005ZM11.0006 15.0005H7.00057V13.0005H11.0006V15.0005Z"/>
    </g>
  </g>
</svg>
