<svg width="24" height="24" viewBox="0 0 24 24" fill="currentColor" xmlns="http://www.w3.org/2000/svg">
  <g id="global_skeleton">
    <rect width="24" height="24" rx="12" fill="#435165" />
    <path
      d="M10.0312 10.3126C10.4972 10.3126 10.875 9.93483 10.875 9.46884C10.875 9.00285 10.4972 8.62509 10.0312 8.62509C9.56526 8.62509 9.1875 9.00285 9.1875 9.46884C9.1875 9.93483 9.56526 10.3126 10.0312 10.3126Z"
    />
    <path
      d="M17.6251 5.25H6.37507C6.07681 5.25034 5.79086 5.36898 5.57995 5.57988C5.36905 5.79079 5.25041 6.07674 5.25007 6.375V15.3732L5.25 15.3753L5.25007 17.625C5.25041 17.9233 5.36905 18.2092 5.57995 18.4201C5.79086 18.631 6.07681 18.7497 6.37507 18.75H17.6251C17.9233 18.7497 18.2093 18.631 18.4202 18.4201C18.6311 18.2092 18.7497 17.9233 18.7501 17.625V6.375C18.7497 6.07674 18.6311 5.79079 18.4202 5.57988C18.2093 5.36898 17.9233 5.25034 17.6251 5.25ZM15.6081 10.875C15.3969 10.6643 15.1108 10.546 14.8125 10.546C14.5143 10.546 14.2282 10.6643 14.017 10.875L10.8751 14.017L9.42055 12.5625C9.20938 12.3519 8.92329 12.2336 8.62504 12.2336C8.32679 12.2336 8.0407 12.3519 7.82953 12.5625L6.37507 14.0169V6.375H17.6251L17.6255 12.8924L15.6081 10.875Z"
    />
  </g>
</svg>

