<svg width="150" height="100" viewBox="0 0 150 100" fill="none" xmlns="http://www.w3.org/2000/svg">
  <g clip-path="url(#clip0_16635_64772)">
    <rect width="150" height="100" fill="#15264A"/>
    <rect x="-136.425" y="6.48438" width="189.161" height="119.516" rx="2" fill="#1C3262"/>
    <path d="M-149 4.55731C-149 2.04038 -146.96 0 -144.443 0H60.3324C62.8493 0 64.8897 2.04038 64.8897 4.55731C64.8897 5.39629 64.2096 6.07641 63.3706 6.07641H-147.481C-148.32 6.07641 -149 5.39629 -149 4.55731Z" fill="#233F7B"/>
    <rect x="-126.313" y="14.5847" width="168.533" height="4.86154" rx="1" fill="#233F7B"/>
    <rect x="21.1538" y="21.0667" width="21.0667" height="9.72308" rx="1" fill="#233F7B"/>
    <rect x="14.6719" y="43.7539" width="27.5487" height="9.72308" rx="1" fill="#233F7B"/>
    <rect x="32.4976" y="55.0974" width="9.72308" height="9.72308" rx="1" fill="#233F7B"/>
    <rect x="21.1538" y="55.0974" width="9.72308" height="9.72308" rx="1" fill="#233F7B"/>
    <rect x="9.81006" y="55.0974" width="9.72308" height="9.72308" rx="1" fill="#233F7B"/>
    <rect x="-1.5332" y="55.0974" width="9.72308" height="9.72308" rx="1" fill="#233F7B"/>
    <rect x="32.4976" y="32.4102" width="9.72308" height="9.72308" rx="1" fill="#233F7B"/>
    <rect x="21.1538" y="32.4102" width="9.72308" height="9.72308" rx="1" fill="#233F7B"/>
    <rect x="9.81006" y="32.4102" width="9.72308" height="9.72308" rx="1" fill="#233F7B"/>
    <rect x="-1.5332" y="32.4102" width="9.72308" height="9.72308" rx="1" fill="#233F7B"/>
    <rect x="3.32812" y="43.7539" width="9.72308" height="9.72308" rx="1" fill="#233F7B"/>
    <rect x="-8.01514" y="43.7539" width="9.72308" height="9.72308" rx="1" fill="#233F7B"/>
    <rect x="9.81006" y="21.0667" width="9.72308" height="9.72308" rx="1" fill="#233F7B"/>
    <rect x="-1.5332" y="21.0667" width="9.72308" height="9.72308" rx="1" fill="#233F7B"/>
    <rect x="-82.5" y="73.5" width="93" height="43" rx="1.5" fill="#233F7B" stroke="#233F7B"/>
    <rect x="102.2" y="57" width="32" height="16" rx="1" transform="rotate(-180 102.2 57)" fill="#2159D1"/>
    <rect x="75" y="55.4001" width="16" height="12.8" rx="1" transform="rotate(-180 75 55.4001)" fill="#2159D1"/>
    <path fill-rule="evenodd" clip-rule="evenodd" d="M60.6001 46.2798L68.6001 46.2798V44.0398L60.6001 44.0398L60.6001 46.2798ZM60.6001 53.9605L68.6001 53.9605V51.7205L60.6001 51.7205L60.6001 53.9605ZM68.6001 48.84L62.2001 48.84L62.2001 46.6L68.6001 46.6V48.84ZM62.2001 51.4002L68.6001 51.4002V49.1602L62.2001 49.1602L62.2001 51.4002Z" fill="#D3C6A7"/>
    <circle cx="84.5999" cy="49" r="4.8" transform="rotate(-180 84.5999 49)" fill="#D3C6A7"/>
    <path d="M97.5001 48.9999C97.5001 48.1714 98.1717 47.4999 99.0001 47.4999C99.8285 47.4999 100.5 48.1714 100.5 48.9999C100.5 49.8283 99.8285 50.4999 99.0001 50.4999C98.1717 50.4999 97.5001 49.8283 97.5001 48.9999Z" stroke="#D3C6A7" stroke-width="0.2"/>
    <mask id="path-24-outside-1_16635_64772" maskUnits="userSpaceOnUse" x="56" y="37" width="50" height="24" fill="black">
      <rect fill="white" x="56" y="37" width="50" height="24"/>
      <path fill-rule="evenodd" clip-rule="evenodd" d="M105 59C105 59.5523 104.552 60 104 60L70.4444 60C69.8921 60 69.4444 59.5523 69.4444 59V57.7998L58 57.7998C57.4477 57.7998 57 57.3521 57 56.7998L57 41.1998C57 40.6475 57.4477 40.1998 58 40.1998L69.4444 40.1998V39C69.4444 38.4477 69.8921 38 70.4444 38L104 38C104.552 38 105 38.4477 105 39V59Z"/>
    </mask>
    <path d="M104 60V60.2V60ZM70.4444 60V59.8V60ZM69.4444 57.7998H69.6444V57.5998H69.4444V57.7998ZM58 57.7998V57.5998V57.7998ZM57 56.7998H57.2H57ZM57 41.1998H56.8H57ZM58 40.1998L58 39.9998H58V40.1998ZM69.4444 40.1998V40.3998H69.6444V40.1998H69.4444ZM70.4444 38V37.8V38ZM104 38V38.2V38ZM104 59.8H103.803V60.2H104V59.8ZM103.21 59.8H102.816V60.2H103.21V59.8ZM102.223 59.8H101.829V60.2H102.223V59.8ZM101.237 59.8H100.842V60.2H101.237V59.8ZM100.25 59.8H99.8549V60.2H100.25V59.8ZM99.2627 59.8H98.8679V60.2H99.2627V59.8ZM98.2758 59.8H97.881V60.2H98.2758V59.8ZM97.2888 59.8H96.8941V60.2H97.2888V59.8ZM96.3019 59.8H95.9071V60.2H96.3019V59.8ZM95.315 59.8H94.9202V60.2H95.315V59.8ZM94.3281 59.8H93.9333V60.2H94.3281V59.8ZM93.3411 59.8H92.9464V60.2H93.3411V59.8ZM92.3542 59.8H91.9594V60.2H92.3542V59.8ZM91.3673 59.8H90.9725V60.2H91.3673V59.8ZM90.3803 59.8H89.9856V60.2H90.3803V59.8ZM89.3934 59.8H88.9986V60.2H89.3934V59.8ZM88.4065 59.8H88.0117V60.2H88.4065V59.8ZM87.4195 59.8H87.0248V60.2H87.4195V59.8ZM86.4326 59.8H86.0378V60.2H86.4326V59.8ZM85.4457 59.8H85.0509V60.2H85.4457V59.8ZM84.4588 59.8H84.064V60.2H84.4588V59.8ZM83.4718 59.8H83.0771V60.2H83.4718V59.8ZM82.4849 59.8H82.0901V60.2H82.4849V59.8ZM81.498 59.8H81.1032V60.2H81.498V59.8ZM80.511 59.8H80.1163V60.2H80.511V59.8ZM79.5241 59.8H79.1293V60.2H79.5241V59.8ZM78.5372 59.8H78.1424V60.2H78.5372V59.8ZM77.5503 59.8H77.1555L77.1555 60.2H77.5503V59.8ZM76.5633 59.8H76.1686V60.2H76.5633V59.8ZM75.5764 59.8H75.1816V60.2H75.5764V59.8ZM74.5895 59.8H74.1947V60.2H74.5895V59.8ZM73.6025 59.8H73.2078V60.2H73.6025V59.8ZM72.6156 59.8H72.2208V60.2H72.6156L72.6156 59.8ZM71.6287 59.8H71.2339V60.2H71.6287V59.8ZM70.6418 59.8H70.4444V60.2H70.6418V59.8ZM70.4444 59.8C70.4016 59.8 70.3597 59.7967 70.3189 59.7902L70.2568 60.1854C70.318 60.195 70.3807 60.2 70.4444 60.2V59.8ZM69.9742 59.6474C69.9063 59.5979 69.8464 59.5381 69.797 59.4701L69.4736 59.7055C69.5476 59.8072 69.6372 59.8968 69.7388 59.9708L69.9742 59.6474ZM69.6541 59.1254C69.6477 59.0847 69.6444 59.0428 69.6444 59H69.2444C69.2444 59.0637 69.2493 59.1263 69.259 59.1875L69.6541 59.1254ZM69.6444 59V58.76H69.2444V59H69.6444ZM69.6444 58.0398V57.7998H69.2444V58.0398H69.6444ZM69.4444 57.5998H69.2363V57.9998H69.4444V57.5998ZM68.612 57.5998H68.1959V57.9998L68.612 57.9998V57.5998ZM67.5716 57.5998H67.1555V57.9998H67.5716L67.5716 57.5998ZM66.5312 57.5998H66.1151V57.9998H66.5312V57.5998ZM65.4908 57.5998H65.0747L65.0747 57.9998H65.4908V57.5998ZM64.4505 57.5998H64.0343V57.9998H64.4505V57.5998ZM63.4101 57.5998H62.9939V57.9998H63.4101V57.5998ZM62.3697 57.5998H61.9535V57.9998H62.3697V57.5998ZM61.3293 57.5998H60.9131V57.9998H61.3293V57.5998ZM60.2889 57.5998H59.8727V57.9998H60.2889L60.2889 57.5998ZM59.2485 57.5998L58.8323 57.5998L58.8323 57.9998H59.2485L59.2485 57.5998ZM58.2081 57.5998H58L58 57.9998H58.2081V57.5998ZM58 57.5998C57.9572 57.5998 57.9153 57.5965 57.8746 57.5901L57.8125 57.9852C57.8737 57.9948 57.9363 57.9998 58 57.9998V57.5998ZM57.5299 57.4472C57.4619 57.3977 57.4021 57.3379 57.3526 57.2699L57.0292 57.5053C57.1032 57.607 57.1928 57.6966 57.2945 57.7706L57.5299 57.4472ZM57.2097 56.9252C57.2033 56.8845 57.2 56.8426 57.2 56.7998H56.8C56.8 56.8635 56.805 56.9261 56.8146 56.9873L57.2097 56.9252ZM57.2 56.7998L57.2 56.6048H56.8L56.8 56.7998H57.2ZM57.2 56.0198L57.2 55.6298H56.8L56.8 56.0198H57.2ZM57.2 55.0448L57.2 54.6548H56.8L56.8 55.0448H57.2ZM57.2 54.0698L57.2 53.6798H56.8L56.8 54.0698H57.2ZM57.2 53.0948L57.2 52.7048H56.8L56.8 53.0948H57.2ZM57.2 52.1198L57.2 51.7298H56.8L56.8 52.1198H57.2ZM57.2 51.1448L57.2 50.7548H56.8L56.8 51.1448H57.2ZM57.2 50.1698L57.2 49.7798H56.8L56.8 50.1698H57.2ZM57.2 49.1948L57.2 48.8048H56.8L56.8 49.1948H57.2ZM57.2 48.2198L57.2 47.8298H56.8L56.8 48.2198H57.2ZM57.2 47.2448L57.2 46.8548H56.8L56.8 47.2448H57.2ZM57.2 46.2698L57.2 45.8798H56.8L56.8 46.2698H57.2ZM57.2 45.2948L57.2 44.9048H56.8L56.8 45.2948H57.2ZM57.2 44.3198L57.2 43.9298H56.8L56.8 44.3198H57.2ZM57.2 43.3448L57.2 42.9548H56.8L56.8 43.3448H57.2ZM57.2 42.3698L57.2 41.9798H56.8L56.8 42.3698H57.2ZM57.2 41.3948L57.2 41.1998H56.8L56.8 41.3948H57.2ZM57.2 41.1998C57.2 41.157 57.2033 41.1151 57.2097 41.0744L56.8146 41.0123C56.805 41.0735 56.8 41.1361 56.8 41.1998H57.2ZM57.3526 40.7297C57.4021 40.6617 57.4619 40.6019 57.5299 40.5524L57.2945 40.229C57.1928 40.303 57.1032 40.3926 57.0292 40.4943L57.3526 40.7297ZM57.8746 40.4096C57.9153 40.4031 57.9572 40.3998 58 40.3998V39.9998C57.9363 39.9998 57.8737 40.0048 57.8125 40.0144L57.8746 40.4096ZM58 40.3998H58.2081V39.9998L58 39.9998L58 40.3998ZM58.8323 40.3998H59.2485V39.9998L58.8323 39.9998V40.3998ZM59.8727 40.3998H60.2889V39.9998L59.8727 39.9998V40.3998ZM60.9131 40.3998L61.3293 40.3998V39.9998L60.9131 39.9998V40.3998ZM61.9535 40.3998H62.3697V39.9998H61.9535V40.3998ZM62.9939 40.3998L63.4101 40.3998V39.9998H62.9939V40.3998ZM64.0343 40.3998H64.4505V39.9998H64.0343L64.0343 40.3998ZM65.0747 40.3998H65.4909V39.9998H65.0747V40.3998ZM66.1151 40.3998H66.5312V39.9998H66.1151V40.3998ZM67.1555 40.3998H67.5716V39.9998H67.1555V40.3998ZM68.1959 40.3998H68.612V39.9998L68.1959 39.9998V40.3998ZM69.2363 40.3998H69.4444V39.9998H69.2363V40.3998ZM69.6444 40.1998V39.9598H69.2444V40.1998H69.6444ZM69.6444 39.24V39H69.2444V39.24H69.6444ZM69.6444 39C69.6444 38.9572 69.6477 38.9153 69.6541 38.8746L69.259 38.8125C69.2493 38.8737 69.2444 38.9363 69.2444 39H69.6444ZM69.797 38.5299C69.8464 38.4619 69.9063 38.4021 69.9742 38.3526L69.7388 38.0292C69.6372 38.1032 69.5476 38.1928 69.4736 38.2945L69.797 38.5299ZM70.3189 38.2097C70.3597 38.2033 70.4016 38.2 70.4444 38.2V37.8C70.3807 37.8 70.318 37.805 70.2568 37.8146L70.3189 38.2097ZM70.4444 38.2L70.6417 38.2V37.8L70.4444 37.8V38.2ZM71.2339 38.2L71.6287 38.2V37.8L71.2339 37.8V38.2ZM72.2208 38.2L72.6156 38.2V37.8L72.2208 37.8V38.2ZM73.2078 38.2L73.6025 38.2V37.8L73.2078 37.8V38.2ZM74.1947 38.2L74.5895 38.2V37.8L74.1947 37.8V38.2ZM75.1816 38.2L75.5764 38.2V37.8L75.1816 37.8V38.2ZM76.1685 38.2L76.5633 38.2V37.8L76.1685 37.8V38.2ZM77.1555 38.2L77.5502 38.2V37.8L77.1555 37.8V38.2ZM78.1424 38.2L78.5372 38.2V37.8L78.1424 37.8V38.2ZM79.1293 38.2L79.5241 38.2V37.8L79.1293 37.8V38.2ZM80.1163 38.2L80.511 38.2V37.8L80.1163 37.8L80.1163 38.2ZM81.1032 38.2L81.498 38.2V37.8L81.1032 37.8V38.2ZM82.0901 38.2L82.4849 38.2L82.4849 37.8L82.0901 37.8V38.2ZM83.0771 38.2L83.4718 38.2V37.8L83.0771 37.8V38.2ZM84.064 38.2L84.4588 38.2V37.8L84.064 37.8V38.2ZM85.0509 38.2L85.4457 38.2V37.8L85.0509 37.8V38.2ZM86.0378 38.2L86.4326 38.2V37.8L86.0378 37.8L86.0378 38.2ZM87.0248 38.2L87.4195 38.2V37.8L87.0248 37.8V38.2ZM88.0117 38.2L88.4065 38.2V37.8L88.0117 37.8V38.2ZM88.9986 38.2L89.3934 38.2V37.8L88.9986 37.8V38.2ZM89.9856 38.2L90.3803 38.2V37.8L89.9856 37.8V38.2ZM90.9725 38.2L91.3673 38.2V37.8L90.9725 37.8V38.2ZM91.9594 38.2L92.3542 38.2V37.8L91.9594 37.8V38.2ZM92.9464 38.2L93.3411 38.2V37.8L92.9464 37.8V38.2ZM93.9333 38.2L94.328 38.2V37.8L93.9333 37.8V38.2ZM94.9202 38.2L95.315 38.2V37.8L94.9202 37.8L94.9202 38.2ZM95.9071 38.2L96.3019 38.2V37.8L95.9071 37.8V38.2ZM96.8941 38.2L97.2888 38.2V37.8L96.8941 37.8V38.2ZM97.881 38.2L98.2758 38.2V37.8L97.881 37.8V38.2ZM98.8679 38.2L99.2627 38.2V37.8L98.8679 37.8V38.2ZM99.8549 38.2L100.25 38.2V37.8L99.8549 37.8V38.2ZM100.842 38.2L101.237 38.2V37.8L100.842 37.8V38.2ZM101.829 38.2L102.223 38.2V37.8L101.829 37.8V38.2ZM102.816 38.2L103.21 38.2V37.8L102.816 37.8V38.2ZM103.803 38.2L104 38.2V37.8L103.803 37.8V38.2ZM104 38.2C104.043 38.2 104.085 38.2033 104.125 38.2098L104.188 37.8146C104.126 37.805 104.064 37.8 104 37.8V38.2ZM104.47 38.3526C104.538 38.4021 104.598 38.4619 104.647 38.5299L104.971 38.2945C104.897 38.1928 104.807 38.1032 104.705 38.0292L104.47 38.3526ZM104.79 38.8746C104.797 38.9153 104.8 38.9572 104.8 39H105.2C105.2 38.9363 105.195 38.8737 105.185 38.8125L104.79 38.8746ZM104.8 39V39.2H105.2V39H104.8ZM104.8 39.8V40.2H105.2V39.8H104.8ZM104.8 40.8V41.2H105.2V40.8H104.8ZM104.8 41.8V42.2H105.2V41.8H104.8ZM104.8 42.8V43.2H105.2V42.8H104.8ZM104.8 43.8V44.2H105.2V43.8H104.8ZM104.8 44.8V45.2H105.2V44.8H104.8ZM104.8 45.8V46.2H105.2V45.8H104.8ZM104.8 46.8V47.2H105.2V46.8H104.8ZM104.8 47.8V48.2H105.2V47.8H104.8ZM104.8 48.8V49.2H105.2V48.8H104.8ZM104.8 49.8V50.2H105.2V49.8H104.8ZM104.8 50.8V51.2H105.2V50.8H104.8ZM104.8 51.8V52.2H105.2V51.8H104.8ZM104.8 52.8V53.2H105.2V52.8H104.8ZM104.8 53.8V54.2H105.2V53.8H104.8ZM104.8 54.8V55.2H105.2V54.8H104.8ZM104.8 55.8V56.2H105.2V55.8H104.8ZM104.8 56.8V57.2H105.2V56.8H104.8ZM104.8 57.8V58.2H105.2V57.8H104.8ZM104.8 58.8V59H105.2V58.8H104.8ZM104.8 59C104.8 59.0428 104.797 59.0847 104.79 59.1254L105.185 59.1875C105.195 59.1263 105.2 59.0637 105.2 59H104.8ZM104.647 59.4701C104.598 59.5381 104.538 59.5979 104.47 59.6474L104.705 59.9708C104.807 59.8968 104.897 59.8072 104.971 59.7055L104.647 59.4701ZM104.125 59.7903C104.085 59.7967 104.043 59.8 104 59.8V60.2C104.064 60.2 104.126 60.195 104.188 60.1854L104.125 59.7903ZM104 60V60.4V60ZM70.4444 60V59.6V60ZM69.4444 57.7998H69.8444V57.3998H69.4444V57.7998ZM58 57.7998L58 57.3998H58V57.7998ZM57 56.7998H57.4H57ZM57 41.1998H56.6H57ZM58 40.1998L58 39.7998H58V40.1998ZM69.4444 40.1998V40.5998H69.8444V40.1998H69.4444ZM70.4444 38V37.6V38ZM104 38V38.4V38ZM104 59.6H103.803V60.4H104V59.6ZM103.21 59.6H102.816V60.4H103.21V59.6ZM102.223 59.6H101.829V60.4H102.223V59.6ZM101.237 59.6H100.842V60.4H101.237V59.6ZM100.25 59.6H99.8549V60.4H100.25V59.6ZM99.2627 59.6L98.8679 59.6V60.4H99.2627V59.6ZM98.2758 59.6H97.881V60.4H98.2758V59.6ZM97.2888 59.6H96.8941V60.4H97.2888V59.6ZM96.3019 59.6H95.9071V60.4H96.3019V59.6ZM95.315 59.6H94.9202V60.4H95.315V59.6ZM94.3281 59.6H93.9333V60.4H94.3281V59.6ZM93.3411 59.6H92.9464V60.4H93.3411V59.6ZM92.3542 59.6H91.9594V60.4L92.3542 60.4V59.6ZM91.3673 59.6H90.9725V60.4H91.3673V59.6ZM90.3803 59.6H89.9856V60.4H90.3803V59.6ZM89.3934 59.6H88.9986L88.9986 60.4H89.3934V59.6ZM88.4065 59.6H88.0117V60.4H88.4065V59.6ZM87.4195 59.6H87.0248V60.4H87.4195V59.6ZM86.4326 59.6H86.0378V60.4H86.4326V59.6ZM85.4457 59.6H85.0509L85.0509 60.4H85.4457V59.6ZM84.4588 59.6H84.064V60.4H84.4588V59.6ZM83.4718 59.6H83.0771V60.4H83.4718V59.6ZM82.4849 59.6L82.0901 59.6V60.4H82.4849V59.6ZM81.498 59.6H81.1032V60.4H81.498V59.6ZM80.511 59.6H80.1163V60.4H80.511V59.6ZM79.5241 59.6H79.1293V60.4H79.5241V59.6ZM78.5372 59.6H78.1424V60.4H78.5372L78.5372 59.6ZM77.5503 59.6H77.1555L77.1555 60.4H77.5503V59.6ZM76.5633 59.6H76.1686V60.4H76.5633V59.6ZM75.5764 59.6H75.1816V60.4L75.5764 60.4V59.6ZM74.5895 59.6H74.1947V60.4H74.5895V59.6ZM73.6025 59.6H73.2078V60.4H73.6025V59.6ZM72.6156 59.6H72.2208V60.4H72.6156L72.6156 59.6ZM71.6287 59.6H71.2339V60.4H71.6287V59.6ZM70.6418 59.6H70.4444V60.4H70.6418V59.6ZM70.4444 59.6C70.412 59.6 70.3805 59.5975 70.35 59.5927L70.2258 60.383C70.2972 60.3942 70.3702 60.4 70.4444 60.4V59.6ZM70.0919 59.4857C70.0409 59.4485 69.9958 59.4035 69.9587 59.3524L69.3119 59.8232C69.3981 59.9418 69.5026 60.0462 69.6212 60.1325L70.0919 59.4857ZM69.8517 59.0944C69.8469 59.0639 69.8444 59.0324 69.8444 59H69.0444C69.0444 59.0741 69.0501 59.1471 69.0614 59.2186L69.8517 59.0944ZM69.8444 59V58.76H69.0444V59H69.8444ZM69.8444 58.0398V57.7998H69.0444V58.0398H69.8444ZM69.4444 57.3998H69.2363V58.1998H69.4444V57.3998ZM68.612 57.3998H68.1959V58.1998H68.612V57.3998ZM67.5716 57.3998H67.1555V58.1998H67.5716L67.5716 57.3998ZM66.5312 57.3998H66.1151V58.1998H66.5312V57.3998ZM65.4908 57.3998H65.0747L65.0747 58.1998H65.4908V57.3998ZM64.4505 57.3998H64.0343V58.1998H64.4505V57.3998ZM63.4101 57.3998H62.9939V58.1998H63.4101V57.3998ZM62.3697 57.3998H61.9535V58.1998H62.3697V57.3998ZM61.3293 57.3998H60.9131V58.1998H61.3293V57.3998ZM60.2889 57.3998H59.8727V58.1998H60.2889L60.2889 57.3998ZM59.2485 57.3998H58.8323L58.8323 58.1998H59.2485L59.2485 57.3998ZM58.2081 57.3998H58L58 58.1998H58.2081L58.2081 57.3998ZM58 57.3998C57.9676 57.3998 57.9361 57.3973 57.9056 57.3925L57.7814 58.1828C57.8529 58.194 57.9259 58.1998 58 58.1998V57.3998ZM57.6476 57.2855C57.5965 57.2483 57.5515 57.2033 57.5143 57.1522L56.8675 57.623C56.9538 57.7416 57.0582 57.846 57.1768 57.9323L57.6476 57.2855ZM57.4073 56.8942C57.4025 56.8637 57.4 56.8322 57.4 56.7998H56.6C56.6 56.8739 56.6058 56.9469 56.617 57.0184L57.4073 56.8942ZM57.4 56.7998V56.6048H56.6V56.7998H57.4ZM57.4 56.0198L57.4 55.6298H56.6L56.6 56.0198H57.4ZM57.4 55.0448L57.4 54.6548H56.6L56.6 55.0448H57.4ZM57.4 54.0698L57.4 53.6798H56.6L56.6 54.0698H57.4ZM57.4 53.0948L57.4 52.7048H56.6L56.6 53.0948H57.4ZM57.4 52.1198L57.4 51.7298H56.6L56.6 52.1198H57.4ZM57.4 51.1448L57.4 50.7548H56.6L56.6 51.1448H57.4ZM57.4 50.1698L57.4 49.7798H56.6L56.6 50.1698H57.4ZM57.4 49.1948L57.4 48.8048H56.6L56.6 49.1948H57.4ZM57.4 48.2198L57.4 47.8298H56.6L56.6 48.2198H57.4ZM57.4 47.2448L57.4 46.8548H56.6L56.6 47.2448H57.4ZM57.4 46.2698L57.4 45.8798H56.6L56.6 46.2698H57.4ZM57.4 45.2948L57.4 44.9048L56.6 44.9048L56.6 45.2948H57.4ZM57.4 44.3198L57.4 43.9298H56.6L56.6 44.3198H57.4ZM57.4 43.3448L57.4 42.9548H56.6L56.6 43.3448H57.4ZM57.4 42.3698L57.4 41.9798H56.6L56.6 42.3698H57.4ZM57.4 41.3948V41.1998H56.6V41.3948H57.4ZM57.4 41.1998C57.4 41.1674 57.4025 41.1359 57.4073 41.1054L56.617 40.9812C56.6058 41.0527 56.6 41.1257 56.6 41.1998H57.4ZM57.5143 40.8474C57.5515 40.7963 57.5965 40.7513 57.6476 40.7141L57.1768 40.0673C57.0582 40.1536 56.9538 40.258 56.8675 40.3766L57.5143 40.8474ZM57.9056 40.6071C57.9361 40.6023 57.9676 40.5998 58 40.5998V39.7998C57.9259 39.7998 57.8529 39.8056 57.7814 39.8168L57.9056 40.6071ZM58 40.5998H58.2081V39.7998H58L58 40.5998ZM58.8323 40.5998H59.2485V39.7998H58.8323L58.8323 40.5998ZM59.8727 40.5998H60.2889V39.7998H59.8727V40.5998ZM60.9131 40.5998H61.3293V39.7998H60.9131V40.5998ZM61.9535 40.5998H62.3697V39.7998H61.9535V40.5998ZM62.9939 40.5998H63.4101L63.4101 39.7998H62.9939V40.5998ZM64.0343 40.5998H64.4505V39.7998L64.0343 39.7998L64.0343 40.5998ZM65.0747 40.5998L65.4909 40.5998V39.7998L65.0747 39.7998V40.5998ZM66.1151 40.5998H66.5312V39.7998L66.1151 39.7998V40.5998ZM67.1555 40.5998L67.5716 40.5998V39.7998L67.1555 39.7998V40.5998ZM68.1959 40.5998H68.612V39.7998L68.1959 39.7998V40.5998ZM69.2363 40.5998H69.4444V39.7998H69.2363V40.5998ZM69.8444 40.1998V39.9598H69.0444V40.1998H69.8444ZM69.8444 39.24V39H69.0444V39.24H69.8444ZM69.8444 39C69.8444 38.9676 69.8469 38.9361 69.8517 38.9056L69.0614 38.7814C69.0501 38.8529 69.0444 38.9259 69.0444 39H69.8444ZM69.9587 38.6476C69.9958 38.5965 70.0409 38.5515 70.0919 38.5143L69.6212 37.8675C69.5026 37.9538 69.3982 38.0582 69.3119 38.1768L69.9587 38.6476ZM70.35 38.4073C70.3805 38.4025 70.412 38.4 70.4444 38.4V37.6C70.3702 37.6 70.2972 37.6058 70.2258 37.617L70.35 38.4073ZM70.4444 38.4L70.6417 38.4V37.6L70.4444 37.6V38.4ZM71.2339 38.4L71.6287 38.4V37.6L71.2339 37.6V38.4ZM72.2208 38.4L72.6156 38.4V37.6L72.2208 37.6L72.2208 38.4ZM73.2078 38.4L73.6025 38.4V37.6L73.2078 37.6V38.4ZM74.1947 38.4L74.5895 38.4V37.6L74.1947 37.6V38.4ZM75.1816 38.4L75.5764 38.4V37.6L75.1816 37.6V38.4ZM76.1685 38.4L76.5633 38.4V37.6L76.1685 37.6V38.4ZM77.1555 38.4L77.5502 38.4V37.6L77.1555 37.6V38.4ZM78.1424 38.4L78.5372 38.4V37.6L78.1424 37.6V38.4ZM79.1293 38.4L79.5241 38.4V37.6L79.1293 37.6V38.4ZM80.1163 38.4L80.511 38.4V37.6L80.1163 37.6L80.1163 38.4ZM81.1032 38.4L81.498 38.4V37.6L81.1032 37.6V38.4ZM82.0901 38.4L82.4849 38.4L82.4849 37.6L82.0901 37.6V38.4ZM83.0771 38.4L83.4718 38.4V37.6L83.0771 37.6V38.4ZM84.064 38.4L84.4588 38.4V37.6L84.064 37.6V38.4ZM85.0509 38.4L85.4457 38.4V37.6L85.0509 37.6V38.4ZM86.0378 38.4L86.4326 38.4V37.6L86.0378 37.6L86.0378 38.4ZM87.0248 38.4L87.4195 38.4V37.6L87.0248 37.6V38.4ZM88.0117 38.4L88.4065 38.4V37.6L88.0117 37.6V38.4ZM88.9986 38.4L89.3934 38.4V37.6L88.9986 37.6V38.4ZM89.9856 38.4L90.3803 38.4V37.6L89.9856 37.6V38.4ZM90.9725 38.4L91.3673 38.4V37.6L90.9725 37.6V38.4ZM91.9594 38.4L92.3542 38.4V37.6L91.9594 37.6V38.4ZM92.9464 38.4L93.3411 38.4V37.6L92.9464 37.6V38.4ZM93.9333 38.4L94.328 38.4V37.6L93.9333 37.6V38.4ZM94.9202 38.4L95.315 38.4V37.6L94.9202 37.6L94.9202 38.4ZM95.9071 38.4L96.3019 38.4V37.6L95.9071 37.6V38.4ZM96.8941 38.4L97.2888 38.4V37.6L96.8941 37.6V38.4ZM97.881 38.4L98.2758 38.4V37.6L97.881 37.6V38.4ZM98.8679 38.4L99.2627 38.4V37.6L98.8679 37.6V38.4ZM99.8549 38.4L100.25 38.4V37.6L99.8549 37.6V38.4ZM100.842 38.4L101.237 38.4V37.6L100.842 37.6V38.4ZM101.829 38.4L102.223 38.4V37.6L101.829 37.6V38.4ZM102.816 38.4L103.21 38.4V37.6L102.816 37.6V38.4ZM103.803 38.4H104V37.6H103.803V38.4ZM104 38.4C104.032 38.4 104.064 38.4025 104.094 38.4073L104.219 37.617C104.147 37.6058 104.074 37.6 104 37.6V38.4ZM104.352 38.5143C104.403 38.5515 104.448 38.5965 104.486 38.6476L105.132 38.1768C105.046 38.0582 104.942 37.9538 104.823 37.8675L104.352 38.5143ZM104.593 38.9056C104.597 38.9361 104.6 38.9676 104.6 39H105.4C105.4 38.9259 105.394 38.8529 105.383 38.7814L104.593 38.9056ZM104.6 39V39.2H105.4V39H104.6ZM104.6 39.8V40.2H105.4V39.8H104.6ZM104.6 40.8V41.2H105.4V40.8H104.6ZM104.6 41.8V42.2H105.4V41.8H104.6ZM104.6 42.8V43.2H105.4V42.8H104.6ZM104.6 43.8V44.2H105.4V43.8H104.6ZM104.6 44.8V45.2H105.4V44.8H104.6ZM104.6 45.8V46.2H105.4V45.8H104.6ZM104.6 46.8V47.2H105.4V46.8H104.6ZM104.6 47.8V48.2H105.4V47.8H104.6ZM104.6 48.8V49.2H105.4V48.8H104.6ZM104.6 49.8V50.2H105.4V49.8H104.6ZM104.6 50.8V51.2H105.4V50.8H104.6ZM104.6 51.8V52.2H105.4V51.8H104.6ZM104.6 52.8V53.2H105.4V52.8H104.6ZM104.6 53.8V54.2H105.4V53.8H104.6ZM104.6 54.8V55.2H105.4V54.8H104.6ZM104.6 55.8V56.2H105.4V55.8H104.6ZM104.6 56.8V57.2H105.4V56.8H104.6ZM104.6 57.8V58.2H105.4V57.8H104.6ZM104.6 58.8V59H105.4V58.8H104.6ZM104.6 59C104.6 59.0324 104.597 59.0639 104.593 59.0944L105.383 59.2186C105.394 59.1471 105.4 59.0741 105.4 59H104.6ZM104.486 59.3524C104.448 59.4035 104.403 59.4485 104.352 59.4857L104.823 60.1325C104.942 60.0462 105.046 59.9418 105.132 59.8232L104.486 59.3524ZM104.094 59.5927C104.064 59.5975 104.032 59.6 104 59.6V60.4C104.074 60.4 104.147 60.3942 104.219 60.383L104.094 59.5927Z" fill="#598EFF" mask="url(#path-24-outside-1_16635_64772)"/>
  </g>
  <defs>
    <clipPath id="clip0_16635_64772">
      <rect width="150" height="100" fill="white"/>
    </clipPath>
  </defs>
</svg>
