<svg width="127" height="28" viewBox="0 0 127 28" fill="currentColor" xmlns="http://www.w3.org/2000/svg">
  <path fill-rule="evenodd" clip-rule="evenodd"
        d="M39.7522 0C43.7985 0.143598 47.2441 1.57958 49.8837 4.65895C52.0491 7.17989 53.0923 10.1954 53.1713 13.5461C53.2819 17.7902 52.0017 21.4918 48.9037 24.4595C46.8016 26.4858 44.2726 27.5548 41.396 27.8899C37.9819 28.2888 34.805 27.6186 31.9757 25.6402C28.862 23.4703 27.0918 20.4228 26.4911 16.6733C25.8589 12.7642 26.4595 9.09453 28.7039 5.77582C30.6164 2.98364 33.2244 1.19665 36.5278 0.478659C37.2338 0.329743 37.9538 0.237557 38.6739 0.145371C39.0339 0.0992777 39.3939 0.0531845 39.7522 0ZM46.3748 14.1524C46.3906 11.2325 46.2325 8.32867 45.3474 5.52054C44.6046 3.17511 43.514 1.06901 40.7637 0.654168C38.8196 0.351017 37.0178 0.717989 35.7217 2.36139C34.4572 3.94096 33.9198 5.8556 33.6037 7.8181C33.1296 10.7698 32.9873 13.7535 33.2086 16.7531C33.4299 19.5453 33.7618 22.3055 35.1053 24.8584C36.7017 27.9058 40.5425 28.0335 42.5498 26.8049C44.2094 25.7838 44.9365 24.1085 45.4423 22.3374C46.2009 19.6569 46.359 16.9126 46.3748 14.1524ZM52.9324 0.590314C53.0296 0.583773 53.1268 0.571869 53.2229 0.560099C53.3612 0.543158 53.4973 0.526493 53.6278 0.526493C55.1052 0.526493 56.5811 0.516139 58.0565 0.50579C61.4268 0.482147 64.7941 0.458526 68.1691 0.558403C72.0732 0.67009 75.5662 2.04225 78.1742 5.13758C79.7389 6.9884 80.6083 9.19023 80.9244 11.5995C81.2563 14.1842 81.1298 16.7371 80.2131 19.1942C78.7748 23.1033 75.993 25.6082 72.0731 26.6932C70.3819 27.1719 68.5643 27.3155 66.794 27.3474C63.7128 27.4157 60.6316 27.4027 57.5446 27.3897C56.3086 27.3845 55.0716 27.3793 53.8333 27.3793C53.6542 27.3793 53.4808 27.3623 53.3063 27.3451L53.3062 27.3451L53.3062 27.3451L53.3061 27.3451C53.188 27.3335 53.0694 27.3219 52.9482 27.3155V27.0761L52.9483 27.0761C53.2644 27.0442 53.5804 27.0123 53.8965 26.9964C54.1745 26.9763 54.4837 26.9893 54.7913 27.0023C55.4629 27.0305 56.1269 27.0585 56.4412 26.7411C56.7847 26.3824 56.7377 25.6115 56.6925 24.8717V24.8716L56.6925 24.8715C56.6774 24.6241 56.6625 24.3802 56.6625 24.1563C56.6731 19.4761 56.6696 14.7959 56.666 10.1156C56.6643 7.77552 56.6625 5.43541 56.6625 3.0953V3.09525C56.6625 2.00956 56.6625 1.47112 56.3933 1.20408C56.1284 0.941331 55.6029 0.941331 54.5604 0.941331C54.1455 0.941331 53.7306 0.914406 53.3157 0.887481C53.1774 0.878507 53.0391 0.869532 52.9008 0.861554C52.9324 0.781787 52.9324 0.686069 52.9324 0.590348V0.590314ZM62.8742 13.8651C62.8663 15.8913 62.8663 17.9175 62.8663 19.9457V19.9487C62.8663 21.9761 62.8663 24.0056 62.8584 26.039C62.8584 26.6294 62.9848 26.9006 63.6487 26.8687C64.2809 26.8462 64.9131 26.8519 65.5454 26.8577C66.2566 26.8641 66.9679 26.8706 67.6791 26.8368C69.0701 26.7889 70.3345 26.4379 71.3619 25.353C72.9899 23.6298 73.5115 21.4758 73.875 19.2421C74.3492 16.2106 74.2859 13.1631 74.0963 10.1316C73.954 8.10527 73.7011 6.0949 72.8002 4.22813C72.089 2.76024 71.03 1.77101 69.4178 1.34021C68.1915 1.015 66.9583 1.02088 65.7228 1.02677C65.0793 1.02984 64.4351 1.03291 63.7909 0.989197C63.0322 0.941331 62.8742 1.22853 62.89 1.93056C62.8742 5.90247 62.8742 9.89034 62.8742 13.8623V13.8651ZM24.9729 10.3033L24.973 10.3036L24.9731 10.3039C25.0208 10.4267 25.0687 10.5498 25.1154 10.6741L25.3999 10.5784V0.558424H0.0158058C0.0158058 3.92499 0.0158058 7.25965 0 10.5784C0.0395144 10.5943 0.0750774 10.6063 0.11064 10.6182C0.146203 10.6302 0.181766 10.6422 0.221281 10.6581C0.254584 10.5853 0.293734 10.5125 0.333257 10.4389L0.333261 10.4389C0.406282 10.3031 0.48057 10.1649 0.52159 10.0199C1.0906 8.05742 1.75444 6.14278 2.81343 4.3877C4.33078 1.94654 6.43295 0.749888 9.56249 1.08495V2.02631V25.4806C9.56249 25.6668 9.56489 25.8302 9.56699 25.9737L9.567 25.9738C9.5746 26.4923 9.57839 26.75 9.45139 26.8772C9.3258 27.003 9.07231 27.001 8.56814 26.9971C8.41733 26.9959 8.24409 26.9945 8.04514 26.9964H5.73749C5.7533 27.0921 5.7533 27.1878 5.7533 27.2836H19.5833C19.3621 27.0761 19.125 27.0123 18.8879 27.0123C18.7636 27.0097 18.6392 27.0065 18.515 27.0034C17.8968 26.9879 17.2805 26.9725 16.6751 27.0123C15.9322 27.0761 15.6951 26.8049 15.6951 26.0231C15.7188 20.6381 15.7159 15.2531 15.7129 9.8681C15.7119 8.07321 15.7109 6.27832 15.7109 4.48343C15.7109 4.20991 15.7084 3.93639 15.7058 3.66287C15.6993 2.97907 15.6929 2.29527 15.7267 1.61147C15.7425 1.40406 15.9796 1.02113 16.1219 1.02113C18.3979 0.957307 20.4052 1.5317 21.8752 3.44634C23.2187 5.18546 23.9774 7.19583 24.6096 9.28598C24.7136 9.63588 24.8429 9.96873 24.9729 10.3032L24.9729 10.3033L24.9729 10.3033ZM99.577 0.622284H113.059V0.957345H110.767C109.708 0.957345 109.471 1.2605 109.961 2.1859C110.9 3.95975 111.854 5.7282 112.809 7.49753L112.811 7.50035C113.496 8.76978 114.181 10.0397 114.861 11.3123C115.239 12.0125 115.634 12.7285 116.106 13.587L116.108 13.5901L116.11 13.5939L116.315 13.236C116.634 12.6787 116.907 12.2029 117.169 11.7272L117.17 11.7245C118.703 8.93321 120.236 6.14192 121.752 3.33469C122.48 1.97849 122.163 0.877569 120.33 0.973301C120.093 0.989256 119.856 0.989256 119.619 0.957345C119.429 0.94139 119.239 0.861614 119.05 0.638239H126.795C126.81 0.702061 126.826 0.765882 126.842 0.813748C126.768 0.829703 126.694 0.854522 126.621 0.879342C126.473 0.92898 126.326 0.978619 126.178 0.957345C124.25 0.733971 123.143 1.85084 122.306 3.3666C120.667 6.33635 119.051 9.32916 117.438 12.3156L117.437 12.3183L117.436 12.3201C117.152 12.846 116.868 13.3717 116.584 13.8971C116.521 14.0247 116.458 14.1843 116.458 14.3279V26.9805H120.172C119.745 27.4591 107.29 27.5229 106.358 27.1081C106.435 27.1008 106.507 27.0938 106.575 27.0873L106.689 27.0762C107.002 27.0457 107.221 27.0245 107.448 27.0124C107.899 26.9805 108.353 26.9525 108.808 26.9246C109.262 26.8967 109.716 26.8688 110.167 26.8369C110.181 26.5693 110.197 26.3032 110.213 26.0376L110.213 26.0366V26.0364C110.253 25.3836 110.293 24.7341 110.293 24.0766C110.299 23.2881 110.289 22.4996 110.279 21.7118C110.261 20.2359 110.242 18.7623 110.325 17.2956C110.42 15.5884 109.93 14.1683 109.092 12.7324C107.164 9.38207 105.299 5.99987 103.434 2.61767L103.434 2.6167C102.817 1.51578 101.979 0.845658 100.652 0.94139C100.387 0.964598 100.123 0.920292 99.8586 0.875987C99.7595 0.859372 99.6603 0.842757 99.5612 0.829703C99.5612 0.799571 99.5647 0.769438 99.5684 0.737627C99.5726 0.702061 99.577 0.664395 99.577 0.622284ZM91.9576 27.3155H104.555C104.555 27.2038 104.571 27.1081 104.602 27.0283C104.46 27.0283 104.318 27.0301 104.175 27.0318C103.891 27.0354 103.606 27.0389 103.322 27.0283C102.389 26.9804 101.662 26.6613 101.346 25.6561C101.18 25.1235 100.975 24.6072 100.771 24.0914C100.626 23.7265 100.481 23.3618 100.35 22.9916C98.3452 17.4767 96.3557 11.9617 94.3661 6.44683L94.3601 6.42998C94.1799 5.92657 93.9997 5.42204 93.8192 4.91668C93.3189 3.51602 92.8164 2.10902 92.3053 0.702019C92.2217 0.702019 92.144 0.705988 92.0708 0.709727C91.9364 0.716589 91.8172 0.722675 91.7047 0.702019C90.8986 0.574376 90.4086 0.813706 90.2822 1.7072C90.2367 2.07403 90.0853 2.42439 89.9332 2.77603C89.8736 2.91382 89.814 3.0518 89.7606 3.19105L89.7531 3.21127C87.7483 8.66125 85.7434 14.1112 83.7386 19.5452C83.0431 21.428 82.3319 23.3107 81.6048 25.1775C81.2097 26.1667 80.609 26.9166 79.4078 26.9006C79.1368 26.9006 78.8659 26.982 78.5949 27.0634C78.4865 27.096 78.3782 27.1286 78.2698 27.1559C78.2777 27.1799 78.2816 27.2078 78.2856 27.2357C78.2895 27.2636 78.2935 27.2915 78.3014 27.3155H85.2559C85.2559 27.2836 85.2599 27.2477 85.2638 27.2118C85.2678 27.1759 85.2717 27.14 85.2717 27.1081C85.1283 27.0861 84.9837 27.0618 84.8385 27.0373C84.4558 26.9729 84.0693 26.9078 83.6912 26.8847C82.4899 26.789 82.0316 26.2784 82.3793 25.1296C82.817 23.6962 83.3125 22.2846 83.8071 20.8752C84.0448 20.1981 84.2822 19.5215 84.5131 18.8432C85.1443 18.8432 85.7716 18.8422 86.3959 18.8412C88.257 18.8382 90.0915 18.8353 91.926 18.8592C92.1314 18.8592 92.4318 19.0985 92.5108 19.3059C93.2379 21.3003 93.9491 23.3267 94.613 25.353C95.0555 26.6932 94.7868 27.0123 93.3643 27.0123H91.9576V27.3155ZM87.943 9.5666C88.1363 9.03607 88.3311 8.50145 88.5277 7.96169C89.7606 11.5197 90.9302 14.8544 92.1473 18.2688H84.7818C85.8276 15.3724 86.862 12.5333 87.943 9.5666Z"
         />
</svg>
