<svg width="180" height="13" viewBox="0 0 180 13" fill="currentColor" xmlns="http://www.w3.org/2000/svg">
  <path
    d="M153.781 0.196821L150.954 8.00406L148.41 0.196821H143.463V0.524856C144.17 0.590463 144.594 0.918498 144.594 2.09942V9.90666C144.594 11.1532 144.099 12.2029 142.898 12.3341V12.6622H147.067V12.3341C145.866 12.2029 145.371 11.35 145.371 10.0379V1.44335H145.442L149.47 12.7278H149.965L154.064 1.18093C154.064 2.42746 154.064 4.59249 154.064 5.5766V10.5627C154.064 12.0061 153.216 12.2685 152.65 12.3341V12.6622H158.516V12.3341C158.021 12.2685 157.244 11.9405 157.244 10.5627V2.16503C157.244 0.787284 158.092 0.524856 158.516 0.524856V0.196821H153.781ZM140.919 2.16503C140.919 0.721677 141.767 0.524856 142.403 0.524856V0.196821H136.325V0.524856C136.89 0.590463 137.739 0.787284 137.739 2.16503V10.5627C137.739 12.0061 136.89 12.2685 136.325 12.3341V12.6622H142.12V12.3341C141.696 12.2685 140.848 11.9405 140.848 10.5627V2.16503H140.919ZM164.028 12.2685V6.49509H165.088C166.714 6.49509 167.279 7.01995 167.703 8.00406H168.057V4.46128H167.703C167.279 5.51099 166.643 6.03585 165.088 6.03585H164.028V0.65607H165.3C166.784 0.65607 168.693 0.918498 169.399 3.01792H169.753V0.196821H159.647V0.524856C160.071 0.590463 160.777 0.721677 160.777 2.09942V10.6283C160.777 12.0061 160.071 12.2685 159.647 12.3341V12.6622H169.894V9.77544H169.541C168.763 11.4812 168.057 12.2029 165.654 12.2029L164.028 12.2685ZM124.028 0.196821V3.01792H124.382C125.23 1.18093 126.572 0.65607 127.703 0.65607H128.198V10.6283C128.198 12.0717 127.279 12.3341 126.714 12.3997V12.7278H132.862V12.3997C132.226 12.3341 131.449 12.0717 131.449 10.6283V0.65607H131.943C133.216 0.65607 134.417 1.18093 135.265 3.01792H135.618V0.196821H124.028ZM174.841 12.3997C172.933 12.3997 172.085 11.022 171.519 9.77544H171.166V12.4653C172.014 12.6622 173.286 12.859 174.77 12.859C177.456 12.859 180 11.7437 180 9.05377C180 7.28238 179.011 6.03585 176.466 5.11735C174.7 4.52688 173.71 3.87081 173.71 2.49307C173.71 1.18093 174.841 0.459249 176.042 0.459249C177.739 0.459249 178.587 1.64018 179.152 3.01792H179.505V0.328035C178.728 0.196821 177.597 0 176.325 0C173.074 0 171.237 1.44335 171.237 3.60839C171.237 5.77342 172.862 6.62631 174.558 7.34799C176.396 8.06966 177.385 8.72573 177.385 10.2347C177.314 11.678 176.254 12.3997 174.841 12.3997ZM24.6643 2.16503C24.6643 0.721677 25.5124 0.524856 26.0777 0.524856V0.196821H20.1413V0.524856C20.7067 0.590463 21.5548 0.787284 21.5548 2.16503V5.90463H17.0318V2.16503C17.0318 0.721677 17.8799 0.524856 18.4452 0.524856V0.196821H12.5088V0.524856C13.0742 0.590463 13.9223 0.787284 13.9223 2.16503V10.5627C13.9223 12.0061 13.0742 12.2685 12.5088 12.3341V12.6622H18.4452V12.3341C17.8799 12.2685 17.0318 12.0061 17.0318 10.5627V6.49509H21.5548V10.5627C21.5548 12.0061 20.7067 12.2685 20.1413 12.3341V12.6622H26.0777V12.3341C25.5124 12.2685 24.6643 12.0061 24.6643 10.5627V2.16503ZM31.4488 12.2685V6.49509H32.5795C34.2049 6.49509 34.7703 7.01995 35.1943 8.00406H35.5477V4.46128H35.1943C34.7703 5.51099 34.1343 6.03585 32.5795 6.03585H31.4488V0.65607H32.7208C34.2049 0.65607 36.0424 0.918498 36.8198 3.01792H37.1731V0.196821H27.1378V0.524856C27.5618 0.590463 28.2686 0.721677 28.2686 2.09942V10.6283C28.2686 12.0061 27.4912 12.2685 27.0671 12.3341V12.6622H37.4558V9.77544H37.1025C36.1837 11.8749 35.1237 12.2029 33.2155 12.2029L31.4488 12.2685ZM0 0.196821V3.01792H0.353357C1.20141 1.18093 2.40283 0.65607 3.67491 0.65607H4.16961V10.6283C4.16961 12.0717 3.18021 12.3341 2.68551 12.3997V12.7278H8.76325V12.3997C8.19788 12.3341 7.34982 12.0717 7.34982 10.6283V0.65607H7.77385C9.04594 0.65607 10.2473 1.18093 11.0954 3.01792H11.4488V0.196821H0ZM47.0671 12.3997C45.159 12.3997 44.311 11.022 43.7456 9.77544H43.3922V12.4653C44.2403 12.6622 45.5124 12.859 46.9258 12.859C49.6113 12.859 52.1555 11.7437 52.1555 9.05377C52.1555 7.28238 51.1661 6.03585 48.6219 5.11735C46.8551 4.52688 45.8657 3.87081 45.8657 2.49307C45.8657 1.18093 46.9965 0.459249 48.1979 0.459249C49.894 0.459249 50.7421 1.64018 51.3074 3.01792H51.6608V0.262428C50.8834 0.131214 49.7527 0 48.4099 0C45.159 0 43.3216 1.44335 43.3216 3.60839C43.3216 5.77342 44.947 6.62631 46.6431 7.34799C48.4806 8.06966 49.47 8.72573 49.47 10.2347C49.5406 11.678 48.4806 12.3997 47.0671 12.3997ZM114.417 12.3997C112.509 12.3997 111.661 11.022 111.166 9.77544H110.813V12.4653C111.661 12.6622 112.933 12.859 114.417 12.859C117.102 12.859 119.647 11.7437 119.647 9.05377C119.647 7.28238 118.657 6.03585 116.113 5.11735C114.346 4.52688 113.357 3.87081 113.357 2.49307C113.357 1.18093 114.488 0.459249 115.689 0.459249C117.385 0.459249 118.304 1.64018 118.799 3.01792H119.152V0.328035C118.304 0.196821 117.244 0 115.901 0C112.65 0 110.813 1.44335 110.813 3.60839C110.813 5.77342 112.438 6.62631 114.205 7.34799C116.042 8.06966 117.032 8.72573 117.032 10.2347C116.961 11.678 115.901 12.3997 114.417 12.3997ZM52.7208 0.196821V3.01792H53.0742C53.9223 1.18093 55.1237 0.65607 56.3958 0.65607H56.8905V10.6283C56.8905 12.0717 55.9717 12.3341 55.4064 12.3997V12.7278H61.4841V12.3997C60.9187 12.3341 60.0707 12.0717 60.0707 10.6283V0.65607H60.5654C61.8375 0.65607 63.0389 1.18093 63.8869 3.01792H64.2403V0.196821H52.7208ZM98.5159 0.196821V3.01792H98.8693C99.7173 1.18093 100.989 0.65607 102.12 0.65607H102.615V10.6283C102.615 12.0717 101.696 12.3341 101.131 12.3997V12.7278H107.208V12.3997C106.643 12.3341 105.795 12.0717 105.795 10.6283V0.65607H106.29C107.562 0.65607 108.763 1.18093 109.611 3.01792H109.965V0.196821H98.5159ZM96.3251 2.23064C96.3251 0.787284 97.1731 0.590463 97.7385 0.524856V0.196821H91.8021V0.524856C92.3675 0.590463 93.2155 0.787284 93.2155 2.23064V10.5627C93.2155 12.0061 92.3675 12.2685 91.8021 12.3341V12.6622H97.7385V12.3341C97.1731 12.2685 96.3251 12.0061 96.3251 10.5627V2.23064ZM89.894 10.9564L86.4311 0.196821H82.1201V0.524856C82.6855 0.590463 82.9682 0.984105 82.9682 1.24653C82.9682 1.44335 82.8975 1.64018 82.8269 1.96821L80 9.3162C79.0813 11.678 78.4452 12.2685 77.8092 12.3997V12.7278H81.5548V12.3997C80.8481 12.3341 80.3534 11.7437 80.3534 11.022C80.3534 10.4971 80.4947 9.97227 80.7774 9.25059L81.0601 8.4633H85.7951C86.0777 9.57862 86.5724 10.7596 86.5724 11.4812C86.5724 11.9405 86.2898 12.3341 85.583 12.3997V12.7278H91.3781V12.3997C90.6714 12.3341 90.2474 11.9405 89.894 10.9564ZM81.1307 7.93845L83.4629 1.64018H83.5336L85.4417 7.93845H81.1307ZM77.3852 12.6622V12.3341C76.8905 12.2685 76.7491 12.0061 76.1837 10.1691C75.4064 7.80724 74.5583 6.36388 72.1555 6.23267L72.2262 6.10145C74.417 6.03585 76.1131 5.05174 76.1131 3.08353C76.1131 0.65607 73.3569 0.196821 70.3887 0.196821H65.0177V0.524856C65.5124 0.590463 66.4311 0.787284 66.4311 2.16503V10.5627C66.4311 12.0061 65.583 12.2685 65.0177 12.3341V12.6622H70.7421V12.3341C70.1767 12.2685 69.6113 11.9405 69.6113 10.4315V6.5607H69.894C71.3781 6.5607 72.2968 8.13527 73.0035 10.6283C73.4276 12.0717 73.4982 12.3997 73.4982 12.5309V12.6622H77.3852ZM70.106 6.16706C69.9647 6.16706 69.8233 6.16706 69.6113 6.16706V0.65607C69.894 0.590463 70.1767 0.590463 70.318 0.590463C72.0848 0.590463 73.0742 1.24653 73.0742 3.08353C73.0742 5.18295 71.9435 6.16706 70.106 6.16706Z"
     />
</svg>
