<svg width="83" height="42" viewBox="0 0 83 42" fill="currentColor" xmlns="http://www.w3.org/2000/svg">
  <path fill-rule="evenodd" clip-rule="evenodd"
        d="M0 0.0347323V42H82.9074V41.4443C82.9074 27.8032 82.9074 14.1534 82.9166 0.512301C82.9166 0.121563 82.8243 0 82.3903 0C55.0869 0.00868307 27.7928 0.00868307 0.498608 0.00868307C0.391631 0.00868307 0.28848 0.0158776 0.181768 0.0233205L0.181768 0.0233206L0.181768 0.0233206L0.181768 0.0233206C0.122688 0.0274413 0.0625164 0.0316381 0 0.0347323ZM79.5556 39.4124H3.16708V3.1259H79.5556V39.4124ZM14.5247 24.1563H32.7331C32.7403 24.0415 32.7475 23.9635 32.7547 23.8855L32.7608 23.8177C32.7608 23.2098 32.7614 22.6019 32.762 21.994C32.7637 20.1706 32.7655 18.3473 32.7516 16.5239C32.7424 15.8727 32.6777 15.2214 32.5669 14.5789C32.2161 12.5123 31.1173 11.3922 29.0121 10.9928C28.4303 10.8799 27.8302 10.8104 27.23 10.8017C26.8181 10.798 26.4062 10.7939 25.9944 10.7899C23.5256 10.7654 21.0577 10.741 18.5967 10.7931C17.3132 10.8191 16.0206 10.9928 14.7648 11.2446C13.1397 11.5745 11.7455 12.3213 10.859 13.7193C10.2773 14.631 10.0742 15.6295 10.0742 16.6715L10.0741 16.6789V16.679V16.6791C10.0557 19.4464 10.0373 22.2051 10.0834 24.9638C10.1019 25.9363 10.2312 26.9262 10.4528 27.8813C11.0068 30.2431 12.5303 31.7366 15.1249 32.136C15.9929 32.275 16.87 32.3705 17.738 32.3792C20.0895 32.4023 22.4369 32.4023 24.7857 32.4023C25.96 32.4023 27.1346 32.4023 28.3103 32.4052H28.8643V28.2373H28.3288C27.3042 28.2373 26.2786 28.2383 25.2527 28.2393C23.1998 28.2412 21.1455 28.2431 19.0953 28.2373C18.3474 28.2287 17.5902 28.2113 16.8423 28.1418C15.9098 28.0637 15.0695 27.7945 14.7463 26.8481C14.4796 26.0643 14.4988 25.2592 14.5186 24.4266C14.5208 24.3368 14.5229 24.2467 14.5247 24.1563ZM28.5842 19.1937V19.1939V19.1941C28.5811 19.6129 28.5781 20.0337 28.5781 20.4573H14.4139C14.4407 20.0542 14.4613 19.654 14.4817 19.2563C14.5318 18.2834 14.581 17.3254 14.7186 16.3763C14.8571 15.4211 15.6604 14.8741 16.7592 14.796C17.738 14.7352 18.726 14.7091 19.7047 14.7004C21.8192 14.6831 23.9244 14.6918 26.0296 14.7004C26.4267 14.7091 26.8237 14.7352 27.2208 14.796C28.0979 14.9262 28.5319 15.2909 28.5596 16.0984C28.5991 17.126 28.5917 18.1536 28.5842 19.1937ZM36.8235 29.0275H53.693V32.3705H33.2317C33.2258 32.3456 33.2181 32.3208 33.2102 32.2957C33.1935 32.2418 33.1763 32.1866 33.1763 32.1273C33.1824 31.3472 33.1865 30.567 33.1906 29.7871L33.1906 29.7852V29.7849C33.1988 28.2221 33.207 26.6605 33.2317 25.1027C33.2409 24.5904 33.3425 24.0695 33.4625 23.5572C33.8965 21.7424 35.2261 20.8307 37.0728 20.5355C38.0977 20.3705 39.1503 20.3357 40.1937 20.3184C42.0266 20.2998 43.8596 20.3033 45.6959 20.3069C46.4312 20.3083 47.167 20.3097 47.9036 20.3097H48.273C49.4549 20.2576 49.9165 19.8408 49.9535 18.7294C49.9812 17.9045 49.9627 17.0796 49.9258 16.2547C49.8796 15.178 49.4364 14.7699 48.2914 14.7699C46.6722 14.7641 45.0488 14.766 43.4268 14.768H43.4258C42.6156 14.7689 41.8058 14.7699 40.997 14.7699H40.4245V10.8104L40.472 10.8079C40.6192 10.8001 40.7536 10.7931 40.8954 10.7931C41.4767 10.7931 42.0574 10.7925 42.6378 10.792L42.64 10.792C44.3822 10.7903 46.1219 10.7887 47.8667 10.8017C48.4207 10.8017 48.9747 10.8452 49.5195 10.932C51.6432 11.2793 52.9728 12.4776 53.416 14.4399C53.9239 16.6368 53.8592 18.8683 53.453 21.0738C53.1759 22.5933 52.1326 23.4964 50.5536 23.809C49.7134 23.9739 48.8455 24.0608 47.996 24.0695C46.1571 24.0916 44.3182 24.0891 42.4769 24.0865H42.4763C41.424 24.0851 40.3708 24.0837 39.3165 24.0868C38.9656 24.0868 38.6055 24.1129 38.2639 24.165C37.3775 24.2865 36.8974 24.6599 36.8419 25.5022C36.7905 26.3001 36.8017 27.1022 36.8133 27.929C36.8184 28.2899 36.8235 28.6555 36.8235 29.0275ZM67.8566 14.7438C63.3414 20.6136 58.8262 26.4833 54.3018 32.3618C54.3134 32.3654 54.3242 32.369 54.3344 32.3725C54.3735 32.3856 54.4057 32.3965 54.4496 32.3965C54.8189 32.3965 55.1883 32.397 55.5576 32.3976C56.6656 32.3992 57.7736 32.4008 58.8816 32.3878C59.0386 32.3878 59.251 32.2576 59.3525 32.1273C63.6461 26.5354 67.9397 20.9348 72.2148 15.3343C72.4825 14.9696 72.7226 14.5702 72.8796 14.1534C73.5259 12.4168 72.658 10.7323 70.3681 10.767C66.6481 10.8228 62.9328 10.8122 59.2189 10.8015C57.7336 10.7973 56.2486 10.793 54.7635 10.793H54.2003V14.6309H67.7642C67.7781 14.6483 67.7943 14.6679 67.8104 14.6874C67.8266 14.7069 67.8427 14.7265 67.8566 14.7438Z"
  />
</svg>
