<svg width="180" height="35" viewBox="0 0 180 35" fill="currentColor" xmlns="http://www.w3.org/2000/svg">
  <path fill-rule="evenodd" clip-rule="evenodd"
        d="M55.9646 13.3137C56.708 13.6258 57.2389 14.0418 57.8761 14.6659L60.3186 12.5856C59.469 11.7535 58.5133 11.0254 57.3451 10.6094C56.2832 10.1933 55.1151 9.98529 53.8407 9.98529C52.5664 9.98529 51.292 10.1933 50.2301 10.6094C49.1682 11.0254 48.2124 11.6495 47.469 12.3776C46.7257 13.2097 46.0885 14.1458 45.6637 15.186C45.239 16.2261 45.0266 17.4743 45.0266 18.7224C45.0266 19.9706 45.239 21.2187 45.6637 22.2589C46.0885 23.299 46.7257 24.2351 47.469 24.9632C48.2124 25.6913 49.1682 26.3154 50.2301 26.7314C51.292 27.1475 52.5664 27.3555 53.8407 27.3555C55.1151 27.3555 56.2832 27.1475 57.3451 26.7314C58.4071 26.3154 59.3628 25.6913 60.2124 24.7552L57.9823 22.4669C57.4513 23.091 56.8142 23.507 56.177 23.8191C55.5398 24.1311 54.7965 24.3391 53.8407 24.3391C52.9912 24.3391 52.2478 24.2351 51.6106 23.9231C50.9735 23.611 50.3363 23.195 49.9115 22.6749C49.4867 22.1549 49.062 21.6348 48.8496 20.9067C48.531 20.1786 48.4248 19.4505 48.4248 18.7224C48.4248 17.9943 48.531 17.2662 48.7434 16.5381C48.9558 15.81 49.2743 15.186 49.6991 14.6659C50.1239 14.0418 50.6549 13.6258 51.292 13.3137C51.9292 13.0017 52.7788 12.7936 53.6283 12.7936C54.5841 12.7936 55.3274 13.0017 55.9646 13.3137ZM65.5221 20.8027C65.2036 20.1786 65.0974 19.3465 65.0974 18.5144C65.0974 17.6823 65.3097 16.9542 65.5221 16.2262L65.5221 16.2261C65.7345 15.498 66.1593 14.8739 66.5841 14.3539C67.0089 13.9378 67.646 13.5217 68.2832 13.2097C69.0266 12.8977 69.7699 12.7936 70.6195 12.7936C71.469 12.7936 72.3186 12.8977 72.9558 13.2097C73.5929 13.4177 74.2301 13.8338 74.6549 14.3539C75.0797 14.8739 75.5044 15.498 75.7168 16.2261C76.0354 16.8502 76.1416 17.6823 76.1416 18.5144C76.1416 19.3465 75.9292 20.0746 75.7168 20.8027C75.5044 21.5308 75.0797 22.1549 74.6549 22.6749C74.2301 23.091 73.5929 23.507 72.9558 23.8191C72.2124 24.1311 71.469 24.2351 70.6195 24.2351C69.7699 24.2351 68.9204 24.1311 68.2832 23.8191C67.646 23.611 67.0089 23.195 66.5841 22.6749C66.1593 22.1549 65.7345 21.5308 65.5221 20.8027ZM62.3363 15.0819C61.9115 16.1221 61.6991 17.2662 61.6991 18.5144C61.6991 19.7625 62.0177 20.9067 62.3363 21.9468C62.8673 23.091 63.3982 23.9231 64.2478 24.7552C65.0974 25.5873 66.0531 26.2114 67.1151 26.6274C68.177 27.1475 69.3451 27.3555 70.6195 27.3555C71.8938 27.3555 73.062 27.0435 74.1239 26.6274C75.292 26.1074 76.1416 25.5873 76.9912 24.7552C77.8407 23.9231 78.4779 22.987 78.9027 21.9468C79.3274 20.9067 79.5398 19.7625 79.5398 18.5144C79.5398 17.2662 79.3274 16.1221 78.9027 15.0819C78.3717 14.0418 77.8407 13.1057 76.9912 12.2736C76.1416 11.4415 75.1859 10.8174 74.1239 10.4013C73.062 9.88127 71.8938 9.67325 70.6195 9.67325C69.3451 9.67325 68.177 9.98529 67.1151 10.4013C65.9469 10.8174 65.0974 11.4415 64.2478 12.2736C63.3982 13.1057 62.7611 14.0418 62.3363 15.0819ZM86.0177 26.9395H82.8319V10.2973H86.0177V26.9395ZM82.7257 2.60034C82.3009 3.1204 82.0885 3.64047 82.0885 4.26455C82.0885 4.88863 82.3009 5.51271 82.7257 5.92876C83.1505 6.44883 83.6814 6.65686 84.3186 6.65686C84.9558 6.65686 85.4867 6.34482 85.9115 5.92876C86.3363 5.4087 86.5487 4.88863 86.5487 4.26455C86.5487 3.64047 86.3363 3.01639 85.9115 2.60034C85.4867 2.08027 84.9558 1.87224 84.3186 1.87224C83.6814 1.87224 83.1505 2.18428 82.7257 2.60034ZM93.6637 10.2973H90.6903V27.1475H93.8761V18.5144C93.8761 17.5783 93.9823 16.7462 94.1947 16.0181C94.4071 15.29 94.7257 14.6659 95.1504 14.2498C95.5752 13.7298 96.1062 13.4177 96.6372 13.2097C97.1681 13.0017 97.8053 12.8977 98.4425 12.8977C98.9734 12.8977 99.5044 13.0017 99.9292 13.1057C100.46 13.2097 100.885 13.5217 101.204 13.8338C101.522 14.1458 101.841 14.6659 102.053 15.186C102.265 15.706 102.372 16.4341 102.372 17.1622V27.0435H105.558V16.3301C105.558 15.186 105.345 14.2498 105.027 13.4177C104.602 12.5856 104.177 11.9615 103.646 11.4415C103.115 10.9214 102.478 10.5054 101.735 10.2973C100.991 9.98529 100.248 9.88127 99.3982 9.88127C98.0177 9.88127 96.8496 10.1933 95.8938 10.7134C94.8319 11.2334 94.1947 11.9615 93.7699 12.8977H93.6637V10.2973ZM119.681 23.9231C118.938 24.2351 118.195 24.3391 117.345 24.3391C116.496 24.3391 115.646 24.1311 115.009 23.9231C114.265 23.611 113.628 23.195 113.204 22.6749C112.779 22.1549 112.354 21.5308 112.142 20.8027C111.823 20.0746 111.717 19.2425 111.717 18.4104C111.717 17.4743 111.929 16.7462 112.142 16.0181C112.354 15.29 112.779 14.6659 113.204 14.1458C113.735 13.6258 114.265 13.2097 115.009 12.8977C115.752 12.5856 116.496 12.4816 117.345 12.4816C118.195 12.4816 118.938 12.5856 119.681 12.8977C120.425 13.2097 120.956 13.6258 121.487 14.1458C121.911 14.6659 122.336 15.29 122.549 16.0181C122.867 16.7462 122.973 17.5783 122.973 18.4104C122.973 19.3465 122.761 20.0746 122.549 20.8027C122.336 21.5308 121.911 22.1549 121.487 22.6749C120.956 23.195 120.425 23.611 119.681 23.9231ZM122.973 26.8355H126.053V0H122.867V12.4816H122.761C122.23 11.6495 121.381 10.9214 120.319 10.4013C119.257 9.88127 118.088 9.67325 116.92 9.67325C115.54 9.67325 114.372 9.88127 113.31 10.2973C112.248 10.7134 111.292 11.3375 110.549 12.1696C109.805 13.0017 109.274 13.9378 108.85 14.9779C108.425 16.1221 108.212 17.2662 108.212 18.5144C108.212 19.7625 108.425 20.9067 108.85 21.9468C109.168 22.987 109.805 23.9231 110.549 24.7552C111.292 25.5873 112.248 26.2114 113.31 26.6274C114.372 27.0435 115.646 27.2515 116.92 27.2515C118.088 27.2515 119.257 27.0435 120.319 26.5234C121.381 26.0034 122.23 25.3793 122.867 24.4432H122.973V26.8355ZM142.404 16.9542C142.386 16.3136 142.28 15.7498 142.088 15.186C141.876 14.5619 141.558 14.0418 141.133 13.6258C140.708 13.2097 140.177 12.8977 139.646 12.5856C139.009 12.3776 138.372 12.1696 137.522 12.1696C136.779 12.1696 136.035 12.2736 135.398 12.5856C134.761 12.8977 134.23 13.2097 133.699 13.7298C133.274 14.1458 132.85 14.6659 132.637 15.29C132.606 15.381 132.575 15.4699 132.545 15.5568C132.367 16.0658 132.212 16.51 132.212 16.9542H142.404ZM132.743 21.7388C132.425 21.1147 132.212 20.4906 132.212 19.7625H145.805V18.6184C145.805 17.4743 145.699 16.4341 145.381 15.394C145.062 14.3539 144.531 13.4177 143.894 12.5856C143.257 11.7535 142.407 11.1294 141.345 10.6094C140.283 10.0893 139.009 9.88127 137.522 9.88127C136.248 9.88127 135.08 10.0893 134.018 10.5054C132.956 11.0254 132 11.5455 131.257 12.3776C130.513 13.2097 129.876 14.1458 129.451 15.186C129.027 16.2261 128.814 17.3702 128.814 18.6184C128.814 19.8666 129.027 21.0107 129.451 22.0508C129.77 23.195 130.407 24.0271 131.15 24.8592C131.894 25.6913 132.85 26.3154 133.911 26.7314C134.973 27.1475 136.142 27.3555 137.522 27.3555C140.708 27.3555 143.257 26.2114 145.062 23.9231L142.619 22.0508C141.982 22.7789 141.345 23.403 140.602 23.8191C139.858 24.3391 138.903 24.5472 137.947 24.5472C137.204 24.5472 136.566 24.4431 135.823 24.2351C135.186 24.0271 134.549 23.7151 134.018 23.299C133.487 22.8829 133.062 22.3629 132.743 21.7388ZM156.956 13.3137C157.487 13.6258 157.911 14.0418 158.336 14.4579L160.885 12.6896C160.248 11.7535 159.398 11.0254 158.336 10.6094C157.274 10.1933 156.212 9.98529 155.044 9.98529C154.301 9.98529 153.451 10.0893 152.708 10.2973C151.965 10.5054 151.327 10.8174 150.69 11.2334C150.053 11.6495 149.522 12.1696 149.204 12.7936C148.885 13.4177 148.673 14.2498 148.673 15.0819C148.673 15.81 148.779 16.5381 149.097 17.0582C149.416 17.5783 149.841 18.0983 150.265 18.4104C150.69 18.7224 151.221 19.0345 151.858 19.2425C152.147 19.3556 152.499 19.438 152.862 19.5231C153.167 19.5945 153.479 19.6677 153.77 19.7625L155.044 20.0746C155.469 20.1786 155.894 20.2826 156.319 20.4906C156.743 20.6987 157.062 20.9067 157.381 21.2187C157.699 21.5308 157.805 21.9468 157.805 22.3629C157.805 22.6749 157.699 22.987 157.487 23.299C157.274 23.507 157.062 23.7151 156.743 23.9231C156.425 24.1311 156.106 24.2351 155.681 24.3391C155.257 24.4431 154.832 24.4432 154.407 24.4432C153.451 24.4432 152.708 24.2351 152.071 23.8191C151.434 23.403 150.903 22.987 150.372 22.4669L147.929 24.4432C148.779 25.5873 149.734 26.3154 150.796 26.7314C151.858 27.1475 153.133 27.3555 154.513 27.3555C155.257 27.3555 156.106 27.2515 156.956 27.0435C157.805 26.8355 158.549 26.5234 159.186 26.1074C159.823 25.6913 160.354 25.0672 160.779 24.4432C161.204 23.8191 161.416 22.987 161.416 22.0508C161.416 21.2187 161.204 20.5947 160.991 20.0746C160.673 19.5545 160.354 19.1385 159.929 18.7224C159.504 18.3064 158.973 17.9943 158.336 17.7863C157.982 17.5783 157.534 17.4627 157.086 17.3471C156.861 17.2893 156.637 17.2316 156.425 17.1622C156.173 17.1622 155.854 17.0971 155.469 17.0184C155.367 16.9976 155.261 16.9759 155.15 16.9542C155.081 16.9373 155.01 16.9204 154.936 16.9031C154.556 16.8137 154.126 16.7124 153.77 16.5381C153.345 16.3301 152.92 16.1221 152.602 15.81C152.283 15.602 152.071 15.186 152.071 14.6659C152.071 14.0418 152.389 13.6258 152.92 13.3137C153.558 13.0017 154.195 12.7936 154.938 12.7936C155.681 12.7936 156.425 13.0017 156.956 13.3137ZM167.681 0.416054H164.496V26.6274H167.681V18.0983L175.434 26.6274H180L171.504 17.6823L179.257 10.1933H174.903L167.681 17.2662V0.416054ZM33.6637 1.76755C31.9646 -0.312717 28.885 -0.41673 27.0796 1.24748L26.8673 1.45551L26.4425 1.76755C24.7434 3.11973 22.1947 3.01571 20.6018 1.45551V1.3515C20.0708 0.831431 19.3274 0.415377 18.5841 0.20735C18.531 0.20735 18.4513 0.181347 18.3717 0.155343C18.292 0.12934 18.2124 0.103337 18.1593 0.103337H16.4602C16.354 0.103337 16.2478 0.103337 16.1416 0.20735H15.9292C15.8761 0.20735 15.823 0.233354 15.7699 0.259357C15.7168 0.28536 15.6637 0.311364 15.6106 0.311364C15.6106 0.311364 15.5044 0.311364 15.5044 0.415377C15.4513 0.415377 15.3982 0.441381 15.3451 0.467384C15.292 0.493387 15.2389 0.519391 15.1858 0.519391C15.1858 0.519391 15.0796 0.519391 15.0796 0.623404C15.0265 0.675411 14.9734 0.701414 14.9204 0.727418C14.8673 0.753421 14.8142 0.779424 14.7611 0.831431C14.7611 0.831431 14.6549 0.831431 14.6549 0.935444C14.6018 0.987451 14.5487 1.01345 14.4956 1.03946C14.4425 1.06546 14.3894 1.09146 14.3363 1.14347L14.2301 1.24748L14.0177 1.45551L13.5929 1.76755C11.8938 3.11973 9.34513 3.01571 7.85841 1.45551C7.85841 1.45551 7.75221 1.45551 7.75221 1.3515L7.53982 1.14347C6.90265 0.623404 6.15929 0.20735 5.30973 0.103337H3.39823C3.39823 0.167621 3.35767 0.192175 3.30161 0.226108C3.26697 0.24708 3.2264 0.271634 3.18584 0.311364H3.07965C2.54867 0.519391 2.0177 0.727417 1.59292 1.14347L1.48673 1.24748L1.16814 1.55952C0.812295 1.90806 0.605499 2.32959 0.42289 2.70182C0.387516 2.77393 0.35305 2.84418 0.318584 2.9117C0.318584 2.96371 0.292035 3.01571 0.265487 3.06772C0.238938 3.11973 0.212389 3.17173 0.212389 3.22374C0.212389 3.26682 0.194169 3.30991 0.172823 3.36038C0.142635 3.43177 0.106195 3.51793 0.106195 3.63979C0 4.36789 0 5.09598 0.212389 5.82407C0.212389 5.87608 0.238938 5.92809 0.265487 5.98009C0.292035 6.0321 0.318584 6.08411 0.318584 6.13611V6.24013C0.318584 6.29213 0.345133 6.34414 0.371681 6.39615C0.39823 6.44815 0.424779 6.50016 0.424779 6.55217C0.490411 6.61645 0.51548 6.68074 0.550125 6.76957C0.571536 6.82448 0.596605 6.88876 0.637168 6.96822C0.849558 7.07223 1.06195 7.28026 1.16814 7.38427L1.38053 7.5923L1.59292 7.80033C3.18584 9.36053 3.18584 12.0649 1.48673 13.7291L1.48672 13.7291C1.27433 13.9371 0.955751 14.2492 0.849558 14.4572C0.783926 14.5215 0.758857 14.5858 0.724212 14.6746C0.7028 14.7295 0.677731 14.7938 0.637168 14.8732V14.9773C0.584071 15.0293 0.557522 15.0813 0.530973 15.1333C0.504425 15.1853 0.477876 15.2373 0.424779 15.2893V15.3933C0.424779 15.4453 0.39823 15.4973 0.371681 15.5493C0.345133 15.6013 0.318584 15.6533 0.318584 15.7053V15.8094C0.318584 15.9134 0.318584 16.0174 0.212389 16.1214V17.6816C0.212389 17.7856 0.212389 17.8896 0.318584 17.9936V18.0977C0.530973 18.8257 0.955752 19.5538 1.59292 20.1779C3.29204 21.8421 3.29204 24.5465 1.59292 26.2107L1.48673 26.3147L1.27434 26.5227V26.6268C1.16814 26.7308 1.06195 26.8348 1.06195 26.9388C1.06195 26.9388 1.06195 27.0428 0.955752 27.0428C0.902655 27.0948 0.876106 27.1468 0.849557 27.1988C0.823009 27.2508 0.79646 27.3028 0.743363 27.3548L0.637168 27.4589C0.637168 27.5109 0.610619 27.5369 0.584071 27.5629C0.557522 27.5889 0.530973 27.6149 0.530973 27.6669C0.530973 27.7189 0.504425 27.7449 0.477876 27.7709C0.451327 27.7969 0.424779 27.8229 0.424779 27.8749C0.424779 27.9789 0.424779 27.9789 0.318584 28.0829C0.106195 28.499 0 29.0191 0 29.4351V30.2672C0.0328748 30.3638 0.0555725 30.4604 0.0775448 30.5539L0.0775475 30.5539C0.126551 30.7625 0.171947 30.9557 0.318584 31.0993C0.318584 31.2033 0.424779 31.3074 0.424779 31.3074C0.424779 31.3074 0.424779 31.4114 0.530973 31.4114C0.530973 31.4634 0.557522 31.5154 0.584071 31.5674C0.610619 31.6194 0.637168 31.6714 0.637168 31.7234C0.637168 31.7234 0.637168 31.8274 0.743363 31.8274C0.849557 32.0354 0.955752 32.1395 1.06195 32.2435C1.06195 32.2435 1.06195 32.3475 1.16814 32.3475C1.16814 32.3475 1.16814 32.4515 1.27434 32.4515C1.27434 32.5555 1.38053 32.5555 1.38053 32.5555L1.48673 32.6595C1.52728 32.6992 1.56783 32.7238 1.60246 32.7448L1.60249 32.7448C1.65855 32.7787 1.69912 32.8033 1.69912 32.8676L1.80531 32.9716C1.80531 32.9716 1.9115 32.9716 1.9115 33.0756C2.0177 33.1796 2.12389 33.2836 2.23009 33.2836C2.23009 33.2836 2.33628 33.2836 2.33628 33.3876C2.38938 33.4396 2.44248 33.4656 2.49557 33.4916C2.54867 33.5176 2.60177 33.5436 2.65487 33.5956H2.76106C2.86726 33.6997 2.97345 33.6997 3.18584 33.6997C3.23893 33.6997 3.31855 33.7257 3.39818 33.7517L3.39823 33.7517L3.39828 33.7517C3.47791 33.7777 3.55753 33.8037 3.61062 33.8037H3.71681C3.82301 33.8037 3.9292 33.8037 4.0354 33.9077H4.99115C5.15044 33.9077 5.28319 33.8817 5.41593 33.8557C5.54867 33.8297 5.68142 33.8037 5.84071 33.8037H5.9469C6 33.8037 6.0531 33.7777 6.10619 33.7517C6.15929 33.7257 6.21239 33.6997 6.26549 33.6997H6.37168C6.42478 33.6997 6.47788 33.6737 6.53097 33.6477C6.58407 33.6217 6.63717 33.5956 6.69027 33.5956H6.79646C6.90262 33.5437 7.0353 33.4657 7.168 33.3877L7.16814 33.3876L7.16829 33.3875C7.30098 33.3096 7.43367 33.2316 7.53982 33.1796L7.85841 32.8676L7.9646 32.7635C9.66372 30.9953 12.4248 30.9953 14.1239 32.7635C16.0354 34.7398 19.2212 34.6358 21.0265 32.4515C22.3009 30.8913 22.3009 28.603 21.0265 26.9388C19.3274 24.8585 16.2478 24.7545 14.4425 26.4187L14.2301 26.6268L13.8053 26.9388C12.1062 28.291 9.55752 28.187 7.9646 26.6268L7.75221 26.4187L7.43363 26.0027C6.0531 24.3385 6.15929 21.8421 7.75221 20.2819C8.70796 19.4498 9.13274 18.3057 9.13274 17.1615V16.8495C9.13274 15.8094 8.70796 14.7692 7.85841 14.0411C7.85841 13.9891 7.83186 13.9631 7.80531 13.9371C7.77876 13.9111 7.75221 13.8851 7.75221 13.8331L7.43363 13.4171C6.0531 11.7528 6.15929 9.25652 7.75221 7.69631L7.85841 7.5923L7.9646 7.48829C9.66372 5.72006 12.4248 5.72006 14.1239 7.48829L14.2301 7.5923L14.3363 7.69631L14.5487 7.90434C14.6018 7.90434 14.6283 7.93035 14.6549 7.95635C14.6814 7.98235 14.708 8.00836 14.7611 8.00836C14.8142 8.00836 14.8407 8.03436 14.8673 8.06036C14.8938 8.08636 14.9204 8.11237 14.9735 8.11237C15.0265 8.11237 15.0531 8.13837 15.0796 8.16438C15.1062 8.19038 15.1327 8.21638 15.1858 8.21638C15.2389 8.21638 15.2655 8.24239 15.292 8.26839C15.3186 8.29439 15.3451 8.3204 15.3982 8.3204C15.4513 8.3204 15.4779 8.3464 15.5044 8.3724C15.531 8.39841 15.5575 8.42441 15.6106 8.42441C15.6637 8.42441 15.6903 8.45041 15.7168 8.47642C15.7434 8.50242 15.7699 8.52842 15.823 8.52842C15.9292 8.52842 15.9292 8.52842 16.0354 8.63244C16.1416 8.63244 16.1416 8.63243 16.2478 8.73645H18.0531C18.1593 8.73645 18.2655 8.73645 18.3717 8.63244H18.5841C18.6372 8.63244 18.6903 8.60643 18.7434 8.58043C18.7965 8.55442 18.8496 8.52842 18.9027 8.52842H19.0088C19.0745 8.52842 19.1401 8.48869 19.2308 8.43379C19.2869 8.39985 19.3525 8.36012 19.4336 8.3204C19.8584 8.11237 20.2832 7.80033 20.6018 7.48829L20.708 7.38427C22.4071 5.61605 25.1681 5.61605 26.8673 7.38427C28.6726 9.46454 31.9646 9.36053 33.6637 7.17625C34.9381 5.61605 34.9381 3.32775 33.6637 1.76755ZM15.717 17.2662C15.717 18.2024 16.4604 18.9304 17.4162 18.9304C18.3719 18.9304 19.1153 18.2024 19.1153 17.2662C19.1153 16.3301 18.3719 15.602 17.4162 15.602C16.4604 15.602 15.717 16.3301 15.717 17.2662ZM30.0533 15.602C29.0976 15.602 28.3542 16.3301 28.3542 17.2662C28.3542 18.2024 29.0976 18.9304 30.0533 18.9304C31.0091 18.9304 31.7524 18.2024 31.7524 17.2662C31.7524 16.3301 31.0091 15.602 30.0533 15.602ZM30.0533 28.1876C29.0976 28.1876 28.3542 28.9157 28.3542 29.8519C28.3542 30.788 29.0976 31.5161 30.0533 31.5161C31.0091 31.5161 31.7524 30.788 31.7524 29.8519C31.7524 28.9157 31.0091 28.1876 30.0533 28.1876Z"
  />
</svg>
