<svg width="80" height="80" viewBox="0 0 80 80" fill="none" xmlns="http://www.w3.org/2000/svg">
<g id="empty_inbox" clip-path="url(#clip0_14805_132158)">
<g id="36">
<g id="Group 749">
<g id="Group 648">
<path id="Vector" d="M42.5511 80.0002C61.8685 80.0002 77.5344 64.4521 77.5344 45.2526C77.5344 26.053 61.8685 10.5049 42.5511 10.5049C23.2338 10.5049 7.56787 26.053 7.56787 45.2526C7.56787 64.4521 23.2338 80.0002 42.5511 80.0002Z" fill="#192C56"/>
<g id="Group">
<path id="Vector_2" d="M69.3482 40.7179V61.9788C69.3482 66.3958 65.7556 69.9884 61.2796 69.9884H23.9406C19.5235 69.9884 15.931 66.4547 15.8721 62.0377C15.8721 61.9788 15.8721 61.9788 15.8721 61.9199V40.7179C15.8721 40.659 15.8721 40.659 15.8721 40.6001C15.8721 40.4823 15.8721 40.3645 15.931 40.2467C15.9899 40.0701 16.0488 39.9523 16.1076 39.7756L26.1197 20.6349C26.4731 19.8693 27.2387 19.457 28.0632 19.457H57.0981C57.9226 19.457 58.6294 19.8693 59.0416 20.6349L69.0537 39.7756C69.1126 39.8934 69.1715 40.0701 69.2304 40.2467C69.3481 40.3645 69.3482 40.5412 69.3482 40.7179Z" fill="#233F7B"/>
</g>
<g id="Group_2">
<g id="Vector_3" filter="url(#filter0_d_14805_132158)">
<path d="M69.3482 40.7182V64.1582C69.3482 67.3974 66.7568 69.9887 63.4587 69.9887H21.7615C18.5223 69.9887 15.8721 67.3974 15.8721 64.1582V40.6004C15.8721 40.4826 15.8721 40.3649 15.931 40.2471H29.3589C31.3613 40.2471 33.0103 41.8372 33.0103 43.8985C33.0103 44.8997 33.4226 45.842 34.0704 46.4899C34.7772 47.1966 35.6017 47.55 36.6618 47.55H48.6173C50.6197 47.55 52.2688 45.9598 52.2688 43.8985C52.2688 42.8973 52.681 41.955 53.3289 41.3072C54.0356 40.6004 54.8601 40.2471 55.8613 40.2471H69.2304C69.3481 40.3649 69.3482 40.5415 69.3482 40.7182Z" fill="url(#paint0_linear_14805_132158)"/>
</g>
</g>
</g>
<path id="Vector_4" d="M76.6405 28.6438C77.9741 28.6438 79.0552 27.5627 79.0552 26.2291C79.0552 24.8955 77.9741 23.8145 76.6405 23.8145C75.3069 23.8145 74.2258 24.8955 74.2258 26.2291C74.2258 27.5627 75.3069 28.6438 76.6405 28.6438Z" fill="#192C56"/>
<path id="Vector_5" d="M74.2257 20.8108C75.1364 20.8108 75.8747 20.0725 75.8747 19.1617C75.8747 18.251 75.1364 17.5127 74.2257 17.5127C73.315 17.5127 72.5767 18.251 72.5767 19.1617C72.5767 20.0725 73.315 20.8108 74.2257 20.8108Z" fill="#192C56"/>
<path id="Vector_6" d="M44.1307 3.29808C45.0415 3.29808 45.7798 2.55978 45.7798 1.64904C45.7798 0.738302 45.0415 0 44.1307 0C43.22 0 42.4817 0.738302 42.4817 1.64904C42.4817 2.55978 43.22 3.29808 44.1307 3.29808Z" fill="#192C56"/>
<path id="Vector_7" d="M7.43957 26.2297C8.35031 26.2297 9.08861 25.4914 9.08861 24.5807C9.08861 23.6699 8.35031 22.9316 7.43957 22.9316C6.52883 22.9316 5.79053 23.6699 5.79053 24.5807C5.79053 25.4914 6.52883 26.2297 7.43957 26.2297Z" fill="#192C56"/>
<path id="Vector_8" d="M3.72925 62.5078C5.42063 62.5078 6.79176 61.1367 6.79176 59.4453C6.79176 57.7539 5.42063 56.3828 3.72925 56.3828C2.03788 56.3828 0.666748 57.7539 0.666748 59.4453C0.666748 61.1367 2.03788 62.5078 3.72925 62.5078Z" fill="#192C56"/>
</g>
</g>
</g>
<defs>
<filter id="filter0_d_14805_132158" x="-6.12793" y="29.2471" width="97.4761" height="73.7412" filterUnits="userSpaceOnUse" color-interpolation-filters="sRGB">
<feFlood flood-opacity="0" result="BackgroundImageFix"/>
<feColorMatrix in="SourceAlpha" type="matrix" values="0 0 0 0 0 0 0 0 0 0 0 0 0 0 0 0 0 0 127 0" result="hardAlpha"/>
<feOffset dy="11"/>
<feGaussianBlur stdDeviation="11"/>
<feColorMatrix type="matrix" values="0 0 0 0 0 0 0 0 0 0 0 0 0 0 0 0 0 0 0.27 0"/>
<feBlend mode="normal" in2="BackgroundImageFix" result="effect1_dropShadow_14805_132158"/>
<feBlend mode="normal" in="SourceGraphic" in2="effect1_dropShadow_14805_132158" result="shape"/>
</filter>
<linearGradient id="paint0_linear_14805_132158" x1="42.5927" y1="39.5591" x2="42.5927" y2="70.3094" gradientUnits="userSpaceOnUse">
<stop stop-color="#20396F"/>
<stop offset="1" stop-color="#192C56"/>
</linearGradient>
<clipPath id="clip0_14805_132158">
<rect width="80" height="80" fill="white"/>
</clipPath>
</defs>
</svg>
