<svg width="180" height="12" viewBox="0 0 180 12" fill="currentColor" xmlns="http://www.w3.org/2000/svg">
  <path fill-rule="evenodd" clip-rule="evenodd"
        d="M119.266 2.6646C119.518 2.43007 119.77 2.19554 120.033 1.95088C119.889 1.83611 119.751 1.71876 119.615 1.6029L119.615 1.60282L119.615 1.60277L119.615 1.60273C119.348 1.37545 119.088 1.1539 118.801 0.96879C116.85 -0.224825 114.789 -0.315479 112.767 0.696827C110.808 1.67891 109.727 3.29558 109.6 5.45618C109.419 8.64418 111.78 10.8123 114.054 11.2958C116.392 11.7944 118.54 11.3411 120.443 9.91335C120.625 9.77736 120.704 9.64138 120.704 9.41475C120.692 8.41789 120.694 7.41678 120.695 6.4178V6.41679V6.41609V6.41538V6.41467V6.41395C120.696 6.08179 120.696 5.74986 120.696 5.4184C120.696 5.33618 120.691 5.25925 120.684 5.16989L120.684 5.16965L120.68 5.11622H115.531V6.85376H118.414C118.414 6.99443 118.41 7.12964 118.406 7.26116C118.397 7.5393 118.389 7.80089 118.422 8.06249C118.485 8.54598 118.279 8.81794 117.821 9.0068C116.55 9.53562 115.247 9.74714 113.975 9.12767C112.499 8.40999 111.89 7.18616 111.993 5.60727C112.088 4.14169 112.838 3.06895 114.236 2.55524C115.634 2.04153 116.976 2.29083 118.09 3.33336C118.169 3.40894 118.22 3.50029 118.254 3.55922L118.258 3.56704C118.263 3.57564 118.267 3.58342 118.272 3.59021C118.617 3.26823 118.94 2.96763 119.263 2.6671L119.266 2.6646ZM48.0867 0.0698054H50.4875V11.4771C50.298 11.4771 50.1084 11.4781 49.9189 11.479C49.3503 11.4819 48.7817 11.4847 48.213 11.462C48.0946 11.4545 47.9682 11.2958 47.8813 11.1825C46.1992 8.99925 44.517 6.80844 42.8349 4.61763C42.7638 4.52697 42.6927 4.43632 42.5506 4.27012V11.4545H40.134V0.0546964C40.2885 0.0546964 40.4422 0.0588024 40.5955 0.0628951C40.9515 0.0724004 41.3049 0.0818337 41.6582 0.0395873C42.3215 -0.0359579 42.6848 0.220896 43.0639 0.727049C44.2654 2.36211 45.5008 3.97859 46.736 5.59471L46.7361 5.59491C47.076 6.03961 47.4159 6.48429 47.755 6.92931C47.8419 7.04263 47.9287 7.14839 48.0946 7.2466C48.0867 4.86693 48.0867 2.4797 48.0867 0.0698054ZM179.992 11.4394H177.552V6.91422H172.434V11.4469H170.002V0.0773796H172.403V4.74607H177.536V0.039607H180C179.992 3.83222 179.992 7.62484 179.992 11.4175V11.4394ZM126.351 0.0471167H125.932V0.0526705C125.932 3.88845 125.932 7.65635 125.948 11.4469H128.294V7.83583C128.44 7.83583 128.584 7.8371 128.726 7.83835C129.073 7.84141 129.408 7.84437 129.739 7.82827C130.063 7.80561 130.26 7.90382 130.457 8.16067C131.141 9.05846 131.842 9.93895 132.545 10.8223L132.546 10.8229L132.85 11.2051C132.937 11.3185 133.079 11.4696 133.198 11.4696C133.928 11.4876 134.658 11.4865 135.436 11.4853C135.634 11.485 135.836 11.4847 136.041 11.4847C134.991 10.1551 133.995 8.89346 133.04 7.67718C133.216 7.53524 133.397 7.40122 133.576 7.2687L133.576 7.26863C133.949 6.99213 134.313 6.72219 134.611 6.40047C135.709 5.20686 135.859 3.80171 135.212 2.38146C134.548 0.930996 133.348 0.0848893 131.642 0.0546712C130.409 0.0335137 129.172 0.0382801 127.937 0.0430405C127.408 0.0450792 126.879 0.0471167 126.351 0.0471167ZM129.288 5.98971C128.955 5.98357 128.621 5.97742 128.286 5.97742V2.33614C128.63 2.33614 128.972 2.33035 129.313 2.3246C130.073 2.31176 130.824 2.29907 131.571 2.35125C132.487 2.41924 133.198 3.25779 133.214 4.1039C133.229 4.98777 132.542 5.87921 131.595 5.95475C130.833 6.01814 130.063 6.00397 129.288 5.98971ZM78.1945 0.0849069V2.36637H71.9318V4.77626H77.4127V6.88398H71.9318V9.24099H78.1787V11.4469H69.4836V0.0849069H78.1945ZM104.822 2.36639V0.0698194H96.1112L96.1101 0.0909916L96.11 0.091385C96.1026 0.227011 96.0955 0.356165 96.0955 0.485318C96.0955 1.36499 96.0959 2.24467 96.0964 3.12435C96.0979 5.76508 96.0994 8.40581 96.0875 11.0465C96.0796 11.3941 96.1823 11.4847 96.5456 11.4847C98.5064 11.4734 100.472 11.4748 102.435 11.4762H102.435C103.089 11.4767 103.743 11.4771 104.396 11.4771C104.515 11.4771 104.641 11.4704 104.775 11.4633L104.798 11.462V9.24101H98.5594V6.89155H104.024V4.78384H103.519C101.987 4.78384 100.447 4.78384 98.9069 4.77629C98.7806 4.77629 98.5516 4.67808 98.5516 4.61764C98.5326 4.02663 98.5339 3.44043 98.5351 2.83214C98.5354 2.67844 98.5358 2.52334 98.5358 2.36639H104.822ZM26.679 5.72814C26.7027 8.87838 23.9938 11.4016 20.7796 11.4167C17.4232 11.4318 14.8328 8.87082 14.8012 5.69037C14.7697 2.63834 17.5338 -0.0284035 20.8586 0.0395872C24.0728 0.115132 26.7027 2.6459 26.679 5.72814ZM17.1942 5.7357C17.1152 7.35237 18.5446 9.14279 20.7322 9.16545C22.7382 9.18056 24.3176 7.64699 24.3334 5.71303C24.3492 3.83951 22.7461 2.33616 20.7243 2.3135C18.7815 2.29839 17.2021 3.8244 17.1942 5.7357ZM152.229 11.4771C152.014 11.4771 151.801 11.4776 151.59 11.4781C150.966 11.4795 150.359 11.4809 149.757 11.4696C149.67 11.4696 149.56 11.326 149.512 11.2203C149.173 10.495 148.841 9.77736 148.525 9.04457C148.43 8.82549 148.312 8.74239 148.059 8.74239C146.519 8.74994 144.979 8.7575 143.439 8.74239C143.163 8.74239 143.044 8.8406 142.95 9.06723C142.634 9.78491 142.31 10.5026 141.97 11.2052C141.915 11.3185 141.765 11.4696 141.662 11.4696C141.033 11.4876 140.408 11.4865 139.745 11.4853H139.745H139.744C139.576 11.485 139.404 11.4847 139.23 11.4847C139.254 11.4244 139.274 11.3717 139.293 11.3234L139.294 11.3229L139.295 11.319C139.325 11.242 139.351 11.1759 139.38 11.107C139.759 10.2745 140.138 9.44244 140.517 8.6106C141.764 5.87185 143.011 3.13547 144.253 0.394639C144.363 0.14534 144.49 0.0320219 144.798 0.0471309C145.453 0.077349 146.116 0.06224 146.772 0.0471309C146.985 0.0395764 147.096 0.100013 147.183 0.29643C148.137 2.40415 149.097 4.51187 150.058 6.62107L150.062 6.62958L150.063 6.63242L150.066 6.63726L150.069 6.64409L150.073 6.6534L150.079 6.6657C150.764 8.17036 151.45 9.67578 152.134 11.1825C152.151 11.2224 152.163 11.2644 152.178 11.3151C152.191 11.3605 152.207 11.4129 152.229 11.4771ZM146.598 4.83915L146.596 4.83602L146.596 4.83428L146.591 4.82449C146.312 4.2126 146.032 3.59799 145.745 2.96318C145.277 3.98372 144.835 4.95319 144.394 5.92271L143.953 6.89153H147.53C147.215 6.19463 146.907 5.51848 146.598 4.83915ZM156.322 11.4545H158.62V11.0239C158.62 10.7894 158.62 10.5555 158.621 10.3219V10.3208V10.3197V10.3187V10.3176C158.622 9.61921 158.624 8.92395 158.612 8.22869C158.612 7.92651 158.691 7.81319 159.03 7.82075C159.468 7.82772 159.905 7.82504 160.343 7.82235C160.853 7.81923 161.363 7.8161 161.874 7.8283C163.895 7.88118 165.751 6.13609 165.925 4.34566C166.146 2.08686 164.298 0.0471414 161.921 0.0471414H156.748H156.322V11.4545ZM159.63 6.00079C159.304 5.99669 158.975 5.99255 158.644 5.99255C158.644 4.75361 158.644 3.55244 158.636 2.30594H160.499C160.623 2.30594 160.747 2.3051 160.869 2.30426C161.114 2.30258 161.358 2.30091 161.605 2.30594C162.798 2.32861 163.666 3.25781 163.564 4.39099C163.493 5.14644 162.726 5.92456 161.866 5.97744C161.127 6.01962 160.385 6.01028 159.63 6.00079ZM10.447 2.07175L10.4461 2.07264C9.90146 2.5785 9.35684 3.08437 8.77277 3.62798C7.91195 2.55524 6.68785 2.18506 5.26631 2.37393C4.36601 2.4948 3.68683 2.98584 3.13401 3.63553C2.18631 4.74605 1.99678 6.80088 3.42621 8.14558C4.20806 8.87837 5.13206 9.21077 6.21401 9.14278C7.28016 9.08234 8.13308 8.5913 8.79647 7.83585C9.07684 8.10027 9.34932 8.36092 9.61982 8.61967L9.62004 8.61989L9.62068 8.62049L9.62136 8.62115C9.89131 8.87938 10.1593 9.13573 10.4312 9.39208C9.19134 10.9332 6.80631 11.8549 4.25544 11.1825C1.9257 10.5706 0.117182 8.32689 0.00661807 6.04543C-0.127638 3.18982 1.79934 1.03678 4.09749 0.303989C6.35616 -0.41369 9.18344 0.37198 10.447 2.07175ZM64.7989 2.35127V0.07736C61.4898 0.07736 58.2203 0.07736 54.9349 0.0849145V2.37393H58.6546V11.4847C58.858 11.4847 59.0586 11.4826 59.257 11.4805C59.7136 11.4758 60.1595 11.4712 60.6053 11.4922C60.9765 11.5074 61.0634 11.3865 61.0634 11.0465C61.0515 8.99552 61.053 6.94876 61.0545 4.90307V4.90271V4.90236C61.055 4.22064 61.0555 3.53903 61.0555 2.85742V2.35127H64.7989ZM83.2928 0.0698194H85.6463V9.17302H91.5378V11.4469H83.2928V0.0698194ZM34.4574 0.0698194H32.1039V11.4545H34.4574V0.0698194Z"
  />
</svg>
