<svg width="24" height="24" viewBox="0 0 24 24" fill="none" xmlns="http://www.w3.org/2000/svg">
  <path
    d="M21.24 13.68V20.424H17.328V14.136C17.328 12.552 16.764 11.472 15.348 11.472C14.268 11.472 13.62 12.204 13.344 12.9C13.236 13.152 13.212 13.5 13.212 13.848V20.412H9.3C9.3 20.412 9.348 9.756 9.3 8.652H13.212V10.32C13.2 10.332 13.188 10.344 13.188 10.356H13.212V10.32C13.728 9.516 14.664 8.376 16.74 8.376C19.308 8.388 21.24 10.068 21.24 13.68ZM5.208 3C3.876 3 3 3.876 3 5.028C3 6.156 3.852 7.056 5.16 7.056H5.184C6.552 7.056 7.392 6.156 7.392 5.028C7.368 3.876 6.552 3 5.208 3ZM3.228 20.424H7.14V8.664H3.228V20.424Z"
    fill="#E7EFFF" />
</svg>
