<svg width="18" height="15" viewBox="0 0 18 15" fill="none" xmlns="http://www.w3.org/2000/svg">
  <g clip-path="url(#clip0_12945_105802)">
    <path
      d="M5.68318 14.5797C12.4308 14.5797 16.1208 8.99397 16.1208 4.15022C16.1208 3.99156 16.1175 3.83363 16.1104 3.6764C16.8267 3.159 17.4493 2.51331 17.9403 1.77828C17.283 2.07022 16.5757 2.26675 15.8336 2.35536C16.591 1.90156 17.1725 1.1837 17.4468 0.327922C16.738 0.747781 15.9531 1.05294 15.1174 1.21769C14.4479 0.505204 13.4949 0.0595703 12.4396 0.0595703C10.4138 0.0595703 8.77099 1.70115 8.77099 3.72464C8.77099 4.01228 8.80317 4.29207 8.86611 4.56045C5.81721 4.40715 3.11367 2.94854 1.30431 0.730627C0.989263 1.27233 0.807601 1.90158 0.807601 2.573C0.807601 3.84473 1.45524 4.96741 2.44008 5.6242C1.83822 5.60562 1.27284 5.44053 0.778682 5.16575C0.778142 5.18113 0.77814 5.19612 0.77814 5.21256C0.77814 6.98778 2.04264 8.46994 3.7212 8.8058C3.41295 8.88977 3.08862 8.93479 2.75388 8.93479C2.51786 8.93479 2.28792 8.91158 2.06442 8.86869C2.53145 10.3251 3.88572 11.385 5.49132 11.4146C4.23576 12.398 2.6541 12.9836 0.935101 12.9836C0.639361 12.9836 0.347201 12.9668 0.0600586 12.9329C1.6836 13.9727 3.6114 14.5795 5.68338 14.5795"
      fill="#E7EFFF" />
  </g>
  <defs>
    <clipPath id="clip0_12945_105802">
      <rect width="18" height="14.64" fill="white" />
    </clipPath>
  </defs>
</svg>
