<svg width="120" height="120" viewBox="0 0 120 120" fill="none" xmlns="http://www.w3.org/2000/svg">
  <path d="M103.133 24.2266H16.867C16.0536 24.2275 15.2738 24.5511 14.6988 25.1264C14.1238 25.7017 13.8004 26.4816 13.7998 27.295V33.4678C13.7998 33.7522 14.1082 34.0786 14.3602 34.2106L59.7034 60.1102C59.8195 60.1765 59.9512 60.2109 60.085 60.2098C60.2217 60.2101 60.356 60.1737 60.4738 60.1042L104.447 34.2358C104.694 34.0978 105.349 33.733 105.595 33.565C105.893 33.3622 106.2 33.1786 106.2 32.815V27.2938C106.199 26.4806 105.875 25.701 105.3 25.126C104.725 24.551 103.946 24.2275 103.133 24.2266Z" fill="#336BE3"/>
  <path d="M105.817 42.7753C105.699 42.708 105.565 42.673 105.43 42.6738C105.294 42.6747 105.16 42.7113 105.043 42.7801L80.1589 57.4213C80.0597 57.4791 79.9748 57.5585 79.9105 57.6535C79.8462 57.7486 79.8042 57.8569 79.7874 57.9705C79.7707 58.084 79.7798 58.1999 79.814 58.3094C79.8481 58.419 79.9066 58.5194 79.9849 58.6033L104.873 85.4317C104.944 85.5092 105.031 85.571 105.127 85.6131C105.224 85.6553 105.328 85.6769 105.433 85.6765C105.637 85.6762 105.831 85.5953 105.975 85.4516C106.119 85.3079 106.2 85.113 106.2 84.9097V43.4413C106.201 43.3064 106.165 43.1738 106.098 43.0568C106.031 42.9399 105.934 42.8428 105.817 42.7753Z" fill="#194DBD"/>
  <path d="M72.9875 62.3369C72.8694 62.2082 72.7107 62.124 72.538 62.0982C72.3652 62.0724 72.1889 62.1067 72.0383 62.1953L62.0639 68.0645C61.4795 68.4021 60.8174 68.582 60.1425 68.5864C59.4676 68.5908 58.8031 68.4196 58.2143 68.0897L49.4363 63.0749C49.2946 62.9941 49.1309 62.9606 48.9689 62.9792C48.8068 62.9978 48.6549 63.0674 48.5351 63.1781L15.2015 94.0973C15.1141 94.179 15.0471 94.2799 15.0056 94.3921C14.9641 94.5044 14.9495 94.6247 14.9628 94.7436C14.976 94.8625 15.0169 94.9766 15.0821 95.0769C15.1473 95.1772 15.2351 95.2609 15.3383 95.3213C15.8567 95.6261 16.3571 95.7713 16.8659 95.7713H102.25C102.399 95.7716 102.545 95.7279 102.67 95.6458C102.795 95.5636 102.893 95.4466 102.952 95.3093C103.011 95.1727 103.03 95.0216 103.005 94.8746C102.98 94.7277 102.912 94.5913 102.81 94.4825L72.9875 62.3369Z" fill="#194DBD"/>
  <path d="M41.2006 59.5212C41.2889 59.4396 41.3568 59.3383 41.3987 59.2257C41.4406 59.113 41.4555 58.992 41.4421 58.8725C41.4286 58.753 41.3873 58.6384 41.3214 58.5378C41.2555 58.4373 41.1668 58.3536 41.0626 58.2936L14.9434 43.3752C14.8269 43.309 14.695 43.2746 14.5609 43.2754C14.4269 43.2762 14.2954 43.3122 14.1796 43.3797C14.0638 43.4473 13.9678 43.544 13.9012 43.6603C13.8345 43.7766 13.7996 43.9084 13.7998 44.0424V83.1864C13.799 83.3359 13.842 83.4824 13.9235 83.6077C14.0051 83.733 14.1216 83.8316 14.2586 83.8914C14.3956 83.9512 14.5472 83.9694 14.6945 83.9439C14.8418 83.9185 14.9784 83.8503 15.0874 83.748L41.2006 59.5212Z" fill="#194DBD"/>
  <circle cx="99.6002" cy="29.9996" r="14.4" fill="#598EFF"/>
</svg>
