<svg width="320" height="320" viewBox="0 0 320 320" fill="none" xmlns="http://www.w3.org/2000/svg">
<g id="time" clip-path="url(#clip0_14725_128844)">
<g id="History/Time">
<g id="Group 47040">
<g id="410">
<g id="Group 711">
<g id="Group 705">
<g id="Group 664">
<path id="Vector" d="M166.712 284.638C236.362 284.638 292.829 228.171 292.829 158.272C292.829 88.3722 236.114 31.9053 166.712 31.9053C97.0607 31.9053 40.5938 88.3722 40.5938 158.272C40.5938 228.171 97.0607 284.638 166.712 284.638Z" fill="#20386C"/>
<path id="Vector_2" d="M241.036 31.9053C214.595 84.0218 175.784 104.755 140.212 117.136C131.956 120.049 122.972 122.598 114.473 120.413C105.975 118.228 98.569 109.61 100.876 101.113C102.94 93.2234 113.138 89.3391 120.544 92.4951C128.071 95.6511 132.199 104.391 131.47 112.523C130.742 120.656 125.764 127.818 119.451 132.795C113.016 137.771 105.368 140.806 97.5977 143.112C80.4794 148.21 62.6325 150.638 45.9998 157.071C29.2456 163.505 13.3413 175.036 7.63517 191.908C3.50734 203.925 5.20704 217.52 10.5489 228.931C15.8908 240.341 24.9964 249.93 35.1946 257.577C50.8561 269.23 70.1598 276.513 89.5849 276.027C109.01 275.542 128.678 267.045 140.697 251.751C152.716 236.456 156.237 214.243 147.739 196.642C141.911 184.504 128.678 174.551 115.445 177.464C105.004 179.891 97.3549 190.088 96.2623 200.891C95.1696 211.694 99.9045 222.376 106.946 230.387C113.988 238.52 123.336 244.225 133.049 249.202C147.253 256.363 164.007 261.826 178.698 255.756C192.659 250.051 200.794 235.607 206.136 221.648C211.477 207.688 215.484 192.515 225.196 180.984C236.852 167.146 256.519 160.713 274.123 164.84C291.727 168.967 306.539 183.533 310.91 201.012C314.309 214.607 310.181 231.601 297.434 237.549C287.478 242.283 275.216 238.884 266.596 232.086C257.976 225.289 252.149 215.578 246.564 206.11" stroke="#5871A3" stroke-width="2" stroke-miterlimit="10" stroke-dasharray="4 4"/>
<g id="Group 47097">
<g id="Vector_3" filter="url(#filter0_d_14725_128844)">
<path d="M143.191 90.0019C164.447 97.1974 187.511 85.7994 194.706 64.5438C201.902 43.2882 190.504 20.2241 169.248 13.0286C147.993 5.8331 124.929 17.2311 117.733 38.4866C110.538 59.7422 121.936 82.8064 143.191 90.0019Z" fill="#4F6595"/>
</g>
<path id="Vector_4" d="M154.835 55.5943C157.088 56.357 159.533 55.1489 160.295 52.8959C161.058 50.643 159.85 48.1983 157.597 47.4356C155.344 46.673 152.899 47.8811 152.137 50.134C151.374 52.387 152.582 54.8316 154.835 55.5943Z" fill="#20386C"/>
<path id="Vector (Stroke)" fill-rule="evenodd" clip-rule="evenodd" d="M157.191 48.6404C155.604 48.103 153.881 48.9542 153.344 50.5417C152.806 52.1291 153.658 53.8516 155.245 54.389C156.833 54.9263 158.555 54.0751 159.092 52.4877C159.63 50.9003 158.779 49.1778 157.191 48.6404ZM150.934 49.7258C151.922 46.8073 155.089 45.2423 158.007 46.2303C160.926 47.2183 162.491 50.3851 161.503 53.3036C160.515 56.222 157.348 57.787 154.429 56.7991C151.511 55.8111 149.946 52.6443 150.934 49.7258Z" fill="#20386C"/>
<path id="Vector_5" d="M161.818 34.3496L158.002 47.0719" stroke="#20386C" stroke-width="2" stroke-miterlimit="10" stroke-linecap="round" stroke-linejoin="round"/>
<path id="Vector_6" d="M160.759 51.5366L169.453 52.1617" stroke="#20386C" stroke-width="2" stroke-miterlimit="10" stroke-linecap="round" stroke-linejoin="round"/>
<g id="Group">
<path id="Vector_7" d="M165.824 27.404C166.487 27.088 166.737 26.2626 166.381 25.5605C166.026 24.8584 165.201 24.5454 164.538 24.8614C163.875 25.1774 163.626 26.0028 163.981 26.7049C164.336 27.407 165.162 27.72 165.824 27.404Z" fill="#20386C"/>
<path id="Vector (Stroke)_2" fill-rule="evenodd" clip-rule="evenodd" d="M165.132 26.0365C165.082 26.0603 165.063 26.1226 165.09 26.1756C165.117 26.2286 165.179 26.2522 165.229 26.2284C165.279 26.2045 165.298 26.1422 165.271 26.0892C165.244 26.0362 165.182 26.0126 165.132 26.0365ZM162.871 27.2335C162.187 25.8824 162.667 24.2942 163.943 23.6861C165.218 23.078 166.807 23.6803 167.49 25.0314C168.174 26.3825 167.694 27.9707 166.418 28.5788C165.142 29.1869 163.554 28.5845 162.871 27.2335Z" fill="#20386C"/>
<path id="Vector_8" d="M148.631 78.1256C149.294 77.8096 149.543 76.9843 149.188 76.2822C148.833 75.5801 148.008 75.2671 147.345 75.5831C146.682 75.8991 146.432 76.7244 146.788 77.4265C147.143 78.1286 147.968 78.4416 148.631 78.1256Z" fill="#20386C"/>
<path id="Vector (Stroke)_3" fill-rule="evenodd" clip-rule="evenodd" d="M147.938 76.7591C147.888 76.783 147.87 76.8453 147.896 76.8983C147.923 76.9513 147.985 76.9749 148.036 76.951C148.086 76.9272 148.104 76.8649 148.078 76.8119C148.051 76.7589 147.988 76.7353 147.938 76.7591ZM145.677 77.9561C144.994 76.605 145.474 75.0168 146.749 74.4087C148.025 73.8006 149.613 74.403 150.297 75.754C150.98 77.1051 150.5 78.6933 149.225 79.3014C147.949 79.9095 146.361 79.3072 145.677 77.9561Z" fill="#20386C"/>
</g>
<g id="Group_2">
<path id="Vector_9" d="M131.844 44.2291C132.507 43.9131 132.756 43.0878 132.401 42.3857C132.046 41.6836 131.22 41.3706 130.558 41.6866C129.895 42.0026 129.645 42.8279 130.001 43.53C130.356 44.2321 131.181 44.5451 131.844 44.2291Z" fill="#20386C"/>
<path id="Vector (Stroke)_4" fill-rule="evenodd" clip-rule="evenodd" d="M131.151 42.8626C131.101 42.8865 131.082 42.9488 131.109 43.0017C131.136 43.0547 131.198 43.0784 131.248 43.0545C131.298 43.0307 131.317 42.9684 131.29 42.9154C131.264 42.8624 131.201 42.8388 131.151 42.8626ZM128.89 44.0596C128.207 42.7085 128.686 41.1203 129.962 40.5122C131.238 39.9041 132.826 40.5064 133.51 41.8575C134.193 43.2086 133.713 44.7968 132.438 45.4049C131.162 46.013 129.574 45.4107 128.89 44.0596Z" fill="#20386C"/>
<path id="Vector_10" d="M182.565 61.4244C183.227 61.1084 183.477 60.2831 183.122 59.581C182.766 58.8789 181.941 58.5659 181.278 58.8819C180.615 59.1979 180.366 60.0233 180.721 60.7254C181.076 61.4274 181.902 61.7404 182.565 61.4244Z" fill="#20386C"/>
<path id="Vector (Stroke)_5" fill-rule="evenodd" clip-rule="evenodd" d="M181.874 60.0571C181.824 60.0809 181.805 60.1432 181.832 60.1962C181.859 60.2492 181.921 60.2728 181.971 60.249C182.021 60.2251 182.04 60.1628 182.013 60.1098C181.986 60.0568 181.924 60.0332 181.874 60.0571ZM179.613 61.2542C178.929 59.903 179.409 58.3146 180.685 57.7065C181.96 57.0983 183.549 57.7007 184.232 59.0519C184.916 60.4031 184.436 61.9914 183.16 62.5996C181.885 63.2077 180.296 62.6054 179.613 61.2542Z" fill="#20386C"/>
</g>
</g>
</g>
</g>
<path id="Vector_11" d="M34.088 102.028L40.8104 100.001C41.2973 99.8601 41.2973 99.1533 40.8104 99.0119L34.088 96.9858C33.9152 96.9387 33.7896 96.813 33.7425 96.6403L31.7163 89.9335C31.5749 89.4466 30.8682 89.4466 30.7268 89.9335L28.7006 96.6403C28.6535 96.813 28.5279 96.9387 28.3551 96.9858L21.6484 99.0119C21.1615 99.1533 21.1615 99.8601 21.6484 100.001L28.3708 102.028C28.5436 102.075 28.6692 102.2 28.7163 102.373L30.7425 109.096C30.8839 109.582 31.5907 109.582 31.732 109.096L33.7582 102.373C33.7896 102.2 33.9152 102.075 34.088 102.028Z" fill="#20386C"/>
<path id="Vector_12" d="M248.47 23.3405L255.344 24.7662C255.84 24.8742 256.177 24.253 255.816 23.8965L250.874 18.9092C250.745 18.7854 250.695 18.615 250.736 18.4407L252.154 11.5797C252.262 11.0843 251.641 10.7472 251.284 11.1077L246.304 16.0358C246.18 16.1652 246.01 16.2157 245.836 16.1747L238.975 14.7565C238.479 14.6485 238.142 15.2697 238.503 15.6262L243.445 20.6135C243.574 20.7373 243.625 20.9077 243.584 21.082L242.158 27.9569C242.05 28.4522 242.671 28.7894 243.028 28.4289L248.015 23.4869C248.125 23.35 248.295 23.2995 248.47 23.3405Z" fill="#20386C"/>
<path id="Vector_13" d="M244.244 193.412L249.497 188.753C249.88 188.42 249.583 187.779 249.082 187.854L242.13 188.835C241.953 188.865 241.786 188.804 241.671 188.666L237.019 183.429C236.686 183.046 236.044 183.342 236.12 183.844L237.094 190.781C237.124 190.958 237.063 191.125 236.925 191.24L231.687 195.893C231.305 196.225 231.601 196.867 232.102 196.791L239.055 195.81C239.231 195.78 239.398 195.842 239.513 195.979L244.172 201.231C244.505 201.614 245.146 201.317 245.07 200.816L244.09 193.864C244.046 193.694 244.107 193.527 244.244 193.412Z" fill="#959EB0"/>
<path id="Vector_14" d="M190.753 145.863L196.635 144.09C197.061 143.967 197.061 143.348 196.635 143.225L190.753 141.452C190.602 141.411 190.492 141.301 190.451 141.149L188.678 135.281C188.554 134.855 187.936 134.855 187.812 135.281L186.039 141.149C185.998 141.301 185.888 141.411 185.737 141.452L179.868 143.225C179.442 143.348 179.442 143.967 179.868 144.09L185.75 145.863C185.902 145.904 186.012 146.014 186.053 146.165L187.826 152.047C187.949 152.473 188.568 152.473 188.692 152.047L190.464 146.165C190.492 146.014 190.602 145.904 190.753 145.863Z" fill="#959EB0"/>
<path id="Vector_15" d="M77.88 228.394L83.7621 226.368C84.1881 226.226 84.1881 225.52 83.7621 225.378L77.88 223.352C77.7288 223.305 77.6189 223.179 77.5776 223.006L75.8047 216.3C75.6811 215.813 75.0626 215.813 74.9389 216.3L73.166 223.006C73.1248 223.179 73.0149 223.305 72.8637 223.352L66.9953 225.378C66.5693 225.52 66.5693 226.226 66.9953 226.368L72.8774 228.394C73.0286 228.441 73.1386 228.567 73.1798 228.739L74.9527 235.462C75.0764 235.949 75.6948 235.949 75.8185 235.462L77.5914 228.739C77.6189 228.567 77.7288 228.441 77.88 228.394Z" fill="#959EB0"/>
<path id="Vector_16" d="M68.1612 128.932L72.3627 127.666C72.667 127.577 72.667 127.136 72.3627 127.047L68.1612 125.781C68.0532 125.752 67.9747 125.673 67.9452 125.565L66.6789 121.374C66.5905 121.069 66.1488 121.069 66.0604 121.374L64.7941 125.565C64.7647 125.673 64.6861 125.752 64.5781 125.781L60.3864 127.047C60.0821 127.136 60.0821 127.577 60.3864 127.666L64.588 128.932C64.6959 128.961 64.7745 129.04 64.8039 129.148L66.0703 133.349C66.1586 133.653 66.6004 133.653 66.6887 133.349L67.9551 129.148C67.9747 129.04 68.0532 128.961 68.1612 128.932Z" fill="#959EB0"/>
<path id="Vector_17" d="M310.237 131.706L314.439 130.44C314.743 130.352 314.743 129.91 314.439 129.822L310.237 128.555C310.129 128.526 310.051 128.447 310.021 128.34L308.755 124.148C308.667 123.844 308.225 123.844 308.137 124.148L306.87 128.34C306.841 128.447 306.762 128.526 306.654 128.555L302.463 129.822C302.158 129.91 302.158 130.352 302.463 130.44L306.664 131.706C306.772 131.736 306.851 131.814 306.88 131.922L308.146 136.123C308.235 136.428 308.677 136.428 308.765 136.123L310.031 131.922C310.051 131.814 310.129 131.736 310.237 131.706Z" fill="#20386C"/>
<path id="Vector_18" d="M99.2178 70.3636L103.419 69.0973C103.724 69.009 103.724 68.5673 103.419 68.4789L99.2178 67.2127C99.1099 67.1832 99.0313 67.1047 99.0019 66.9967L97.7355 62.8054C97.6472 62.5011 97.2054 62.5011 97.1171 62.8054L95.8507 66.9967C95.8213 67.1047 95.7428 67.1832 95.6348 67.2127L91.4431 68.4789C91.1388 68.5673 91.1388 69.009 91.4431 69.0973L95.6446 70.3636C95.7526 70.393 95.8311 70.4715 95.8606 70.5795L97.1269 74.7807C97.2152 75.085 97.657 75.085 97.7453 74.7807L99.0117 70.5795C99.0313 70.4715 99.1099 70.393 99.2178 70.3636Z" fill="#959EB0"/>
<path id="Vector_19" d="M36.6475 211.452L40.849 210.186C41.1534 210.098 41.1534 209.656 40.849 209.568L36.6475 208.302C36.5395 208.272 36.461 208.194 36.4316 208.086L35.1652 203.894C35.0769 203.59 34.6351 203.59 34.5468 203.894L33.2804 208.086C33.251 208.194 33.1724 208.272 33.0645 208.302L28.8728 209.568C28.5685 209.656 28.5685 210.098 28.8728 210.186L33.0743 211.452C33.1823 211.482 33.2608 211.56 33.2902 211.668L34.5566 215.87C34.6449 216.174 35.0867 216.174 35.175 215.87L36.4414 211.668C36.461 211.56 36.5395 211.482 36.6475 211.452Z" fill="#20386C"/>
</g>
</g>
<g id="Group 47139">
<g id="path128_2_" filter="url(#filter1_d_14725_128844)">
<path d="M152.126 146.537L160.489 158.458C162.879 161.864 164.513 164.711 165.758 168.557C170.421 180.896 168.682 194.459 162.265 205.494C161.074 207.419 160.468 209.659 160.762 211.631C160.813 213.774 161.448 216.232 162.814 218.178C165.545 222.071 170.124 223.941 174.725 223.255C189.5 220.513 204.697 225.099 215.105 236.313C216.372 237.602 217.396 239.061 218.591 240.764L226.954 252.686C227.978 254.146 228.759 255.776 229.612 256.993L158.083 307.171C156.987 306.125 155.792 304.422 154.939 303.205L146.576 291.284C145.722 290.067 145.112 288.68 144.259 287.464C143.917 286.977 143.649 286.077 143.137 285.347C136.549 271.817 137.337 256.38 144.872 243.834C147.254 239.985 146.884 234.799 144.153 230.906C142.958 229.203 141.106 227.598 139.109 226.821C138.938 226.578 138.695 226.749 138.695 226.749C136.698 225.972 134.555 226.022 132.413 226.073C122.481 227.958 112.303 226.386 103.119 221.574C100.78 220.311 98.4419 219.047 96.4192 217.199C95.8346 216.883 95.3226 216.153 94.9812 215.666C92.7879 213.575 90.4239 211.24 88.5465 208.564L80.1834 196.642C80.0128 196.399 79.6714 195.912 79.3301 195.426L151.345 144.906C151.614 145.807 151.785 146.05 152.126 146.537Z" fill="#6579A3"/>
</g>
<path id="path126_2_" d="M192.44 260.926C192.44 260.926 166.705 284.787 164.977 284.911C163.833 285.35 153.709 289.548 147.26 292.257L145.553 289.824C144.7 288.607 143.846 287.391 143.065 285.761C143.381 285.176 143.527 284.348 143.672 283.52C146.973 273.218 157.231 257.309 178.852 258.115L192.44 260.926Z" fill="#20386C"/>
<path id="path130_2_" d="M146.627 196.137L118.212 218.248L103.535 221.647C101.196 220.383 98.8577 219.12 96.835 217.271C96.2504 216.955 95.7384 216.226 95.397 215.739C103.248 202.608 110.47 194.274 131.477 190.065C135.007 189.404 138.293 188.914 142.237 188.326C177.34 184.03 146.627 196.137 146.627 196.137Z" fill="#20386C"/>
<path id="path132_2_" d="M165.931 168.8C170.594 181.139 168.855 194.702 162.438 205.737C161.247 207.662 160.641 209.903 160.935 211.874L160.692 212.045C156.799 214.776 155.782 220.571 158.513 224.464L183.943 260.715L176.888 265.665L151.287 229.17C148.556 225.278 143.004 224.09 138.868 226.992C136.87 226.215 134.728 226.265 132.586 226.316C122.654 228.201 112.475 226.629 103.292 221.818C100.953 220.554 98.6146 219.29 96.592 217.442C118.256 213.135 125.548 200.759 131.162 190.65C132.984 187.556 134.564 184.633 136.314 181.953C143.243 171.647 153.465 168.106 165.931 168.8Z" fill="#485F90"/>
<path id="path134_2_" d="M218.351 240.935L226.714 252.856C227.738 254.316 228.519 255.946 229.372 257.163L165.629 301.879L153.918 301.745L146.408 291.04C145.555 289.824 144.702 288.607 144.092 287.22C143.75 286.733 143.482 285.833 142.969 285.103C143.213 284.932 143.383 285.176 143.627 285.005C144.041 285.078 144.284 284.907 144.527 284.736C168.236 279.721 174.576 265.472 180.578 254.364C181.526 252.61 182.717 250.685 183.836 249.174C191.178 238.941 201.814 235.473 214.694 236.239C215.889 237.942 217.156 239.231 218.351 240.935Z" fill="#485F90"/>
<path id="path136_2_" d="M157.974 146.066L78.1737 202.047C76.4706 203.242 73.9868 202.806 72.9628 201.347L67.5012 193.561C66.3065 191.858 66.9129 189.618 68.616 188.423L148.66 132.271C150.363 131.076 152.676 131.269 153.871 132.972L159.162 140.514C159.87 142.558 159.677 144.872 157.974 146.066Z" fill="url(#paint0_linear_14725_128844)"/>
<path id="path138_2_" d="M238.528 260.903L158.728 316.884C157.025 318.079 154.711 317.886 153.517 316.183L148.226 308.641C147.031 306.938 147.638 304.698 149.341 303.503L229.385 247.351C231.088 246.156 233.401 246.349 234.595 248.052L239.886 255.594C240.594 257.639 240.231 259.708 238.528 260.903Z" fill="url(#paint1_linear_14725_128844)"/>
</g>
<g id="Group 47140">
<g id="path128_2__2" filter="url(#filter2_d_14725_128844)">
<path d="M286.005 90.5954L282.359 97.3755C281.318 99.3126 280.361 100.76 278.84 102.261C274.119 107.393 267.3 109.791 260.564 109.38C259.372 109.274 258.17 109.52 257.309 110.127C256.309 110.659 255.298 111.543 254.703 112.65C253.513 114.864 253.716 117.471 255.133 119.481C259.935 125.809 261.377 134.076 258.551 141.653C258.243 142.558 257.796 143.388 257.275 144.357L253.63 151.137C253.183 151.967 252.598 152.723 252.226 153.415L211.546 131.54C211.78 130.774 212.3 129.806 212.672 129.114L216.318 122.334C216.69 121.642 217.201 121.024 217.573 120.333C217.721 120.056 218.083 119.715 218.306 119.3C223.133 112.977 230.612 109.685 238.326 110.265C240.71 110.477 243.071 109.071 244.262 106.857C244.782 105.888 245.101 104.633 244.994 103.505C245.068 103.366 244.93 103.292 244.93 103.292C244.823 102.164 244.29 101.164 243.758 100.164C240.51 95.9207 238.836 90.7398 238.929 85.26C238.971 83.8554 239.012 82.4508 239.405 81.0567C239.416 80.7056 239.639 80.2905 239.788 80.0137C240.255 78.4812 240.797 76.8104 241.615 75.2883L245.261 68.5082C245.335 68.3699 245.484 68.0931 245.633 67.8164L286.59 89.8396C286.228 90.1803 286.154 90.3187 286.005 90.5954Z" fill="#6579A3"/>
</g>
<path id="path126_2__2" d="M241.545 136.79C241.545 136.79 224.165 130.299 223.697 129.512C223.218 129.076 218.832 125.291 216.021 122.887L216.765 121.504C217.137 120.812 217.509 120.12 218.094 119.364C218.445 119.375 218.871 119.247 219.296 119.119C224.946 118.232 234.895 119.301 239.647 129.705L241.545 136.79Z" fill="#20386C"/>
<path id="path130_2__2" d="M261.273 99.7709L244.084 91.5984L238.994 85.4724C239.036 84.0679 239.078 82.6633 239.47 81.2692C239.481 80.9181 239.704 80.503 239.853 80.2262C247.919 80.8174 253.57 82.2506 260.544 91.1738C261.694 92.6841 262.706 94.12 263.92 95.843C274.282 111.404 261.273 99.7709 261.273 99.7709Z" fill="#20386C"/>
<path id="path132_2__2" d="M278.767 102.4C274.045 107.531 267.226 109.929 260.491 109.518C259.299 109.412 258.097 109.658 257.235 110.265L257.097 110.19C254.883 109 251.904 109.895 250.714 112.109L239.628 132.726L235.615 130.569L246.775 109.813C247.966 107.599 247.209 104.695 244.856 103.43C244.749 102.302 244.217 101.302 243.684 100.302C240.436 96.0588 238.763 90.8779 238.855 85.398C238.897 83.9935 238.939 82.5889 239.332 81.1948C246.509 90.4052 254.085 90.9116 260.193 91.1634C262.087 91.29 263.842 91.3422 265.524 91.5327C272.036 92.3589 276.135 96.3467 278.767 102.4Z" fill="#485F90"/>
<path id="path134_2__2" d="M257.137 144.283L253.491 151.063C253.044 151.893 252.46 152.649 252.088 153.341L215.835 133.847L213.118 128.284L216.392 122.195C216.764 121.504 217.136 120.812 217.647 120.194C217.795 119.918 218.157 119.577 218.38 119.162C218.519 119.236 218.444 119.375 218.583 119.449C218.646 119.662 218.785 119.736 218.923 119.811C226.92 129.819 235.155 129.431 241.827 129.629C242.881 129.66 244.072 129.766 245.051 129.936C251.628 130.975 255.791 135.175 258.486 141.441C257.965 142.409 257.657 143.314 257.137 144.283Z" fill="#485F90"/>
<path id="path136_2__2" d="M287.613 93.244L242.228 68.8399C241.259 68.3191 240.876 67.0425 241.322 66.2122L243.703 61.7844C244.224 60.8159 245.426 60.5704 246.394 61.0913L291.918 85.5697C292.886 86.0906 293.345 87.2288 292.824 88.1974L290.517 92.4868C289.72 93.3066 288.581 93.7648 287.613 93.244Z" fill="url(#paint2_linear_14725_128844)"/>
<path id="path138_2__2" d="M252.496 158.554L207.111 134.15C206.142 133.629 205.684 132.491 206.205 131.522L208.511 127.233C209.032 126.264 210.235 126.019 211.203 126.54L256.726 151.018C257.695 151.539 258.153 152.677 257.632 153.646L255.326 157.935C254.528 158.755 253.464 159.075 252.496 158.554Z" fill="url(#paint3_linear_14725_128844)"/>
</g>
</g>
</g>
</g>
<defs>
<filter id="filter0_d_14725_128844" x="93.5762" y="-0.12793" width="125.287" height="125.286" filterUnits="userSpaceOnUse" color-interpolation-filters="sRGB">
<feFlood flood-opacity="0" result="BackgroundImageFix"/>
<feColorMatrix in="SourceAlpha" type="matrix" values="0 0 0 0 0 0 0 0 0 0 0 0 0 0 0 0 0 0 127 0" result="hardAlpha"/>
<feOffset dy="11"/>
<feGaussianBlur stdDeviation="11"/>
<feColorMatrix type="matrix" values="0 0 0 0 0 0 0 0 0 0 0 0 0 0 0 0 0 0 0.27 0"/>
<feBlend mode="normal" in2="BackgroundImageFix" result="effect1_dropShadow_14725_128844"/>
<feBlend mode="normal" in="SourceGraphic" in2="effect1_dropShadow_14725_128844" result="shape"/>
</filter>
<filter id="filter1_d_14725_128844" x="57.3301" y="133.906" width="194.281" height="206.265" filterUnits="userSpaceOnUse" color-interpolation-filters="sRGB">
<feFlood flood-opacity="0" result="BackgroundImageFix"/>
<feColorMatrix in="SourceAlpha" type="matrix" values="0 0 0 0 0 0 0 0 0 0 0 0 0 0 0 0 0 0 127 0" result="hardAlpha"/>
<feOffset dy="11"/>
<feGaussianBlur stdDeviation="11"/>
<feColorMatrix type="matrix" values="0 0 0 0 0 0 0 0 0 0 0 0 0 0 0 0 0 0 0.27 0"/>
<feBlend mode="normal" in2="BackgroundImageFix" result="effect1_dropShadow_14725_128844"/>
<feBlend mode="normal" in="SourceGraphic" in2="effect1_dropShadow_14725_128844" result="shape"/>
</filter>
<filter id="filter2_d_14725_128844" x="189.547" y="56.8164" width="119.043" height="129.599" filterUnits="userSpaceOnUse" color-interpolation-filters="sRGB">
<feFlood flood-opacity="0" result="BackgroundImageFix"/>
<feColorMatrix in="SourceAlpha" type="matrix" values="0 0 0 0 0 0 0 0 0 0 0 0 0 0 0 0 0 0 127 0" result="hardAlpha"/>
<feOffset dy="11"/>
<feGaussianBlur stdDeviation="11"/>
<feColorMatrix type="matrix" values="0 0 0 0 0 0 0 0 0 0 0 0 0 0 0 0 0 0 0.27 0"/>
<feBlend mode="normal" in2="BackgroundImageFix" result="effect1_dropShadow_14725_128844"/>
<feBlend mode="normal" in="SourceGraphic" in2="effect1_dropShadow_14725_128844" result="shape"/>
</filter>
<linearGradient id="paint0_linear_14725_128844" x1="70.1935" y1="197.483" x2="156.618" y2="136.855" gradientUnits="userSpaceOnUse">
<stop stop-color="#4D6394"/>
<stop offset="1" stop-color="#253E73"/>
</linearGradient>
<linearGradient id="paint1_linear_14725_128844" x1="150.833" y1="312.441" x2="237.258" y2="251.813" gradientUnits="userSpaceOnUse">
<stop stop-color="#4D6394"/>
<stop offset="1" stop-color="#253E73"/>
</linearGradient>
<linearGradient id="paint2_linear_14725_128844" x1="242.489" y1="63.9871" x2="291.642" y2="90.4169" gradientUnits="userSpaceOnUse">
<stop stop-color="#4D6394"/>
<stop offset="1" stop-color="#253E73"/>
</linearGradient>
<linearGradient id="paint3_linear_14725_128844" x1="207.335" y1="129.366" x2="256.488" y2="155.796" gradientUnits="userSpaceOnUse">
<stop stop-color="#4D6394"/>
<stop offset="1" stop-color="#253E73"/>
</linearGradient>
<clipPath id="clip0_14725_128844">
<rect width="320" height="320" fill="white"/>
</clipPath>
</defs>
</svg>
