<svg width="24" height="24" viewBox="0 0 24 24" fill="currentColor" xmlns="http://www.w3.org/2000/svg">
<g id="device_settings_suggest">
<g id="device_Group">
<path id="Vector" d="M17.4101 6.59L15.0001 5.5L17.4101 4.41L18.5001 2L19.5901 4.41L22.0001 5.5L19.5901 6.59L18.5001 9L17.4101 6.59ZM21.2801 12.72L20.5001 11L19.7201 12.72L18.0001 13.5L19.7201 14.28L20.5001 16L21.2801 14.28L23.0001 13.5L21.2801 12.72ZM16.2401 14.37L18.1801 15.84L15.6801 20.17L13.4401 19.23C13.2401 19.36 13.0201 19.49 12.8001 19.6L12.5001 22H7.50007L7.20007 19.59C6.98007 19.48 6.77007 19.36 6.56007 19.22L4.32007 20.16L1.82007 15.83L3.76007 14.36C3.75007 14.25 3.75007 14.12 3.75007 14C3.75007 13.88 3.75007 13.75 3.76007 13.63L1.82007 12.16L4.32007 7.83L6.56007 8.77C6.76007 8.64 6.98007 8.51 7.20007 8.4L7.50007 6H12.5001L12.8001 8.41C13.0201 8.52 13.2301 8.64 13.4401 8.78L15.6801 7.84L18.1801 12.17L16.2401 13.64C16.2501 13.76 16.2501 13.88 16.2501 14.01C16.2501 14.14 16.2501 14.25 16.2401 14.37ZM13.0001 14C13.0001 12.34 11.6601 11 10.0001 11C8.34007 11 7.00007 12.34 7.00007 14C7.00007 15.66 8.34007 17 10.0001 17C11.6601 17 13.0001 15.66 13.0001 14Z" />
</g>
</g>
</svg>
