<svg width="24" height="24" viewBox="0 0 24 24" fill="currentColor" xmlns="http://www.w3.org/2000/svg">
<g id="device_usb_off">
<path id="Vector" d="M14.9999 8H18.9999V12H17.9999V14C17.9999 14.34 17.9199 14.66 17.7699 14.94L15.9999 13.17V12H14.9999V8ZM10.9999 8.17L12.9999 10.17V6H14.9999L11.9999 2L8.99989 6H10.9999V8.17ZM12.9999 16V18.28C13.5999 18.62 13.9999 19.26 13.9999 20C13.9999 21.1 13.0999 22 11.9999 22C10.8999 22 9.99989 21.1 9.99989 20C9.99989 19.26 10.3999 18.63 10.9999 18.28V16H7.99989C6.88989 16 5.99989 15.11 5.99989 14V11.72C5.39989 11.38 4.99989 10.74 4.99989 10C4.99989 9.41 5.25989 8.87 5.67989 8.51L1.38989 4.22L2.79989 2.81L21.1799 21.19L19.7699 22.6L13.1699 16H12.9999ZM10.9999 14V13.83L8.48989 11.32C8.34989 11.48 8.17989 11.61 7.99989 11.72V14H10.9999Z" />
</g>
</svg>
