<svg width="195" height="24" viewBox="0 0 195 24" fill="none" xmlns="http://www.w3.org/2000/svg">
<g id="light_24px">
<g id="Group 5021">
<path id="Union" fill-rule="evenodd" clip-rule="evenodd" d="M53.6679 2.25V9.61951C54.3472 8.75008 55.4511 8.29466 56.8947 8.29466C59.9093 8.29466 61.9048 10.1991 61.9048 13.3871V21.0464H58.2959V14.0495C58.2959 12.4762 57.4467 11.5654 56.0456 11.5654C54.6444 11.5654 53.6679 12.559 53.6679 14.0909V21.0464H50.059V2.25H53.6679ZM32.5241 4.44404C32.5241 5.02366 32.3118 5.52048 31.8872 5.9345C31.0805 6.72113 29.6369 6.72113 28.8302 5.9345C27.4291 4.73385 28.5754 2.20834 30.3587 2.29115C31.5475 2.29115 32.5241 3.24339 32.5241 4.44404ZM32.1419 21.0047H28.533V8.54281H32.1419V21.0047ZM6.9207 21.75C8.83133 21.75 10.5721 21.0048 11.8459 19.7627L9.38329 17.3614C8.78887 17.9824 7.89725 18.3965 6.9207 18.3965C4.96762 18.3965 3.39666 16.8646 3.39666 14.9601C3.39666 13.0556 4.96762 11.4824 6.9207 11.4824C7.85479 11.4824 8.74641 11.8964 9.38329 12.5174L11.8034 10.1575C10.5297 8.95686 8.78887 8.21163 6.9207 8.21163C3.09946 8.21163 0 11.234 0 15.0015C0 18.7277 3.057 21.75 6.9207 21.75ZM19.4045 21.2957C21.4001 21.2957 23.0135 20.7161 24.2872 19.5154C25.561 18.2734 26.1979 16.7001 26.2403 14.7956C26.2403 12.8497 25.561 11.2765 24.2872 10.0758C23.0135 8.91657 21.4001 8.29554 19.4045 8.29554C17.409 8.29554 15.7531 8.87517 14.4794 10.0758C13.2056 11.2765 12.5687 12.8497 12.5687 14.7956C12.5687 16.7415 13.2056 18.3148 14.4794 19.5154C15.7956 20.6747 17.409 21.2957 19.4045 21.2957ZM17.1118 12.2701C17.7062 11.6491 18.4704 11.3179 19.4045 11.3179C20.3386 11.3179 21.1029 11.6077 21.6973 12.2701C22.2492 12.8497 22.5464 13.7192 22.5464 14.7956C22.5464 15.8721 22.2492 16.7001 21.6973 17.3211C21.1029 17.9007 20.3386 18.232 19.4045 18.232C18.4704 18.232 17.6637 17.9421 17.1118 17.3211C16.5598 16.7415 16.2626 15.8721 16.2626 14.7956C16.2626 13.7192 16.5598 12.8911 17.1118 12.2701ZM47.0878 21.0473V13.388C47.0878 10.2 45.0923 8.29554 42.1202 8.29554C40.5068 8.29554 39.3604 8.79236 38.6811 9.82741V8.54395H35.2419V21.0473H38.8509V14.0918C38.8509 12.5599 39.8274 11.5663 41.2286 11.5663C42.6297 11.5663 43.4789 12.4771 43.4789 14.0504V21.0473H47.0878ZM74.2158 8.50106V9.82592C73.4091 8.79087 72.1353 8.29405 70.3945 8.25265C68.5688 8.25265 67.0828 8.83227 65.9364 10.0329C64.79 11.2336 64.2381 12.8068 64.2381 14.7527C64.2381 16.6986 64.79 18.2719 65.9364 19.4725C67.0828 20.6318 68.5688 21.2528 70.3945 21.2528C72.0929 21.2528 73.494 20.6318 74.2158 19.7209V21.0044H77.6125V8.50106H74.2158ZM70.989 18.2305C69.1208 18.2305 67.8895 16.9884 67.8895 14.7941C67.8895 12.5998 69.1208 11.3164 70.989 11.3164C72.7722 11.3164 74.0035 12.5584 74.0035 14.5043V15.0425C74.0035 17.0298 72.8147 18.2305 70.989 18.2305ZM84.0672 12.9731L88.2281 8.54307H92.6013L87.761 13.8839L92.9409 21.0464H88.5677L85.2135 16.5336L84.0672 17.7343V21.0464H80.4582V2.25H84.0672V12.9731ZM99.9469 21.2957C101.942 21.2957 103.556 20.7161 104.83 19.5154C106.146 18.2734 106.783 16.7001 106.783 14.7956C106.783 12.8497 106.103 11.2765 104.83 10.0758C103.556 8.91657 101.942 8.29554 99.9469 8.29554C97.9514 8.29554 96.2955 8.87517 95.0217 10.0758C93.748 11.2765 93.1111 12.8497 93.1111 14.7956C93.1111 16.7415 93.748 18.3148 95.0217 19.5154C96.3379 20.6747 97.9514 21.2957 99.9469 21.2957ZM97.6542 12.2701C98.2486 11.6491 99.0128 11.3179 99.9469 11.3179C100.923 11.3179 101.688 11.6077 102.24 12.2701C102.792 12.8497 103.089 13.7192 103.089 14.7956C103.089 15.8721 102.792 16.7001 102.24 17.3211C101.645 17.9007 100.881 18.232 99.9469 18.232C99.0128 18.232 98.2061 17.9421 97.6542 17.3211C97.1022 16.7415 96.805 15.8721 96.805 14.7956C96.805 13.7192 97.1022 12.8911 97.6542 12.2701Z" fill="#F5F2EB"/>
<g id="Priv&#195;&#169;">
<path d="M132.238 20.4703L134.159 18.6292V4.69134L132.238 2.85025V2.33163H140.636C142.185 2.33163 143.488 2.56069 144.544 3.0188C145.608 3.46827 146.4 4.09925 146.919 4.91175C147.447 5.71561 147.711 6.6448 147.711 7.69932C147.711 8.88349 147.412 9.92937 146.815 10.837C146.218 11.7445 145.344 12.4533 144.193 12.9633C143.042 13.4733 141.671 13.7282 140.078 13.7282H139.066V12.4447H139.897C141.082 12.4447 142.03 12.0643 142.739 11.3037C143.449 10.5344 143.804 9.32864 143.804 7.68635C143.804 6.65776 143.644 5.84526 143.323 5.24885C143.003 4.65244 142.527 4.23323 141.896 3.99121C141.264 3.74054 140.45 3.61521 139.455 3.61521H137.768V18.6292L139.962 20.4703V20.9889H132.238V20.4703Z" fill="#F5F2EB"/>
<path d="M149.113 20.4573L150.891 19.0959V10.5906L149.294 9.07365V8.55504L153.785 7.60856L154.136 7.9327L153.993 9.87751H154.24C154.482 9.47126 154.828 9.09526 155.278 8.74952C155.728 8.39513 156.243 8.11421 156.823 7.90676C157.411 7.69932 158.013 7.59559 158.627 7.59559C159.06 7.59559 159.432 7.66042 159.743 7.79008L159.081 11.7445L158.666 11.7575C158.277 11.2562 157.922 10.8672 157.602 10.5906C157.281 10.314 156.914 10.1757 156.498 10.1757C156.092 10.1757 155.689 10.301 155.291 10.5517C154.893 10.8024 154.543 11.1049 154.24 11.4593V19.0959L156.096 20.4573V20.9889H149.113V20.4573Z" fill="#F5F2EB"/>
<path d="M164.416 5.4563C163.854 5.4563 163.391 5.28775 163.027 4.95065C162.664 4.6049 162.482 4.16408 162.482 3.62817C162.482 3.10091 162.664 2.66441 163.027 2.31867C163.399 1.97292 163.862 1.80005 164.416 1.80005C164.788 1.80005 165.122 1.88216 165.416 2.04639C165.71 2.20198 165.939 2.41807 166.104 2.69466C166.277 2.97126 166.363 3.28243 166.363 3.62817C166.363 4.16408 166.177 4.6049 165.805 4.95065C165.442 5.28775 164.979 5.4563 164.416 5.4563ZM161.106 20.4703L162.885 19.0959V10.5776L161.288 9.07365V8.55504L165.974 7.60856L166.402 7.99752L166.233 9.91641V19.0959L168.025 20.4703V20.9889H161.106V20.4703Z" fill="#F5F2EB"/>
<path d="M170.05 9.81268L168.713 8.45131V7.9327H175.138V8.45131L173.749 9.82565L176.28 16.7362L178.98 9.82565L177.617 8.45131V7.9327H181.68V8.45131L180.239 9.83861L175.696 20.9889H174.632L170.05 9.81268Z" fill="#F5F2EB"/>
<path d="M189.767 19.3941C190.26 19.3941 190.714 19.3034 191.13 19.1219C191.545 18.9317 191.904 18.7113 192.207 18.4606C192.518 18.2013 192.852 17.8858 193.206 17.5141L193.972 18.3439C193.245 19.2774 192.432 20.0035 191.532 20.5221C190.632 21.0407 189.555 21.3 188.3 21.3C187.071 21.3 185.989 21.0235 185.055 20.4703C184.12 19.9084 183.398 19.1305 182.887 18.1365C182.377 17.1425 182.121 16.0015 182.121 14.7136C182.121 13.322 182.398 12.0903 182.952 11.0185C183.506 9.93801 184.276 9.09958 185.262 8.50317C186.249 7.89812 187.37 7.59559 188.624 7.59559C189.793 7.59559 190.801 7.88083 191.649 8.45131C192.505 9.02179 193.159 9.79539 193.609 10.7721C194.059 11.7489 194.284 12.8423 194.284 14.0524H185.639C185.639 15.1242 185.808 16.062 186.145 16.8659C186.491 17.6697 186.972 18.2921 187.586 18.7329C188.209 19.1737 188.936 19.3941 189.767 19.3941ZM188.456 8.73655C187.504 8.73655 186.82 9.17738 186.405 10.059C185.989 10.932 185.743 11.9779 185.665 13.1967L190.87 12.9244C190.87 11.4636 190.662 10.4004 190.247 9.73489C189.84 9.06933 189.243 8.73655 188.456 8.73655ZM187.651 6.1305L189.598 2.04639H192.311L192.583 2.57797L188.521 6.1305H187.651Z" fill="#F5F2EB"/>
</g>
<path id="Line 7 (Stroke)" fill-rule="evenodd" clip-rule="evenodd" d="M118.738 24L118.738 0L120.238 6.55671e-08L120.238 24H118.738Z" fill="#576A84"/>
</g>
</g>
</svg>
