<svg width="127" height="38" viewBox="0 0 127 38" fill="currentColor" xmlns="http://www.w3.org/2000/svg">
  <path d="M8.01478 12.0053C6.22012 10.2104 4.46089 8.45423 2.5454 6.5383C2.5454 9.53838 2.5454 12.3279 2.5454 15.1652C1.65612 15.1652 0.861891 15.1652 0 15.1652C0 10.188 0 5.20327 0 0.0871539C1.37258 1.45504 2.69361 2.76766 4.0082 4.08328C5.33567 5.41234 6.65992 6.74438 8.01156 8.10181C10.6794 5.42876 13.2908 2.81246 16.0167 0.0811806C16.0167 5.20327 16.0167 10.1596 16.0167 15.1652C15.1773 15.1652 14.3622 15.1652 13.4681 15.1652C13.4681 12.3384 13.4681 9.54286 13.4681 6.54577C11.5719 8.44676 9.8175 10.2014 8.01478 12.0053ZM77.219 37.7099C79.4905 37.5949 81.4028 36.6914 82.7126 34.8875C83.924 33.2165 84.1657 31.3364 84.003 29.3906C83.7178 25.9754 81.2723 23.4979 77.6008 23.1739C75.2326 22.9648 72.8322 23.0783 70.4463 23.0514C70.4028 23.0514 70.3593 23.1052 70.29 23.15C70.29 27.9824 70.29 32.8282 70.29 37.7368C72.6695 37.7353 74.9507 37.8249 77.219 37.7099ZM72.953 25.2451C74.7364 25.3332 76.523 24.9972 78.2694 25.5423C79.7628 26.0097 80.665 27.0252 81.0854 28.3856C81.4656 29.6176 81.4962 30.8824 81.1499 32.1383C80.578 34.2066 79.0604 35.4102 76.747 35.5326C75.5194 35.5983 74.2837 35.5446 72.953 35.5446C72.953 32.098 72.953 28.729 72.953 25.2451ZM47.9598 10.0715C49.392 11.6201 50.8274 13.1642 52.2693 14.7053C52.4417 14.889 52.6527 15.1652 52.8605 15.1772C53.7723 15.2294 54.6906 15.1996 55.7732 15.1996C53.7868 13.079 51.9358 11.1049 50.0267 9.06649C51.5363 8.78426 52.6624 8.24815 53.2778 7.02512C54.7808 4.03251 53.1795 0.9264 49.6788 0.49931C47.3573 0.217073 44.9714 0.381338 42.6129 0.351472C42.5742 0.351472 42.5355 0.414191 42.5098 0.435098C42.5098 5.34066 42.5098 10.2343 42.5098 15.1518C43.4184 15.1518 44.2819 15.1518 45.2114 15.1518C45.2114 13.1313 45.2114 11.1751 45.2114 9.22926C46.9062 8.97839 46.9707 9.00377 47.9598 10.0715ZM45.2147 2.45556C46.6162 2.51977 48.0098 2.46751 49.3533 2.68105C50.6099 2.87966 51.1593 3.85331 51.0223 5.11666C50.9112 6.15601 50.0606 6.92806 48.8072 7.02064C47.9002 7.08635 46.9852 7.04603 46.0749 7.0535C45.8123 7.05499 45.5497 7.0535 45.2147 7.0535C45.2147 5.50044 45.2147 4.06536 45.2147 2.45556ZM115.646 31.0825C117.356 30.1238 117.607 28.5499 117.465 26.9117C117.303 25.0286 116.188 23.6249 114.179 23.3546C111.63 23.0126 109.024 23.0305 106.373 22.8902C106.373 27.96 106.373 32.8297 106.373 37.7338C107.243 37.7338 108.086 37.7338 109.022 37.7338C109.022 35.7372 109.022 33.7884 109.022 31.8919C110.301 31.5783 111.173 31.8949 111.949 32.8267C113.259 34.3962 114.71 35.8656 116.112 37.3694C116.262 37.5292 116.466 37.7472 116.655 37.7562C117.544 37.7965 118.438 37.7741 119.513 37.7741C117.547 35.682 115.722 33.7391 113.873 31.7695C114.522 31.5245 115.129 31.3737 115.646 31.0825ZM109.02 25.2765C110.343 25.2765 111.654 25.1824 112.942 25.3034C114.122 25.4139 114.806 26.2964 114.822 27.3866C114.839 28.5618 114.237 29.3995 112.993 29.5698C111.711 29.7445 110.398 29.7176 109.02 29.7818C109.02 28.1586 109.02 26.719 109.02 25.2765ZM24.5534 28.2004C28.2443 31.5081 31.7804 34.6755 35.4068 37.9264C35.4068 32.873 35.4068 27.9704 35.4068 23.0813C34.5417 23.0813 33.7491 23.0813 32.8566 23.0813C32.8566 26.1829 32.8566 29.2293 32.8566 32.4429C29.1851 29.2084 25.6602 26.1008 22.0161 22.8887C22.0161 27.948 22.0161 32.8297 22.0161 37.7397C22.857 37.7397 23.648 37.7397 24.5534 37.7397C24.5534 34.5903 24.5534 31.4827 24.5534 28.2004ZM62.1577 15.1652C63.0485 15.1652 63.8895 15.1652 64.8319 15.1652C64.8319 12.9491 64.8319 10.7823 64.8319 8.4393C65.2041 8.80665 65.4425 9.03065 65.6681 9.2651C67.4595 11.1153 69.2461 12.9685 71.0424 14.8143C71.1954 14.9726 71.4065 15.1831 71.5982 15.1906C72.6035 15.2279 73.6103 15.2085 74.8299 15.2085C72.2587 12.5355 69.8277 10.0073 67.3677 7.45072C69.76 5.08829 72.1121 2.76767 74.5866 0.323099C73.5427 0.323099 72.7114 0.276806 71.8914 0.344005C71.516 0.373871 71.0649 0.541123 70.812 0.789015C68.9481 2.60937 67.126 4.46856 65.2862 6.31132C65.1783 6.42033 65.0349 6.49947 64.7852 6.68315C64.7852 4.48349 64.7852 2.43017 64.7852 0.351472C63.8831 0.351472 63.0582 0.351472 62.1593 0.351472C62.1577 5.32274 62.1577 10.2328 62.1577 15.1652ZM99.7587 35.5341C97.4372 35.5341 95.1689 35.5341 92.8861 35.5341C92.8861 33.9811 92.8861 32.5012 92.8861 30.9481C94.9675 30.9481 96.9958 30.9481 99.0627 30.9481C99.0627 30.2149 99.0627 29.5578 99.0627 28.8172C96.9926 28.8172 94.9675 28.8172 92.8925 28.8172C92.8925 27.5867 92.8925 26.4398 92.8925 25.2183C95.2221 25.2183 97.4888 25.2183 99.7619 25.2183C99.7619 24.4582 99.7619 23.7742 99.7619 23.0679C96.5592 23.0679 93.4065 23.0679 90.215 23.0679C90.215 27.9734 90.215 32.8372 90.215 37.7427C93.4145 37.7427 96.5656 37.7427 99.7587 37.7427C99.7587 36.9782 99.7587 36.2927 99.7587 35.5341ZM81.601 15.1981C84.8536 15.1981 88.0353 15.1981 91.2123 15.1981C91.2123 14.4469 91.2123 13.7421 91.2123 12.976C88.8521 12.976 86.5548 12.976 84.235 12.976C84.235 11.408 84.235 9.90574 84.235 8.31386C86.3615 8.31386 88.4381 8.31386 90.5195 8.31386C90.5195 7.54181 90.5195 6.85936 90.5195 6.09926C88.3898 6.09926 86.31 6.09926 84.2462 6.09926C84.2462 4.86429 84.2462 3.71144 84.2462 2.49439C86.608 2.49439 88.9069 2.49439 91.2348 2.49439C91.2348 1.74474 91.2348 1.0608 91.2348 0.333552C88.016 0.333552 84.8375 0.333552 81.6026 0.333552C81.601 5.33319 81.601 10.2656 81.601 15.1981ZM115.287 13.5435C115.244 14.0512 115.477 14.2991 115.938 14.5111C118.094 15.5042 120.349 15.7133 122.664 15.1981C124.713 14.7426 125.957 13.4389 126.199 11.6664C126.445 9.84899 125.506 8.26757 123.598 7.34768C123.102 7.10726 122.571 6.92656 122.047 6.7384C121.05 6.37851 120.028 6.0679 119.051 5.66919C118.108 5.28391 117.767 4.69106 117.85 3.84435C117.92 3.14547 118.438 2.62132 119.365 2.39732C120.768 2.05834 122.136 2.22559 123.442 2.77214C124.067 3.03348 124.655 3.37395 125.374 3.73683C125.374 2.9394 125.401 2.20319 125.353 1.47146C125.342 1.31018 125.098 1.11008 124.911 1.016C122.696 -0.0756181 120.384 -0.336949 118.008 0.473924C116.402 1.02197 115.356 2.06879 115.221 3.71144C115.089 5.31079 115.629 6.66374 117.177 7.52688C117.77 7.8569 118.411 8.11674 119.051 8.36762C120.207 8.82009 121.395 9.20537 122.537 9.68622C123.334 10.0207 123.598 10.6838 123.531 11.4812C123.466 12.2532 122.975 12.752 122.25 12.9476C121.544 13.1373 120.779 13.2209 120.043 13.212C118.329 13.191 116.824 12.5609 115.303 11.532C115.3 12.3115 115.34 12.9312 115.287 13.5435ZM21.6262 15.1697C22.0177 15.1697 22.2835 15.1383 22.5381 15.1757C23.8381 15.3638 24.7774 15.0532 25.048 13.7182C25.1334 13.2986 25.462 13.2179 25.8922 13.2224C27.7175 13.2403 29.5492 13.312 31.3664 13.2015C32.5537 13.1298 33.2239 13.4479 33.509 14.5246C33.5735 14.7665 33.8586 15.1159 34.0729 15.1353C34.8526 15.2085 35.6452 15.1652 36.5474 15.1652C34.0487 10.0894 31.6161 5.1525 29.09 0.0244344C26.564 5.15101 24.1233 10.1014 21.6262 15.1697ZM26.3175 11.0466C27.2293 9.12772 28.1122 7.26704 29.0755 5.23911C30.0357 7.25509 30.9137 9.10084 31.84 11.0466C29.96 11.0466 28.1943 11.0466 26.3175 11.0466ZM42.4244 36.1434C42.3922 36.6138 42.5968 36.8602 43.0366 37.0618C45.1422 38.0295 47.3476 38.234 49.6063 37.7427C51.5943 37.3112 52.925 35.9866 53.0909 34.4515C53.3245 32.2846 52.4739 30.8361 50.4037 29.9118C49.9961 29.7296 49.5628 29.5922 49.1407 29.4399C48.0694 29.0531 46.9835 28.6992 45.9299 28.2751C45.2002 27.9809 44.8361 27.4 44.8908 26.6548C44.9456 25.9007 45.4193 25.3721 46.1893 25.2227C46.961 25.0719 47.8116 24.9032 48.5511 25.057C49.8238 25.3228 51.0368 25.8335 52.2999 26.2486C52.2999 25.7588 52.2741 25.1436 52.3096 24.5313C52.3321 24.1296 52.1839 23.9116 51.7972 23.7219C49.8044 22.7498 47.6988 22.5437 45.5642 23.0843C42.658 23.819 41.4256 26.4756 42.8142 28.8276C43.5344 30.0477 44.8183 30.5643 46.1265 31.0407C47.2703 31.4573 48.4335 31.8381 49.5467 32.316C50.3344 32.6535 50.6164 33.3255 50.5165 34.1214C50.4214 34.8771 49.9204 35.3624 49.1777 35.5416C48.4898 35.7073 47.7568 35.7969 47.0464 35.782C45.3903 35.7477 43.9258 35.1503 42.4324 34.1528C42.434 34.9174 42.4663 35.5326 42.4244 36.1434ZM105.268 2.53471C107.081 2.53471 108.808 2.53471 110.544 2.53471C110.544 1.76565 110.544 1.08171 110.544 0.373871C106.088 0.373871 101.679 0.373871 97.2648 0.373871C97.2648 1.11157 97.2648 1.79701 97.2648 2.56756C99.0369 2.56756 100.766 2.56756 102.573 2.56756C102.573 6.81904 102.573 10.9839 102.573 15.1816C103.479 15.1816 104.302 15.1816 105.268 15.1816C105.268 10.9466 105.268 6.78171 105.268 2.53471ZM13.6904 23.0813C12.7769 23.0813 11.9328 23.0813 11.1015 23.0813C11.1015 27.9988 11.1015 32.8566 11.1015 37.7502C11.973 37.7502 12.7947 37.7502 13.6904 37.7502C13.6904 32.8073 13.6904 27.9331 13.6904 23.0813ZM61.8661 23.0813C60.9542 23.0813 60.1101 23.0813 59.2707 23.0813C59.2707 27.9973 59.2707 32.8551 59.2707 37.7487C60.1439 37.7487 60.9671 37.7487 61.8661 37.7487C61.8661 32.8193 61.8661 27.9436 61.8661 23.0813Z" />
</svg>
