<svg width="132" height="32" viewBox="0 0 132 32" fill="currentColor" xmlns="http://www.w3.org/2000/svg">
  <path fill-rule="evenodd" clip-rule="evenodd"
        d="M34.404 24.2473L41.1097 30.862L41.0837 30.9064C40.8466 30.862 40.6096 30.8176 40.3726 30.7686C37.2121 30.1192 34.0453 29.4684 30.8721 28.8159C29.7043 28.5746 28.5349 28.3293 27.364 28.0802C27.2251 28.0455 27.078 28.0656 26.9539 28.1362C26.1964 28.5339 25.4142 28.8842 24.612 29.185C23.6136 29.5578 22.5649 29.7837 21.4997 29.8553C21.2635 29.8688 21.0274 29.8775 20.7874 29.8863L20.7873 29.8863H20.7873H20.7872H20.7872L20.7868 29.8864L20.7865 29.8864C20.6534 29.8913 20.5193 29.8962 20.3833 29.902C19.9076 28.5544 19.4979 27.1894 19.0873 25.8216L19.0873 25.8216L19.0873 25.8215L19.0873 25.8215L19.0873 25.8215L19.0872 25.8214L19.0872 25.8214L19.0872 25.8213L19.0872 25.8213L19.0872 25.8213L19.0872 25.8212L19.0872 25.8212L19.0872 25.8211L19.0872 25.8211L19.0871 25.8211L19.0871 25.821L19.0871 25.821L19.0871 25.8209L19.0871 25.8209L19.0871 25.8209L19.0871 25.8208L19.0871 25.8208L19.0871 25.8207L19.087 25.8207C18.7591 24.728 18.4305 23.6335 18.0674 22.5445L18.3044 22.6123C18.9893 22.8353 19.6741 23.0578 20.3588 23.2802C21.9538 23.7982 23.5477 24.3159 25.1382 24.8405C29.2168 26.1859 33.2946 27.5359 37.3717 28.8907C37.447 28.9199 37.5279 28.9326 37.6087 28.928C37.5949 28.9153 37.5818 28.9019 37.5687 28.8886L37.5686 28.8886L37.5686 28.8886C37.5457 28.8653 37.5229 28.8422 37.4973 28.8229C35.3166 27.258 33.1366 25.6931 30.9575 24.1281C30.0248 23.4556 29.0949 22.7796 28.1658 22.1043L28.1655 22.1041L28.1649 22.1037C27.3778 21.5315 26.5913 20.9598 25.8043 20.391C25.7118 20.3256 25.6218 20.2555 25.5056 20.1574L25.7735 19.9893C27.0165 19.2274 28.0509 18.1768 28.7862 16.9295C29.5096 15.7345 29.8299 14.3444 29.7012 12.9588C29.5332 10.8746 28.5834 8.92691 27.0369 7.49555C26.0459 6.57538 24.8149 5.94463 23.4813 5.67369C22.3658 5.43272 21.2184 5.36807 20.0822 5.48216C18.9731 5.61089 17.8766 5.82963 16.804 6.13616C14.4336 6.74189 12.0569 7.34372 9.67393 7.94167L6.82949 8.64238C6.79631 8.64238 6.76312 8.64238 6.68253 8.66807C6.71707 8.58659 6.75912 8.50841 6.80816 8.4345C7.4701 7.57327 8.20007 6.76493 8.99127 6.01704C10.7225 4.3913 12.8186 3.19094 15.1092 2.51348C16.0142 2.25209 16.9431 2.07919 17.8825 1.99728C18.788 1.91283 19.6991 1.90423 20.6061 1.97159C24.6808 2.26466 28.4803 4.10732 31.2016 7.11015C32.6774 8.74279 33.6768 10.7389 34.0935 12.8864C34.3366 14.1037 34.4447 15.3434 34.4158 16.5838C34.3988 17.7207 34.2477 18.8518 33.9655 19.9542C33.7371 20.888 33.3457 21.7756 32.8087 22.5772C32.7994 22.595 32.7923 22.6139 32.7874 22.6333C33.0564 22.9802 33.3858 23.2709 33.7204 23.5659C33.8723 23.6999 34.0253 23.8348 34.174 23.9763L34.2007 23.9372C34.2368 23.8844 34.2682 23.8385 34.2949 23.7895C34.8941 22.7187 35.3264 21.5652 35.5773 20.3676C35.8785 19.0054 35.9846 17.6083 35.8926 16.2171C35.7864 14.5767 35.4126 12.9638 34.7856 11.4406C33.9247 9.30088 32.6927 7.32503 31.1447 5.60128C29.6721 3.97855 27.8554 2.69474 25.8232 1.84079C24.3976 1.23682 22.8991 0.816055 21.3646 0.58885C19.9085 0.377978 18.4358 0.299791 16.9652 0.355279C16.898 0.355279 16.8323 0.361052 16.7647 0.366983C16.7108 0.371722 16.6557 0.376561 16.5978 0.378636C16.4734 0.383898 16.3488 0.377642 16.2256 0.35995C16.3138 0.343711 16.4017 0.326625 16.4894 0.309575C16.6539 0.277579 16.8179 0.245711 16.9818 0.219808C18.272 0.0148319 19.5815 -0.0470611 20.8858 0.0352864C22.6372 0.122978 24.3662 0.462926 26.0176 1.04431C27.8795 1.71329 29.5959 2.72378 31.076 4.02234C33.0334 5.71742 34.5977 7.8077 35.6626 10.1512C36.2199 11.3564 36.5853 12.639 36.7459 13.9538C37.0958 16.8784 36.6029 19.841 35.3237 22.5025C35.1576 22.8593 34.9694 23.2058 34.7811 23.5524L34.7811 23.5524L34.781 23.5525L34.781 23.5525L34.781 23.5525L34.781 23.5526L34.7809 23.5526L34.7809 23.5527L34.7809 23.5527L34.7809 23.5527L34.7808 23.5528L34.7808 23.5528L34.7808 23.5529L34.7808 23.5529L34.7808 23.5529L34.7807 23.553L34.7807 23.553L34.7807 23.5531L34.7807 23.5531L34.7806 23.5532L34.7806 23.5532L34.7806 23.5532L34.7806 23.5533L34.7806 23.5533C34.7003 23.701 34.62 23.8488 34.5415 23.9973C34.5061 24.0671 34.4666 24.1368 34.4152 24.2274L34.4151 24.2276L34.404 24.2473ZM6.22304 9.43181L6.8986 9.63268C7.09363 9.69349 7.28866 9.75515 7.48388 9.81688L7.48394 9.81689L7.484 9.81691L7.48406 9.81693L7.48411 9.81695L7.48417 9.81696L7.48423 9.81698L7.48428 9.817L7.48434 9.81701L7.4844 9.81703L7.48446 9.81705L7.48451 9.81707L7.48457 9.81708L7.48471 9.81713L7.48476 9.81714L7.48478 9.81715L7.4848 9.81715L7.48481 9.81716L7.48483 9.81717L7.48485 9.81717L7.48486 9.81718L7.48488 9.81718L7.4849 9.81719L7.48492 9.81719C7.85169 9.93316 8.21917 10.0493 8.58867 10.1605C8.63565 10.1747 8.67755 10.2018 8.70946 10.2386C8.74137 10.2755 8.76196 10.3205 8.76882 10.3684C9.08961 11.5083 9.41751 12.6457 9.75252 13.7809C10.6533 16.9123 11.5548 20.0453 12.4571 23.1798C13.0023 25.0764 13.5491 26.9738 14.0974 28.8719C14.1094 28.9142 14.119 28.9577 14.1305 29.0105L14.1305 29.0105L14.1448 29.0751L14.1031 29.0611C14.0592 29.0463 14.0297 29.0364 14.0002 29.0237C12.3295 28.2964 10.7672 27.3479 9.35667 26.2045C7.31175 24.5695 5.80267 22.3755 5.0189 19.8981C4.51789 18.3374 4.30906 16.6999 4.4026 15.0655C4.47615 13.4065 4.91707 11.7834 5.69445 10.31C5.80681 10.0987 5.93384 9.89573 6.06589 9.68479L6.06589 9.68478C6.1177 9.60202 6.17028 9.51803 6.22304 9.43181ZM131.566 22.9009C131.595 22.9166 131.624 22.9323 131.653 22.9486L131.662 22.94L131.653 22.9487L131.693 22.9697L131.667 22.9346C131.641 22.8857 131.611 22.8389 131.577 22.7945L131.516 22.7192C131.336 22.5003 131.154 22.2776 130.975 22.0681C129.692 20.4954 128.411 18.9219 127.131 17.3476C127.097 17.3083 127.068 17.2658 127.035 17.2181C127.019 17.1948 127.002 17.1704 126.984 17.1444L127.168 17.1187C127.432 17.0861 127.694 17.0401 127.953 16.9809C128.875 16.7132 129.677 16.1439 130.226 15.3668C130.776 14.5898 131.04 13.6514 130.975 12.7065C130.948 12.1167 130.755 11.5459 130.418 11.0579C130.08 10.57 129.612 10.1841 129.065 9.94339C128.823 9.83268 128.572 9.74129 128.316 9.67012C127.48 9.44384 126.617 9.33378 125.751 9.34312C124.663 9.34312 123.542 9.35713 122.482 9.38983C121.423 9.42253 120.363 9.4529 119.304 9.38983H119.157C119.235 9.47197 119.318 9.54994 119.405 9.6234C119.49 9.68013 119.568 9.72869 119.651 9.78011C119.722 9.82396 119.796 9.86988 119.88 9.92471L119.964 9.97941L120.063 10.0435L120.063 10.044L120.065 10.0449C120.184 10.1222 120.303 10.1988 120.42 10.2774C120.5 10.3308 120.564 10.4045 120.606 10.4909C120.647 10.5772 120.664 10.6729 120.655 10.7679C120.638 11.9959 120.638 13.2519 120.638 14.452V14.4537V18.0553C120.643 18.7268 120.663 19.3984 120.682 20.0699C120.689 20.3139 120.696 20.558 120.702 20.8021C120.703 20.8278 120.708 20.8535 120.713 20.8788C120.718 20.9062 120.723 20.933 120.723 20.9586H123.385V17.3009C123.475 17.3569 123.535 17.3943 123.592 17.434C124.535 18.0771 125.476 18.7218 126.415 19.368L131.357 22.7781C131.424 22.8245 131.495 22.8626 131.566 22.9009L131.566 22.9009ZM123.81 14.9698H123.395V11.7139C123.424 11.7083 123.453 11.7044 123.483 11.7022L125.73 11.6788C126.156 11.6602 126.583 11.69 127.003 11.7676C128.406 12.0852 128.493 13.5778 127.951 14.3112C127.684 14.644 127.298 14.8631 126.872 14.9231C126.475 14.9969 126.071 15.0267 125.668 15.0119C125.253 15.0041 124.839 14.9942 124.426 14.9843L124.426 14.9843L124.425 14.9843L124.425 14.9843L124.425 14.9843L124.425 14.9843L124.425 14.9843L124.425 14.9843L124.425 14.9843L124.425 14.9843L124.425 14.9843L124.424 14.9843L124.424 14.9843L124.424 14.9843L124.424 14.9843L124.424 14.9843L124.424 14.9843L124.424 14.9843L124.424 14.9843L124.424 14.9843L124.423 14.9843L124.423 14.9843L124.423 14.9842L124.423 14.9842L124.423 14.9842L124.422 14.9842L124.422 14.9842L124.422 14.9842C124.218 14.9793 124.014 14.9745 123.81 14.9698ZM58.2125 22.9844L58.2124 22.9843L58.2123 22.9843C58.1691 22.9607 58.1259 22.9372 58.0867 22.9089C55.4698 21.0917 52.8545 19.273 50.2408 17.4527L50.0203 17.3102C50.0056 17.4936 50.0075 17.6695 50.0094 17.8435C50.0109 17.9775 50.0123 18.1103 50.0061 18.2445C49.9966 18.4501 49.9998 18.6475 50.003 18.8441V18.8443C50.0045 18.9424 50.0061 19.0404 50.0061 19.1391V20.9446C49.0976 20.9973 48.1869 21.0028 47.2778 20.9609V20.7273V10.7959C47.2911 10.6953 47.275 10.5931 47.2313 10.5012C47.1876 10.4094 47.1182 10.3317 47.0313 10.2774C46.9099 10.1967 46.7867 10.1186 46.6634 10.0405L46.6633 10.0405L46.6633 10.0405L46.6633 10.0405L46.6632 10.0404L46.6632 10.0404L46.6632 10.0404L46.6631 10.0404L46.6631 10.0404L46.6631 10.0403L46.663 10.0403L46.663 10.0403L46.663 10.0403L46.6629 10.0402L46.6629 10.0402L46.6628 10.0402L46.6628 10.0402L46.6628 10.0401L46.6627 10.0401L46.6625 10.04C46.5863 9.99168 46.5099 9.94334 46.434 9.89432C46.3985 9.87099 46.3628 9.84779 46.3271 9.82457L46.3269 9.82441L46.3268 9.82437C46.2125 9.75001 46.0979 9.67539 45.986 9.59535C45.9177 9.53493 45.8543 9.46933 45.7963 9.39915H46.5075L48.5412 9.3828C48.9222 9.37905 49.3031 9.37313 49.6841 9.3672C50.4883 9.35469 51.2925 9.34218 52.0968 9.3501C53.0211 9.34781 53.9422 9.45764 54.8393 9.6771C55.2452 9.7769 55.6369 9.92597 56.0055 10.1209C56.3975 10.3212 56.7385 10.606 57.0032 10.9542C57.2679 11.3024 57.4495 11.705 57.5344 12.1319C57.6811 12.801 57.6721 13.4941 57.5083 14.1593C57.3006 14.9983 56.778 15.7286 56.0458 16.2031C55.4084 16.6161 54.6962 16.904 53.948 17.0509C53.88 17.0677 53.8109 17.0825 53.7329 17.0992L53.7328 17.0992C53.6913 17.1081 53.6473 17.1175 53.5996 17.128C53.6194 17.1565 53.6372 17.1836 53.6542 17.2095L53.6545 17.2098L53.6546 17.21L53.6547 17.2101L53.6547 17.2101C53.6863 17.2582 53.7151 17.302 53.7489 17.3429C54.5027 18.2772 55.258 19.2185 56.015 20.1668C56.4508 20.7079 56.892 21.2473 57.3331 21.7865C57.6117 22.1271 57.8902 22.4676 58.1673 22.8085C58.2126 22.8764 58.253 22.9474 58.2882 23.021L58.2858 23.0257C58.2725 23.0177 58.2589 23.01 58.2453 23.0024L58.2126 22.9845L58.2126 22.9844L58.2125 22.9844ZM50.0203 14.9768H50.2005H51.087C51.3156 14.9768 51.5441 14.982 51.7727 14.9871C52.0775 14.994 52.3822 15.0009 52.687 14.9955C53.1354 15.0045 53.581 14.9251 53.9978 14.7619C54.1824 14.6884 54.348 14.5752 54.4825 14.4305C54.6171 14.2858 54.7171 14.1134 54.7753 13.9258C54.9046 13.5226 54.8971 13.0888 54.754 12.6902C54.6747 12.4384 54.5065 12.223 54.2799 12.0829C54.1201 11.9867 53.95 11.9083 53.7726 11.8493C53.337 11.7205 52.8833 11.6606 52.4286 11.6718H50.1128C50.0846 11.6743 50.0568 11.6798 50.0298 11.6881L50.0203 14.9768ZM117.799 9.38981H108.554C108.551 9.46474 108.548 9.53832 108.545 9.61094L108.545 9.61222V9.61237V9.61252V9.61265V9.61277V9.61288V9.61297V9.61306V9.61314V9.61322V9.61328C108.535 9.82732 108.526 10.033 108.526 10.24C108.521 10.5591 108.516 10.8772 108.511 11.1948L108.511 11.1958C108.497 12.052 108.483 12.9036 108.483 13.7553C108.48 14.3095 108.485 14.8638 108.49 15.4177V15.4187V15.4197V15.4207V15.4217V15.4227V15.4237V15.4247V15.4257V15.4266V15.4276V15.4286V15.4296V15.4306V15.4316V15.4325V15.4335V15.4345V15.4355V15.4365V15.4375C108.493 15.8853 108.497 16.3329 108.497 16.78V20.7881C108.497 20.8194 108.501 20.8507 108.505 20.881V20.8811L108.505 20.8812L108.505 20.8819L108.505 20.8821C108.508 20.9103 108.511 20.9376 108.511 20.9633H117.846V18.7233H115.087C114.638 18.7223 114.187 18.7194 113.735 18.7165H113.734H113.734H113.734H113.733H113.733H113.733H113.732H113.732H113.732H113.731H113.731H113.731H113.73H113.73H113.729H113.729H113.729H113.728H113.728C113.155 18.7129 112.58 18.7093 112.005 18.7093C111.822 18.7077 111.641 18.6956 111.46 18.6836L111.46 18.6836C111.371 18.6777 111.283 18.6719 111.195 18.6673V16.2708H117.026C117.018 16.0023 117.022 15.7359 117.027 15.4707V15.4705V15.4703V15.47V15.4698V15.4696V15.4694V15.4691V15.4689V15.4687V15.4685V15.4682V15.468V15.4678V15.4675V15.4673V15.4671V15.4669V15.4666V15.4664V15.4662C117.036 14.9694 117.044 14.4764 116.969 13.9795C116.221 13.9642 115.476 13.9711 114.733 13.978C113.549 13.989 112.369 14 111.185 13.9211V11.6321C111.222 11.6302 111.26 11.6302 111.297 11.6321H113.072C113.358 11.633 113.643 11.6347 113.929 11.6364L113.93 11.6364C115.158 11.6438 116.387 11.6511 117.614 11.5924C117.641 11.5904 117.668 11.5862 117.695 11.5821C117.73 11.5767 117.765 11.5714 117.799 11.5714V9.38981ZM72.041 20.9655H69.2203C69.0373 20.5405 68.8553 20.116 68.6726 19.6895L68.6712 19.6862C68.4829 19.2468 68.2937 18.8052 68.1015 18.3589H67.8929H63.1522C63.0856 18.3502 63.018 18.3642 62.9606 18.3986C62.9033 18.4331 62.8596 18.4858 62.8369 18.5481C62.6796 18.8938 62.5222 19.2375 62.3649 19.5811L62.3634 19.5843L62.1258 20.1037C62.012 20.3583 61.903 20.6129 61.7963 20.8674C61.787 20.902 61.7659 20.9322 61.7365 20.9531C61.7071 20.974 61.6713 20.9842 61.6351 20.9819H59.0751C59.0429 20.9017 59.0788 20.8409 59.1102 20.7875L59.1157 20.7782L59.1246 20.7625C59.1272 20.7577 59.1297 20.753 59.132 20.7483C59.289 20.3923 59.4452 20.0361 59.6014 19.6799C59.9995 18.7719 60.3976 17.864 60.8079 16.9598C61.5601 15.3013 62.3187 13.6449 63.0773 11.9886L63.082 11.9782L63.0862 11.969C63.4624 11.1475 63.8386 10.326 64.2141 9.50422C64.2425 9.43882 64.2733 9.37575 64.3065 9.30802H66.8215C67.6402 11.221 68.5092 13.1176 69.3806 15.0192C70.2827 16.9881 71.1873 18.9623 72.041 20.9655ZM67.1103 16.0134L67.1264 16.0583C66.4573 16.1315 65.7944 16.1226 65.1256 16.1136C64.7073 16.1079 64.2868 16.1022 63.8609 16.1166L65.4633 12.4239C65.4751 12.4438 65.4875 12.4632 65.4999 12.4825C65.5223 12.5174 65.5445 12.5521 65.5628 12.5897L66.3237 14.2574C66.4826 14.6057 66.6396 14.9548 66.7966 15.3038L66.7982 15.3075C66.8912 15.5143 66.9842 15.721 67.0775 15.9274C67.0891 15.9537 67.0984 15.9799 67.1103 16.0134ZM76.6925 19.6048C76.6814 18.9105 76.6702 18.2169 76.7508 17.5181C76.8432 17.5181 76.9167 17.5181 76.9902 17.5321C77.9692 17.607 78.9537 17.5646 79.9224 17.4059C80.7011 17.2878 81.4481 17.0178 82.1197 16.6118C82.5223 16.3712 82.8692 16.05 83.1379 15.669C83.4065 15.288 83.591 14.8556 83.6794 14.3999C83.8332 13.6668 83.8218 12.9093 83.6462 12.181C83.5555 11.7883 83.3859 11.4175 83.1473 11.0906C82.9087 10.7636 82.6061 10.4871 82.2572 10.2774C81.855 10.0269 81.4184 9.83496 80.9606 9.70744C80.0538 9.47027 79.1206 9.34474 78.1825 9.33373C77.6719 9.32438 77.1613 9.3275 76.6514 9.33062H76.6514H76.6513H76.6512H76.6512H76.6511H76.651H76.6509H76.6509H76.6508H76.6507H76.6507H76.6506H76.6505H76.6505H76.6504H76.6503H76.6503H76.6502C76.3959 9.33217 76.1418 9.33373 75.888 9.33373C75.5144 9.33683 75.1409 9.3482 74.7666 9.35959C74.578 9.36533 74.3893 9.37107 74.2003 9.37577C73.9964 9.38278 73.9632 9.41548 73.9632 9.63036V9.69343V13.6174C73.9775 15.9889 73.9925 18.3612 74.0083 20.7343C74.0094 20.7686 74.013 20.8029 74.0165 20.837C74.0207 20.8772 74.0249 20.917 74.0249 20.9562H76.6892C76.7069 20.5057 76.6997 20.0569 76.6925 19.6084V19.6082V19.608V19.6078V19.6076V19.6074V19.6072V19.607V19.6068V19.6066V19.6064V19.6062V19.606V19.6058V19.6056V19.6054V19.6052V19.605V19.6048ZM76.7532 15.208C76.7368 15.202 76.7216 15.1933 76.7081 15.1823V11.6998C76.7536 11.6911 76.7995 11.6848 76.8456 11.6811H78.6827C79.0795 11.6799 79.4746 11.7342 79.856 11.8423C80.2593 11.9613 80.6042 12.2221 80.8253 12.5752C81.0464 12.9282 81.1283 13.349 81.0554 13.7576C80.9914 14.0891 80.8047 14.3855 80.5315 14.5891C80.1535 14.8763 79.7128 15.073 79.2444 15.1637C78.425 15.3395 77.5785 15.3546 76.7532 15.208ZM88.5102 17.5181V19.2466C88.5314 19.8194 88.5124 20.393 88.4534 20.9633H85.7891V9.4062C85.8398 9.39505 85.8913 9.38802 85.9431 9.38518C86.4795 9.38518 87.0164 9.37749 87.5536 9.3698C88.163 9.36107 88.7728 9.35233 89.3825 9.35482C90.2913 9.34075 91.1996 9.40641 92.0966 9.55102C92.5086 9.62124 92.9127 9.73075 93.3031 9.87802C93.7689 10.0451 94.1893 10.3155 94.5321 10.6683C94.8749 11.021 95.1308 11.4467 95.28 11.9124C95.6458 12.9434 95.6128 14.0711 95.1876 15.0796C94.7893 16.056 94.0356 16.6703 93.0542 17.0486C92.5144 17.2491 91.9502 17.3787 91.376 17.434C90.5003 17.5208 89.6195 17.5458 88.7402 17.5088L88.5102 17.5181ZM88.5576 15.2268C88.5768 15.2384 88.5975 15.247 88.6193 15.2525C88.988 15.2525 89.3583 15.2405 89.7277 15.2285L89.7278 15.2285L89.8936 15.2231L90.0012 15.2198C90.3402 15.2198 90.6791 15.2034 91.0157 15.1801C91.2098 15.1652 91.4019 15.1315 91.5894 15.0796C91.9171 15.003 92.2119 14.8261 92.4316 14.5744C92.6513 14.3227 92.7846 14.0091 92.8125 13.6782C92.8803 13.2711 92.7912 12.8537 92.5627 12.508C92.3342 12.1622 91.9828 11.9132 91.5775 11.8096C91.2211 11.7219 90.8543 11.6826 90.4871 11.6929H88.6288C88.589 11.6949 88.5494 11.6996 88.5102 11.7069C88.5218 12.1497 88.5143 12.5918 88.5069 13.0328C88.4945 13.7665 88.4821 14.497 88.5576 15.2221V15.2268ZM15.0316 12.2805C15.6105 14.1867 16.1866 16.0836 16.7664 17.9969C16.8226 17.9965 16.8789 17.9926 16.9347 17.9852C17.3591 17.8912 17.7842 17.7994 18.2092 17.7077C19.0089 17.535 19.8084 17.3623 20.604 17.1747C21.631 16.9406 22.5672 16.4182 23.2991 15.6705C23.595 15.3916 23.8236 15.0508 23.968 14.6733C24.1124 14.2957 24.169 13.891 24.1335 13.489C24.0593 12.6684 23.7166 11.8937 23.1569 11.2817C22.8586 10.9508 22.4872 10.6919 22.0712 10.525C21.355 10.2513 20.5777 10.1706 19.8194 10.2914C19.0899 10.3826 18.3688 10.5294 17.6624 10.7305C16.7906 10.9812 15.9143 11.2096 15.0401 11.4375L14.9744 11.4546L14.7942 11.499L15.0316 12.2805ZM97.5389 20.9749V9.67941V9.57197C97.5389 9.42015 97.5768 9.39212 97.7356 9.38512H100.272V18.6649C101.111 18.6838 101.947 18.6774 102.782 18.6711C104.008 18.6617 105.232 18.6524 106.459 18.7233V20.9189C104.616 20.9927 102.781 20.9831 100.939 20.9734C99.8086 20.9675 98.6763 20.9616 97.5389 20.9749ZM3.94434 9.59841L3.94437 9.59833C4.00612 9.41402 4.06791 9.22961 4.12762 9.04417H4.04466C3.99584 9.14504 3.94283 9.24797 3.88911 9.35229L3.88911 9.3523C3.86198 9.40498 3.83467 9.45801 3.80762 9.51131C2.35279 12.3187 1.8795 15.5209 2.46125 18.6206C2.77262 20.2183 3.29041 21.7702 4.00199 23.2383C4.82288 24.9774 5.9957 26.5328 7.4485 27.8093C9.0557 29.1914 10.9328 30.235 12.9643 30.876C15.0843 31.5739 17.28 31.8473 19.4995 31.9736V31.9738C19.6567 32.0183 19.8248 32.0058 19.9735 31.9388L19.5042 31.8971V31.8968C18.4232 31.7708 17.3545 31.5575 16.3089 31.2591C11.6346 29.9231 7.98421 27.2253 5.42421 23.1495C3.68333 20.4122 2.86529 17.2026 3.08703 13.9795C3.15319 12.8025 3.34304 11.6354 3.65355 10.497C3.74441 10.1952 3.84433 9.89694 3.94434 9.59841ZM5.47869 4.01302C4.22718 5.61222 3.21573 7.38057 2.47544 9.2637C1.91447 10.7187 1.53557 12.2356 1.34714 13.781C1.21927 14.8247 1.18358 15.8774 1.24048 16.9272C1.32184 18.3738 1.58865 19.8045 2.03455 21.1852C2.53587 22.713 3.1968 24.1853 4.0067 25.5786L4.14655 25.8309L4.09914 25.8613C4.04936 25.8075 3.99958 25.7538 3.95218 25.6954C2.66656 24.1122 1.66087 22.3269 0.977366 20.4144C0.557597 19.287 0.268938 18.1163 0.116923 16.9248C-0.264737 14.0672 0.293555 11.1643 1.70981 8.6424C2.48911 7.26456 3.44511 5.99126 4.55425 4.85388C4.76099 4.63884 4.97228 4.4294 5.18339 4.22013L5.18342 4.2201L5.18351 4.22001L5.1836 4.21991L5.1837 4.21982L5.18379 4.21973L5.18389 4.21963L5.18398 4.21954L5.18408 4.21944L5.18417 4.21935L5.18427 4.21925L5.18436 4.21916L5.18445 4.21907L5.18455 4.21897L5.18464 4.21888C5.27809 4.12625 5.37151 4.03365 5.46447 3.94061L5.47869 4.013L5.47869 4.01302ZM5.47869 4.013V3.93358L5.6541 3.79578L5.47869 4.013ZM37.7323 19.09C37.485 20.5841 37.0337 22.0385 36.3907 23.4134L36.495 23.404C37.8714 21.4965 38.7402 19.2792 39.0218 16.9551C39.146 15.9091 39.1228 14.8511 38.953 13.8113C38.6898 12.26 38.1497 10.767 37.3578 9.40145C36.6251 8.13328 35.7243 6.96686 34.6793 5.93292C34.4129 5.66831 34.1368 5.4133 33.8597 5.15744L33.7738 5.07805C33.748 5.04096 33.712 5.01198 33.6699 4.99458C33.6279 4.97718 33.5817 4.9721 33.5368 4.97995C33.6197 5.09206 33.6956 5.18315 33.7738 5.27191C35.0392 6.69735 36.0636 8.31407 36.8079 10.0601C37.5558 11.8268 37.9579 13.7169 37.993 15.6308C38.0166 16.7894 37.9293 17.9475 37.7323 19.09ZM33.1965 4.60979L33.1907 4.6063L33.1931 4.60396L33.1965 4.60979ZM33.615 4.94965C33.492 4.8179 33.3512 4.70354 33.1965 4.60979C33.3304 4.83712 33.4599 4.94965 33.615 4.94965ZM4.12764 9.0441H4.05415L4.2509 8.64236L4.28408 8.65637L4.12764 9.0441ZM36.3906 23.4134H36.464L36.3834 23.5466L36.3455 23.5326L36.3906 23.4134ZM33.1266 4.55489L33.1362 4.56206L33.1338 4.56445L33.1266 4.55489ZM58.295 23.0233H58.316V23.049L58.295 23.0233ZM4.16193 25.9155L4.1744 25.9249L4.18693 25.9103V25.9266L4.17668 25.9266L4.17201 25.943L4.16193 25.9155ZM4.16193 25.9155L4.13938 25.8986H4.1557L4.16193 25.9155ZM4.18693 25.9266H4.20324L4.18693 25.943V25.9266ZM5.65349 3.78652L5.64702 3.79578L5.64935 3.78644C5.65089 3.78644 5.65227 3.78647 5.65349 3.78652ZM5.65349 3.78652C5.6578 3.78669 5.66022 3.78709 5.66158 3.78732C5.66333 3.78761 5.66333 3.78761 5.66333 3.78644V3.77243L5.65349 3.78652Z"
         />
</svg>
