<svg width="120" height="120" viewBox="0 0 120 120" fill="none" xmlns="http://www.w3.org/2000/svg">
  <path
    d="M60 10L20 25V55.45C20 80.7 37.05 104.25 60 110C82.95 104.25 100 80.7 100 55.45V25L60 10ZM90 55.45C90 75.45 77.25 93.95 60 99.6C42.75 93.95 30 75.5 30 55.45V31.95L60 20.7L90 31.95V55.45Z"
    fill="url(#paint0_linear_16635_78545)" />
  <path d="M65 70H55V80H65V70Z" fill="url(#orgs_settings_security_two_factor_confirm_one)" />
  <path d="M65 35H55V60H65V35Z" fill="url(#orgs_settings_security_two_factor_confirm_two)" />
  <defs>
    <linearGradient id="paint0_linear_16635_78545" x1="60.0005" y1="9.37504" x2="3.11848" y2="100.386"
                    gradientUnits="userSpaceOnUse">
      <stop stop-color="#233F7B" />
      <stop offset="1" stop-color="#598EFF" />
    </linearGradient>
    <linearGradient id="orgs_settings_security_two_factor_confirm_one" x1="60.0005" y1="9.37504" x2="3.11848" y2="100.386"
                    gradientUnits="userSpaceOnUse">
      <stop stop-color="#233F7B" />
      <stop offset="1" stop-color="#598EFF" />
    </linearGradient>
    <linearGradient id="orgs_settings_security_two_factor_confirm_two" x1="60.0005" y1="9.37504" x2="3.11848" y2="100.386"
                    gradientUnits="userSpaceOnUse">
      <stop stop-color="#233F7B" />
      <stop offset="1" stop-color="#598EFF" />
    </linearGradient>
  </defs>
</svg>
