<svg width="118" height="10" viewBox="0 0 118 10" fill="currentColor" xmlns="http://www.w3.org/2000/svg">
  <path fill-rule="evenodd" clip-rule="evenodd"
        d="M7.20325 2.5551L7.20331 2.55505L7.20354 2.55486L7.20386 2.55461C7.36273 2.42489 7.5218 2.29501 7.68154 2.16379C6.77695 0.988363 4.84859 0.614608 3.13148 1.27003C1.3548 1.95254 0.363532 3.60465 0.515201 5.64134C0.661453 7.62928 1.89105 9.04305 3.85191 9.47639C5.47693 9.83931 7.25362 9.2543 7.87654 8.14387L6.41403 7.05511L6.39286 7.07307L6.39285 7.07307C6.36754 7.09443 6.35114 7.10826 6.33819 7.12553C5.52568 8.23054 3.88983 8.10596 3.08815 7.21219C2.47064 6.51885 2.30272 5.70092 2.40023 4.818C2.53023 3.64798 3.31565 2.81922 4.44775 2.64588C5.16818 2.53755 5.80193 2.73797 6.32194 3.27964C6.617 3.03376 6.90979 2.7947 7.20325 2.5551ZM63.8347 1.12052H65.5464V9.45146C65.4112 9.45146 65.2757 9.45213 65.14 9.45281C64.7317 9.45484 64.3211 9.45688 63.9106 9.44062C63.8347 9.44062 63.7426 9.32146 63.6885 9.23479C62.4914 7.4256 61.2943 5.61099 60.1026 3.79639C60.0485 3.71514 59.9943 3.63389 59.8914 3.48763V9.43521H58.1797V1.10427C58.3156 1.10427 58.4509 1.10359 58.5856 1.10291C58.9878 1.10088 59.3854 1.09887 59.783 1.1151C59.8589 1.1151 59.951 1.23427 60.0051 1.31552C61.213 3.0868 62.421 4.85807 63.6289 6.63476C63.6558 6.67354 63.6842 6.71233 63.7207 6.76198L63.7211 6.76246C63.7507 6.80284 63.7857 6.85042 63.8293 6.91101C63.8347 4.93932 63.8347 3.04346 63.8347 1.12052ZM116.977 9.39428L116.977 9.39428C116.629 9.39669 116.281 9.39909 115.931 9.39187C115.844 9.39187 115.72 9.30521 115.682 9.22395C115.514 8.86645 115.368 8.49811 115.227 8.12436C115.173 7.98352 115.102 7.91311 114.934 7.91852C114.542 7.92394 114.149 7.92394 113.756 7.92394C113.363 7.92394 112.971 7.92394 112.578 7.92936C112.491 7.92936 112.367 8.01602 112.329 8.09727C112.245 8.28144 112.17 8.46968 112.096 8.65791C112.021 8.84614 111.947 9.03437 111.863 9.21854C111.83 9.29437 111.722 9.38646 111.646 9.39187C111.297 9.4034 110.944 9.4013 110.576 9.39911C110.425 9.3982 110.271 9.39729 110.113 9.39729L110.125 9.36767L110.125 9.36706L110.125 9.36684C110.163 9.26774 110.193 9.18897 110.227 9.1102C110.541 8.38322 110.855 7.65685 111.169 6.93047L111.169 6.92879L111.172 6.92378C111.799 5.47125 112.427 4.01871 113.055 2.56137C113.12 2.40429 113.201 2.33929 113.374 2.35012C113.49 2.35736 113.615 2.34889 113.739 2.34045C113.987 2.32361 114.234 2.30689 114.403 2.41512C114.574 2.52345 114.658 2.77547 114.742 3.02513L114.742 3.02523L114.742 3.02531C114.776 3.12513 114.809 3.22458 114.848 3.3143C115.693 5.24266 116.532 7.17643 117.372 9.1102C117.393 9.16438 117.425 9.21373 117.456 9.26309C117.472 9.28776 117.487 9.31243 117.502 9.33771V9.39187C117.326 9.39187 117.152 9.39308 116.977 9.39428ZM114.609 6.60226C114.317 5.86016 114.04 5.16682 113.737 4.40848C113.554 4.87749 113.381 5.32403 113.21 5.76692L113.207 5.77565L113.205 5.77946L113.203 5.78519C113.098 6.05737 112.993 6.32827 112.887 6.60226H114.609ZM81.6167 6.00005C81.534 6.32185 81.4514 6.64319 81.3699 6.96453C81.3558 6.96453 81.3378 6.96857 81.3366 6.97316L81.317 6.91827L81.317 6.91812C81.2915 6.84674 81.2667 6.77733 81.2453 6.70453L81.0039 5.942L81.0036 5.94089L81.0031 5.9395L81.0026 5.93774L81.0019 5.93548L81.0017 5.93502C80.6484 4.81942 80.2942 3.70091 79.9507 2.5824C79.8911 2.40364 79.8153 2.33864 79.6311 2.34948C79.3061 2.36573 78.9811 2.36573 78.6561 2.34948C78.4611 2.33864 78.3907 2.41448 78.3365 2.58781C78.1361 3.2324 77.9248 3.877 77.7136 4.51617L77.5347 5.06487C77.3387 5.66622 77.1398 6.27669 76.9282 6.91578C76.9123 6.86356 76.8983 6.82181 76.8862 6.78574C76.8694 6.73576 76.8564 6.69668 76.8469 6.65578L76.6757 5.97337L76.6754 5.97212L76.6753 5.97165L76.6753 5.97153L76.6752 5.97145L76.6752 5.97132L76.6752 5.97124L76.6752 5.97111C76.391 4.83834 76.1063 3.70307 75.8177 2.57156C75.7961 2.4849 75.704 2.36031 75.639 2.36031C75.2273 2.34731 74.819 2.34818 74.4115 2.34904C74.3096 2.34926 74.2079 2.34948 74.1061 2.34948C74.1037 2.37094 74.1002 2.38611 74.0976 2.39774C74.0943 2.41254 74.0922 2.42163 74.0952 2.43073C74.7669 4.71659 75.444 7.00245 76.1319 9.28831C76.1536 9.35873 76.2727 9.43998 76.354 9.4454C76.5085 9.45353 76.6629 9.45217 76.8167 9.45081C76.9703 9.44946 77.1233 9.44811 77.2748 9.45623C77.459 9.46706 77.5403 9.40748 77.5944 9.22873C77.8761 8.30788 78.1686 7.38704 78.4611 6.47161C78.6615 5.83785 78.8619 5.20951 79.084 4.51617L79.124 4.62452C79.1618 4.72657 79.1894 4.80128 79.214 4.87909C79.4415 5.59951 79.6704 6.31993 79.8992 7.04035C80.1281 7.76078 80.3569 8.48121 80.5844 9.20164C80.6332 9.35873 80.6765 9.47248 80.8878 9.45623C81.2019 9.43456 81.5215 9.43998 81.8357 9.45623C82.0145 9.46706 82.0794 9.39123 82.1282 9.22873C82.6489 7.42383 83.1732 5.62253 83.6982 3.81897L83.7005 3.81118L84.0565 2.58781C84.0728 2.52281 84.089 2.45239 84.1107 2.34948C83.9793 2.34948 83.8497 2.35038 83.7215 2.35127C83.4058 2.35348 83.0988 2.35562 82.7945 2.34406C82.6049 2.33864 82.529 2.40364 82.4857 2.5824C82.3069 3.31907 82.1174 4.05033 81.9278 4.78159C81.8251 5.18911 81.7208 5.59495 81.6167 6.00005ZM81.3374 6.97537L81.3366 6.97316C81.3364 6.97388 81.3366 6.97463 81.3374 6.97537ZM99.7835 9.27133C99.6568 9.27133 99.5314 9.27155 99.4071 9.27177H99.4069C98.9148 9.27263 98.4391 9.27347 97.9635 9.2605C97.8822 9.2605 97.7631 9.15758 97.7251 9.07633C97.5247 8.63216 97.346 8.18257 97.1672 7.72756C97.113 7.58673 97.0372 7.54339 96.8909 7.54339C95.9701 7.54881 95.0492 7.54881 94.1284 7.54339C93.9767 7.54339 93.9063 7.59756 93.8521 7.73298C93.6788 8.18798 93.5 8.64299 93.3158 9.08716C93.2833 9.163 93.1913 9.25508 93.1208 9.2605C92.6758 9.26859 92.2338 9.26762 91.7745 9.2666H91.774H91.7734H91.7728H91.7723H91.7717H91.7711C91.6165 9.26626 91.46 9.26591 91.3008 9.26591L91.316 9.22392C91.352 9.1246 91.3812 9.0442 91.4145 8.96799L92.1697 7.21778L92.1711 7.21447L92.1714 7.21377C93.0077 5.27604 93.8432 3.34002 94.6755 1.40081C94.7675 1.18956 94.8759 1.11914 95.098 1.12997C95.2605 1.1381 95.423 1.13674 95.5855 1.13539C95.748 1.13404 95.9105 1.13268 96.073 1.14081C96.1651 1.14622 96.3005 1.22206 96.333 1.29789C97.476 3.90334 98.6081 6.51421 99.7402 9.12508C99.7494 9.14957 99.7551 9.1706 99.7623 9.19698L99.7624 9.19743L99.7624 9.19759C99.7679 9.21774 99.7742 9.24102 99.7835 9.27133ZM96.4847 6.0267C96.3199 5.61219 96.1591 5.20549 95.9971 4.79574L95.9951 4.79073C95.8274 4.36684 95.6585 3.93963 95.4826 3.49709C95.3466 3.84681 95.214 4.18621 95.0832 4.52112L95.0767 4.53757L95.071 4.55228L95.0652 4.56722L95.0648 4.56822L95.0627 4.57343C94.8723 5.06074 94.6854 5.53916 94.4967 6.0267H96.4847ZM14.0302 9.47003V6.40958H10.7693V9.47545H9.11719V2.36328H10.7639V4.9904H14.0139V2.36328H15.6714V9.47003H14.0302ZM25.2577 2.36071C25.1498 2.36139 25.0406 2.36208 24.9297 2.36208C24.9297 4.74003 24.9297 7.08547 24.9405 9.44175H26.3868V4.39877C26.4721 4.52487 26.532 4.61542 26.5856 4.69649L26.5858 4.69674L26.5858 4.6968C26.6105 4.73403 26.6338 4.76926 26.6576 4.80503C27.6326 6.28921 28.6077 7.76798 29.5881 9.25217L29.5897 9.25461C29.6385 9.33053 29.7134 9.44717 29.7831 9.44717C30.128 9.4634 30.476 9.46139 30.827 9.45936H30.827H30.827H30.8271H30.8271H30.8271H30.8271H30.8271H30.8272C30.9446 9.45868 31.0625 9.458 31.1806 9.458V2.38917H29.7181V7.29673C29.6611 7.21441 29.6189 7.1543 29.584 7.1045L29.5837 7.10411L29.5834 7.10375L29.5829 7.10299L29.5819 7.10157C29.5579 7.06742 29.5374 7.03809 29.5177 7.00964L29.101 6.39906L29.1007 6.39866L29.1002 6.39779L29.0996 6.39691L29.0989 6.39601C28.2267 5.11766 27.3568 3.84279 26.4789 2.56792C26.4139 2.47583 26.2947 2.37833 26.1972 2.37292C25.8855 2.35673 25.5769 2.35868 25.2577 2.36071ZM37.893 7.19292V2.37203H39.3176V9.4517C39.2036 9.4517 39.0899 9.45238 38.9765 9.45306C38.6373 9.45509 38.3003 9.45711 37.9634 9.44087C37.8876 9.43545 37.7955 9.32712 37.7413 9.24045C36.7406 7.72582 35.7398 6.2058 34.7391 4.68576L34.7387 4.6851L34.7381 4.68423L34.735 4.67956L34.7184 4.65596C34.6701 4.5872 34.6204 4.51633 34.5184 4.46289V9.43004H33.0938V2.35036C33.2063 2.35036 33.3185 2.34969 33.4306 2.34901C33.7661 2.34698 34.1001 2.34496 34.4371 2.3612C34.5075 2.36661 34.5888 2.47495 34.6429 2.55078C35.0166 3.09816 35.3895 3.64553 35.7622 4.19263L35.7623 4.19274L35.7627 4.19323L35.7631 4.19384C36.3896 5.11352 37.0157 6.03241 37.6438 6.94917C37.6736 6.9925 37.7047 7.03448 37.7359 7.07646C37.767 7.11844 37.7982 7.16042 37.828 7.20376C37.839 7.20744 37.8526 7.20362 37.8686 7.19909C37.8762 7.19695 37.8843 7.19466 37.893 7.19292ZM72.4174 6.55859V5.10149C71.2094 5.10149 70.0232 5.10149 68.8315 5.09608V3.75273H72.6015V2.32812H67.3906V9.44571H72.8019V8.01028H68.8369V6.55859H72.4174ZM46.4375 3.76445H42.6566V5.11321H46.2316V6.5649H42.6403C42.6403 6.65678 42.6401 6.7478 42.6399 6.83813L42.6399 6.84072V6.84099C42.639 7.20229 42.6382 7.55256 42.6512 7.90283C42.6512 7.94617 42.8082 8.01658 42.8949 8.01658C44.0162 8.022 45.132 8.022 46.2533 8.022H46.6216V9.45202H41.2266V2.33984H46.4429C46.4375 2.80568 46.4375 3.26069 46.4375 3.76445ZM86.0896 7.13545H84.6216C84.535 8.04547 85.1308 8.95006 86.0246 9.33465C86.745 9.63799 87.4979 9.66507 88.2563 9.59465C88.9225 9.52965 89.5292 9.29132 90.0113 8.78756C90.7751 7.9913 90.7317 6.58836 89.8651 5.92211C89.513 5.65127 89.058 5.49418 88.63 5.34793C88.2789 5.22662 87.9202 5.12977 87.5617 5.03298C87.312 4.96554 87.0623 4.89813 86.8154 4.82251C86.5283 4.73584 86.3225 4.55709 86.3279 4.22125C86.3333 3.90166 86.5067 3.65249 86.8262 3.51708C87.7092 3.14874 88.565 3.54958 88.8413 4.47584H90.1034C90.163 4.47584 90.2226 4.47042 90.2821 4.465C90.3471 3.80958 90.0113 3.06749 89.4263 2.72623C88.2184 2.01664 86.9725 1.97331 85.7537 2.6829C85.0441 3.09999 84.7571 3.77166 84.8437 4.59501C84.9196 5.32085 85.3421 5.78669 85.9921 6.03586C86.2973 6.1511 86.6115 6.23949 86.9254 6.32778C87.1574 6.39303 87.3892 6.45823 87.6171 6.5342L87.7213 6.56777C88.0733 6.68093 88.4328 6.79648 88.7384 6.98379C89.1934 7.26546 89.1446 7.93713 88.6734 8.19713C88.0938 8.51672 87.4763 8.51131 86.8696 8.28922C86.3442 8.09963 86.1167 7.67171 86.0896 7.13545ZM104.482 4.45196C104.352 3.76404 104.065 3.48237 103.371 3.43903C103.073 3.41737 102.759 3.4607 102.472 3.54195C102.158 3.62862 102.006 3.88862 102.001 4.22446C101.995 4.55488 102.185 4.72822 102.461 4.80947C103.073 4.99364 103.685 5.16697 104.303 5.34031C104.785 5.47573 105.251 5.63281 105.625 5.9849C106.394 6.71074 106.41 8.02701 105.679 8.78535C105.197 9.28369 104.59 9.52744 103.924 9.58703C103.165 9.65744 102.412 9.63036 101.692 9.32161C100.793 8.93702 100.24 8.11367 100.284 7.10616H100.993H101.708C101.71 7.10926 101.712 7.11217 101.714 7.1149C101.716 7.11753 101.718 7.12 101.72 7.12232C101.725 7.12915 101.73 7.13477 101.734 7.13972C101.742 7.14969 101.749 7.15692 101.752 7.16575C101.947 8.15159 102.662 8.59576 103.75 8.38451C103.962 8.34659 104.173 8.27618 104.357 8.17326C104.828 7.90242 104.866 7.24158 104.406 6.95991C104.112 6.78247 103.773 6.67346 103.442 6.56695L103.35 6.53713L103.285 6.51574C103.057 6.43977 102.825 6.37457 102.593 6.30931C102.279 6.22102 101.965 6.13264 101.659 6.0174C100.137 5.43781 100.197 3.50403 101.334 2.71319C102.364 1.99818 104.189 2.00902 105.191 2.76736C105.738 3.17903 105.96 3.74237 105.982 4.43571C105.467 4.45196 104.969 4.45196 104.482 4.45196ZM23.4921 9.39911H23.4922H23.4922C23.6306 9.39876 23.7709 9.39842 23.9136 9.39842C23.8649 9.26842 23.8324 9.18717 23.7945 9.10591C23.6484 8.76779 23.501 8.42966 23.3536 8.09153L23.353 8.09026C23.2054 7.75172 23.0578 7.41318 22.9115 7.07464C22.693 6.57445 22.4751 6.07425 22.2573 5.57406C21.8215 4.57382 21.3858 3.57358 20.9453 2.57334C20.9073 2.48667 20.799 2.37833 20.7178 2.37292C20.4378 2.35669 20.1548 2.35869 19.8687 2.36072C19.7729 2.3614 19.6767 2.36208 19.5802 2.36208C19.1186 3.43438 18.6569 4.50441 18.1941 5.57685L18.194 5.57721L18.1936 5.57805C17.6467 6.84555 17.0984 8.11642 16.5469 9.39842C16.7133 9.39842 16.8742 9.39935 17.0311 9.40025H17.0312H17.0313C17.4106 9.40244 17.7668 9.40449 18.1231 9.393C18.1936 9.393 18.2856 9.2955 18.3181 9.22508C18.3867 9.06199 18.4511 8.89683 18.5155 8.73185L18.5155 8.73177L18.5155 8.73168C18.5986 8.51866 18.6816 8.30595 18.7732 8.0984C18.8111 8.02257 18.9357 7.93048 19.0223 7.93048C19.8132 7.91965 20.6094 7.91965 21.4003 7.93048C21.4869 7.93048 21.6115 8.01715 21.6494 8.0984C21.7397 8.29631 21.8205 8.49891 21.9012 8.70116L21.9012 8.70118C21.9707 8.87534 22.0401 9.04924 22.1153 9.21967C22.1478 9.2955 22.2399 9.393 22.3049 9.393C22.6931 9.40109 23.0843 9.40012 23.4921 9.39911ZM19.4887 6.17673L19.489 6.17573L19.4899 6.17346C19.7126 5.6011 19.9364 5.02563 20.1815 4.40419C20.3208 4.75502 20.4533 5.09098 20.5837 5.42154L20.5837 5.42161C20.7371 5.81067 20.8876 6.19223 21.0428 6.58172H19.3311L19.4887 6.17673ZM53.7619 7.9847V9.4418H48.4102V2.32422H49.8727V7.9847H53.7619ZM107.586 9.55962H108.935V2.42578H107.586V9.55962Z"
  />
</svg>
