<svg width="24" height="24" viewBox="0 0 24 24" fill="currentColor" xmlns="http://www.w3.org/2000/svg">
<g id="time_alarm_off">
<path id="Vector" d="M11.9999 6.00011C15.8699 6.00011 18.9999 9.13011 18.9999 13.0001C18.9999 13.8401 18.8399 14.6501 18.5699 15.4001L20.0899 16.9201C20.6699 15.7301 20.9999 14.4101 20.9999 13.0001C20.9999 8.03011 16.9699 4.00011 11.9999 4.00011C10.5899 4.00011 9.2699 4.33011 8.0799 4.91011L9.5999 6.43011C10.3499 6.16011 11.1599 6.00011 11.9999 6.00011ZM21.9999 5.72011L17.3999 1.86011L16.1099 3.39011L20.7099 7.25011L21.9999 5.72011ZM2.9199 2.29011L1.6499 3.57011L2.9799 4.90011L1.8699 5.83011L3.2899 7.25011L4.3999 6.31011L5.1999 7.11011C3.8299 8.69011 2.9999 10.7501 2.9999 13.0001C2.9999 17.9701 7.0199 22.0001 11.9999 22.0001C14.2499 22.0001 16.3099 21.1701 17.8899 19.8001L20.0899 22.0001L21.3599 20.7301L3.8899 3.27011L2.9199 2.29011ZM16.4699 18.3901C15.2599 19.3901 13.6999 20.0001 11.9999 20.0001C8.1299 20.0001 4.9999 16.8701 4.9999 13.0001C4.9999 11.3001 5.6099 9.74011 6.6099 8.53011L16.4699 18.3901ZM8.0199 3.28011L6.5999 1.86011L5.7399 2.57011L7.1599 3.99011L8.0199 3.28011Z" />
</g>
</svg>
